<svg id="Layer_3" enable-background="new 0 0 64 64" height="256" viewBox="0 0 64 64" width="256" xmlns="http://www.w3.org/2000/svg"><g><g><path d="m21 25v-3h-3c-1.657 0-3 1.343-3 3v4c0 1.657 1.343 3 3 3h5.515c-1.571-1.902-2.515-4.341-2.515-7z" fill="#8892a0"/></g><g><path d="m46 22h-3v3c0 2.659-.944 5.098-2.515 7h5.515c1.657 0 3-1.343 3-3v-4c0-1.657-1.343-3-3-3z" fill="#8892a0"/></g><g><path d="m32 36c-6.075 0-11-4.925-11-11v-5h8c2.482 0 4.781-1.302 6.058-3.43l.942-1.57.942 1.57c1.277 2.128 3.576 3.43 6.058 3.43v5c0 6.075-4.925 11-11 11z" fill="#fadfb2"/></g><g><path d="m37 19c0-.98-.11-1.935-.315-2.858l-.685-1.142-.942 1.57c-1.277 2.128-3.576 3.43-6.058 3.43h-8v5c0 3.061 1.253 5.829 3.271 7.823 7.204-1.024 12.729-6.813 12.729-13.823z" fill="#fcecd1"/></g><g><path d="m36 36h-8c-8.284 0-15 6.716-15 15v4h8v7h22v-7h8v-4c0-8.284-6.716-15-15-15z" fill="#96cc7f"/></g><g><path d="m28 36c-8.284 0-15 6.716-15 15v4h8v3.965c.331.022.664.035 1 .035 9.941 0 18-9.85 18-22 0-.15-.007-.297-.009-.446-1.273-.351-2.607-.554-3.991-.554z" fill="#c0e0b2"/></g><g><path d="m13 51h8v4h-8z" fill="#8892a0"/></g><g><path d="m43 51h8v4h-8z" fill="#8892a0"/></g><g><path d="m36 36h-8c-1.022 0-2.02.104-2.985.299.158 3.726 3.22 6.701 6.985 6.701s6.827-2.975 6.985-6.701c-.965-.195-1.963-.299-2.985-.299z" fill="#8892a0"/></g><g><path d="m28 36c0 2.209 1.791 4 4 4 2.209 0 4-1.791 4-4z" fill="#fadfb2"/></g><g><path d="m15 55h6v7h-6z" fill="#fadfb2"/></g><g><path d="m43 55h6v7h-6z" fill="#fadfb2"/></g><g><path d="m37 8h-10c-4.418 0-8 3.582-8 8v6h2v-2h8c2.482 0 4.781-1.302 6.058-3.43l.942-1.57.942 1.57c1.277 2.128 3.576 3.43 6.058 3.43v2h2v-6c0-4.418-3.582-8-8-8z" fill="#815643"/></g><g><path d="m34 1h-4c-8.822 0-16 7.178-16 16v12c0 2.206 1.794 4 4 4h6.466c-.635-.598-1.2-1.267-1.679-2h-4.787c-1.103 0-2-.897-2-2v-12c0-7.72 6.28-14 14-14h4c7.72 0 14 6.28 14 14v12c0 1.103-.897 2-2 2h-4.787c-.479.733-1.044 1.402-1.679 2h6.466c2.206 0 4-1.794 4-4v-12c0-8.822-7.178-16-16-16z" fill="#444950"/></g></g></svg>