<svg xmlns="http://www.w3.org/2000/svg" viewBox="0 0 354.78 338.22"><defs><style>.cls-1{fill:#bc8856;}.cls-2{fill:#ce9c6a;}.cls-3{fill:#efcd9d;}.cls-4{fill:#d7a874;}.cls-5{fill:#bd8963;}.cls-6{fill:#ebbf88;}.cls-7{fill:#c69664;}.cls-8{fill:#bb8760;}.cls-9{fill:#ebc089;}.cls-10{font-size:29px;fill:gray;font-family:ComicSansMS, Comic Sans MS;}</style></defs><title>Recurso1 3</title><g id="Capa_2" data-name="Capa 2"><g id="Layer_1" data-name="Layer 1"><polygon class="cls-1" points="42.59 71.6 180.79 55.21 180.79 192.93 43.59 230.79 42.59 71.6"/><polygon class="cls-2" points="180.79 55.21 296.79 75.57 296.79 233.4 180.79 192.93 180.79 55.21"/><polygon class="cls-3" points="180.79 55.21 147.23 0 7.83 13.71 42.59 71.6 180.79 55.21"/><polygon class="cls-3" points="180.79 55.21 214.97 0 339.88 15.66 296.79 75.57 180.79 55.21"/><polygon class="cls-4" points="158.68 94.52 42.59 71.6 42.31 230.79 158.86 267.09 158.68 94.52"/><polygon class="cls-5" points="122.56 161.72 158.68 94.52 18.88 124.5 122.56 161.72"/><polygon class="cls-6" points="158.68 94.52 120.99 151.93 0 119.43 42.59 71.6 158.68 94.52"/><polygon class="cls-7" points="158.68 94.52 296.79 75.57 296.79 234.71 158.86 267.09 158.68 94.52"/><polygon class="cls-8" points="296.79 138.88 193.38 161.72 158.68 94.52 296.79 127.09 296.79 138.88"/><polygon class="cls-9" points="296.79 75.57 353.58 117.86 197.35 151.93 158.68 94.52 296.79 75.57"/><text/><text/><text class="cls-10" transform="translate(10.74 329.17)">LA CAJA ESTA VACIA :(</text></g></g></svg>