<svg xmlns="http://www.w3.org/2000/svg" xmlns:xlink="http://www.w3.org/1999/xlink" viewBox="0 0 382.28 371.49"><defs><style>.cls-1{isolation:isolate;}.cls-2{fill:#c8c7d1;mix-blend-mode:multiply;}.cls-3{fill:#8b8c86;}.cls-4{fill:#b5b6b2;}.cls-5{fill:#474745;}.cls-6{fill:#3b3b38;}.cls-7{fill:#40403d;}.cls-8{fill:#d5d6d3;}.cls-9{fill:#b9bab5;}.cls-10{fill:#979a8b;}.cls-11{fill:#94958d;}.cls-12{fill:#d6d7d1;}.cls-13{fill:#555d63;}.cls-14{fill:#6f6d7c;}.cls-15{fill:#9e9f9a;}.cls-16{fill:#f2e8df;}.cls-17{fill:#454545;}.cls-18{fill:#393939;}.cls-19{fill:#292929;}.cls-20{fill:#5d7779;}.cls-21{fill:#4b5154;}.cls-22{fill:url(#Áåçûìÿííûé_ãðàäèåíò_11);}.cls-23{fill:url(#Áåçûìÿííûé_ãðàäèåíò_9);}.cls-24{fill:#4e6f6e;}.cls-25{fill:#4b6063;mix-blend-mode:screen;}.cls-26{fill:#aaaba7;}</style><linearGradient id="Áåçûìÿííûé_ãðàäèåíò_11" x1="-2593.24" y1="209.18" x2="-2608.8" y2="327.58" gradientTransform="translate(2919.06)" gradientUnits="userSpaceOnUse"><stop offset="0" stop-color="#446262"/><stop offset="0.45" stop-color="#4a6264"/><stop offset="0.46" stop-color="#546a6c"/><stop offset="0.56" stop-color="#95a2a1"/><stop offset="0.65" stop-color="#c5cbc8"/><stop offset="0.72" stop-color="#e3e4e0"/><stop offset="0.75" stop-color="#eeede9"/></linearGradient><linearGradient id="Áåçûìÿííûé_ãðàäèåíò_9" x1="-2605.34" y1="211.63" x2="-2588.31" y2="331.43" gradientTransform="translate(2919.06)" gradientUnits="userSpaceOnUse"><stop offset="0" stop-color="#292b26"/><stop offset="0.45" stop-color="#020401"/><stop offset="0.45" stop-color="#020502"/><stop offset="0.56" stop-color="#124631"/><stop offset="0.65" stop-color="#1d7654"/><stop offset="0.71" stop-color="#249469"/><stop offset="0.75" stop-color="#279f71"/></linearGradient></defs><title>Camara Fotografica</title><g class="cls-1"><g id="Capa_2" data-name="Capa 2"><g id="Ñëîé_1" data-name="Ñëîé 1"><path class="cls-2" d="M353.85,203.21,118.18,367.88C108,374,64.33,370.65,52,370c-8.06-.43-15.61-2.35-21.42-5.8L9.88,351.83C-4.77,343.09-2.91,327.68,14,317.59l43.82-26.13,222-132.4a58.76,58.76,0,0,1,16.92-6.59c14.37-3.29,30.18-2,40.48,4.13L358,169C372.62,177.71,370.76,193.12,353.85,203.21Z"/><path class="cls-3" d="M370.7,198.51l-25.24,14.18-.62-.37c-12.27-7.32-33.91-6.39-48.08,2.06l-188,112.1-46.4,9.22v6.76h0c0,4.7,2.69,9.19,8.27,12.52L88,365.34c12.28,7.32,33.91,6.39,48.08-2.06L358.76,230.5c8.14-4.86,12.11-11.18,11.69-17.07l.25-.14Z"/><path class="cls-4" d="M358.76,222.46,136.11,355.24c-14.17,8.45-35.8,9.38-48.08,2.06L70.66,346.94c-12.27-7.32-10.71-20.22,3.46-28.67L296.76,185.49c14.17-8.45,35.81-9.38,48.08-2.06l17.37,10.36C374.48,201.11,372.93,214,358.76,222.46Z"/><path class="cls-5" d="M370.7,201.12l-.25.13c.31,4.39-1.8,9-6.26,13.08a33,33,0,0,1-5.44,4L136.11,351.11a45.67,45.67,0,0,1-8.85,4,58.15,58.15,0,0,1-16.82,2.94,52.6,52.6,0,0,1-10.52-.73A35.13,35.13,0,0,1,88,353.17L70.66,342.81c-5.58-3.33-8.29-7.82-8.26-12.52h0V214.36l40.42-8,6-1.19,1.64-1L296.76,93c13.76-8.21,20.8-1.9,32.44,5.18l1,.62,15.22-7.49,18.7-10.5,0,0,6.51-3.65Z"/><path class="cls-2" d="M214.56,204.78S199.9,224.57,186.74,261c-5.6,15.46-5.31,50.94,2.93,58.2l8.23,7.26,51.39-30.65-1.43-93.88Z"/><path class="cls-6" d="M110.44,204.16V358.08c-8.39.23-16.49-1.38-22.4-4.91L70.66,342.81c-5.58-3.33-8.29-7.82-8.26-12.52h0V214.36l46.41-9.22Z"/><path class="cls-7" d="M329.2,98.22,127.26,198.51V355.14a58.15,58.15,0,0,1-16.82,2.94,52.6,52.6,0,0,1-10.52-.73V217.64l2.89-11.31,6-1.19,1.64-1L296.76,93C310.52,84.83,317.56,91.14,329.2,98.22Z"/><path class="cls-7" d="M370.7,201.12l-.25.13c.31,4.39-1.8,9-6.26,13.08V80.83l6.51-3.65Z"/><path class="cls-6" d="M370.7,51.06,345.46,65.24l-.62-.37c-12.27-7.32-33.91-6.4-48.08,2L108.79,179l-46.4,9.23v27.61h0c0,4.7,2.69,9.19,8.27,12.52L88,238.74c12.28,7.32,33.91,6.39,48.08-2.06L358.76,103.9c8.14-4.86,12.11-11.18,11.69-17.07l.25-.14Z"/><path class="cls-3" d="M370.7,45,345.46,59.2l-.62-.37c-12.27-7.32-33.91-6.39-48.08,2.06L108.79,173l-46.4,9.22v27.61h0c0,4.7,2.69,9.18,8.27,12.51L88,232.7c12.28,7.32,33.91,6.4,48.08-2L358.76,97.86c8.14-4.85,12.11-11.18,11.69-17.07l.25-.13Z"/><path class="cls-4" d="M358.75,69,136.11,201.75c-14.17,8.45-35.8,9.38-48.07,2.06L70.66,193.45c-12.27-7.32-10.71-20.22,3.45-28.67l36.7-21.89L296.76,32a49.15,49.15,0,0,1,14.17-5.52c12-2.76,25.28-1.68,33.91,3.46L362.21,40.3C374.48,47.62,372.93,60.52,358.75,69Z"/><path class="cls-2" d="M124.66,164.16c12.35,7.37,12.41,19.27.14,26.6s-32.24,7.28-44.59-.09-12.41-19.27-.14-26.59S112.31,156.8,124.66,164.16Z"/><path class="cls-2" d="M333.45,68.73,198.91,164.06c-9,5.34-45.36,4.4-53.12-.23L112,143.68c-.42-.25-.82-.52-1.19-.79L296.76,32a49.15,49.15,0,0,1,14.17-5.52,31.5,31.5,0,0,1,7.86,3.25l18.06,10.78C348.93,47.71,347.4,60.41,333.45,68.73Z"/><path class="cls-3" d="M359.16,68.73l-157.28,93.8c-9,5.34-22.63,5.93-30.39,1.3L137.7,143.68c-7.75-4.63-6.77-12.78,2.18-18.12L297.16,48.47c13.95-8.32,35.25-9.24,47.33-2l18.06-5.93C374.64,47.71,373.11,60.41,359.16,68.73Z"/><polygon class="cls-3" points="132.47 116.27 132.47 136.59 192.92 145.77 370.47 53.3 370.47 32.26 132.47 116.27"/><path class="cls-3" d="M147.49,163.63l-10.66-.23c-11.42-6.07-28.39-6.37-40.25-.88l-12.15-.27v15.17h0c.06,4.79,3.16,9.58,9.31,13.25,12.35,7.37,32.31,7.4,44.59.08,6.16-3.67,9.21-8.5,9.16-13.33h0Z"/><path class="cls-8" d="M138.19,149c12.35,7.36,12.41,19.27.14,26.59s-32.24,7.28-44.59-.08-12.42-19.28-.14-26.6S125.83,141.63,138.19,149Z"/><path class="cls-4" d="M359.16,50.47,201.88,144.26c-9,5.34-22.63,5.93-30.39,1.3L137.7,125.41c-7.75-4.62-6.77-12.78,2.18-18.12l157.28-93.8c13.95-8.32,35.25-9.23,47.33-2l18.06,10.77C374.64,29.45,373.11,42.15,359.16,50.47Z"/><polygon class="cls-2" points="228.1 107.37 221.57 107.37 180.13 83.29 183.93 81.03 228.1 107.37"/><path class="cls-2" d="M330.11,24.35c12.35,7.37,21.58,19.39,9.31,26.71s-41.41,7.17-53.76-.2-12.41-19.27-.14-26.59S317.76,17,330.11,24.35Z"/><path class="cls-3" d="M342,24.35c12.35,7.37,12.41,19.27.14,26.59s-32.24,7.29-44.59-.08-12.42-19.27-.14-26.59S329.63,17,342,24.35Z"/><polygon class="cls-3" points="288.24 37.08 288.24 16.76 351.29 19.94 351.29 39.05 321.18 49.15 288.24 37.08"/><path class="cls-8" d="M342,5.55c12.35,7.37,12.41,19.27.14,26.59s-32.24,7.28-44.59-.08-12.42-19.27-.14-26.59S329.63-1.82,342,5.55Z"/><path class="cls-9" d="M332.34,11.3c7,4.17,7,10.91.08,15.05s-18.25,4.12-25.23-.05-7-10.9-.08-15S325.35,7.14,332.34,11.3Z"/><path class="cls-3" d="M307.11,13.52c6.94-4.14,18.24-4.12,25.23.05,3,1.8,4.74,4.08,5.16,6.43.55-3.1-1.17-6.32-5.16-8.7-7-4.16-18.29-4.19-25.23,0-3.95,2.35-5.64,5.53-5.09,8.61C302.44,17.55,304.13,15.3,307.11,13.52Z"/><ellipse class="cls-3" cx="186.74" cy="119.68" rx="14.43" ry="24.2" transform="translate(65.97 305.72) rotate(-89.67)"/><path class="cls-8" d="M202.21,107.71c8.61,5.13,8.65,13.42.1,18.52s-22.45,5.07-31.05-.06-8.65-13.42-.1-18.52S193.61,102.58,202.21,107.71Z"/><path class="cls-2" d="M185.91,125H169.52l-4.74.69s-2.69,2.4-9.46-3-3.53-9.86,3.08-12.55,24.54-2.75,24.54-2.75Z"/><ellipse class="cls-3" cx="186.74" cy="116.94" rx="8.06" ry="13.51" transform="translate(68.72 303) rotate(-89.67)"/><polygon class="cls-10" points="284.72 73.6 228.1 107.37 183.93 81.03 183.93 74.68 194.68 74.61 231.55 52.62 231.55 46.27 284.72 67.25 284.72 73.6"/><polygon class="cls-11" points="270.42 75.81 231.79 98.84 192.92 75.66 231.55 52.62 270.42 75.81"/><polygon class="cls-12" points="240.55 40.91 231.55 46.27 270.42 69.46 231.79 92.49 192.92 69.31 183.93 74.68 228.1 101.02 284.72 67.25 240.55 40.91"/><polygon class="cls-3" points="315.31 115.02 345.52 97 345.52 70.96 315.31 88.98 315.31 115.02"/><polygon class="cls-13" points="315.59 114.16 344.89 96.69 344.89 71.63 315.59 89.1 315.59 114.16"/><polygon class="cls-14" points="334.4 92.28 334.4 77.88 315.59 89.1 315.59 103.5 334.4 92.28"/><polygon class="cls-3" points="173.31 116 173.31 99.31 200.25 99.96 200.25 116.94 189.18 120.92 173.31 116"/><path class="cls-9" d="M196.26,93.63c5.29,3.16,5.32,8.26.06,11.4s-13.82,3.12-19.11,0-5.32-8.26-.06-11.4S191,90.47,196.26,93.63Z"/><path class="cls-15" d="M202.9,98.25l-32.32-1.63V107h0c-.09,2.55,1.5,5.12,4.76,7.07,6.34,3.77,16.57,3.79,22.86,0,2.84-1.69,4.38-3.86,4.65-6.08l.05,0Z"/><path class="cls-8" d="M198.13,90.87c6.33,3.78,6.36,9.88.07,13.63s-16.52,3.73-22.86,0-6.36-9.88-.07-13.63S191.8,87.1,198.13,90.87Z"/><ellipse class="cls-3" cx="259.32" cy="217.35" rx="80.46" ry="45.68" transform="translate(-55.94 340.23) rotate(-61.26)"/><polygon class="cls-3" points="316.99 158.22 295.68 145.7 218.2 286.32 236.82 297.83 316.99 158.22"/><ellipse class="cls-16" cx="275.93" cy="227.25" rx="80.46" ry="45.68" transform="translate(-56 359.94) rotate(-61.26)"/><path class="cls-4" d="M229.28,262.49c0-33.73,23.07-74.83,51.53-91.8,24.74-14.76,45.38-6.37,50.35,18.24-2.36-32.48-26-45.09-55.23-27.68-30.75,18.34-55.68,62.76-55.68,99.21,0,29.41,16.33,44.29,38.74,39.45C241.48,300.6,229.28,286.94,229.28,262.49Z"/><path class="cls-17" d="M230.5,259.42c0,33.2,7.94,37.37,35.95,20.66s50.72-57.16,50.72-90.36-7.94-37.37-35.95-20.67S230.5,226.22,230.5,259.42Z"/><path class="cls-3" d="M225.88,259.23c0-34.85,23.84-77.31,53.24-94.85,13.61-8.12,26-9.45,35.44-5.1h0l0,0a24.64,24.64,0,0,1,4.38,2.62l19.29,11.73L260.78,306.31l-16.93-10.55h0C232.84,290.77,225.88,278,225.88,259.23Z"/><ellipse class="cls-4" cx="298.5" cy="239.29" rx="76.91" ry="43.67" transform="translate(-54.84 385.98) rotate(-61.26)"/><path class="cls-3" d="M249.29,270.25c0-33.71,23.06-74.8,51.5-91.76,13.17-7.85,25.18-9.15,34.29-4.94h0l0,0a24,24,0,0,1,4.24,2.53l29.9,17.27L294.3,321.72l-27.63-16.13h0C256,300.77,249.29,288.45,249.29,270.25Z"/><ellipse class="cls-9" cx="330.78" cy="256.89" rx="74.41" ry="42.25" transform="translate(-53.5 423.42) rotate(-61.26)"/><path class="cls-18" d="M284.64,284.41c0,30.2,20.66,42.37,46.14,27.17s46.15-52,46.15-82.21S356.27,187,330.78,202.19,284.64,254.2,284.64,284.41Z"/><ellipse class="cls-19" cx="330.78" cy="256.89" rx="68.92" ry="39.13" transform="translate(-53.5 423.42) rotate(-61.26)"/><path class="cls-20" d="M291.36,277.12c-1.74,24,12.64,34.06,32.12,22.44s36.69-40.5,38.43-64.51S349.27,201,329.79,212.6,293.1,253.11,291.36,277.12Z"/><ellipse class="cls-21" cx="324.02" cy="253.56" rx="45.16" ry="23.46" transform="translate(-55.47 412.5) rotate(-60.77)"/><path class="cls-22" d="M298.5,264.74c-1.07,14.79,7.78,21,19.78,13.83s22.6-24.95,23.67-39.74-7.79-21-19.79-13.83S299.57,250,298.5,264.74Z"/><path class="cls-23" d="M300.13,263.35c-.95,13.15,6.92,18.65,17.59,12.29s20.08-22.17,21-35.32-6.92-18.65-17.58-12.29S301.08,250.21,300.13,263.35Z"/><path class="cls-24" d="M310.91,249c-.29,4,2.12,5.7,5.37,3.76s6.14-6.78,6.43-10.8-2.11-5.69-5.37-3.75S311.2,245,310.91,249Z"/><path class="cls-3" d="M296.12,315.89c-.47-.15-.95-.32-1.41-.5l.43.32Z"/><path class="cls-3" d="M361.32,195.25a24.19,24.19,0,0,1,4.2,4.2c6,5.89,9.47,15.49,9.47,28.16,0,31.22-21.35,69.27-47.7,85-9.43,5.63-18.22,7.62-25.62,6.44,8.05,2.57,18.15.93,29.11-5.61,26.35-15.71,47.7-53.75,47.7-85C378.48,211,371.81,199.37,361.32,195.25Z"/><path class="cls-25" d="M313.28,230.94s-20.14,21.31-19.35,52.88c4.57,27.5,26.29,14.2,26.29,14.2S327.83,242.2,313.28,230.94Z"/><path class="cls-2" d="M159.92,319.77h0a11.57,11.57,0,0,0,5-8.33l2.18-27.88c.41-5.27-2.91-7.63-7.17-5.09h0c-4.25,2.54-7.58,8.87-7.16,13.64l2.18,25.27C155.19,320.27,157.35,321.31,159.92,319.77Z"/><path class="cls-3" d="M162.54,315.42h0a11.56,11.56,0,0,0,5-8.33l2.19-27.88c.41-5.27-2.92-7.63-7.17-5.09h0c-4.25,2.53-7.58,8.86-7.17,13.63L157.56,313C157.81,315.92,160,317,162.54,315.42Z"/><polygon class="cls-3" points="167.56 273.54 172.07 276.54 163.74 318.92 158.95 315.76 158.4 283.59 167.56 273.54"/><path class="cls-4" d="M167.13,318.46h0a11.59,11.59,0,0,0,5-8.33l2.18-27.88c.42-5.26-2.91-7.63-7.16-5.09h0c-4.26,2.54-7.58,8.87-7.17,13.64l2.18,25.27C162.39,319,164.55,320,167.13,318.46Z"/><path class="cls-26" d="M162,289.27c0,3.44,2.35,4.82,5.25,3.09a12,12,0,0,0,5.25-9.35c0-3.43-2.35-4.81-5.25-3.09A12,12,0,0,0,162,289.27Z"/><path class="cls-26" d="M163.44,315.1c0,2.48,1.7,3.48,3.79,2.23a8.66,8.66,0,0,0,3.8-6.76c0-2.48-1.7-3.48-3.8-2.23A8.71,8.71,0,0,0,163.44,315.1Z"/></g></g></g></svg>