<svg xmlns="http://www.w3.org/2000/svg" viewBox="0 0 377.96 396.93"><defs><style>.cls-1{fill:#9e9e9e;}.cls-2{fill:#c7c7c7;}.cls-3{fill:#1e1e1e;}.cls-4{fill:#3d3d3d;}.cls-5{fill:#adadad;}.cls-6{fill:#d4d4d4;}.cls-7{fill:#dbdbdb;}.cls-8{fill:#333;}.cls-9{fill:#fff;}.cls-10{fill:#00b3aa;}</style></defs><title>Camara de Vigilancia</title><g id="Capa_2" data-name="Capa 2"><g id="Ñëîé_1" data-name="Ñëîé 1"><path class="cls-1" d="M67.53,316.21,15.21,352.13C6.84,357.87,0,351.72,0,338.46V255.51c0-13.26,6.84-28.8,15.21-34.54l52.32-35.92c8.36-5.75,15.2.4,15.2,13.66v83C82.73,294.93,75.89,310.47,67.53,316.21Z"/><polygon class="cls-1" points="11.32 357.11 5.57 353.04 5.57 347.31 14.74 351.19 11.32 357.11"/><path class="cls-2" d="M74.05,320.52,21.72,356.44c-8.36,5.74-15.2-.41-15.2-13.67V259.82c0-13.26,6.84-28.81,15.2-34.55l52.33-35.92c8.36-5.74,15.2.41,15.2,13.67v83C89.25,299.23,82.41,314.78,74.05,320.52Z"/><path class="cls-3" d="M22.79,342c0,3.52-1.8,7.61-4,9.13s-4-.09-4-3.61,1.81-7.62,4-9.14S22.79,338.45,22.79,342Z"/><path class="cls-4" d="M22.37,343.94c0,2.17-1.11,4.69-2.48,5.63s-2.47-.06-2.47-2.23,1.11-4.69,2.47-5.63S22.37,341.77,22.37,343.94Z"/><path class="cls-3" d="M22.79,241.68c0,3.52-1.8,7.61-4,9.14s-4-.1-4-3.62,1.81-7.61,4-9.14S22.79,238.15,22.79,241.68Z"/><path class="cls-4" d="M22.37,243.64c0,2.17-1.11,4.69-2.48,5.63s-2.47-.06-2.47-2.23,1.11-4.69,2.47-5.63S22.37,241.47,22.37,243.64Z"/><path class="cls-3" d="M82.73,300.35c0,3.53-1.8,7.62-4,9.14s-4-.09-4-3.61,1.8-7.62,4-9.14S82.73,296.83,82.73,300.35Z"/><path class="cls-4" d="M82.31,302.32c0,2.16-1.1,4.68-2.47,5.62s-2.48-.05-2.48-2.22,1.11-4.69,2.48-5.63S82.31,300.15,82.31,302.32Z"/><path class="cls-3" d="M82.73,200.05c0,3.53-1.8,7.62-4,9.14s-4-.09-4-3.61,1.8-7.62,4-9.14S82.73,196.53,82.73,200.05Z"/><path class="cls-4" d="M82.31,202c0,2.17-1.1,4.69-2.47,5.62s-2.48,0-2.48-2.22,1.11-4.69,2.48-5.63S82.31,199.85,82.31,202Z"/><path class="cls-5" d="M245.53,355.58l-174-119.43L19.66,271.78l174,119.43c12.36,8.49,34.16,7.41,48.43-2.39S257.89,364.06,245.53,355.58Z"/><rect class="cls-5" x="243.1" y="355.46" width="10.61" height="16.6"/><path class="cls-6" d="M245.53,343l-174-119.42L19.66,259.2l174,119.43c12.36,8.48,34.16,7.41,48.43-2.39S257.89,351.48,245.53,343Z"/><path class="cls-1" d="M19.66,259.2v49.72s12.43-1.64,25-3.68c8.55-1.39,22.09-1.15,26.84,2.11l122.15,83.86V378.63Z"/><polygon class="cls-2" points="240.06 303.07 246.03 298.47 249.4 286.35 236.8 294.31 240.06 303.07"/><path class="cls-2" d="M206.5,195.55V243.8c0,20.58,10.62,44.71,23.61,53.63h0c13,8.91,23.6-.64,23.6-21.22V228Z"/><path class="cls-1" d="M200.28,200.34v48.24c0,20.59,10.62,44.72,23.6,53.63h0c13,8.91,23.61-.64,23.61-21.22V232.74Z"/><polygon class="cls-7" points="206.5 195.55 200.28 200.34 247.49 232.74 253.71 227.96 206.5 195.55"/><polygon class="cls-1" points="234.07 347.76 190.31 317.71 190.31 258.37 234.07 288.42 234.07 347.76"/><polygon class="cls-1" points="199.59 372.06 155.82 342.02 155.82 282.67 199.59 312.72 199.59 372.06"/><polygon class="cls-5" points="234.07 288.42 199.59 312.72 155.82 282.67 190.31 258.37 234.07 288.42"/><polygon class="cls-1" points="200.28 291.96 73.25 204.75 73.25 167.94 200.28 255.14 200.28 291.96"/><polygon class="cls-2" points="267.28 209.15 200.28 255.14 200.28 291.96 267.28 245.96 267.28 209.15"/><path class="cls-1" d="M370.18,200.44l-75-53.66,8.3-16.09s50.75,13,58.24,25.57C376.66,181.31,370.18,200.44,370.18,200.44Z"/><polygon class="cls-3" points="338.13 160.94 138.36 24.1 78.55 177.56 276.58 313.36 338.13 160.94"/><path class="cls-4" d="M352.82,204.58c-.18,41-20.87,88-46.39,105.39-25.67,17.48-46.39-1.08-46.39-41.7s20.77-87.8,46.39-105.39S353,164,352.82,204.58Z"/><path class="cls-3" d="M327.65,168.38c7,6.61,11.25,19.13,11.18,36.21-.15,35.23-17.93,75.64-39.87,90.58-7.8,5.32-15,6.68-21.18,4.78,7.24,6.89,17.38,7.34,28.65-.34,21.93-14.94,39.72-55.35,39.87-90.58C346.4,186.48,338.89,171.87,327.65,168.38Z"/><path class="cls-8" d="M299,295.17c21.94-14.94,39.72-55.35,39.87-90.58.07-17.08-4.22-29.6-11.18-36.21-6.16-1.92-13.43-.54-21.22,4.81-22,15.12-39.87,55.67-39.87,90.58,0,17.08,4.28,29.59,11.22,36.18C283.92,301.85,291.16,300.49,299,295.17Z"/><path class="cls-2" d="M302.69,187.12c-.85.59-1.7,1.26-2.54,1.95l14.14,9.7-23.62,70.58-17.56-11.9c1,23.92,13.83,34.57,29.58,23.76,16.39-11.25,29.68-41.44,29.68-67.42S319.08,175.87,302.69,187.12Z"/><path class="cls-3" d="M316.69,197.21,302,187.6c-16,11.33-28.92,42.38-28.92,68.88a31.89,31.89,0,0,0,.35,5.52L289,271.39Z"/><path class="cls-4" d="M325.49,219.33c0,19.42-10.05,42-22.35,50.46s-22.83-1-22.79-20.41,10-42,22.34-50.47S325.53,199.9,325.49,219.33Z"/><path class="cls-1" d="M313.5,201.69c3.34,3.17,5.41,9.19,5.41,17.41,0,16.76-8.57,36.24-19.14,43.5-4,2.75-7.73,3.34-10.8,2.11,3.47,3.29,8.34,3.5,13.72-.2,10.58-7.26,19.15-26.73,19.15-43.49C321.84,210.61,318.53,203.71,313.5,201.69Z"/><path class="cls-2" d="M299.77,262.6c10.57-7.26,19.14-26.74,19.14-43.5,0-8.22-2.07-14.24-5.41-17.41-3.08-1.23-6.8-.63-10.81,2.12-10.57,7.26-19.14,26.73-19.14,43.49,0,8.22,2.07,14.24,5.42,17.41C292,265.94,295.76,265.35,299.77,262.6Z"/><path class="cls-3" d="M155.33,69.35c-.18,41-20.86,88-46.39,105.39S62.56,173.66,62.56,133s20.77-87.8,46.38-105.39S155.51,28.73,155.33,69.35Z"/><path class="cls-2" d="M50,130.69,260,276.05s14.79-74.21,39.74-99.19c26.59-26.63,62-25.44,62-25.44L150.15,4.9S108.94,0,78.55,47.61C61.78,73.87,50,130.69,50,130.69Z"/><path class="cls-7" d="M267.82,270.7C269,231,291.43,184.64,319,165.71s50-3.32,51.18,34.73l7.78-5.35c-1.19-44.16-27.09-62.34-59-40.46s-57.78,75.63-59,121.42Z"/><path class="cls-2" d="M57.77,125.35c1.17-39.66,23.6-86.07,51.17-105s50-3.32,51.18,34.73l7.78-5.34c-1.18-44.16-27.08-62.35-59-40.47S51.17,84.9,50,130.69Z"/><path class="cls-9" d="M314.7,224c0,11.8-6,25.5-13.47,30.61s-13.47-.32-13.47-12.11,6-25.5,13.47-30.6S314.7,212.16,314.7,224Z"/><path class="cls-10" d="M307.67,228.78c0,5.64-2.88,12.19-6.44,14.63s-6.44-.15-6.44-5.79,2.89-12.18,6.44-14.62S307.67,223.15,307.67,228.78Z"/><path class="cls-1" d="M244.52,253.38,68.9,131.52c-2.48-1.72-4.32-5-4.09-7.37l.13-1.2c.23-2.34,2.46-2.84,4.94-1.12L245.5,243.68c2.48,1.72,4.32,5,4.09,7.38l-.13,1.2C249.23,254.6,247,255.1,244.52,253.38Z"/><polygon class="cls-2" points="180.97 344.08 186.94 339.49 190.31 327.37 177.71 335.32 180.97 344.08"/><path class="cls-2" d="M147.41,236.57v48.24c0,20.59,10.62,44.72,23.6,53.63h0c13,8.91,23.6-.64,23.6-21.22V269Z"/><path class="cls-5" d="M141.19,241.35V289.6c0,20.58,10.62,44.71,23.6,53.62h0c13,8.92,23.61-.63,23.61-21.21V273.76Z"/><polygon class="cls-7" points="147.41 236.57 141.19 241.35 188.4 273.76 194.62 268.98 147.41 236.57"/><polygon class="cls-2" points="234.07 347.76 199.59 372.06 199.59 312.72 234.07 288.42 234.07 347.76"/><path class="cls-3" d="M156.55,316.7c0,6.54,3.34,14.14,7.46,17s7.47-.17,7.47-6.71-3.34-14.14-7.47-17S156.55,310.16,156.55,316.7Z"/><path class="cls-4" d="M157.32,320.35c0,4,2.06,8.7,4.6,10.44s4.6-.1,4.6-4.13-2.06-8.7-4.6-10.45S157.32,316.32,157.32,320.35Z"/><path class="cls-9" d="M159,322c0,2,1,4.39,2.32,5.26s2.32-.05,2.32-2.08a7,7,0,0,0-2.32-5.26C160,319,159,320,159,322Z"/></g></g></svg>