<svg xmlns="http://www.w3.org/2000/svg" xmlns:xlink="http://www.w3.org/1999/xlink" viewBox="0 0 411.5 519.36"><defs><style>.cls-1{fill:#f1f1f1;}.cls-2{fill:#ccc;}.cls-3{fill:#fff;}.cls-4{fill:#bdbdbd;}.cls-5{fill:#9c9c9c;}.cls-6{fill:url(#linear-gradient);}.cls-7{fill:#e4eaeb;}.cls-8{fill:#d3d6d6;}.cls-9{fill:#8e8e8e;}.cls-10{fill:#5f5f5f;}.cls-11{fill:url(#linear-gradient-2);}.cls-12{fill:#e6e6e6;}.cls-13{fill:#b3b3b3;}.cls-14{fill:#22465b;}.cls-15{fill:#1e3c50;}.cls-16{fill:#152a38;}.cls-17{fill:#1b3746;}.cls-18{fill:#536d7e;}</style><linearGradient id="linear-gradient" x1="4.46" y1="426.77" x2="11.74" y2="413.32" gradientUnits="userSpaceOnUse"><stop offset="0" stop-color="#bdbdbd"/><stop offset="1" stop-color="#9c9c9c"/></linearGradient><linearGradient id="linear-gradient-2" x1="132.9" y1="469.83" x2="134.19" y2="379.66" xlink:href="#linear-gradient"/></defs><title>Cargador USB</title><g id="Capa_2" data-name="Capa 2"><g id="Ñëîé_1" data-name="Ñëîé 1"><polygon class="cls-1" points="39.99 503.27 17.19 516.15 17.19 490.63 39.99 477.76 39.99 503.27"/><polygon class="cls-2" points="17.19 516.15 11.58 512.96 11.58 487.45 17.19 490.63 17.19 516.15"/><polygon class="cls-3" points="11.58 487.45 34.38 474.57 39.99 477.76 17.19 490.63 11.58 487.45"/><path d="M17.19,491.37a.72.72,0,0,1-.38-.1l-5.61-3.18a.74.74,0,0,1,0-1.29L34,473.93a.79.79,0,0,1,.76,0l5.61,3.19a.74.74,0,0,1,.38.64.75.75,0,0,1-.38.64l-22.8,12.87A.75.75,0,0,1,17.19,491.37Zm-4.1-3.92,4.1,2.32,21.29-12-4.1-2.33Z"/><path class="cls-4" d="M45.75,405.85a2,2,0,0,1,.4-.08h0a1.64,1.64,0,0,1,.39,0h0a1.26,1.26,0,0,1,.34.13l-13.6-7.73h0l-.12-.06-.13,0-.08,0h-.05l-.15,0h-.34l-.21,0-.09,0-.08,0-.12,0a1.91,1.91,0,0,0-.32.16l13.6,7.73a2.41,2.41,0,0,1,.44-.2Z"/><polygon class="cls-5" points="13.77 506.65 0.16 498.92 0 418.91 13.6 426.64 13.77 506.65"/><polygon class="cls-4" points="16 422.58 2.4 414.85 31.63 398.35 45.23 406.08 16 422.58"/><path class="cls-6" d="M13.66,426a4.7,4.7,0,0,1,.12-.51l0-.05c.06-.18.13-.37.21-.55h0a4.07,4.07,0,0,1,.28-.55h0a5.54,5.54,0,0,1,.33-.51l0,0c.12-.14.23-.28.36-.41l.08-.09a2.52,2.52,0,0,1,.3-.27,1.49,1.49,0,0,1,.14-.12,2.77,2.77,0,0,1,.45-.31L2.39,414.85a3.19,3.19,0,0,0-.44.31.81.81,0,0,0-.14.12l-.21.18-.1.09-.08.09-.08.09c-.07.08-.14.15-.2.23l-.07.09,0,.05-.06.08a1.43,1.43,0,0,0-.14.2l-.13.2v0h0l-.1.17-.1.2-.09.18h0l-.09.22c0,.07,0,.14-.08.22l0,.1,0,0a.29.29,0,0,0,0,.09,2.68,2.68,0,0,0-.07.27l0,.15s0,.06,0,.09a.29.29,0,0,0,0,.09,3.4,3.4,0,0,0,0,.45l13.6,7.73a3.29,3.29,0,0,1,.05-.54S13.66,426,13.66,426Z"/><path class="cls-7" d="M45.23,406.08c1.32-.75,2.4-.15,2.4,1.34l.17,80-34,19.21-.17-80a5.14,5.14,0,0,1,2.4-4.06Z"/><path class="cls-7" d="M30.69,409.48V399h-17v10.46c0,1.23.83,2.46,2.49,3.4a13.62,13.62,0,0,0,12,0C29.86,411.94,30.69,410.71,30.69,409.48Z"/><path class="cls-4" d="M28.2,395.62c3.32,1.88,3.32,4.92,0,6.79a13.56,13.56,0,0,1-12,0c-3.32-1.87-3.32-4.91,0-6.79A13.56,13.56,0,0,1,28.2,395.62Z"/><path class="cls-8" d="M226.18,0H99.11c-44.1,0-80,35.08-80,78.21V398.72c0,.81,1.32,1.46,3,1.46s3-.65,3-1.46V78.21c0-39.93,33.22-72.42,74.06-72.42H226.18c40.84,0,74.06,32.49,74.06,72.42V292.78c0,38.42-32,69.67-71.24,69.67s-71.25-31.25-71.25-69.67V233.19h-5.92v59.59c0,41.61,34.62,75.46,77.17,75.46s77.16-33.85,77.16-75.46V78.21C306.16,35.08,270.28,0,226.18,0Z"/><path class="cls-5" d="M154.58,240.59a2.38,2.38,0,0,1-1.05-2.23l0-11.34-8.69-4.94,0,11.35a2.38,2.38,0,0,0,1,2.22l7.66,4.35h0Z"/><polygon class="cls-3" points="153.5 227.02 144.81 222.09 158.45 214.38 167.13 219.32 153.5 227.02"/><path d="M153.5,227.76a.7.7,0,0,1-.38-.1l-8.69-4.93a.76.76,0,0,1-.38-.65.75.75,0,0,1,.38-.64l13.64-7.7a.79.79,0,0,1,.76,0l8.69,4.94a.73.73,0,0,1,.37.64.74.74,0,0,1-.37.64l-13.64,7.7A.75.75,0,0,1,153.5,227.76Zm-7.17-5.67,7.17,4.07,12.12-6.84-7.17-4.08Z"/><path class="cls-4" d="M167.14,219.32l0,11.34a6.91,6.91,0,0,1-1,3.4,7.13,7.13,0,0,1-2.5,2.58l-6.56,3.7a2.54,2.54,0,0,1-2.5.25,2.38,2.38,0,0,1-1.05-2.23l0-11.34Z"/><polygon class="cls-4" points="138.67 159.95 120.17 149.44 164.91 124.18 183.4 134.69 138.67 159.95"/><path class="cls-5" d="M143.7,231.3a7.71,7.71,0,0,1-1-.69l-.35-.29-.17-.15q-.24-.22-.48-.48h0c-.19-.21-.37-.44-.55-.67l-.14-.19c-.14-.21-.28-.42-.41-.65l-.08-.12a7.3,7.3,0,0,1-.36-.68,12.22,12.22,0,0,1-.79-2.16,17.33,17.33,0,0,1-.54-4.38L138.67,160l-18.5-10.51.12,60.88a17.33,17.33,0,0,0,.54,4.38,11.88,11.88,0,0,0,1.15,2.84l0,0,.06.09a7.22,7.22,0,0,0,.42.65l.14.19c.17.23.35.46.54.67h0l.48.48.17.15.35.29,0,0,0,0a8.54,8.54,0,0,0,1,.64Z"/><path class="cls-7" d="M183.4,134.7l.13,60.87c0,5.17-1.84,10.89-4.84,16a33.47,33.47,0,0,1-11.75,12.12l-11.45,6.47c-4.6,2.59-8.76,2.85-11.79,1.16s-4.89-5.31-4.91-10.47L138.67,160Z"/><polygon class="cls-1" points="172.62 135.02 141.04 152.84 141.04 112.46 172.62 94.63 172.62 135.02"/><polygon class="cls-4" points="152.4 123.95 147.74 126.58 147.74 118.41 152.4 115.78 152.4 123.95"/><polygon class="cls-4" points="165.92 116.32 161.26 118.95 161.26 110.77 165.92 108.14 165.92 116.32"/><polygon class="cls-2" points="141.04 152.84 134.61 149.21 134.61 108.83 141.04 112.46 141.04 152.84"/><polygon class="cls-9" points="134.61 108.83 166.19 91 172.62 94.63 141.04 112.46 134.61 108.83"/><polygon class="cls-10" points="137.7 108.83 166.19 92.75 169.53 94.63 141.04 110.71 137.7 108.83"/><path class="cls-4" d="M178.9,158.75l-8.32,4.7v8.13l2.53-1.43v2.46c0,2.89-1.9,6.46-4.72,8.89L165,184.41V165l4.05-2.28-5.68-7.39-5.68,13.8,4.05-2.29v26.33l-3.38.91c-2.83.76-4.72-.66-4.72-3.55v-.57a9.79,9.79,0,0,0,3.4-6.58c0-2.72-2.25-3.65-5-2.08s-5,5.05-5,7.76a2.55,2.55,0,0,0,3.4,2.74v.57c0,4.3,2.83,6.43,7,5.3l4.32-1.17v5.92a9.79,9.79,0,0,0-3.4,6.58c0,2.71,2.25,3.65,5,2.08s5-5.05,5-7.76a2.55,2.55,0,0,0-3.4-2.74V187.74l4.32-3.72c4.21-3.62,7-9,7-13.25v-2.46l2.53-1.43Z"/><path class="cls-4" d="M17.32,478.75l7-3.93V468l-2.12,1.2v-2.06c0-2.42,1.59-5.41,4-7.45L29,457.26v16.29l-3.39,1.92,4.76,6.19,4.76-11.56L31.69,472V450l2.83-.76c2.37-.63,4,.56,4,3v.48a8.19,8.19,0,0,0-2.85,5.51c0,2.28,1.89,3.06,4.22,1.74s4.21-4.22,4.21-6.5a2.14,2.14,0,0,0-2.85-2.29v-.48c0-3.6-2.37-5.39-5.9-4.44l-3.62,1v-5a8.19,8.19,0,0,0,2.85-5.51c0-2.28-1.89-3.06-4.21-1.74s-4.22,4.22-4.22,6.5A2.14,2.14,0,0,0,29,443.75v10.72l-3.62,3.11c-3.53,3-5.9,7.5-5.9,11.1v2.06l-2.12,1.2Z"/><path class="cls-4" d="M260.24,419.65h.05a2,2,0,0,1,.55,0h0a1.6,1.6,0,0,1,.49.18h0L172.49,370h0l-.17-.08-.18-.06-.14,0h-.06l-.21,0h-.35l-.13,0-.3.06-.13,0-.12,0-.15,0a4,4,0,0,0-.47.23l88.86,49.9a3.47,3.47,0,0,1,.63-.28l.11,0A3,3,0,0,1,260.24,419.65Z"/><path class="cls-5" d="M176.12,511.56l-88.86-49.9a4.11,4.11,0,0,0,.07.73,1.39,1.39,0,0,1,.06.19,2.47,2.47,0,0,0,.14.41,1.56,1.56,0,0,0,.13.19,1.45,1.45,0,0,0,.19.29,1.24,1.24,0,0,0,.18.14,1.37,1.37,0,0,0,.23.19c8.21,4.65.22-.47,8.42,4.19l26.51,15.06,53.94,30.65A2.29,2.29,0,0,1,176.12,511.56Z"/><polygon class="cls-5" points="176.12 511.56 87.26 461.66 87.14 421.33 176 471.24 176.12 511.56"/><polygon class="cls-4" points="179.41 465.47 90.55 415.57 170.08 370.19 258.94 420.09 179.41 465.47"/><path class="cls-11" d="M176.26,469.62l0-.07a6.24,6.24,0,0,1,.3-.78v0A7.37,7.37,0,0,1,177,468q.23-.37.48-.72l.05-.06a5.68,5.68,0,0,1,.49-.59l.12-.12a5.22,5.22,0,0,1,.43-.39l.19-.17a4.38,4.38,0,0,1,.65-.44l-88.86-49.9a4.38,4.38,0,0,0-.65.44l-.19.17a3.61,3.61,0,0,0-.3.25l-.13.14-.12.12-.12.13-.28.33-.09.12,0,.07-.09.11-.2.29-.17.28,0,0a2.2,2.2,0,0,0-.15.26l-.15.28a1.89,1.89,0,0,0-.11.25v0c0,.1-.09.2-.13.29s-.08.21-.11.31,0,.11,0,.16l0,.07a.49.49,0,0,1,0,.11l-.09.38a2,2,0,0,0,0,.24.5.5,0,0,0,0,.12.36.36,0,0,0,0,.11,4.87,4.87,0,0,0,0,.65L176,471.23a5,5,0,0,1,.07-.76.5.5,0,0,1,0-.12A6.41,6.41,0,0,1,176.26,469.62Z"/><path class="cls-7" d="M258.94,420.09a2.46,2.46,0,0,1,2.41-.23,2.29,2.29,0,0,1,1,2.15l.12,40.32a6.7,6.7,0,0,1-1,3.27,7,7,0,0,1-2.41,2.49l-79.53,45.37a2.44,2.44,0,0,1-2.42.24,2.29,2.29,0,0,1-1-2.14L176,471.23a6.61,6.61,0,0,1,1-3.27,6.79,6.79,0,0,1,2.41-2.49Z"/><polygon class="cls-2" points="266.16 462.91 228.56 441.54 241.83 443.82 279.43 465.19 266.16 462.91"/><polygon class="cls-12" points="235.45 480.25 197.85 458.88 228.56 441.54 266.16 462.91 235.45 480.25"/><polygon class="cls-2" points="222.24 497.48 184.64 476.11 197.85 458.88 235.45 480.25 222.24 497.48"/><polygon class="cls-13" points="222.26 504.97 184.66 483.6 184.64 476.11 222.24 497.48 222.26 504.97"/><polygon class="cls-1" points="266.16 462.91 279.43 465.19 279.45 472.68 266.24 489.91 235.53 507.25 222.26 504.97 222.24 497.48 235.45 480.25 266.16 462.91"/><path class="cls-2" d="M273.32,509.36,270.89,508h0l-14.2-8.1-18.52-10.52h0l-.14-.07-.16-.05-.1,0h-.06l-.17,0h-.4l-.26.05-.11,0-.1,0-.12.05a3.75,3.75,0,0,0-.41.19,4.92,4.92,0,0,0-1,.73c-.11.1-.21.21-.31.32l-.24.28-.19.25-.16.24-.15.24-.14.24-.12.24a2.56,2.56,0,0,0-.11.24c0,.09-.08.17-.11.26a2,2,0,0,0-.1.26l-.09.29c0,.11-.06.22-.08.32s-.05.27-.07.4a4.9,4.9,0,0,0,0,.54,3.66,3.66,0,0,0,.07.6,1.68,1.68,0,0,0,.78,1.19l34.21,19.46h0l-.06,0,1,.58A4.09,4.09,0,0,0,274.6,515,3.89,3.89,0,0,0,273.32,509.36Z"/><path class="cls-2" d="M302.54,492.76l-2.43-1.39h0l-14.21-8.09-18.52-10.53h0l-.14-.07-.15-.05-.11,0h0l-.18,0h-.4a2.27,2.27,0,0,0-.25.06l-.11,0-.11,0-.12,0a2.49,2.49,0,0,0-.4.2,4.63,4.63,0,0,0-1,.72,3.26,3.26,0,0,0-.31.33,3,3,0,0,0-.23.27,2.48,2.48,0,0,0-.19.26,2.07,2.07,0,0,0-.17.24l-.15.24a1.71,1.71,0,0,0-.13.23c-.05.08-.09.16-.13.24a1433798236045,1433798236045,0,0,0-.22.5l-.1.27-.09.28c0,.11-.05.22-.08.33s-.05.26-.07.39a4.89,4.89,0,0,0,0,.54,2.93,2.93,0,0,0,.06.61,1.66,1.66,0,0,0,.78,1.18l34.21,19.46h0l-.06,0,1,.58a4.1,4.1,0,0,0,5.33-1.16A3.88,3.88,0,0,0,302.54,492.76Z"/><polygon class="cls-1" points="402.63 506.49 379.82 519.36 379.82 493.85 402.63 480.97 402.63 506.49"/><polygon class="cls-2" points="379.82 519.36 374.22 516.18 374.22 490.66 379.82 493.85 379.82 519.36"/><polygon class="cls-3" points="374.22 490.66 397.02 477.79 402.63 480.97 379.82 493.85 374.22 490.66"/><path d="M379.82,494.59a.75.75,0,0,1-.38-.1l-5.6-3.19a.73.73,0,0,1,0-1.28l22.8-12.88a.79.79,0,0,1,.76,0l5.61,3.19a.74.74,0,0,1,0,1.29L380.2,494.49A.72.72,0,0,1,379.82,494.59Zm-4.09-3.93,4.1,2.33,21.29-12-4.1-2.33Z"/><path class="cls-14" d="M408.39,409.07a2.16,2.16,0,0,1,.39-.09h0a1.59,1.59,0,0,1,.38,0h0a1.33,1.33,0,0,1,.35.13L396,401.4h0a.31.31,0,0,0-.13-.06l-.12,0-.09,0h-.53l-.21.05-.09,0-.09,0-.11,0-.33.16,13.61,7.73a4.28,4.28,0,0,1,.44-.2Z"/><polygon class="cls-15" points="376.4 509.87 362.8 502.14 362.64 422.12 376.24 429.85 376.4 509.87"/><polygon class="cls-14" points="378.63 425.8 365.03 418.07 394.26 401.56 407.87 409.29 378.63 425.8"/><path class="cls-14" d="M376.3,429.23a4.7,4.7,0,0,1,.12-.51l0-.05a3.66,3.66,0,0,1,.21-.55v0c.09-.18.18-.37.28-.54v0c.11-.17.22-.34.34-.5l0,0a4.87,4.87,0,0,1,.35-.42l.08-.08.31-.28.13-.12a3.91,3.91,0,0,1,.45-.3L365,418.07a3.91,3.91,0,0,0-.45.3l-.14.12-.2.18a.94.94,0,0,0-.1.1l-.08.08-.09.09-.19.24-.07.09,0,0-.06.08c-.05.07-.1.14-.14.21a2.14,2.14,0,0,0-.13.19v0l-.09.16c0,.07-.07.14-.11.2l-.08.18v0h0l-.09.21a2,2,0,0,0-.08.22.49.49,0,0,1,0,.11V421l0,.08a2.3,2.3,0,0,0-.06.28.8.8,0,0,0,0,.15s0,.06,0,.09,0,.05,0,.08a3.52,3.52,0,0,0,0,.45l13.6,7.73a4.91,4.91,0,0,1,0-.53S376.29,429.26,376.3,429.23Z"/><path class="cls-16" d="M407.87,409.29c1.32-.74,2.4-.14,2.4,1.35l.16,80-34,19.22-.16-80a5.16,5.16,0,0,1,2.39-4.05Z"/><path class="cls-17" d="M393.33,412.69V402.23h-17v10.46c0,1.23.83,2.46,2.49,3.4a13.56,13.56,0,0,0,12,0C392.5,415.15,393.33,413.92,393.33,412.69Z"/><path class="cls-14" d="M390.84,398.83c3.32,1.88,3.32,4.92,0,6.8a13.56,13.56,0,0,1-12,0c-3.32-1.88-3.32-4.92,0-6.8A13.62,13.62,0,0,1,390.84,398.83Z"/><path class="cls-16" d="M384.82,405.2a3,3,0,0,1-3-3V141.58a3,3,0,0,1,6.07,0V402.23A3,3,0,0,1,384.82,405.2Z"/><path class="cls-15" d="M382.55,150.86a2.41,2.41,0,0,1-1.05-2.22l0-11.35-8.68-4.93,0,11.34a2.38,2.38,0,0,0,1.05,2.23l7.65,4.35h0Z"/><polygon class="cls-3" points="381.47 137.29 372.79 132.36 386.43 124.66 395.11 129.59 381.47 137.29"/><path d="M381.47,138a.86.86,0,0,1-.38-.1L372.41,133a.73.73,0,0,1,0-1.28l13.64-7.7a.76.76,0,0,1,.76,0l8.68,4.93a.74.74,0,0,1,.38.65.76.76,0,0,1-.38.64l-13.64,7.7A.86.86,0,0,1,381.47,138Zm-7.17-5.68,7.17,4.08,12.13-6.85-7.17-4.07Z"/><path class="cls-17" d="M395.11,129.59l0,11.35a6.78,6.78,0,0,1-1,3.39,7.1,7.1,0,0,1-2.49,2.58l-6.56,3.71a2.56,2.56,0,0,1-2.51.24,2.41,2.41,0,0,1-1.05-2.22l0-11.35Z"/><polygon class="cls-14" points="366.64 70.23 348.14 59.72 392.88 34.46 411.38 44.97 366.64 70.23"/><path class="cls-15" d="M371.68,141.58a7.81,7.81,0,0,1-1-.69l-.35-.3-.17-.14c-.16-.15-.32-.31-.47-.48h0a7,7,0,0,1-.55-.67l-.14-.2a7.06,7.06,0,0,1-.42-.64l-.08-.13c-.12-.21-.24-.44-.36-.67a13.18,13.18,0,0,1-.79-2.17,17.27,17.27,0,0,1-.53-4.37l-.13-60.88-18.5-10.51.13,60.87a16.83,16.83,0,0,0,.54,4.38,11.18,11.18,0,0,0,1.15,2.84v0l.06.09c.13.22.28.44.42.64l.14.19c.18.24.36.46.55.68h0c.15.16.31.32.48.47a1.22,1.22,0,0,0,.17.15l.35.3,0,0h0a7.81,7.81,0,0,0,1,.65Z"/><path class="cls-16" d="M411.38,45l.12,60.88c0,5.16-1.83,10.89-4.83,16A33.61,33.61,0,0,1,394.91,134l-11.44,6.46c-4.6,2.6-8.77,2.85-11.79,1.17s-4.9-5.31-4.91-10.47l-.13-60.88Z"/><polygon class="cls-1" points="400.59 45.29 369.02 63.12 369.02 22.73 400.59 4.91 400.59 45.29"/><polygon class="cls-4" points="380.37 34.23 375.71 36.86 375.71 28.68 380.37 26.05 380.37 34.23"/><polygon class="cls-4" points="393.9 26.59 389.24 29.22 389.24 21.05 393.9 18.42 393.9 26.59"/><polygon class="cls-2" points="369.02 63.12 362.59 59.49 362.59 19.1 369.02 22.73 369.02 63.12"/><polygon class="cls-9" points="362.59 19.1 394.16 1.27 400.59 4.91 369.02 22.73 362.59 19.1"/><polygon class="cls-10" points="365.68 19.1 394.16 3.02 397.5 4.91 369.02 20.99 365.68 19.1"/><path class="cls-18" d="M406.88,69l-8.32,4.7v8.14l2.53-1.43v2.46c0,2.88-1.9,6.46-4.73,8.89L393,94.69V75.23L397,72.94l-5.69-7.39-5.68,13.81,4.06-2.29V103.4l-3.39.91c-2.82.76-4.72-.67-4.72-3.55v-.58c2-1.78,3.4-4.41,3.4-6.57,0-2.72-2.25-3.65-5-2.08s-5,5-5,7.76a2.55,2.55,0,0,0,3.4,2.73v.57c0,4.3,2.83,6.43,7,5.3l4.33-1.16v5.92c-2,1.78-3.41,4.41-3.41,6.57,0,2.72,2.26,3.65,5,2.08s5-5,5-7.76a2.55,2.55,0,0,0-3.41-2.73V98l4.33-3.72c4.21-3.62,7-8.94,7-13.24V78.59l2.54-1.43Z"/><path class="cls-18" d="M380,482l7-3.94v-6.81l-2.12,1.2v-2.07c0-2.41,1.59-5.41,4-7.44l2.83-2.44v16.3l-3.4,1.92,4.76,6.19,4.76-11.57-3.39,1.92V453.17l2.83-.76c2.37-.64,4,.56,4,3v.47a8.21,8.21,0,0,0-2.85,5.51c0,2.28,1.88,3.06,4.21,1.75s4.22-4.23,4.22-6.51a2.14,2.14,0,0,0-2.85-2.29v-.48c0-3.6-2.37-5.38-5.9-4.43l-3.62,1v-5a8.19,8.19,0,0,0,2.85-5.51c0-2.27-1.89-3.05-4.22-1.74s-4.21,4.23-4.21,6.5A2.13,2.13,0,0,0,391.6,447v10.72L388,460.8c-3.53,3-5.9,7.49-5.9,11.09V474L380,475.15Z"/></g></g></svg>