<svg xmlns="http://www.w3.org/2000/svg" viewBox="0 0 417.43 244"><defs><style>.cls-1{fill:#333;}.cls-2{fill:#6fc5ff;}.cls-3{fill:#68d2e8;}.cls-4{fill:#2c3838;}.cls-5{fill:#424554;}</style></defs><title>Celular_3</title><g id="Capa_2" data-name="Capa 2"><g id="Ñëîé_1" data-name="Ñëîé 1"><path class="cls-1" d="M4.79,152.24,257.58,4.75c9.55-5.76,24-6.37,32.24-1.35L413,73.35a8.63,8.63,0,0,1,4.06,4.8,8.45,8.45,0,0,1-3.54,9.78L162.8,239.24c-9.55,5.77-24,6.37-32.23,1.36l-126-72.1a9.4,9.4,0,0,1,.23-16.26Z"/><path class="cls-2" d="M5.39,151.25,250.61,8.15c9.39-5.67,23.58-6.26,31.68-1.33L403.65,75.75l0,0a2.08,2.08,0,0,1,0,3.52L160.19,226c-8.79,5.31-22.09,5.87-29.69,1.25L5.62,154.59a2,2,0,0,1-.24-3.32Z"/><path class="cls-3" d="M5.38,151.27v0L250.61,8.15a28.19,28.19,0,0,1,3.64-1.84L160.19,226c-8.79,5.31-22.09,5.87-29.69,1.25L5.62,154.59A2,2,0,0,1,5.38,151.27Z"/><path class="cls-1" d="M288.33,11.13l7.44-4.35L399.52,65.71,394,69.07c-6.37,3.85-16,4.25-21.51.9l-84.07-48.1a6,6,0,0,1-2.23-2.26,6.3,6.3,0,0,1-.82-3.13A6.17,6.17,0,0,1,288.33,11.13Z"/><path class="cls-4" d="M63.05,192.76,77.52,201A6,6,0,0,1,80,205.66c0,1.81-1,2.67-2.3,1.91l-14.48-8.26a6,6,0,0,1-2.44-4.64C60.71,192.87,61.74,192,63.05,192.76Z"/><polygon class="cls-5" points="105.61 202.81 105.13 203.74 46.89 170.54 47.37 169.61 105.61 202.81"/></g></g></svg>