<?xml version="1.0" encoding="iso-8859-1"?>
<!-- Generator: Adobe Illustrator 19.0.0, SVG Export Plug-In . SVG Version: 6.00 Build 0)  -->
<svg version="1.1" id="Layer_1" xmlns="http://www.w3.org/2000/svg" xmlns:xlink="http://www.w3.org/1999/xlink" x="0px" y="0px"
	 viewBox="0 0 512 512" style="enable-background:new 0 0 512 512;" xml:space="preserve">
<path style="fill:#E8E6D9;" d="M435.711,352.974C482.451,316.992,512,263.984,512,204.868C512,96.473,412.667,8.601,290.133,8.601
	S68.267,96.473,68.267,204.868S167.6,401.135,290.133,401.135c21.951,0,43.15-2.834,63.173-8.086l103.3,77.475
	c6.637,4.978,15.756-1.485,13.258-9.396L435.711,352.974z"/>
<path style="fill:#72CCC5;" d="M290.667,69.401c-74.991,0-136,61.009-136,136s61.009,136,136,136s136-61.01,136-136
	S365.658,69.401,290.667,69.401z"/>
<path style="fill:#11BBA3;" d="M324.267,307.801c-74.991,0-136-61.009-136-136c0-28.933,9.088-55.779,24.55-77.85
	c-35.132,24.614-58.15,65.391-58.15,111.45c0,74.991,61.009,136,136,136c46.058,0,86.835-23.019,111.45-58.15
	C380.046,298.712,353.2,307.801,324.267,307.801z"/>
<g>
	<path style="fill:#66BF00;" d="M357.989,185.805l-5.023-15.07h14.5c2.675,0,5.173-1.337,6.656-3.563l17.067-25.6
		c0.307-0.461,0.566-0.953,0.772-1.467l5.142-12.858c1.084-2.707,0.607-5.79-1.243-8.045
		c-25.964-31.65-64.305-49.802-105.195-49.802c-25.42,0-50.222,7.068-71.724,20.442c-4.99,3.103-4.93,10.63,0.11,13.653
		l24.832,14.899c0.176,0.106,0.355,0.204,0.539,0.295l26.028,13.014l-12.039,18.06c-1.593,2.388-1.782,5.447-0.499,8.015
		l17.067,34.133c1.355,2.71,4.125,4.422,7.155,4.422h29.852l14.691,22.037c3.111,4.668,10.201,4.669,13.312,0l17.067-25.6
		C358.426,190.718,358.77,188.146,357.989,185.805z"/>
	<path style="fill:#66BF00;" d="M280.755,227.424c-1.355-2.71-4.125-4.422-7.155-4.422h-30.82l-23.257-23.257
		c-1.5-1.501-3.535-2.343-5.657-2.343h-23.178l-22.546-15.03c-4.859-3.239-11.635-0.133-12.373,5.643
		c-0.733,5.73-1.103,11.58-1.103,17.388c0,26.085,7.407,51.429,21.422,73.294c13.639,21.281,32.86,38.32,55.582,49.276
		c1.097,0.529,2.285,0.794,3.474,0.794c1.058,0,2.117-0.21,3.115-0.631c2.117-0.895,3.748-2.658,4.475-4.839l12.854-38.563
		c0.671-2.013,0.514-4.21-0.434-6.108l-2.745-5.489h38.257c5.835,0,9.771-6.348,7.155-11.578L280.755,227.424z"/>
	<path style="fill:#66BF00;" d="M423.937,203.096c-1.76-1.571-4.126-2.283-6.458-1.951l-34.078,4.868
		c-2.015,0.288-3.844,1.333-5.116,2.923l-34.133,42.667c-2.177,2.72-2.342,6.537-0.41,9.435l16.189,24.284l4.115,20.576
		c1.162,5.804,8.335,8.384,12.925,4.611c30.439-25.022,48.53-61.914,49.635-101.218
		C426.674,206.933,425.697,204.667,423.937,203.096z"/>
</g>
<g>
	<path style="fill:#58AB23;" d="M190.693,197.401h-0.004l-22.546-15.03c-2.304-1.536-5.238-1.771-7.757-0.622
		c-2.519,1.149-4.266,3.519-4.617,6.266c-0.733,5.73-1.103,11.58-1.103,17.388c0,26.085,7.407,51.429,21.422,73.294
		c13.639,21.281,32.86,38.32,55.582,49.276c1.097,0.529,2.285,0.794,3.474,0.794c1.058,0,2.117-0.21,3.115-0.631
		c2.117-0.895,3.748-2.658,4.475-4.839l11.626-34.878C221.795,268.821,198.073,235.979,190.693,197.401z"/>
	<path style="fill:#58AB23;" d="M364.047,305.897c0.551,2.756,2.509,5.022,5.156,5.966c0.876,0.313,1.785,0.465,2.687,0.465
		c1.826,0,3.628-0.625,5.082-1.82c9.73-7.999,18.192-17.215,25.247-27.331c-11.755,8.252-24.869,14.689-38.934,18.91
		L364.047,305.897z"/>
</g>
<path style="fill:#DDDAC5;" d="M132.267,247.535C59.218,247.535,0,301.022,0,367.001c0,33.31,15.098,63.429,39.443,85.095
	L9.518,489.504c-5.312,6.64,1.295,16.115,9.362,13.426l69.559-23.186c13.717,4.35,28.464,6.724,43.827,6.724
	c73.049,0,132.267-53.487,132.267-119.467S205.315,247.535,132.267,247.535z"/>
<path style="fill:#58AB23;" d="M192.74,392.111l-15.231-28.286l5.666-21.148c1.22-4.553-1.482-9.231-6.034-10.451
	c-4.55-1.217-9.231,1.483-10.451,6.034l-0.979,3.653l-18.418-34.205c-2.981-5.535-8.739-8.975-15.027-8.975
	c-6.288,0-12.046,3.44-15.027,8.975l-15.097,28.036l-18.713,5.014c-4.553,1.22-7.254,5.899-6.034,10.451
	c1.22,4.553,5.895,7.255,10.451,6.034l3.177-0.851L71.791,392.11c-2.875,5.34-2.735,11.636,0.374,16.843
	c3.11,5.207,8.588,8.316,14.652,8.316h41.911l14.567,14.567c3.289,3.287,8.78,3.287,12.067,0c3.333-3.333,3.333-8.735,0-12.068
	l-2.499-2.499h24.846c6.065,0,11.542-3.108,14.652-8.316C195.475,403.747,195.615,397.45,192.74,392.111z M152.868,400.203
	l2.499-2.499c3.333-3.333,3.333-8.735,0-12.068c-3.332-3.331-8.735-3.331-12.067,0l-14.567,14.567H86.82l19.151-35.605l0.987,3.681
	c1.234,4.606,6.183,7.346,10.746,5.95c4.335-1.327,6.913-5.989,5.74-10.367l-5.678-21.19l14.475-26.912c0,0,0.011,0.013,0.027,0.044
	l18.493,34.343l-3.178-0.851c-4.551-1.217-9.231,1.483-10.451,6.034c-1.22,4.553,1.482,9.231,6.034,10.451l18.713,5.014
	l15.836,29.41h-24.845V400.203z"/>
<path style="fill:#D1CDB2;" d="M34.133,341.401c0-26.703,8.393-51.611,22.885-72.652C22.569,290.315,0,326.274,0,367.001
	c0,33.31,15.098,63.429,39.443,85.095L9.518,489.504c-5.312,6.64,1.295,16.115,9.362,13.426l69.559-23.186
	c13.717,4.35,28.464,6.724,43.827,6.724c17.401,0,34.012-3.041,49.229-8.556C99.931,476.946,34.133,416.205,34.133,341.401z"/>
<g>
</g>
<g>
</g>
<g>
</g>
<g>
</g>
<g>
</g>
<g>
</g>
<g>
</g>
<g>
</g>
<g>
</g>
<g>
</g>
<g>
</g>
<g>
</g>
<g>
</g>
<g>
</g>
<g>
</g>
</svg>
