<svg height="511pt" viewBox="0 0 511.99976 511" width="511pt" xmlns="http://www.w3.org/2000/svg"><path d="m490.738281 154.273438c-6.484375-14.875-24.464843-20.804688-38.484375-12.636719-11.871094 6.914062-16.695312 21.625-11.1875 34.210937 10.8125 24.707032 16.8125 51.980469 16.8125 80.628906 0 111.5-90.847656 202.179688-202.410156 201.898438-110.695312-.273438-201.109375-90.683594-201.386719-201.378906-.28125-111.566406 90.398438-202.417969 201.898438-202.417969 23.660156 0 46.382812 4.101563 67.496093 11.617187-11.175781 4.609376-19.058593 15.570313-19.136718 28.390626-.101563 17.101562 14.476562 31.089843 31.578125 31.089843h62.695312c17.070313 0 30.902344-13.835937 30.902344-30.902343v-62.738282c0-17.003906-13.90625-31.539062-30.910156-31.535156-15.332031.003906-28.050781 11.175781-30.472657 25.824219-33.867187-16.539063-71.925781-25.824219-112.152343-25.824219-70.6875 0-134.683594 28.652344-181.003907 74.972656-46.324218 46.324219-74.976562 110.320313-74.976562 181.007813 0 70.683593 28.652344 134.679687 74.976562 181.003906 46.320313 46.324219 110.316407 74.972656 181.003907 74.972656 70.683593 0 134.679687-28.648437 181.003906-74.972656s74.972656-110.320313 74.972656-181.003906c0-36.335938-7.570312-70.898438-21.21875-102.207031zm0 0" fill="#92c52c"/><path d="m335.242188 125.675781h63.371093c17.070313 0 30.902344-13.835937 30.902344-30.902343v-63.371094c0-17.066406-13.832031-30.902344-30.902344-30.902344v71.097656c0 12.800782-10.375 23.175782-23.175781 23.175782h-71.097656c0 17.066406 13.835937 30.902343 30.902344 30.902343zm0 0" fill="#6fa420"/><g fill="#35404a"><path d="m255.980469 87.027344c-4.269531 0-7.726563 3.460937-7.726563 7.726562v29.871094c0 4.269531 3.457032 7.726562 7.726563 7.726562 4.265625 0 7.726562-3.457031 7.726562-7.726562v-29.871094c0-4.265625-3.460937-7.726562-7.726562-7.726562zm0 0"/><path d="m255.980469 380.605469c-4.269531 0-7.726563 3.460937-7.726563 7.726562v29.871094c0 4.269531 3.457032 7.726563 7.726563 7.726563 4.265625 0 7.726562-3.457032 7.726562-7.726563v-29.871094c0-4.265625-3.460937-7.726562-7.726562-7.726562zm0 0"/><path d="m417.703125 248.753906c-6.417969 0-155.292969 0-161.722656 0v15.449219h161.722656c4.269531 0 7.726563-3.457031 7.726563-7.722656 0-4.269531-3.457032-7.726563-7.726563-7.726563zm0 0"/><path d="m131.851562 256.480469c0-4.269531-3.457031-7.726563-7.726562-7.726563h-29.871094c-4.269531 0-7.726562 3.457032-7.726562 7.726563 0 4.265625 3.457031 7.722656 7.726562 7.722656h29.871094c4.269531 0 7.726562-3.457031 7.726562-7.722656zm0 0"/><path d="m181.808594 112.558594c-2.132813-3.695313-6.863282-4.960938-10.554688-2.828125-3.695312 2.132812-4.960937 6.859375-2.828125 10.554687l9.785157 16.949219c2.136718 3.699219 6.863281 4.957031 10.554687 2.828125 3.695313-2.136719 4.960937-6.859375 2.828125-10.554688zm0 0"/><path d="m333.746094 375.722656c-2.132813-3.695312-6.859375-4.960937-10.554688-2.824218-3.691406 2.132812-4.960937 6.855468-2.824218 10.550781l9.785156 16.949219c2.136718 3.699218 6.863281 4.960937 10.550781 2.828124 3.695313-2.132812 4.960937-6.859374 2.828125-10.554687zm0 0"/><path d="m382.953125 192.09375 16.949219-9.785156c3.691406-2.136719 4.960937-6.859375 2.824218-10.554688-2.132812-3.695312-6.859374-4.960937-10.550781-2.828125l-16.949219 9.785157c-3.695312 2.132812-4.960937 6.859374-2.828124 10.554687 2.136718 3.699219 6.863281 4.957031 10.554687 2.828125zm0 0"/><path d="m129.007812 320.867188-16.949218 9.785156c-3.695313 2.132812-4.960938 6.859375-2.828125 10.550781 2.136719 3.703125 6.863281 4.960937 10.554687 2.828125l16.949219-9.785156c3.695313-2.132813 4.960937-6.859375 2.828125-10.554688-2.136719-3.695312-6.863281-4.960937-10.554688-2.824218zm0 0"/><path d="m136.734375 178.710938-16.949219-9.785157c-3.695312-2.132812-8.421875-.867187-10.554687 2.828125-2.132813 3.695313-.867188 8.417969 2.828125 10.554688l16.949218 9.785156c3.691407 2.132812 8.417969.871094 10.554688-2.828125 2.132812-3.695313.867188-8.421875-2.828125-10.554687zm0 0"/><path d="m399.902344 330.652344-16.949219-9.785156c-3.695313-2.136719-8.421875-.871094-10.554687 2.824218-2.132813 3.695313-.867188 8.421875 2.828124 10.554688l16.949219 9.785156c3.691407 2.132812 8.417969.871094 10.550781-2.828125 2.136719-3.691406.867188-8.417969-2.824218-10.550781zm0 0"/><path d="m188.765625 372.898438c-3.695313-2.136719-8.421875-.871094-10.554687 2.824218l-9.785157 16.949219c-2.132812 3.695313-.867187 8.421875 2.828125 10.554687 3.691406 2.132813 8.417969.871094 10.554688-2.828124l9.785156-16.949219c2.132812-3.691407.867188-8.417969-2.828125-10.550781zm0 0"/><path d="m308.605469 203.851562c-3.015625-3.015624-7.910157-3.015624-10.925781 0l-39.144532 39.144532 10.925782 10.925781 39.144531-39.144531c3.015625-3.015625 3.015625-7.90625 0-10.925782zm0 0"/></g><path d="m276.582031 256.480469c0 11.378906-9.222656 20.601562-20.601562 20.601562-11.378907 0-20.601563-9.222656-20.601563-20.601562 0-11.378907 9.222656-20.601563 20.601563-20.601563 11.378906 0 20.601562 9.222656 20.601562 20.601563zm0 0" fill="#6fa420"/><path d="m490.492188 153.746094c-6.683594-14.484375-24.386719-20.179688-38.242188-12.109375-.609375.351562-1.191406.734375-1.761719 1.128906 48.359375 82.128906 41.359375 196.15625-35.355469 272.867187-42.511718 42.511719-99.03125 65.921876-159.152343 65.921876-52.792969 0-101.394531-18.15625-137.097657-46.546876-13.144531-10.449218-32.03125-9.398437-43.90625 2.476563 46.320313 46.320313 110.316407 74.972656 181.003907 74.972656 70.683593 0 134.679687-28.652343 181.003906-74.972656 74.800781-74.800781 95.675781-187.605469 53.507813-283.738281zm0 0" fill="#6fa420"/></svg>