<svg xmlns="http://www.w3.org/2000/svg" viewBox="0 0 548.29 370.3"><defs><style>.cls-1{isolation:isolate;}.cls-2{fill:#bec1c1;}.cls-2,.cls-29,.cls-8{mix-blend-mode:multiply;}.cls-3{fill:#706e70;}.cls-4{fill:#8e8b8e;}.cls-5{fill:#827f82;}.cls-6{fill:#a7a5a7;}.cls-7{fill:#b8b6b8;}.cls-8{fill:#c8c7d1;}.cls-9{fill:#727175;}.cls-10{fill:#504f54;}.cls-11{fill:#cac8ca;}.cls-12{fill:#d8d6d8;}.cls-13{fill:#4d4c51;}.cls-14{fill:#8e8d90;}.cls-15{fill:#609a45;}.cls-16{fill:#abdf66;}.cls-17{fill:#c24f2e;}.cls-18{fill:#f98145;}.cls-19{fill:#343339;}.cls-20{fill:#646367;}.cls-21{fill:#716d71;}.cls-22{fill:#212427;}.cls-23{fill:#333639;}.cls-24{fill:#2b2e31;}.cls-25{fill:#1c1f22;}.cls-26{fill:#2c3033;}.cls-27{fill:#2c2c2c;}.cls-28{fill:#1b1b1b;}.cls-29{fill:#a6a7ab;}.cls-30{fill:#4f5151;}.cls-31{fill:#757575;}.cls-32{fill:#c61c45;}.cls-33{fill:#f55272;}.cls-34{fill:#ff869e;}.cls-35{fill:#c76e00;}.cls-36{fill:#ffba00;}.cls-37{fill:#fff042;}.cls-38{fill:#ecdc0f;}.cls-39{fill:#054aa2;}.cls-40{fill:#1587d7;}.cls-41{fill:#45a5e9;}.cls-42{fill:#459029;}.cls-43{fill:#9ed529;}.cls-44{fill:#aada44;}.cls-45{fill:#383838;}.cls-46{fill:#848484;}.cls-47{fill:#8b8b8b;}</style></defs><title>Consola de Videojuego</title><g class="cls-1"><g id="Capa_2" data-name="Capa 2"><g id="Ñëîé_1" data-name="Ñëîé 1"><path class="cls-2" d="M425.55,242.73c-14-9.88-46.52-4.44-79.1,13.26-31.38,17-80.68,60.83-100.83,83.48-19,21.41-35.32,28.22-62.26,26.08-22.55-1.81-80.72-13.73-79.06-46.82,1.38-27.63,25.46-40.56,32.84-43.89l18.55,11.78c7.74,4.93,19.33,7.93,31.23,8.71,11.44.76,37.7,3.82,46.53.21,70.21-32.26,113.52-73.39,164.3-118,11.61-11.46,8.07-30.52-7.16-40.17l-151-95.93c-5.73-3.65-15.51-4-21.77-.75C139.66,82.06,71.34,120.55,6.23,170.2c-1.28,1-4.93,8.78-5.51,10-1.73,3.6-.34,7.77,4,10.51l128.19,81.44c-10,5.15-31.2,19.18-32.56,46.36-1.76,35.31,53.36,49.08,82.76,51.43,3.14.25,6.15.38,9,.38,22.88,0,38.81-8.06,56.34-27.76,20-22.44,68.73-65.78,99.75-82.62s62.5-22.45,75.18-13.5c13.89,9.8,45.81,11,47.17,11.05l.12-4.38C470.37,253.08,438.52,251.88,425.55,242.73Z"/><path class="cls-3" d="M73.09,147.45q56.4-39.91,118.73-75.94v219a42.25,42.25,0,0,1-7-3.53C131,252.72,87.68,225.19,33.82,191c-2.92-1.87-4.5-4.42-4.64-7h-.06V149.85Z"/><path class="cls-4" d="M429.87,128v46.26a24.36,24.36,0,0,1-3,3.59c-50.79,44.6-108.65,81.37-178.84,113.63a45.62,45.62,0,0,1-5,1.67V43.1L247,41c6.25-3.25,16-2.9,21.76.72,49.35,31.38,89.9,57.12,137.76,87.55Z"/><path class="cls-5" d="M433.77,127.78v34.05h0a22.48,22.48,0,0,1-3.87,12.43V128Z"/><path class="cls-5" d="M243.1,43.1V293.15c-15.45,4.48-36.75,3.22-51.28-2.68v-219Q216.93,57,243.1,43.1Z"/><path class="cls-6" d="M426.89,144.1c-50.78,44.6-108.64,81.36-178.84,113.62-18,7.38-48,5.13-63.22-4.55l-151-95.93c-4.3-2.73-5.69-6.91-4-10.51.58-1.2,4.23-9,5.51-10C100.48,87.11,168.8,48.61,247,7.25,253.22,4,263,4.36,268.73,8l151,95.93C435,113.58,438.5,132.65,426.89,144.1Z"/><path class="cls-7" d="M418.29,131.78a645,645,0,0,1-81,60.58,798.66,798.66,0,0,1-95.35,51.5c-14.33,5.74-39.18,3.91-51.3-3.82L36.43,142.09c-2.35-1.51-2.61-4.22-.51-5.86,6.3-4.83,12.69-9.59,19.17-14.35,26.45-19.49,54.11-38.38,82.45-56.39C163.48,49,190.65,32.88,218.62,17.33c10-5.58,20.15-11.06,30.35-16.46a10.48,10.48,0,0,1,9.14.38l154.19,98C424.45,106.9,427.34,122.7,418.29,131.78Z"/><path class="cls-8" d="M383.33,145.09c-39.18,29.58-81.14,56.2-127.68,81.11-11.47,5.68-29.81,4.48-40.64-2.43Q135,172.83,55.09,121.88c26.45-19.49,54.11-38.38,82.45-56.39C163.48,49,190.65,32.88,218.62,17.33q80.47,51,160.89,101.9C390.38,126.14,392.3,137.8,383.33,145.09Z"/><path class="cls-6" d="M390.5,145.08a967.27,967.27,0,0,1-127.68,81.11c-11.47,5.69-29.83,4.48-40.66-2.42L58.41,119.42l-5.15,3.8c.91-.66,1.37-11,2.28-11.6,50.31-36.43,106.55-66.34,164-98.23L386.68,119.24C397.55,126.13,399.46,137.79,390.5,145.08Z"/><polygon class="cls-9" points="92.26 150.38 70.88 163.97 66.83 161.4 88.22 147.81 92.26 150.38"/><polygon class="cls-9" points="102.78 157.08 99.77 158.97 81.39 170.64 79.5 169.44 77.35 168.09 98.73 154.5 102.78 157.08"/><polygon class="cls-9" points="113.31 163.75 91.92 177.34 87.87 174.77 109.26 161.18 113.31 163.75"/><polygon class="cls-9" points="123.83 170.44 102.44 184.03 98.39 181.45 119.78 167.87 123.83 170.44"/><polygon class="cls-9" points="134.35 177.12 112.96 190.71 108.92 188.14 130.3 174.55 134.35 177.12"/><polygon class="cls-10" points="70.88 163.97 64.27 176.58 60.22 174.01 66.83 161.4 70.88 163.97"/><polygon class="cls-10" points="81.39 170.64 74.77 183.26 72.88 182.06 70.73 180.7 77.35 168.09 79.5 169.44 81.39 170.64"/><polygon class="cls-10" points="91.92 177.34 85.31 189.95 81.26 187.38 87.87 174.77 91.92 177.34"/><polygon class="cls-10" points="102.44 184.03 95.83 196.63 91.79 194.06 98.39 181.45 102.44 184.03"/><polygon class="cls-10" points="112.96 190.71 106.35 203.32 102.31 200.75 108.92 188.14 112.96 190.71"/><polygon class="cls-9" points="271.18 36.72 292.56 23.13 288.52 20.56 267.13 34.15 271.18 36.72"/><polygon class="cls-9" points="281.7 43.4 303.08 29.82 299.04 27.25 277.65 40.83 281.7 43.4"/><polygon class="cls-9" points="292.22 50.09 313.61 36.5 309.56 33.93 288.17 47.52 292.22 50.09"/><polygon class="cls-9" points="302.74 56.77 324.13 43.19 320.08 40.62 298.7 54.2 302.74 56.77"/><polygon class="cls-9" points="313.26 63.46 334.65 49.87 330.6 47.3 309.22 60.89 313.26 63.46"/><polygon class="cls-10" points="292.56 23.13 299.17 27.34 295.13 24.77 288.52 20.56 292.56 23.13"/><polygon class="cls-10" points="303.08 29.82 309.69 34.03 305.65 31.46 299.04 27.25 303.08 29.82"/><polygon class="cls-10" points="313.61 36.5 320.21 40.71 316.17 38.14 309.56 33.93 313.61 36.5"/><polygon class="cls-10" points="324.13 43.19 330.74 47.4 326.69 44.83 320.08 40.62 324.13 43.19"/><polygon class="cls-10" points="334.65 49.87 341.26 54.08 337.21 51.51 330.6 47.3 334.65 49.87"/><path class="cls-11" d="M390.5,139.1a967.27,967.27,0,0,1-127.68,81.11c-11.47,5.69-29.83,4.48-40.66-2.42L55.54,111.62a1584.65,1584.65,0,0,1,164-104.21L386.68,113.27C397.55,120.15,399.46,131.81,390.5,139.1Z"/><path class="cls-12" d="M386.68,113.27,219.56,7.41l-.95.54L383.46,112.36c10.73,6.79,12.61,18.31,3.76,25.51A955.17,955.17,0,0,1,261.14,218c-11.33,5.62-29.45,4.42-40.15-2.4L56.62,110.84c-.35.26-.72.51-1.08.78L222.16,217.79c10.84,6.9,29.19,8.11,40.66,2.42A967.27,967.27,0,0,0,390.5,139.1C399.46,131.81,397.55,120.15,386.68,113.27Z"/><ellipse class="cls-9" cx="235.36" cy="121.66" rx="66.41" ry="104.54" transform="translate(112.14 356.2) rotate(-89.62)"/><ellipse class="cls-11" cx="235.36" cy="121.66" rx="65.32" ry="102.81" transform="matrix(0.01, -1, 1, 0.01, 112.14, 356.2)"/><ellipse class="cls-12" cx="233.36" cy="117.82" rx="58.53" ry="92.14" transform="translate(113.98 350.39) rotate(-89.62)"/><path class="cls-8" d="M254.49,213.19h0c-5.13,3.26-13,3.61-17.42.79l-8.21-5.22c-4.45-2.82-3.88-7.8,1.25-11.07h0c5.13-3.26,13-3.62,17.42-.79l8.21,5.22C260.19,204.94,259.63,209.92,254.49,213.19Z"/><path class="cls-13" d="M259.22,213.19h0c-5.13,3.26-13,3.61-17.42.79l-8.21-5.22c-4.45-2.82-3.88-7.8,1.25-11.07h0c5.13-3.26,13-3.62,17.42-.79l8.21,5.22C264.92,204.94,264.36,209.92,259.22,213.19Z"/><polygon class="cls-13" points="230.62 199.26 230.62 203.54 243.29 211.65 263.47 207.45 263.47 202.32 230.62 199.26"/><path class="cls-14" d="M259.22,209h0c-5.13,3.26-13,3.62-17.42.79l-8.21-5.22c-4.45-2.82-3.88-7.8,1.25-11.06h0c5.13-3.27,13-3.62,17.42-.8l8.21,5.22C264.92,200.71,264.36,205.69,259.22,209Z"/><path class="cls-9" d="M257.86,208.54h0c-4.87,3.09-12.29,3.43-16.51.75l-7.78-4.94c-4.21-2.68-3.68-7.4,1.19-10.49h0c4.86-3.09,12.29-3.43,16.5-.75l7.79,4.94C263.26,200.73,262.73,205.45,257.86,208.54Z"/><path class="cls-15" d="M299.53,190l-4.71,3a6,6,0,0,1-5.82.27h0c-1.49-.94-1.3-2.61.42-3.7l4.7-3a6,6,0,0,1,5.82-.26h0C301.43,187.29,301.24,189,299.53,190Z"/><path class="cls-16" d="M295.92,191.43l-2.68,1.7a3.4,3.4,0,0,1-3.32.15h0c-.85-.53-.74-1.48.24-2.1l2.68-1.71a3.43,3.43,0,0,1,3.32-.15h0C297,189.86,296.89,190.81,295.92,191.43Z"/><path class="cls-17" d="M318.15,178.21l-4.71,3a6,6,0,0,1-5.82.27h0c-1.48-.95-1.3-2.61.42-3.7l4.71-3a6,6,0,0,1,5.82-.27h0C320.05,175.46,319.87,177.12,318.15,178.21Z"/><path class="cls-18" d="M314.81,179.2l-2.68,1.7a3.39,3.39,0,0,1-3.31.15h0c-.85-.54-.74-1.48.24-2.1l2.68-1.71a3.39,3.39,0,0,1,3.31-.15h0C315.9,177.63,315.79,178.58,314.81,179.2Z"/><polygon class="cls-10" points="64.26 176.59 64.26 193.37 60.22 190.78 60.22 174.01 64.26 176.59"/><polygon class="cls-19" points="87.36 151.11 68.99 162.78 62.37 175.4 62.37 192.17 64.26 193.37 64.26 176.59 70.88 163.98 89.25 152.31 87.36 151.11"/><polygon class="cls-7" points="64.26 190.63 64.26 193.37 60.22 190.78 62.37 189.43 64.26 190.63"/><polygon class="cls-10" points="74.77 183.26 74.77 200.03 72.88 198.84 70.73 197.48 70.73 180.7 72.88 182.06 74.77 183.26"/><polygon class="cls-19" points="97.87 157.78 79.5 169.44 72.88 182.06 72.88 198.84 74.77 200.03 74.77 183.26 81.39 170.64 99.77 158.97 97.87 157.78"/><polygon class="cls-10" points="85.31 189.95 85.31 206.72 81.26 204.15 81.26 187.38 85.31 189.95"/><polygon class="cls-19" points="108.41 164.47 90.04 176.13 83.42 188.75 83.42 205.53 85.31 206.72 85.31 189.95 91.93 177.33 110.3 165.66 108.41 164.47"/><polygon class="cls-10" points="95.83 196.63 95.83 213.41 91.79 210.84 91.79 194.06 95.83 196.63"/><polygon class="cls-19" points="118.93 171.15 100.56 182.82 93.94 195.43 93.94 212.21 95.83 213.41 95.83 196.63 102.45 184.02 120.82 172.35 118.93 171.15"/><polygon class="cls-10" points="106.35 203.32 106.35 220.09 102.31 217.52 102.31 200.75 106.35 203.32"/><polygon class="cls-19" points="129.45 177.84 111.08 189.5 104.46 202.12 104.46 218.9 106.35 220.09 106.35 203.32 112.97 190.7 131.34 179.03 129.45 177.84"/><polygon class="cls-7" points="74.79 197.3 74.79 200.04 70.75 197.45 72.9 196.1 74.79 197.3"/><polygon class="cls-7" points="85.31 203.98 85.31 206.72 81.27 204.14 83.42 202.78 85.31 203.98"/><polygon class="cls-7" points="95.83 210.67 95.83 213.41 91.79 210.82 93.94 209.47 95.83 210.67"/><polygon class="cls-7" points="106.35 217.35 106.35 220.09 102.31 217.51 104.46 216.15 106.35 217.35"/><path class="cls-8" d="M376,136h0c-5.14,3.26-13,3.62-17.42.8l-8.22-5.22c-4.44-2.83-3.88-7.81,1.25-11.07h0c5.14-3.26,13-3.62,17.42-.79l8.22,5.21C381.67,127.77,381.1,132.75,376,136Z"/><path class="cls-13" d="M380.7,136h0c-5.14,3.26-13,3.62-17.42.8l-8.22-5.22c-4.44-2.83-3.88-7.81,1.25-11.07h0c5.14-3.26,13-3.62,17.42-.79l8.22,5.21C386.4,127.77,385.83,132.75,380.7,136Z"/><polygon class="cls-13" points="352.09 122.08 352.09 126.36 364.76 134.47 384.95 130.27 384.95 125.15 352.09 122.08"/><path class="cls-14" d="M380.7,131.77h0c-5.14,3.27-13,3.62-17.42.8l-8.22-5.22c-4.44-2.83-3.88-7.81,1.25-11.07h0c5.14-3.26,13-3.62,17.42-.79l8.22,5.22C386.4,123.53,385.83,128.51,380.7,131.77Z"/><path class="cls-9" d="M379.34,131.37h0c-4.87,3.09-12.3,3.43-16.51.75L355,127.18c-4.21-2.68-3.68-7.4,1.19-10.49h0c4.87-3.09,12.29-3.43,16.51-.75l7.78,4.94C384.73,123.56,384.2,128.28,379.34,131.37Z"/><path class="cls-20" d="M168.86,257.91v0l-.1,1.65c0,3.88-3.74,6.23-6.74,4.34l-1.29-.84-18-11.57a7.88,7.88,0,0,1-1.85-1.65,9.47,9.47,0,0,1-2.24-6.27l.14-1.73c0-3.84,3.71-6.22,6.71-4.3L164.78,250a9.17,9.17,0,0,1,4.08,7.92Z"/><path class="cls-21" d="M168.63,259.62l-19.28-12.4a9.26,9.26,0,0,1-4.08-7.91l.12-1.72s0,0,0-.05c-3-1.79-6.59.54-6.62,4.36l-.13,1.72a9.31,9.31,0,0,0,4.09,7.91L162,263.93c3,1.91,6.66-.42,6.73-4.26Z"/><path class="cls-22" d="M168.86,257.91v0l-8.13,5.15-1.19.77-22.32-14.15,3.67.16L166.07,251A9.35,9.35,0,0,1,168.86,257.91Z"/><polygon class="cls-22" points="124.17 265.84 132.11 270.88 137.04 267.75 124.17 260.8 124.17 265.84"/><polygon class="cls-22" points="130.31 257.74 148.1 269.04 159.52 263.87 137.23 249.71 130.31 257.74"/><polygon class="cls-22" points="129.1 264.09 137.04 269.04 148.1 269.04 140.21 261.75 137.56 259.58 129.1 256.71 129.1 264.09"/><polygon class="cls-23" points="137.23 241.66 159.52 255.82 167 251.07 144.71 236.91 137.23 241.66"/><polygon class="cls-24" points="124.17 260.8 132.11 265.84 137.04 262.71 129.1 257.66 124.17 260.8"/><polygon class="cls-23" points="130.31 248.92 148.1 260.21 159.52 255.82 137.23 241.66 130.31 248.92"/><polygon class="cls-24" points="129.1 256.71 137.04 261.75 148.1 260.21 130.31 248.92 129.1 256.71"/><polygon class="cls-25" points="141.57 256.07 148.81 255.84 156.57 253.42 162.87 249.42 147.31 239.53 141.01 243.53 137.2 248.46 136.85 253.07 141.57 256.07"/><polygon class="cls-23" points="143.28 242.53 158.15 251.98 160.52 250.47 145.65 241.03 143.28 242.53"/><polygon class="cls-23" points="140.4 246.94 151.2 253.81 154.42 252.84 141.93 244.9 140.4 246.94"/><polygon class="cls-23" points="138.72 251.71 143.7 254.88 147.73 254.42 139.43 249.15 138.72 251.71"/><path class="cls-26" d="M189.25,366.79c-35.13,0-63.76-20.75-65.69-22.18-22.46-16.66-20.65-26.16-17-45.06l.52-2.7c4.72-25,20.59-32.71,21.26-33l1.57,4c-.59.29-14.65,7.26-18.93,29.89l-.52,2.72C106.88,319,105.54,326,125.78,341c3.07,2.28,75.9,55,131.47-14.05,66.23-82.31,151.64-94.53,152.46-94.6,1.73-.15,3.25-.31,4.6-.45,9.72-1,12.24-1,25.36,6.86l-1.89,3.85c-12.53-7.46-14.15-7.26-23.09-6.35-1.38.15-2.91.31-4.67.46-16,1.39-92.82,22.34-149.78,93.14C237.49,358.09,212,366.79,189.25,366.79Z"/><path class="cls-2" d="M544.83,271.29s9,14.43-16.65,13.16-26.6-10.86-33.92-7.32-28.33,16.59-29.76,17.64,3,32.93,3,32.93-4.43,10.77-21.87,4.86-26.16-17.28-29.15-22.84-17.75-8.09-21.39-15.16-4.51-15.19,5.45-22.25,59.13-24.26,59.13-24.26Z"/><path class="cls-27" d="M434.83,278.53s-1.09,1.37-2.7,3.31c-3.51,4.22-9.5,11.16-12.26,12.76-.64.34-5.36,4-8.61,3.06-2.06-.59-7-5.35-7.6-7.93a1.6,1.6,0,0,0-.05-.21c-.35-1.71.61-7.86,1.29-13.29.7-5.61,2.44-9.56,3.79-16.89,1-5.38,6.53,10.2,6.53,10.2S440,270.24,434.83,278.53Z"/><path class="cls-28" d="M432.13,281.84c-3.51,4.22-9.5,11.16-12.26,12.76-.64.34-5.36,4-8.61,3.06-2.06-.59-7-5.35-7.6-7.93a1.6,1.6,0,0,0-.05-.21c.28.5,5.6,5.17,5.93,5.44,1.91,1.51,4.68.43,7.09-2.53s1-7.4,1-7.4c0-6.1,8.39-7.43,14.13-3.45Z"/><path class="cls-27" d="M460.7,330.88c-26.53,0-39.32-45.76-43.07-45.85-23.89-.61,4.51-28.43.32-21.91l-7.39,5.5a72.05,72.05,0,0,1-1.86-9.11c.51-3.55,1.94-6.64,2.93-7.17,3.4-1.83,10.66-2.74,10.82-2.8l.32-.12,5.64-1,13.49-5.65,12.8-14.1,2.38-4.15.36-.37a36,36,0,0,1,6.1-5,14.25,14.25,0,0,1,7.47-2.6c.23,0,.45,0,.67,0h.23l.22,0A92.18,92.18,0,0,1,487,221.39l3.9,1.64a150.63,150.63,0,0,1,30.69,18.09c24.12,18.27,26.68,26.57,26.52,31.23a8.75,8.75,0,0,1-3.89,7.07,7.15,7.15,0,0,1-.89.65,14.77,14.77,0,0,1-8.05,2h0a50.1,50.1,0,0,1-19-4.56c-3.17-1.45-9.26-4.67-13.16-6.3a5.5,5.5,0,0,0-5.1.45l-34.79,21.88c-1.17,3.7,3,6.94,3,6.94C471.73,316.89,471.49,330.88,460.7,330.88Z"/><path class="cls-4" d="M467.25,302.7s4.58,20.89-1.61,24.24c-8.58,4.63-21.31-7.06-27-17.26s-6.89-10.79-6.89-11S467.25,302.7,467.25,302.7Z"/><path class="cls-4" d="M532.6,247.41c-11.13-.65-23.25-6.48-34-9.5-3.48-1-6.94-2.06-10.4-3.12a17.57,17.57,0,0,0-11.19-.13c-5.8,1.93-11.13,6-15.5,10.51-8.35,8.72-14.11,21.06-13.86,33.91.1,4.78,0,10.71,2.5,14.85,3.26,5.46,9.92,4.51,15.08,2.52-.46-1-.94-2.05-1.38-3.12a9.16,9.16,0,0,1,3.4-11.22l29.87-18.28a5,5,0,0,1,6.37.89A43.6,43.6,0,0,0,534,280.38c7.13.52,14.3-2.37,14.29-11.4C548.29,265.06,547.55,260.48,532.6,247.41Z"/><path class="cls-4" d="M548.26,270c-.53,8.22-7.4,10.87-14.26,10.38a43.61,43.61,0,0,1-30.48-15.67,5,5,0,0,0-6.37-.89l-8.66,5.3-1,.61-11.43,7-.93.57-7.86,4.81a9,9,0,0,0-4,8.93l-.91.59s-3.56-2.34-1.67-8S489.85,264,492.78,262.2s9-3.36,13.32-.84c1.95,1.15,1.54,3.63,4.44,6.64,3.5,3.64,10.8,7.89,19.37,9.45a31.72,31.72,0,0,0,5.62.55c12.63,0,12.73-9.92,12.73-9.93C548.25,268.79,548.25,269.43,548.26,270Z"/><path class="cls-4" d="M427.33,293s-3.76-6.12-6.84-8.8c-.75-.57-2.7-.5-5,1.36a3.61,3.61,0,0,1-3.47.64c-2.95-1-6.41-4.78-7-7.37-.55-2.24,2.46-20.62,3.39-24.52.75-3.1,1.49-.1,2.34-2.36,1.9-5.08,4.54,5.66,4.54,5.66S432.51,284.71,427.33,293Z"/><path class="cls-4" d="M520.17,236.56c-11.38-8.62-21.26-14.49-30.16-18.38l-4-1.68a29.5,29.5,0,0,0-5.43-1.64,50.81,50.81,0,0,1-5.9,1.15c-4.41.65-2.59-2.86-7-2.48-1.67,1.35-5.47,2.67-6.38,4.27-.33.57-6.12,7.34-6.6,7.78l-6.7,5.67a31.62,31.62,0,0,1-9.62,6.35L425,244.24l-.48.33a47.07,47.07,0,0,0-6.39,2.06c-1.37.59-7.34,2-7.8,3.48-4.69,15.08,1.57,24.84,1.57,24.84,3.09,6.7,8.6,6,13.88,15.57,10.52,19,29,41.09,40.52,33.13,3.94-2.71,1.76-19,.35-23.66-1.61-5.35-2.46-8.33-3.14-11.22a8.42,8.42,0,0,1,3.43-9l14.18-9,14.45-9.18a10.77,10.77,0,0,1,9.51-1.1c3,1.07,6.41,4.06,13.4,7.25,14.73,6.72,24.52,4.73,26.39,3.54a3.89,3.89,0,0,0,.63-.47C552.13,266.57,542.66,253.6,520.17,236.56Z"/><path class="cls-11" d="M431.39,284.92c-1.54-3.95-5.95-6.09-10-7.41-8-2.61-14.24-8.45-13.54-19.74.71-11.62,9.75-13.82,16.86-15.62a53.77,53.77,0,0,0,8.12-2.68l6.32-2.66a38.06,38.06,0,0,0,10.87-7s7.71-8.73,10.29-11.41a32.62,32.62,0,0,1,6-4.6c7.81-4.58,16-2.59,24.56,1.19C501,219.49,509.7,228.63,519,235.67c9.91,7.49,17.13,13.82,20.17,17.24,5.34,6.54,5.79,10.24,3.56,11.89s-10.76.14-18-3.93c-14.75-8.28-21.64-4.17-27.86-.31-2.9,1.81-4.33,2.79-6.12,3.92L471,277.09c-9.2,5.85-9.74,7-7.11,16.54.87,3.14,5.79,20.92,1.46,24.05-2.12,1.53-6.17,1.33-11-1.77C447.68,311.61,435.54,295.57,431.39,284.92Z"/><path class="cls-4" d="M416.51,247.8c-6.94,4.41-7.25,13.14-.7,19.5s17.49,7.95,24.43,3.54,7.25-13.14.69-19.5a20.46,20.46,0,0,0-4.56-3.33,22.52,22.52,0,0,0-4.09-1.71c-5.45-1.68-11.4-1.28-15.77,1.5Z"/><path class="cls-6" d="M416.72,247.39a11,11,0,0,0-5.11,7.17c-.78,3.92.68,8.34,4.43,12l0,0c6.44,6.21,17.14,7.74,23.94,3.43s7.11-12.9.68-19.15-17.18-7.81-24-3.48Z"/><path class="cls-4" d="M468.21,217.48c-6.94,4.41-7.25,13.14-.7,19.5s17.49,8,24.43,3.54,7.25-13.13.7-19.5a20.39,20.39,0,0,0-4.57-3.32A22.56,22.56,0,0,0,484,216c-5.44-1.67-11.4-1.27-15.77,1.5Z"/><path class="cls-6" d="M468.73,217.13c-6.81,4.32-7.12,12.9-.68,19.15s17.17,7.8,24,3.48,7.12-12.91.69-19.16a20.24,20.24,0,0,0-4.48-3.26,21.09,21.09,0,0,0-4-1.68c-5.35-1.65-11.2-1.26-15.49,1.47Z"/><path class="cls-12" d="M419.63,248c-5.32,3.38-5.55,10.07-.54,14.94s13.39,6.08,18.7,2.7,5.55-10.05.53-14.92-13.38-6.09-18.69-2.72Z"/><path class="cls-4" d="M423.41,251.7c-3.1,2-3.24,5.87-.31,8.71S430.91,264,434,262s3.24-5.87.31-8.71-7.81-3.55-10.91-1.58Z"/><path class="cls-29" d="M425.44,255.28l-.29-.85a.68.68,0,0,0,.28-.7l-.36-1.54a.9.9,0,0,0-.26-.45l-.91-.88-2-2a1.26,1.26,0,0,0-1.47-.22l-2.78,1.77a.72.72,0,0,0,0,1.18l2,2,.9.88a1.3,1.3,0,0,0,.51.3l1.84.59a1.3,1.3,0,0,0,.73,0Z"/><path class="cls-29" d="M432,250.36l-2.14,1.36-.95.61a.68.68,0,0,0-.3.37l-.46,1.42a.8.8,0,0,0,.26.81l1.21,1.18a1.36,1.36,0,0,0,.95.36l1.87-.05a1.17,1.17,0,0,0,.53-.15l.95-.61L436,254.3a.72.72,0,0,0,.05-1.18l-2.63-2.55a1.27,1.27,0,0,0-1.48-.21Z"/><path class="cls-12" d="M471.63,217.76c-5.31,3.38-5.54,10.06-.53,14.93s13.39,6.09,18.7,2.71,5.55-10.06.53-14.93-13.38-6.08-18.7-2.71Z"/><path class="cls-29" d="M482.24,219.57A2.69,2.69,0,0,0,481,221.8c0,1.84,1.86,3.53,4.17,3.77a4.4,4.4,0,0,0,3-.67,2.67,2.67,0,0,0,1.23-2.23c0-1.83-1.86-3.52-4.18-3.77a4.5,4.5,0,0,0-3,.67Z"/><path class="cls-29" d="M470.53,227.18a2.71,2.71,0,0,0-1.2,2.25c0,1.84,1.92,3.49,4.24,3.69a4.45,4.45,0,0,0,2.95-.72,2.71,2.71,0,0,0,1.2-2.25c0-1.84-1.92-3.5-4.23-3.7a4.48,4.48,0,0,0-3,.73Z"/><path class="cls-29" d="M470.92,218.33a2.68,2.68,0,0,0-1.23,2.23c0,1.84,1.87,3.53,4.18,3.77a4.44,4.44,0,0,0,3-.67,2.68,2.68,0,0,0,1.23-2.23c0-1.84-1.86-3.53-4.17-3.77a4.46,4.46,0,0,0-3,.67Z"/><path class="cls-30" d="M427.83,251.76l-1.31-.49-.56-.55-2-2a1.26,1.26,0,0,0-1.47-.22l-1.21.77-1.55-.57-.32,1.95h0a.81.81,0,0,0,.26.8l2,2,.9.88a1.38,1.38,0,0,0,.51.3l1.84.59a1.18,1.18,0,0,0,1-.09l1.28-.81a.67.67,0,0,0,.31-.46h0Z"/><path class="cls-29" d="M425,259l-1.21-1.17a1.36,1.36,0,0,0-1-.37l-1.87.06a.93.93,0,0,0-.52.15l-.95.6-2.15,1.36a.72.72,0,0,0,0,1.18l2.62,2.55a1.32,1.32,0,0,0,1,.35l0,0,2.14-.14.17-1.16.35-.22.95-.6a.75.75,0,0,0,.3-.37l.45-1.43A.8.8,0,0,0,425,259Z"/><path class="cls-30" d="M427.62,257.49l-2,.12a1.44,1.44,0,0,0-.81-.25l-1.86.05a1,1,0,0,0-.53.16l-.43.27-2.66.17L419,260h0a.79.79,0,0,0,.25.75l2.63,2.55a1.27,1.27,0,0,0,1.48.22l2.14-1.37.95-.6a.75.75,0,0,0,.3-.37l.45-1.43a.8.8,0,0,0,0-.15h0Z"/><path class="cls-29" d="M435.73,262.34l-2-2-.9-.88a1.3,1.3,0,0,0-.51-.3l-1.84-.59a1.15,1.15,0,0,0-1,.09l-1.28.81a.66.66,0,0,0-.31.73l.35,1.54a.86.86,0,0,0,.27.45l.9.88,2,2a1.32,1.32,0,0,0,.95.35v0l2.05-.14-.16-.87,1.42-.91A.72.72,0,0,0,435.73,262.34Z"/><path class="cls-30" d="M438.07,262.83l.32-2-3.27-1.24-.27-.27a1.34,1.34,0,0,0-.5-.3l-1.85-.59a1.17,1.17,0,0,0-.55-.05l-1.68-.64-.34,2.05h0a.82.82,0,0,0,0,.27l.35,1.54a.86.86,0,0,0,.27.45l.9.88,2,2a1.28,1.28,0,0,0,1.48.22l2.78-1.77a.65.65,0,0,0,.32-.55Z"/><path class="cls-30" d="M438.73,251.63l-1.9.11-1.34-1.31a1.27,1.27,0,0,0-1.48-.21l-2.14,1.36-.74.47-.66,0-.34,2h0a.8.8,0,0,0,.27.68l1.21,1.18a1.37,1.37,0,0,0,.95.36l1.88-.05a1.13,1.13,0,0,0,.52-.15l1-.61,2.14-1.36a.67.67,0,0,0,.32-.52h0Z"/><path class="cls-31" d="M422.79,246.52,420,248.29a.72.72,0,0,0,0,1.18l2,2,.9.88a1.3,1.3,0,0,0,.51.3l1.84.59a1.16,1.16,0,0,0,1-.09l1.28-.81a.66.66,0,0,0,.31-.73l-.35-1.54a.86.86,0,0,0-.27-.45l-.9-.88-2-2a1.26,1.26,0,0,0-1.48-.22Z"/><path class="cls-31" d="M422.78,255.54l-1,.61-2.14,1.36a.72.72,0,0,0,0,1.18l2.62,2.55a1.27,1.27,0,0,0,1.48.21l2.15-1.36.95-.6a.68.68,0,0,0,.29-.37l.46-1.43a.82.82,0,0,0-.25-.81l-1.21-1.17a1.36,1.36,0,0,0-1-.37l-1.87,0a1.09,1.09,0,0,0-.52.15Z"/><path class="cls-31" d="M431.87,256.53l-1.28.82a.66.66,0,0,0-.32.72l.36,1.55a.84.84,0,0,0,.26.45l.9.88,2,2a1.28,1.28,0,0,0,1.48.22l2.78-1.77a.72.72,0,0,0,0-1.18l-2-2-.9-.88a1.38,1.38,0,0,0-.51-.3l-1.84-.59a1.19,1.19,0,0,0-1,.08Z"/><path class="cls-31" d="M434.34,248.2l-2.14,1.36-1,.61a.7.7,0,0,0-.29.37l-.46,1.42a.8.8,0,0,0,.26.81L432,254a1.36,1.36,0,0,0,1,.36l1.87-.05a1.09,1.09,0,0,0,.52-.15l1-.61,2.14-1.36a.72.72,0,0,0,0-1.18l-2.62-2.55a1.27,1.27,0,0,0-1.48-.21Z"/><path class="cls-32" d="M491.21,220.67l-1.7-.41a5.35,5.35,0,0,0-2.91-1.4,4.82,4.82,0,0,0-2.17.18l-1.47-.35-.54,2.22c0,.07,0,.14-.05.2l0,.11h0c0,.12,0,.24,0,.37-.06,1.83,1.75,3.6,4.06,3.93a4.34,4.34,0,0,0,3-.55,2.69,2.69,0,0,0,1.27-1.86h0Z"/><path class="cls-33" d="M484.21,217a2.65,2.65,0,0,0-1.3,2.17c-.07,1.84,1.75,3.6,4,3.94a4.44,4.44,0,0,0,3-.55,2.68,2.68,0,0,0,1.31-2.18c.07-1.84-1.75-3.6-4.05-3.93a4.37,4.37,0,0,0-3,.55Z"/><path class="cls-34" d="M490.1,217.79a3.25,3.25,0,0,1,.73,2.07,2.69,2.69,0,0,1-1.31,2.18,4.39,4.39,0,0,1-3,.54,5.21,5.21,0,0,1-2.9-1.39,5.13,5.13,0,0,0,3.32,1.87,4.44,4.44,0,0,0,3-.55,2.68,2.68,0,0,0,1.31-2.18A3.43,3.43,0,0,0,490.1,217.79Z"/><path class="cls-29" d="M482,228.54a2.71,2.71,0,0,0-1.2,2.25c0,1.84,1.92,3.49,4.24,3.69a4.45,4.45,0,0,0,2.95-.72,2.71,2.71,0,0,0,1.2-2.25c0-1.85-1.92-3.5-4.24-3.69a4.4,4.4,0,0,0-3,.72Z"/><path class="cls-35" d="M491,229.61l-1.76-.38a5.29,5.29,0,0,0-2.87-1.36,4.68,4.68,0,0,0-2.36.23l-1.33-.28-.49,2.11a2,2,0,0,0-.08.35h0a1.55,1.55,0,0,0,0,.31c-.07,1.83,1.75,3.6,4.05,3.93a4.38,4.38,0,0,0,3-.55,2.75,2.75,0,0,0,1.24-1.68h0Z"/><path class="cls-36" d="M484,226a2.67,2.67,0,0,0-1.31,2.18c-.07,1.84,1.75,3.6,4,3.94a4.48,4.48,0,0,0,3-.55,2.68,2.68,0,0,0,1.3-2.18c.07-1.84-1.74-3.6-4.05-3.93a4.38,4.38,0,0,0-3,.54Z"/><path class="cls-37" d="M489.85,226.79a3.24,3.24,0,0,1,.73,2.08,2.64,2.64,0,0,1-1.31,2.17,4.33,4.33,0,0,1-3,.55,5.21,5.21,0,0,1-2.9-1.39,5.17,5.17,0,0,0,3.32,1.87,4.48,4.48,0,0,0,3-.55,2.68,2.68,0,0,0,1.3-2.18A3.43,3.43,0,0,0,489.85,226.79Z"/><path class="cls-29" d="M462.26,241.68a2.05,2.05,0,0,0-.9,1.68c0,1.38,1.44,2.62,3.17,2.76a3.23,3.23,0,0,0,2.21-.54,2,2,0,0,0,.9-1.68c0-1.38-1.44-2.61-3.17-2.76a3.34,3.34,0,0,0-2.21.54Z"/><path class="cls-35" d="M469,242.48l-1.32-.28a3.91,3.91,0,0,0-2.14-1,3.48,3.48,0,0,0-1.76.18l-1-.22-.37,1.58c0,.09,0,.17-.06.27h0a1.79,1.79,0,0,0,0,.23c-.05,1.37,1.31,2.69,3,2.94a3.25,3.25,0,0,0,2.23-.41,2,2,0,0,0,.92-1.25h0Z"/><path class="cls-38" d="M463.72,239.75a2,2,0,0,0-1,1.63c-.05,1.37,1.31,2.69,3,2.94a3.31,3.31,0,0,0,2.23-.41,2,2,0,0,0,1-1.63c0-1.37-1.31-2.69-3-2.94a3.25,3.25,0,0,0-2.23.41Z"/><path class="cls-29" d="M446.13,252a2,2,0,0,0-.89,1.69c0,1.37,1.43,2.61,3.17,2.76a3.33,3.33,0,0,0,2.2-.54,2,2,0,0,0,.9-1.69c0-1.37-1.43-2.61-3.17-2.76a3.37,3.37,0,0,0-2.21.54Z"/><path class="cls-35" d="M452.83,252.75l-1.32-.28a4,4,0,0,0-2.14-1,3.5,3.5,0,0,0-1.76.18l-1-.22-.36,1.58a2.68,2.68,0,0,0-.07.27h0a1.64,1.64,0,0,0,0,.22c-.05,1.38,1.31,2.69,3,2.94a3.25,3.25,0,0,0,2.23-.41,2,2,0,0,0,.93-1.25h0Z"/><path class="cls-38" d="M447.59,250a2,2,0,0,0-1,1.63c-.05,1.37,1.31,2.69,3,2.94a3.25,3.25,0,0,0,2.23-.41,2,2,0,0,0,1-1.63c0-1.37-1.31-2.69-3-2.94a3.31,3.31,0,0,0-2.23.41Z"/><path class="cls-39" d="M479.54,228.12l-1.76-.49a5.28,5.28,0,0,0-2.86-1.35,4.78,4.78,0,0,0-1.78.07l-1.79-.5-.66,2.68h0a2.42,2.42,0,0,0-.07.47c-.07,1.84,1.75,3.6,4.05,3.94a4.48,4.48,0,0,0,3-.55,2.75,2.75,0,0,0,1.21-1.6h0Z"/><path class="cls-40" d="M472.54,224.36a2.69,2.69,0,0,0-1.31,2.18c-.06,1.84,1.75,3.6,4,3.93a4.41,4.41,0,0,0,3-.54,2.69,2.69,0,0,0,1.31-2.18c.06-1.84-1.75-3.6-4.06-3.94a4.45,4.45,0,0,0-3,.55Z"/><path class="cls-41" d="M478.42,225.21a3.12,3.12,0,0,1,.73,2.06,2.67,2.67,0,0,1-1.3,2.18,4.37,4.37,0,0,1-3,.55,5.31,5.31,0,0,1-2.9-1.39,5.18,5.18,0,0,0,3.32,1.86,4.41,4.41,0,0,0,3-.54,2.69,2.69,0,0,0,1.31-2.18A3.43,3.43,0,0,0,478.42,225.21Z"/><path class="cls-42" d="M479.94,219l-2.11-.81a5.26,5.26,0,0,0-2.5-1.05c-.1,0-.2,0-.29,0l-.38-.14-2.94-.12-.59,2.41h0a2.91,2.91,0,0,0-.1.59c-.06,1.84,1.75,3.61,4.06,3.94a4.44,4.44,0,0,0,3-.55,2.73,2.73,0,0,0,1.21-1.57h0Z"/><path class="cls-43" d="M473,215.25a2.67,2.67,0,0,0-1.31,2.18c-.07,1.84,1.75,3.6,4.05,3.94a4.48,4.48,0,0,0,3-.55,2.68,2.68,0,0,0,1.3-2.18c.07-1.84-1.75-3.6-4.05-3.93a4.38,4.38,0,0,0-3,.54Z"/><path class="cls-44" d="M478.83,216.09a3.22,3.22,0,0,1,.73,2.08,2.68,2.68,0,0,1-1.31,2.17,4.33,4.33,0,0,1-3,.55,5.21,5.21,0,0,1-2.9-1.39,5.21,5.21,0,0,0,3.32,1.87,4.48,4.48,0,0,0,3-.55,2.68,2.68,0,0,0,1.3-2.18A3.42,3.42,0,0,0,478.83,216.09Z"/><path class="cls-6" d="M477.29,246.57c-4.54,2.89-4.75,8.59-.46,12.76s11.43,5.19,16,2.31,4.74-8.59.46-12.75-11.44-5.2-16-2.32Z"/><path class="cls-29" d="M473.35,250.23c-2.71,1.89-2.49,4.8.49,6.52a10.49,10.49,0,0,0,10.3-.3c2.71-1.89,2.49-4.8-.48-6.52a10.53,10.53,0,0,0-10.31.3Z"/><path class="cls-28" d="M479.61,247.81c-3.18,2-3.32,6-.32,8.93s8,3.64,11.19,1.62,3.31-6,.32-8.93-8-3.64-11.19-1.62Z"/><path class="cls-27" d="M481.08,249.24c-2.32,1.47-2.42,4.39-.23,6.51s5.84,2.66,8.16,1.18,2.42-4.38.23-6.51-5.84-2.66-8.16-1.18Z"/><path class="cls-4" d="M479.7,249.53c2.95-1.88,7.6-1.2,10.39,1.51,2.05,2,2.51,4.52,1.44,6.47,2.11-2.16,1.89-5.53-.73-8.08-3-2.91-8-3.64-11.19-1.62a5,5,0,0,0-2.2,6A4.65,4.65,0,0,1,479.7,249.53Z"/><path class="cls-28" d="M488.45,250.84h0a2.27,2.27,0,0,0-.75-1.73,3.38,3.38,0,0,0-3.93-.57,1.76,1.76,0,0,0-.81,1.09h0l-.39,2.32h0a2.23,2.23,0,0,0,.74,1.8,3.37,3.37,0,0,0,3.93.57,1.8,1.8,0,0,0,.85-1.32h0Z"/><path class="cls-45" d="M494.26,246.45l-.42-.15a6.38,6.38,0,0,0-1.84-3.11c-2.75-2.67-7.34-3.34-10.25-1.49a5,5,0,0,0-.83.66c-.39,0-.63,0-.69.1a8.33,8.33,0,0,0-.69,2.43s0,.08,0,.13,0,.18,0,.19h0a5.83,5.83,0,0,0,1.95,4.68c2.75,2.67,7.34,3.33,10.25,1.48a4.88,4.88,0,0,0,1.86-2.07h0A6.67,6.67,0,0,0,494.26,246.45Z"/><path class="cls-31" d="M482,240.5c-2.91,1.85-3,5.52-.29,8.19s7.34,3.33,10.25,1.48,3-5.51.29-8.18S485,238.65,482,240.5Z"/><path class="cls-46" d="M483.17,240.74c-2.39,1.51-2.49,4.52-.24,6.7s6,2.74,8.4,1.22,2.49-4.52.24-6.71-6-2.73-8.4-1.21Z"/><path class="cls-47" d="M485.77,240.31c-1.7.44-2,1.9-.68,3.26a6.36,6.36,0,0,0,5.5,1.67c1.71-.44,2-1.9.69-3.26a6.37,6.37,0,0,0-5.51-1.67Z"/><path class="cls-6" d="M450.36,263.68c-4.54,2.88-4.74,8.59-.46,12.75s11.43,5.2,16,2.31,4.74-8.58.46-12.74-11.44-5.2-16-2.32Z"/><path class="cls-29" d="M447.44,267.08c-2.71,1.89-2.49,4.81.49,6.52a10.49,10.49,0,0,0,10.3-.3c2.71-1.88,2.49-4.8-.49-6.51a10.49,10.49,0,0,0-10.3.29Z"/><path class="cls-28" d="M452.69,264.92c-3.18,2-3.32,6-.33,8.93s8,3.64,11.19,1.62,3.32-6,.32-8.93-8-3.64-11.18-1.62Z"/><path class="cls-27" d="M454.15,266.34c-2.32,1.48-2.42,4.4-.23,6.52s5.84,2.65,8.16,1.18,2.42-4.39.23-6.51-5.84-2.66-8.16-1.19Z"/><path class="cls-4" d="M452.77,266.64c3-1.88,7.6-1.2,10.39,1.51,2,2,2.51,4.52,1.44,6.46,2.11-2.15,1.89-5.52-.73-8.07-3-2.91-8-3.64-11.18-1.62a5,5,0,0,0-2.21,6A4.65,4.65,0,0,1,452.77,266.64Z"/><path class="cls-28" d="M461.52,268h0a2.26,2.26,0,0,0-.75-1.73,3.37,3.37,0,0,0-3.93-.57,1.8,1.8,0,0,0-.81,1.09h0l-.39,2.32h0a2.2,2.2,0,0,0,.74,1.79,3.36,3.36,0,0,0,3.93.57,1.78,1.78,0,0,0,.85-1.31h0Z"/><path class="cls-45" d="M467.33,263.56l-.42-.15a6.38,6.38,0,0,0-1.84-3.11c-2.75-2.67-7.34-3.34-10.25-1.49a5.47,5.47,0,0,0-.83.66c-.38,0-.63,0-.69.09a8.48,8.48,0,0,0-.69,2.44.5.5,0,0,1,0,.12l0,.2h0a5.83,5.83,0,0,0,1.95,4.68c2.75,2.66,7.33,3.33,10.25,1.48a4.92,4.92,0,0,0,1.85-2.07h0A6.67,6.67,0,0,0,467.33,263.56Z"/><path class="cls-31" d="M455.11,257.61c-2.92,1.85-3.05,5.52-.3,8.19s7.34,3.33,10.25,1.48,3.05-5.51.3-8.18-7.34-3.34-10.25-1.49Z"/><path class="cls-46" d="M456.24,257.84c-2.39,1.52-2.49,4.52-.24,6.71s6,2.73,8.4,1.22,2.49-4.52.24-6.71-6-2.73-8.4-1.22Z"/><path class="cls-47" d="M458.85,257.42c-1.71.44-2,1.89-.69,3.25a6.38,6.38,0,0,0,5.51,1.68c1.7-.44,2-1.9.68-3.26a6.36,6.36,0,0,0-5.5-1.67Z"/></g></g></g></svg>