<svg xmlns="http://www.w3.org/2000/svg" viewBox="0 0 417 254.74"><defs><style>.cls-1{fill:#1a1a1a;}.cls-2{fill:#333;}.cls-3{fill:#d3dfe1;}.cls-4{fill:#abb5b7;}.cls-5{fill:#9aa3a5;}.cls-6{fill:#bec9cb;}.cls-7{fill:#fb3e2d;}.cls-8{fill:#d73527;}.cls-9{fill:#e23829;}.cls-10{fill:#ff9232;}.cls-11{fill:#cf7629;}.cls-12{fill:#e6832d;}.cls-13{fill:#007e6b;}.cls-14{fill:#006656;}.cls-15{fill:#007160;}.cls-16{fill:#b4bfc1;}.cls-17{fill:#003062;}.cls-18{fill:#f1f1f1;}.cls-19{fill:#003c7b;}</style></defs><title>Control Remoto_1</title><g id="Capa_2" data-name="Capa 2"><g id="Ñëîé_1" data-name="Ñëîé 1"><path class="cls-1" d="M407.91,71.56,135.17,227.66c-23.6,13.54-59.3,15-79.74,3.28L13.8,207.06c-20.44-11.73-17.88-32.21,5.72-45.74L292.26,5.22c11-6.31,27.62-7,37.14-1.53l81.17,46.56C420.09,55.71,418.9,65.25,407.91,71.56Z"/><path class="cls-2" d="M0,186.9c-.12,7.55,4.4,14.78,13.78,20.16l41.63,23.88c20.44,11.73,56.14,10.26,79.74-3.28L407.91,71.56c6-3.45,9.06-7.85,9.07-12l0,0v15.8h0c0,4.2-3,8.63-9.07,12.1L135.17,243.54c-23.6,13.53-59.3,15-79.74,3.28L13.8,222.93C5,217.89.49,211.23.05,204.2H0V186.9Z"/><path class="cls-3" d="M266.05,20l11.37-6.53c3.27-1.88,9-1.64,12.77.53L314.73,28.1,297.43,38Z"/><polygon class="cls-4" points="297.44 38.02 297.44 44.83 266.05 26.82 266.05 20.02 297.44 38.02"/><polygon class="cls-5" points="314.73 28.1 314.73 34.9 297.44 44.83 297.44 38.02 314.73 28.1"/><polygon class="cls-3" points="302 40.64 319.3 30.72 350.69 48.72 333.39 58.65 302 40.64"/><polygon class="cls-5" points="350.69 48.72 350.69 55.53 333.39 65.45 333.39 58.65 350.69 48.72"/><polygon class="cls-4" points="333.39 58.65 333.39 65.45 302 47.44 302 40.64 333.39 58.65"/><path class="cls-3" d="M380.71,72.75l-11.37,6.52L338,61.26l17.3-9.92,24.54,14.08c2,1.18,3.07,2.68,3.09,4.11A3.74,3.74,0,0,1,380.71,72.75Z"/><polygon class="cls-4" points="369.31 79.25 369.36 86.06 369.34 86.07 337.95 68.07 337.95 61.26 369.31 79.25"/><path class="cls-5" d="M369.34,79.27l11.37-6.52a3.74,3.74,0,0,0,2.17-3.22h0v6.84h0a3.72,3.72,0,0,1-2.17,3.18l-11.35,6.51-.05-6.81Z"/><polygon class="cls-3" points="244.8 32.21 262.1 22.28 293.48 40.29 276.18 50.21 244.8 32.21"/><polygon class="cls-5" points="293.48 40.29 293.48 47.09 276.18 57.02 276.18 50.21 293.48 40.29"/><polygon class="cls-4" points="276.18 50.21 276.18 57.02 244.8 39.01 244.8 32.21 276.18 50.21"/><polygon class="cls-3" points="280.75 52.83 298.05 42.91 329.43 60.91 312.14 70.84 280.75 52.83"/><polygon class="cls-4" points="312.14 70.84 312.14 77.64 280.75 59.63 280.75 52.83 312.14 70.84"/><polygon class="cls-5" points="329.43 60.91 329.43 67.72 312.14 77.64 312.14 70.84 329.43 60.91"/><polygon class="cls-3" points="316.7 73.45 334 63.53 365.39 81.54 348.09 91.46 316.7 73.45"/><polygon class="cls-4" points="348.09 91.46 348.09 98.27 316.7 80.26 316.7 73.45 348.09 91.46"/><polygon class="cls-5" points="365.39 81.54 365.39 88.34 348.09 98.27 348.09 91.46 365.39 81.54"/><polygon class="cls-3" points="223.55 44.4 240.84 34.47 272.23 52.48 254.93 62.4 223.55 44.4"/><polygon class="cls-5" points="272.23 52.48 272.23 59.28 254.93 69.21 254.93 62.4 272.23 52.48"/><polygon class="cls-4" points="254.93 62.4 254.93 69.21 223.55 51.2 223.55 44.4 254.93 62.4"/><polygon class="cls-3" points="259.5 65.02 276.8 55.1 308.18 73.1 290.88 83.03 259.5 65.02"/><polygon class="cls-5" points="308.18 73.1 308.18 79.91 290.88 89.83 290.88 83.03 308.18 73.1"/><polygon class="cls-4" points="290.88 83.03 290.88 89.83 259.5 71.83 259.5 65.02 290.88 83.03"/><polygon class="cls-3" points="295.45 85.65 312.75 75.72 344.13 93.73 326.84 103.65 295.45 85.65"/><polygon class="cls-4" points="326.84 103.65 326.84 110.46 295.45 92.45 295.45 85.65 326.84 103.65"/><polygon class="cls-5" points="344.13 93.73 344.13 100.53 326.84 110.46 326.84 103.65 344.13 93.73"/><polygon class="cls-3" points="202.29 56.59 219.59 46.66 250.98 64.67 233.68 74.59 202.29 56.59"/><polygon class="cls-4" points="233.68 74.59 233.68 81.4 202.29 63.39 202.29 56.59 233.68 74.59"/><polygon class="cls-5" points="250.98 64.67 250.98 71.47 233.68 81.4 233.68 74.59 250.98 64.67"/><polygon class="cls-3" points="238.25 77.21 255.54 67.29 286.93 85.3 269.63 95.22 238.25 77.21"/><polygon class="cls-4" points="269.63 95.22 269.63 102.02 238.25 84.02 238.25 77.21 269.63 95.22"/><polygon class="cls-5" points="286.93 85.3 286.93 92.1 269.63 102.02 269.63 95.22 286.93 85.3"/><polygon class="cls-3" points="274.2 97.84 291.5 87.91 322.88 105.92 305.59 115.84 274.2 97.84"/><polygon class="cls-5" points="322.88 105.92 322.88 112.72 305.59 122.65 305.59 115.84 322.88 105.92"/><polygon class="cls-4" points="305.59 115.84 305.59 122.65 274.2 104.64 274.2 97.84 305.59 115.84"/><path class="cls-3" d="M187.89,72.71c-2.2-1.26-3.22-2.9-3.08-4.42A3.85,3.85,0,0,1,187,65.38l11.37-6.52,31.39,18-17.3,9.92Z"/><path class="cls-6" d="M184.81,68.29c-.14,1.52.88,3.16,3.08,4.42l24.54,14.07v6.81L187.89,79.51c-2-1.12-3-2.55-3.1-3.92h0v-7.3Z"/><polygon class="cls-5" points="229.73 76.86 229.73 83.67 212.43 93.59 212.43 86.78 229.73 76.86"/><polygon class="cls-3" points="217 89.4 234.29 79.48 265.68 97.49 248.38 107.41 217 89.4"/><polygon class="cls-5" points="265.68 97.49 265.68 104.29 248.38 114.21 248.38 107.41 265.68 97.49"/><polygon class="cls-6" points="248.38 107.41 248.38 114.21 217 96.21 217 89.4 248.38 107.41"/><path class="cls-3" d="M290.27,124.63c-3.28,1.88-9,1.65-12.78-.52L253,110l17.29-9.92,31.39,18Z"/><polygon class="cls-6" points="277.49 124.11 277.49 130.91 252.95 116.83 252.95 110.03 277.49 124.11"/><path class="cls-4" d="M290.27,124.63c-3.28,1.88-9,1.65-12.78-.52v6.8c3.78,2.17,9.5,2.4,12.78.53l11.36-6.52v-6.81Z"/><path class="cls-7" d="M376.67,42.65c-3.18,1.83-2.78,5,.9,7.13l11.79,6.76c3.68,2.11,9.24,2.34,12.42.52h0c3.19-1.83,2.79-5-.89-7.13L389.1,43.16c-3.68-2.11-9.24-2.33-12.43-.51Z"/><path class="cls-8" d="M403.89,54a3.63,3.63,0,0,1-2.11,3.05c-3.18,1.82-8.74,1.59-12.42-.52v6.81c3.68,2.11,9.24,2.34,12.42.51a3.6,3.6,0,0,0,2.12-3.12h0V54Z"/><path class="cls-9" d="M374.57,45.64c-.06,1.44.93,3,3,4.14l11.79,6.76v6.81l-11.79-6.77c-2.1-1.2-3.09-2.75-3-4.2h0V45.64Z"/><path class="cls-10" d="M61.47,150.45c-3.28-1.89-4.94-4.26-4.93-6.43a4.82,4.82,0,0,1,2.77-4.17c4.51-2.58,12.78-2,18.47,1.24l18.56,10.65L80,161.09Z"/><polygon class="cls-11" points="96.34 151.74 96.34 158.54 80.03 167.9 80.03 161.09 96.34 151.74"/><path class="cls-12" d="M56.54,144c0,2.17,1.65,4.54,4.93,6.43L80,161.09v6.81L61.47,157.25c-3.32-1.9-5-4.3-4.94-6.49h-.05V144Z"/><polygon class="cls-13" points="85.86 164.44 102.17 155.08 131.04 171.64 114.73 181 85.86 164.44"/><polygon class="cls-14" points="131.04 171.64 131.04 178.45 114.73 187.8 114.73 181 131.04 171.64"/><polygon class="cls-15" points="114.73 181 114.73 187.8 85.86 171.24 85.86 164.44 114.73 181"/><path class="cls-7" d="M157.59,196.23c-4.51,2.58-12.78,2-18.47-1.24l-18.56-10.64L136.87,175l18.56,10.64c3.31,1.91,5,4.3,4.94,6.48A4.86,4.86,0,0,1,157.59,196.23Z"/><polygon class="cls-9" points="139.12 194.99 139.12 201.79 120.56 191.15 120.56 184.35 139.12 194.99"/><path class="cls-8" d="M160.37,192.11a4.86,4.86,0,0,1-2.78,4.12c-4.51,2.58-12.78,2-18.47-1.24v6.8c5.69,3.27,14,3.83,18.47,1.24a4.85,4.85,0,0,0,2.78-4.11h0v-6.81Z"/><path class="cls-3" d="M35,165.62c-3.3-1.9-5-4.29-4.94-6.46A4.85,4.85,0,0,1,32.87,155c4.51-2.58,12.77-2,18.47,1.24L69.9,166.9l-16.31,9.36Z"/><polygon class="cls-4" points="69.89 166.9 69.89 173.71 53.59 183.06 53.59 176.26 69.89 166.9"/><path class="cls-6" d="M30.09,159.16c0,2.17,1.64,4.56,4.94,6.46l18.56,10.64v6.8L35,172.42c-3.28-1.88-4.94-4.26-4.93-6.42H30v-6.84Z"/><polygon class="cls-3" points="59.42 179.61 75.73 170.25 104.6 186.81 88.29 196.17 59.42 179.61"/><polygon class="cls-4" points="104.6 186.81 104.6 193.62 88.29 202.97 88.29 196.17 104.6 186.81"/><polygon class="cls-6" points="88.29 196.17 88.29 202.97 59.42 186.41 59.42 179.61 88.29 196.17"/><path class="cls-3" d="M131.15,211.4c-4.51,2.58-12.78,2-18.47-1.24L94.12,199.52l16.31-9.36L129,200.8c3.27,1.88,4.93,4.25,4.93,6.41A4.8,4.8,0,0,1,131.15,211.4Z"/><path class="cls-16" d="M133.92,207.21a4.8,4.8,0,0,1-2.77,4.19c-4.51,2.58-12.78,2-18.47-1.24V217c5.69,3.27,14,3.83,18.47,1.24a4.78,4.78,0,0,0,2.77-4.26H134v-6.73Z"/><polygon class="cls-6" points="112.68 210.16 112.68 216.96 94.12 206.32 94.12 199.51 112.68 210.16"/><path class="cls-17" d="M207.87,108.93c-15.73-9-43.2-7.89-61.36,2.52-12.4,7.12-17.24,16.72-14.06,25,1.87-5.27,6.56-10.49,14.06-14.79,18.16-10.42,45.63-11.55,61.36-2.53,5,2.86,8.18,6.41,9.65,10.24C220.19,121.84,217.1,114.22,207.87,108.93Z"/><path class="cls-13" d="M198.16,140.71c-14.78,8.48-37.13,9.4-49.93,2.06S137,122.6,151.81,114.13s37.14-9.4,49.94-2.06S212.94,132.24,198.16,140.71Z"/><path class="cls-14" d="M210.39,124.44h0c0,5.65-4.08,11.62-12.2,16.27-14.78,8.48-37.13,9.4-49.93,2.06-5.71-3.28-8.53-7.64-8.62-12.23h0s0,5,0,10.63c0,4.69,2.81,9.17,8.64,12.51,12.8,7.35,35.15,6.43,49.93-2.05,8.08-4.64,12.22-10.57,12.23-16.2Z"/><path class="cls-18" d="M177,119.53c-3.93-2.25-9.91-1.73-14.51.91-4.38,2.5-5.51,5.8-1.56,8.07s9.58,2,14.61-.9C179.82,125.18,181.12,121.88,177,119.53ZM163.88,127c-2-1.15-1.12-3.07,1.89-4.79s6.4-2.32,8.43-1.15.85,3.2-1.91,4.79C169.31,127.57,165.91,128.18,163.88,127Z"/><path class="cls-18" d="M184.8,131.77l10.94-1.22-3.69-2.12-8.12,1.2c-.85.14-1.71.27-2.6.44l-.06,0,6.79-3.9-3-1.7-15.35,8.8,3,1.71,5-2.87,2.76-.27-3.37,5.67,3.51,2Z"/><path class="cls-19" d="M203.46,144.12c-18.16,10.42-45.63,11.55-61.35,2.53s-13.76-24.78,4.4-35.2,45.63-11.54,61.36-2.52S221.62,133.71,203.46,144.12Zm16.86-42.33c-21.68-12.44-59.55-10.88-84.59,3.48s-27.75,36.09-6.07,48.52,59.55,10.88,84.58-3.48S242,114.22,220.32,101.79Z"/><path class="cls-17" d="M235,122.86l0,0c0,9.55-6.95,19.62-20.67,27.49-25,14.36-62.9,15.92-84.58,3.48-9.76-5.59-14.53-13.07-14.6-20.91l0,.05s0,7.27,0,9.91c0,7.92,4.79,15.48,14.64,21.13,21.68,12.44,59.55,10.88,84.58-3.48,13.67-7.85,20.69-17.88,20.71-27.41C235,129.42,235,122.86,235,122.86Z"/><polygon class="cls-18" points="205.78 105.29 214.21 110.13 217.38 103.47 205.78 105.29"/><polygon class="cls-18" points="139.96 113.28 149.69 107.69 138.43 106.81 139.96 113.28"/><polygon class="cls-18" points="144.2 150.29 135.77 145.45 132.59 152.11 144.2 150.29"/><polygon class="cls-18" points="210.01 142.3 200.28 147.88 211.55 148.76 210.01 142.3"/></g></g></svg>