<svg xmlns="http://www.w3.org/2000/svg" viewBox="0 0 306.65 365.24"><defs><style>.cls-1{fill:#bfbdbf;}.cls-2{fill:#a6a4a6;}.cls-3{fill:#d3d1d3;}.cls-4{fill:#e9e9ea;}.cls-5{fill:#4d4d4d;}.cls-6{fill:#2e2e2e;}.cls-7{fill:#5c5c5c;}.cls-8{fill:#333;}.cls-9{fill:#666;}.cls-10{fill:#a3a3a3;}.cls-11{fill:#e6e6e6;}.cls-12{fill:#989498;}</style></defs><title>CPU_1</title><g id="Capa_2" data-name="Capa 2"><g id="Ñëîé_1" data-name="Ñëîé 1"><polygon class="cls-1" points="185.01 96.14 269.57 147.92 189.24 348.72 185.01 354.72 164.17 365.24 164.17 87.9 185.01 96.14"/><polygon class="cls-2" points="189.24 348.72 255.6 182.84 303.61 187.52 300.28 308.9 296.18 312.76 164.17 365.24 185.01 354.72 189.24 348.72"/><polygon class="cls-3" points="269.57 147.92 185.01 96.14 164.17 87.9 302.96 65.78 306.65 76.75 303.61 187.52 255.6 182.84 269.57 147.92"/><polygon class="cls-4" points="300.28 308.9 306.65 76.75 185.01 96.14 185.01 354.72 300.28 308.9"/><polygon class="cls-5" points="296.13 306.23 302.3 81.49 189.24 99.51 189.24 348.72 296.13 306.23"/><polygon class="cls-6" points="197.68 106.25 293.59 90.97 292.92 115.43 197.68 134.88 197.68 106.25"/><polygon class="cls-7" points="293.07 114.62 293.69 92.16 199.93 107.1 199.93 133.64 293.07 114.62"/><polygon class="cls-6" points="197.68 134.88 292.92 115.43 292.15 143.2 197.68 165.63 197.68 134.88"/><polygon class="cls-7" points="292.31 142.42 293.02 116.67 199.93 135.68 199.93 164.35 292.31 142.42"/><polygon class="cls-6" points="292.15 143.2 291.4 170.76 197.68 194.92 197.68 165.63 292.15 143.2"/><polygon class="cls-7" points="291.55 170 292.25 144.49 199.93 166.41 199.93 193.61 291.55 170"/><polygon class="cls-8" points="164.17 87.9 0 17.44 0 229.32 164.17 365.24 164.17 87.9"/><polygon class="cls-9" points="0 17.44 100.82 0 302.96 65.78 164.17 87.9 0 17.44"/><path class="cls-10" d="M207.93,236.31l4.4.66s-4.59,7.54-4.55,8.6c1.27,28.55,18.34,45.72,39.16,38.63,21.59-7.36,39-38,39-68.5,0-.67-.06-1.31-.08-2l4.42-1.28,4.4.66-6.83,87.76L205.7,335.66c-2.15.85-8-1.39-8-3.6V239.28Z"/><path class="cls-11" d="M212.33,237c-.14,2-.23,4-.22,6,.07,30.48,17.63,49.22,39.23,41.86s39-38,39-68.49c0-.68-.05-1.31-.07-2l4.42-1.28a181.19,181.19,0,0,1,3.6,62.78c-.52,4.34-1.19,8.51-2,12.52a22.32,22.32,0,0,1-6.15,11.65l-.07.08a32.22,32.22,0,0,1-6,4.66l-77,30.59a3.58,3.58,0,0,1-5-3.13,176.78,176.78,0,0,0,6-38.76,177.47,177.47,0,0,0-6-53.56Z"/><path class="cls-8" d="M234,233.39c0,10,5.78,16.13,12.86,13.72s12.8-12.47,12.78-22.46-5.79-16.13-12.87-13.72S234,223.4,234,233.39Z"/><path class="cls-12" d="M235.41,232.9c0,8.89,5.14,14.35,11.44,12.2s11.38-11.08,11.35-20-5.14-14.35-11.43-12.2S235.39,224,235.41,232.9Z"/><path class="cls-3" d="M237.17,233.57c0,8.88,5.14,14.34,11.44,12.2S260,234.69,260,225.8s-5.14-14.34-11.43-12.2S237.15,224.68,237.17,233.57Z"/><path class="cls-5" d="M247.36,237.76a4.34,4.34,0,0,0,1.4-.24c3.08-1.05,5.56-5.36,5.55-9.61,0-2.87-1.15-5.15-3-6a.55.55,0,0,0-.7.24.49.49,0,0,0,.25.67c1.48.65,2.39,2.6,2.39,5.07,0,3.86-2.16,7.75-4.84,8.67a2.84,2.84,0,0,1-2.55-.27c-1.24-.82-2-2.63-2-4.85a10.53,10.53,0,0,1,3.27-7.75.47.47,0,0,0,0-.7.54.54,0,0,0-.74,0,11.55,11.55,0,0,0-3.63,8.49c0,2.54.92,4.66,2.44,5.66A3.76,3.76,0,0,0,247.36,237.76Z"/><path class="cls-5" d="M249.07,227.07a.52.52,0,0,0,.53-.5v-7.52a.53.53,0,0,0-1.06,0v7.52A.52.52,0,0,0,249.07,227.07Z"/></g></g></svg>