<svg xmlns="http://www.w3.org/2000/svg" xmlns:xlink="http://www.w3.org/1999/xlink" viewBox="0 0 663 398.32"><defs><style>.cls-1,.cls-5{mask:url(#mask);}.cls-1{filter:url(#luminosity-noclip-7);}.cls-10,.cls-12,.cls-2,.cls-4,.cls-6,.cls-8{mix-blend-mode:multiply;}.cls-2{fill:url(#radial-gradient);}.cls-3{mask:url(#mask-2);filter:url(#luminosity-noclip-12);}.cls-4{fill:url(#radial-gradient-2);}.cls-6{fill:url(#radial-gradient-3);}.cls-7{mask:url(#mask-4);filter:url(#luminosity-noclip-9);}.cls-8{fill:url(#radial-gradient-4);}.cls-9{mask:url(#mask-5);filter:url(#luminosity-noclip-10);}.cls-10{fill:url(#radial-gradient-5);}.cls-11{mask:url(#mask-6);filter:url(#luminosity-noclip-11);}.cls-12{fill:url(#radial-gradient-6);}.cls-13{fill:#3f3f3f;}.cls-14{fill:#60625f;}.cls-15{fill:#a29000;}.cls-16{fill:#6e6200;}.cls-17{fill:#e2c800;}.cls-18{fill:#b19e00;}.cls-19{fill:#ffec51;}.cls-20{fill:#252625;}.cls-21{fill:#fd5;}.cls-22{fill:#45aa44;}.cls-23{fill:#cdb244;}.cls-24{fill:url(#linear-gradient);}.cls-25{fill:url(#linear-gradient-2);}.cls-26{fill:#808380;}.cls-27{fill:#373937;}.cls-28{fill:#484a48;}.cls-29{fill:#807f7f;}.cls-30{fill:#cac9c7;}.cls-31{mask:url(#mask-7);}.cls-32{fill:url(#radial-gradient-7);}.cls-33{fill:url(#radial-gradient-8);}.cls-34{fill:#b2b1b0;}.cls-35{mask:url(#mask-9);}.cls-36{fill:url(#radial-gradient-9);}.cls-37{mask:url(#mask-10);}.cls-38{fill:url(#radial-gradient-10);}.cls-39{fill:#d6d5d4;}.cls-40{mask:url(#mask-11);}.cls-41{fill:url(#radial-gradient-11);}.cls-42{fill:#e0dfde;}.cls-43{fill:#696d69;}.cls-44{fill:#888a86;}.cls-45{fill:url(#linear-gradient-3);}.cls-46{fill:#e5e5e4;}.cls-47{fill:url(#linear-gradient-4);}.cls-48{fill:url(#linear-gradient-5);}.cls-49{fill:#f2f2f2;}.cls-50{mask:url(#mask-12);}.cls-51{fill:url(#radial-gradient-12);}.cls-52{fill:#44ab42;}.cls-53{fill:url(#linear-gradient-6);}.cls-54{fill:url(#linear-gradient-7);}.cls-55{fill:url(#linear-gradient-8);}.cls-56{filter:url(#luminosity-noclip-6);}.cls-57{filter:url(#luminosity-noclip-5);}.cls-58{filter:url(#luminosity-noclip-4);}.cls-59{filter:url(#luminosity-noclip-2);}.cls-60{filter:url(#luminosity-noclip);}</style><filter id="luminosity-noclip" x="0.05" y="-8178.32" width="662.95" height="32766" filterUnits="userSpaceOnUse" color-interpolation-filters="sRGB"><feFlood flood-color="#fff" result="bg"/><feBlend in="SourceGraphic" in2="bg"/></filter><mask id="mask" x="0.05" y="-8178.32" width="662.95" height="32766" maskUnits="userSpaceOnUse"><g class="cls-60"/></mask><radialGradient id="radial-gradient" cx="-12424.36" cy="-4046.7" r="151.56" gradientTransform="matrix(2.38, 0, 0, -1.25, 29585.83, -4843.8)" gradientUnits="userSpaceOnUse"><stop offset="0" stop-color="#fff"/><stop offset="1"/></radialGradient><filter id="luminosity-noclip-2" x="169.99" y="-8178.32" width="354.5" height="32766" filterUnits="userSpaceOnUse" color-interpolation-filters="sRGB"><feFlood flood-color="#fff" result="bg"/><feBlend in="SourceGraphic" in2="bg"/></filter><mask id="mask-2" x="169.99" y="-8178.32" width="354.5" height="32766" maskUnits="userSpaceOnUse"><g class="cls-59"/></mask><radialGradient id="radial-gradient-2" cx="-12312.23" cy="-3974.02" r="81.04" gradientTransform="matrix(2.19, 0, 0, -1.13, 27297.47, -4377.4)" xlink:href="#radial-gradient"/><radialGradient id="radial-gradient-3" cx="-12277.74" cy="-3911.73" r="151.56" xlink:href="#radial-gradient"/><filter id="luminosity-noclip-4" x="69.64" y="-8178.32" width="508.1" height="32766" filterUnits="userSpaceOnUse" color-interpolation-filters="sRGB"><feFlood flood-color="#fff" result="bg"/><feBlend in="SourceGraphic" in2="bg"/></filter><mask id="mask-4" x="69.64" y="-8178.32" width="508.1" height="32766" maskUnits="userSpaceOnUse"><g class="cls-58"/></mask><radialGradient id="radial-gradient-4" cx="-12359.48" cy="-4081.06" r="116.16" gradientTransform="matrix(2.19, 0, 0, -1.13, 27297.47, -4381.25)" xlink:href="#radial-gradient"/><filter id="luminosity-noclip-5" x="88.38" y="-8178.32" width="474.1" height="32766" filterUnits="userSpaceOnUse" color-interpolation-filters="sRGB"><feFlood flood-color="#fff" result="bg"/><feBlend in="SourceGraphic" in2="bg"/></filter><mask id="mask-5" x="88.38" y="-8178.32" width="474.1" height="32766" maskUnits="userSpaceOnUse"><g class="cls-57"/></mask><radialGradient id="radial-gradient-5" cx="-12377.01" cy="-4048.04" r="108.38" gradientTransform="matrix(2.19, 0, 0, -1.14, 27297.47, -4410.78)" xlink:href="#radial-gradient"/><filter id="luminosity-noclip-6" x="93.01" y="-8178.32" width="465.73" height="32766" filterUnits="userSpaceOnUse" color-interpolation-filters="sRGB"><feFlood flood-color="#fff" result="bg"/><feBlend in="SourceGraphic" in2="bg"/></filter><mask id="mask-6" x="93.01" y="-8178.32" width="465.73" height="32766" maskUnits="userSpaceOnUse"><g class="cls-56"/></mask><radialGradient id="radial-gradient-6" cx="-12401.94" cy="-4025.92" r="106.47" gradientTransform="matrix(2.9, 0, 0, -1.14, 36031.68, -4419.55)" xlink:href="#radial-gradient"/><linearGradient id="linear-gradient" x1="732.73" y1="-835.02" x2="735.42" y2="-834.97" gradientTransform="matrix(7.21, 0, 0, -7.21, -5038.38, -5739.53)" gradientUnits="userSpaceOnUse"><stop offset="0" stop-color="#60625f"/><stop offset="1" stop-color="#252625"/></linearGradient><linearGradient id="linear-gradient-2" x1="732.6" y1="-829.17" x2="735.29" y2="-829.12" xlink:href="#linear-gradient"/><filter id="luminosity-noclip-7" x="0.05" y="0" width="662.95" height="349.53" filterUnits="userSpaceOnUse" color-interpolation-filters="sRGB"><feFlood flood-color="#fff" result="bg"/><feBlend in="SourceGraphic" in2="bg"/></filter><mask id="mask-7" x="0.05" y="0" width="662.95" height="349.53" maskUnits="userSpaceOnUse"><g class="cls-1"><path id="path77488" class="cls-2" d="M390.91,0,372.72,9.55H409Zm-.28,14.23a121.14,121.14,0,0,0-53.31,14L6.86,202.53c-8.36,4.41-9.13,11.06-1.71,15Q61.54,247.23,117.93,277l2.46-1.31c5-2.65,12.76-2.91,17.22-.57l3.62,1.94c4.46,2.35,4,6.4-1,9.05l-2.46,1.31,112.7,59.42c7.43,3.91,20.14,3.53,28.5-.88L609.41,171.76c35.2-18.56,35.09-37.94,8.68-51.87L435.67,23.72c-12.18-6.42-27.91-9.91-45-9.49ZM644.81,133.88V153L663,143.42Zm-516,143.48a8.35,8.35,0,0,0-3.55.88l-2.46,1.31c3.37,1.78,6.74,3.52,10.11,5.3l2.46-1.31c2-1.06,2.21-2.67.41-3.62-1.21-.64-2.4-1.29-3.62-1.93a6.79,6.79,0,0,0-3.35-.63Z"/></g></mask><radialGradient id="radial-gradient-7" cx="88.16" cy="167.24" r="385.77" gradientTransform="scale(0.82 0.75)" gradientUnits="userSpaceOnUse"><stop offset="0" stop-color="#ececec"/><stop offset="1" stop-color="#ececec"/></radialGradient><radialGradient id="radial-gradient-8" cx="512.81" cy="392.94" r="415.29" xlink:href="#radial-gradient-7"/><filter id="luminosity-noclip-9" x="69.64" y="59.49" width="508.1" height="263.62" filterUnits="userSpaceOnUse" color-interpolation-filters="sRGB"><feFlood flood-color="#fff" result="bg"/><feBlend in="SourceGraphic" in2="bg"/></filter><mask id="mask-9" x="69.64" y="59.49" width="508.1" height="263.62" maskUnits="userSpaceOnUse"><g class="cls-7"><path id="path77496" class="cls-8" d="M492.31,63.64C486.39,60.52,477,59.17,468,59.55L312.25,74.21c-7.09.39-15.56,1.07-21.34,4.12l-87.63,46.2c-4.76,2.51-11,5.73-7.88,9.11.5.54,2,1.74,2,1.75,7.54,6.92,4.76,16.41-7.73,23s-30.79,8.14-43.93,4.08a29.13,29.13,0,0,0-3.15-1.13c-6-1.4-12.13,1.59-16.82,4.06l-12.26,6.46L74.4,192.47c-1.18.63-1.62,1.18-1.6,1.78,0,.78,1,1.24,2.28,1.9,11.64,6.14,10.6,16.74-2.51,23.65-1.38.73-2.63,1.22-2.87,2s.15,1.14,1.21,1.69l54.46,28.71c4.1,2.17,9.29,1.57,14.45-1.15l9.41-5c.79-.5,1.75-.93,2.65-1.4,14.3-7.53,36.09-8.22,48.78-1.52s11.4,18.18-2.9,25.72l-14.24,7.51c-4.58,2.41-3.36,4.69-.69,6.1l65.59,34.58c16.69,8.8,45.32,7.9,64.11-2l36.28-19.12L425,255.75c2.11-1.11,2.08-2.22,1.53-2.51-10.39-5.48-9.33-14.93,2.38-21.1s29.63-6.74,40-1.26c.55.29,2.16.57,4.76-.81l59.47-31.35c42.62-22.47,68-77,13.4-106.47L492.32,63.64Z"/></g></mask><radialGradient id="radial-gradient-9" cx="-12359.48" cy="-4081.06" r="116.16" gradientTransform="matrix(2.19, 0, 0, -1.13, 27297.47, -4381.25)" gradientUnits="userSpaceOnUse"><stop offset="0" stop-color="#e6e6e6"/><stop offset="1" stop-color="#e6e6e6"/></radialGradient><filter id="luminosity-noclip-10" x="88.38" y="65.07" width="474.1" height="247.51" filterUnits="userSpaceOnUse" color-interpolation-filters="sRGB"><feFlood flood-color="#fff" result="bg"/><feBlend in="SourceGraphic" in2="bg"/></filter><mask id="mask-10" x="88.38" y="65.07" width="474.1" height="247.51" maskUnits="userSpaceOnUse"><g class="cls-9"><path id="path77504" class="cls-10" d="M480.88,67.13c-2.25-1.18-8.16-2.21-13.16-2h-.32C416,69.92,306.23,80.23,304.26,80.54a13,13,0,0,0-3.19.59l-87.63,46.2c-1.16.61-1.56.94-2.17,1.3,10.37,9.88,6.09,23.3-11.46,32.56s-42.94,11.49-61.76,6a19.15,19.15,0,0,0-2.13,1l-12.26,6.46L91.19,191.78c9,7.77,8,17.88-2.81,26.29l44.42,23.42,5.13-2.71a1.26,1.26,0,0,1,.18-.08c.26-.16.5-.27.66-.35a2.72,2.72,0,0,0,.33-.18c1.24-.68,2.71-1.42,2.65-1.39,20.48-10.8,52.19-11.79,70.37-2.21s16.3,26.3-4.18,37.1L199,276.39l60.89,32.1c11.25,5.93,29.86,5.34,42.53-1.34L338.69,288l70.24-37c-7.45-8.35-4.61-19.13,9.87-26.76s34.93-9.13,50.76-5.21l53.5-28.21c17.33-9.13,33.72-27,38.15-45.39s-2.27-36.81-26-49.7a.74.74,0,0,0-.15-.08L480.9,67.12h0ZM206.47,129.62c.11.11.07.3-.17.08h.31c-.07,0-.11,0-.15-.07Z"/></g></mask><radialGradient id="radial-gradient-10" cx="276.96" cy="221.87" r="245.75" gradientTransform="scale(0.82 0.75)" gradientUnits="userSpaceOnUse"><stop offset="0" stop-color="#999"/><stop offset="1" stop-color="#999"/></radialGradient><filter id="luminosity-noclip-11" x="93.01" y="65.02" width="465.73" height="243.58" filterUnits="userSpaceOnUse" color-interpolation-filters="sRGB"><feFlood flood-color="#fff" result="bg"/><feBlend in="SourceGraphic" in2="bg"/></filter><mask id="mask-11" x="93.01" y="65.02" width="465.73" height="243.58" maskUnits="userSpaceOnUse"><g class="cls-11"><path id="path77508" class="cls-12" d="M478.13,66.6a17.44,17.44,0,0,0-4.23-1.18,35.2,35.2,0,0,0-6.34-.38h-.32C416.12,69.82,306.7,80.1,304.87,80.39a6,6,0,0,0-1.91.38l-87,45.85-.5.27c9.48,10.48,4.94,24.07-13.13,33.6s-43.8,11.91-63.73,6.92a.35.35,0,0,1-.17.09L126.2,174,95.72,190c7.63,7.72,6.67,17.19-2.71,25.47l40.15,21.17,2.15-1.14.15-.08c.39-.22.71-.39,1-.53.07,0-.13.09.17-.08.68-.38,1.29-.68,1.83-1l.66-.35.15-.09c.39-.2.91-.33,1.31-.53,22-11,55.17-12,74.37-1.84,19.55,10.3,17.53,28.29-4.49,39.9l-6.13,3.23L262.72,305c9.95,5.25,26,4.75,37.21-1.16l36.28-19.13,68.58-36.15c-6.57-8.81-3.45-19.74,11.52-27.64s35.71-9.54,52.42-6.08l51.85-27.33c16.26-8.57,32.6-26.24,36.91-44.12s-2.19-35.74-25.11-48.17c.07,0-.07,0-.15-.08L478.1,66.59h0Z"/></g></mask><radialGradient id="radial-gradient-11" cx="-12401.94" cy="-4025.92" r="106.47" gradientTransform="matrix(2.9, 0, 0, -1.14, 36031.68, -4419.55)" gradientUnits="userSpaceOnUse"><stop offset="0" stop-color="#f2f2f2"/><stop offset="1" stop-color="#f2f2f2"/></radialGradient><linearGradient id="linear-gradient-3" x1="734.51" y1="-843.13" x2="736.83" y2="-843.13" gradientTransform="matrix(7.21, 0, 0, -7.21, -5038.38, -5739.53)" gradientUnits="userSpaceOnUse"><stop offset="0" stop-color="#807f7f"/><stop offset="1" stop-color="#252625"/></linearGradient><linearGradient id="linear-gradient-4" x1="728.97" y1="-847.52" x2="731.28" y2="-847.52" gradientTransform="matrix(7.21, 0, 0, -7.21, -4816.31, -5865.66)" xlink:href="#linear-gradient-3"/><linearGradient id="linear-gradient-5" x1="724.01" y1="-852.2" x2="726.32" y2="-852.2" gradientTransform="matrix(7.21, 0, 0, -7.21, -4617.29, -6000.08)" xlink:href="#linear-gradient-3"/><filter id="luminosity-noclip-12" x="169.99" y="81.72" width="354.5" height="183.45" filterUnits="userSpaceOnUse" color-interpolation-filters="sRGB"><feFlood flood-color="#fff" result="bg"/><feBlend in="SourceGraphic" in2="bg"/></filter><mask id="mask-12" x="169.99" y="81.72" width="354.5" height="183.45" maskUnits="userSpaceOnUse"><g class="cls-3"><path id="path77596" class="cls-4" d="M173.24,200.83,291.18,263c5.56,2.93,11.73,2.85,18.08-.05L499.72,162.54c7.15-3.77,9.36-6.83,12.09-11.13l12.07-25.47c1-3.41,1.32-7.34-3.69-10l-61.1-32.22c-3.39-1.79-6.81-2-10.85-2l-114.7,8.64a24.38,24.38,0,0,0-10.63,2.83l-71.1,37.48a10.52,10.52,0,0,0-6,9.47V153l-72.56,38.25c-5.13,2.71-3.4,7.77,0,9.58Z"/></g></mask><radialGradient id="radial-gradient-12" cx="-12312.23" cy="-3974.02" r="81.04" gradientTransform="matrix(2.19, 0, 0, -1.13, 27297.47, -4377.4)" gradientUnits="userSpaceOnUse"><stop offset="0" stop-color="#fff"/><stop offset="1" stop-color="#fff"/></radialGradient><linearGradient id="linear-gradient-6" x1="741.61" y1="-849.03" x2="743.93" y2="-849.03" gradientTransform="matrix(7.21, 0, 0, -7.21, -5322.94, -5908.98)" xlink:href="#linear-gradient-3"/><linearGradient id="linear-gradient-7" x1="737.7" y1="-852.18" x2="740.01" y2="-852.18" gradientTransform="matrix(7.21, 0, 0, -7.21, -5166.07, -5999.41)" xlink:href="#linear-gradient-3"/><linearGradient id="linear-gradient-8" x1="730.67" y1="-857.43" x2="732.98" y2="-857.43" gradientTransform="matrix(7.21, 0, 0, -7.21, -4884.23, -6150.22)" xlink:href="#linear-gradient-3"/></defs><title>Disco Duro_1</title><g id="Capa_2" data-name="Capa 2"><g id="Ñëîé_1" data-name="Ñëîé 1"><g id="g16079"><g id="g77340"><path id="path77342" d="M88.75,339.84,138,317.46v-6.83l-49.2,25.93Z"/><path id="path77344" class="cls-13" d="M85.51,331.44l49.2-25.94,29.16,15.38-49.2,25.93Z"/><path id="path77346" d="M17.92,302.39l49.2-25.94v-9.3l-49.2,25.93Z"/><path id="path77348" d="M114.67,350.23l49.2-25.94v-3.41l-49.2,25.93Z"/><path id="path77350" d="M76.22,332.66l49.19-25.93V300L76.22,326Z"/><path id="path77352" class="cls-13" d="M24.38,298.64,73.57,272.7,125.41,300,76.22,326Z"/><path id="path77354" class="cls-14" d="M.06,269v24.09l17.86,9.3v-9.3l5.18,2.75v-4.58l98.53,51.85v4.58l5.18,2.74V360L138,365.82l53.94,28.52V370.25Z"/><g id="g77356"><path id="path77358" class="cls-14" d="M24.38,301.8v-3.16L76.22,326v6.69l-3-1.58v-3.53Z"/><path id="path77360" class="cls-14" d="M85.51,338.13v-6.69l29.16,15.37v3.42L88.75,336.56v3.28Z"/></g><path id="path77362" d="M3.06,275.23v16.16l11.19,5.8v-16Z"/><path id="path77364" d="M130.09,342.1v16.17l20.7,10.67v-16Z"/><path id="path77366" d="M154.15,354.5v16.17L187,388V372Z"/><path id="path77368" class="cls-13" d="M169.39,362.62,154.2,370.7l32.73,17.24v-16Z"/><path id="path77370" class="cls-15" d="M160.78,367.26l-2.16,1.12v1.43l2.17.09Z"/><path id="path77372" class="cls-16" d="M169.6,362.63l-8.86,4.57v2.74L172.1,364l-2.5-1.38Z"/><path id="path77374" class="cls-17" d="M158.3,366l-1,1.75v1.4l2.49-1.3,1-.52v0Z"/><path id="path77376" class="cls-18" d="M167.09,361.41,158.24,366l2.5,1.22,8.86-4.57Z"/><path id="path77378" class="cls-19" d="M157.3,369.1v-1.41l1.33.7v1.41Z"/><path id="path77380" class="cls-15" d="M167.75,370.93l-2.16,1.13v1.42l2.17.1Z"/><path id="path77382" class="cls-16" d="M176.44,366.29l-8.68,4.57v2.74L179,367.66l-2.51-1.38Z"/><path id="path77384" class="cls-17" d="M165.27,369.62l-1,1.75v1.4l2.49-1.3,1-.52v-.05Z"/><path id="path77386" class="cls-18" d="M173.94,365.07l-8.69,4.57,2.51,1.22,8.68-4.57Z"/><path id="path77388" class="cls-19" d="M164.27,372.77v-1.41l1.33.71v1.41Z"/><path id="path77390" class="cls-15" d="M174.72,374.61l-2.16,1.12v1.43l2.17.09Z"/><path id="path77392" class="cls-16" d="M183.46,370.1l-8.69,4.42v2.74l11-5.94-2.33-1.22Z"/><path id="path77394" class="cls-17" d="M172.24,373.3l-1,1.75v1.4l2.49-1.3,1-.52v-.05Z"/><path id="path77396" class="cls-18" d="M181,368.73l-8.68,4.57,2.5,1.22,8.69-4.42L181,368.73Z"/><path id="path77398" class="cls-19" d="M171.24,376.45V375l1.33.7v1.41Z"/><path id="path77400" class="cls-15" d="M181.69,378.28l-2.16,1.12v1.43l2.17.1Z"/><path id="path77402" class="cls-16" d="M187,375.59l-5.34,2.74v2.6l5.34-2.75v-2.59Z"/><path id="path77404" class="cls-17" d="M179.21,377l-1,1.75v1.4l2.49-1.3,1-.52v-.05Z"/><path id="path77406" class="cls-18" d="M187,372.84,179.28,377l2.34,1.37,5.34-2.74Z"/><path id="path77408" class="cls-19" d="M178.21,380.12v-1.41l1.33.71v1.41Z"/><path id="path77410" class="cls-15" d="M160.78,359.9,158.62,361v1.42l2.17.1Z"/><path id="path77412" class="cls-16" d="M162.58,359l-1.84.91v2.75l4.35-2.29Z"/><path id="path77414" class="cls-17" d="M158.3,358.58l-1,1.75v1.4l2.49-1.3,1-.52v-.05Z"/><path id="path77416" class="cls-18" d="M160.08,357.75l-1.84.91,2.5,1.22,1.84-.91Z"/><path id="path77418" class="cls-19" d="M157.3,361.73v-1.41l1.33.71v1.41Z"/><path id="path77420" class="cls-15" d="M167.75,363.57l-2.16,1.12v1.43l2.17.09Z"/><path id="path77422" class="cls-16" d="M169.43,362.63l-1.67.91v2.75L172.1,364Z"/><path id="path77424" class="cls-17" d="M165.27,362.26l-1,1.75v1.4l2.49-1.3,1-.52v0Z"/><path id="path77426" class="cls-18" d="M167.09,361.41l-1.84.91,2.51,1.22,1.67-.91Z"/><path id="path77428" class="cls-19" d="M164.27,365.41V364l1.33.7v1.41Z"/><path id="path77430" class="cls-15" d="M174.72,367.25l-2.16,1.12v1.42l2.17.1Z"/><path id="path77432" class="cls-16" d="M176.44,366.29l-1.67.91v2.74l4.18-2.28-2.51-1.38Z"/><path id="path77434" class="cls-17" d="M172.24,365.93l-1,1.75v1.4l2.49-1.3,1-.52v-.05Z"/><path id="path77436" class="cls-18" d="M173.94,365.07l-1.67.91,2.5,1.22,1.67-.91Z"/><path id="path77438" class="cls-19" d="M171.24,369.08v-1.41l1.33.71v1.41Z"/><path id="path77440" class="cls-15" d="M181.69,370.92,179.53,372v1.43l2.17.09Z"/><path id="path77442" class="cls-16" d="M183.29,370l-1.67.91v2.74l4.34-2.28-2.67-1.38Z"/><path id="path77444" class="cls-17" d="M179.21,369.61l-1,1.75v1.4l2.49-1.3,1-.52v-.05Z"/><path id="path77446" class="cls-18" d="M181,368.73l-1.67.91,2.34,1.22,1.67-.91Z"/><path id="path77448" class="cls-19" d="M178.21,372.76v-1.41l1.33.7v1.41Z"/><path id="path77450" class="cls-13" d="M.06,269l49.19-25.94,192,101.21L192,370.2Z"/><path id="path77452" class="cls-20" d="M192,370.2l49.19-25.94v24.09L192,394.29Z"/><path id="path77454" class="cls-13" d="M145.51,350.12l-15.36,8.08,20.7,10.67v-16l-5.34-2.74Z"/><path id="path77456" class="cls-13" d="M14.25,285.46l-11.19,6,11.19,5.79Z"/></g><g id="g77458"><g id="g77460"><path id="path77462" class="cls-21" d="M301.38,393.15l-90.69-47.82,90.69-47.82,90.7,47.82Z"/><path id="path77464" class="cls-22" d="M301.38,388.42l-90.69-47.81,90.69-47.82,90.7,47.82Z"/></g><path id="path77466" class="cls-23" d="M301.38,388.42v4.73l-90.69-47.82v-4.72Z"/></g><path id="path77468" class="cls-24" d="M136.89,267.72l-19,15.52,20,10.46,24.57-12.48-25.49-13.5Z"/><path id="path77470" class="cls-25" d="M390.7,71.54a121.89,121.89,0,0,0-53.38,14.17L72.79,225.22,0,216.44V259c0,.22,0,.45,0,.67,0,2.47,1.76,4.95,5.17,6.75,37.59,19.82,207.74,109.4,245.31,129.21,7.43,3.92,20.09,3.57,28.45-.84L609.42,220.51c35.19-18.56,35.08-29.28,8.68-43.2L435.77,81.16c-12.17-6.42-27.94-10-45.07-9.62Z"/><rect id="rect77472" class="cls-14" x="372.75" y="9.56" width="36.28" height="19.13"/><path id="path77474" class="cls-26" d="M636.75,141.55l-26,13.66,26,13.84,26-13.84Z"/><path id="path77476" class="cls-27" d="M663,164.83l-6.83,3.54-17.74,38.31L585,234.85,567.3,225.4l-35.65,18.72-17.74,28.17-186.75,97,9.23,14.17L663,211.4Z"/><path id="path77478" class="cls-20" d="M631.58,142.9a5,5,0,0,0-5.17,4.89v14.84l-18.1,9.45L264,353.75V398.3h.37a34.41,34.41,0,0,0,14.59-3.54l48.22-25.47,186.75-97,17.74-28.17L567.3,225.4,585,234.85l53.39-28.17,17.73-38.31,6.83-3.54V143.41L644.88,153v11.64l-7.94,4.22V147.79A5.19,5.19,0,0,0,631.58,142.9Z"/><path id="path77480" class="cls-28" d="M136.89,267.72l25.49,13.5L137.81,293.7l-20-10.46,19-15.52Z"/><path id="path77482" class="cls-20" d="M143.54,287.46l29.74-.51-36.39-19.23-19,9.28v6.24l2.59-1.18c5-2.64,12.72-3,17.18-.67,1.22.64,2.48,1.38,3.69,2a4,4,0,0,1,2.22,4Z"/><path id="path77484" class="cls-29" d="M390.7,20.6a121.45,121.45,0,0,0-53.38,14L6.84,208.85a20.67,20.67,0,0,0-2.58,1.52L0,210.88v5.57c0,.22,0,.45,0,.67,0,2.47,1.76,4.95,5.17,6.75l112.68,59.37V277l19-9.27L173.28,287l-29.74.5c0,.37.67.64.55,1l-6.28-1v6.24q56.37,29.71,112.68,59.55c7.43,3.91,20.09,3.4,28.45-1L609.41,178c18.76-9.89,27.47-20,27.53-29.35v-7.09l-1.67.17c-2.64-5.59-8.41-10.9-17.18-15.52L435.77,30.05c-12.18-6.42-27.94-9.87-45.07-9.45Z"/><path id="path77486" class="cls-30" d="M390.91,0,372.72,9.55H409Zm-.28,14.23a121.14,121.14,0,0,0-53.31,14L6.86,202.53c-8.36,4.41-9.13,11.06-1.71,15Q61.54,247.23,117.93,277l2.46-1.31c5-2.65,12.76-2.92,17.22-.57l3.62,1.94c4.46,2.35,4,6.4-1,9.05l-2.46,1.31,112.7,59.42c7.43,3.91,20.14,3.53,28.5-.88L609.41,171.76c35.2-18.56,35.09-37.94,8.68-51.87L435.67,23.72c-12.18-6.42-27.91-9.91-45-9.49ZM644.81,133.88V153L663,143.42Z"/><g class="cls-31"><path id="path77488-2" data-name="path77488" class="cls-32" d="M390.91,0,372.72,9.55H409Zm-.28,14.23a121.14,121.14,0,0,0-53.31,14L6.86,202.53c-8.36,4.41-9.13,11.06-1.71,15Q61.54,247.23,117.93,277l2.46-1.31c5-2.65,12.76-2.91,17.22-.57l3.62,1.94c4.46,2.35,4,6.4-1,9.05l-2.46,1.31,112.7,59.42c7.43,3.91,20.14,3.53,28.5-.88L609.41,171.76c35.2-18.56,35.09-37.94,8.68-51.87L435.67,23.72c-12.18-6.42-27.91-9.91-45-9.49ZM644.81,133.88V153L663,143.42Zm-516,143.48a8.35,8.35,0,0,0-3.55.88l-2.46,1.31c3.37,1.78,6.74,3.52,10.11,5.3l2.46-1.31c2-1.06,2.21-2.67.41-3.62-1.21-.64-2.4-1.29-3.62-1.93a6.79,6.79,0,0,0-3.35-.63Z"/></g><g class="cls-31"><path id="path77490-2" data-name="path77490" class="cls-33" d="M390.91,0,372.72,9.55H409Zm-.28,14.23a121.14,121.14,0,0,0-53.31,14L6.86,202.53c-8.36,4.41-9.13,11.06-1.71,15Q61.54,247.23,117.93,277l2.46-1.31c5-2.65,12.76-2.91,17.22-.57l3.62,1.94c4.46,2.35,4,6.4-1,9.05l-2.46,1.31,112.7,59.42c7.43,3.91,20.14,3.53,28.5-.88L609.41,171.76c35.2-18.56,35.09-37.94,8.68-51.87L435.67,23.72c-12.18-6.42-27.91-9.91-45-9.49ZM644.81,133.88V153L663,143.42Zm-516,143.48a8.35,8.35,0,0,0-3.55.88l-2.46,1.31c3.37,1.78,6.74,3.52,10.11,5.3l2.46-1.31c2-1.06,2.21-2.67.41-3.62-1.21-.64-2.4-1.29-3.62-1.93a6.79,6.79,0,0,0-3.35-.63Z"/></g><path id="path77492" class="cls-20" d="M136.89,281.05,133,284.76c-.27-.14-.47-.36-.74-.51a8.61,8.61,0,0,0-7,.17l-2.4,1.35c3.37,1.78,6.79,3.62,10.16,5.4l2.4-1.35c1.35-.71,1.81-1.69,1.48-2.53v-6.24Z"/><path id="path77494" class="cls-34" d="M492.31,63.64C486.39,60.52,477,59.17,468,59.55L312.25,74.21c-7.09.39-15.56,1.07-21.34,4.12l-87.63,46.2c-4.76,2.51-11,5.73-7.88,9.11.5.54,2,1.74,2,1.75,7.54,6.92,4.76,16.41-7.73,23s-30.79,8.14-43.93,4.08a29.13,29.13,0,0,0-3.15-1.13c-6-1.4-12.13,1.59-16.82,4.06l-12.26,6.46L74.4,192.47c-1.18.63-1.62,1.18-1.6,1.78,0,.78,1,1.24,2.28,1.9,11.64,6.14,10.6,16.74-2.51,23.65-1.38.73-2.63,1.22-2.87,2s.15,1.14,1.21,1.69l54.46,28.71c4.1,2.17,9.29,1.57,14.45-1.15l9.41-5c.79-.5,1.75-.93,2.65-1.4,14.3-7.53,36.09-8.22,48.78-1.52s11.4,18.18-2.9,25.72l-14.24,7.51c-4.58,2.41-3.36,4.69-.69,6.1l65.59,34.58c16.69,8.8,45.32,7.9,64.11-2l36.28-19.12L425,255.75c2.11-1.11,2.08-2.22,1.53-2.51-10.39-5.48-9.33-14.93,2.38-21.1s29.63-6.74,40-1.26c.55.29,2.16.57,4.76-.81l59.47-31.35c42.62-22.47,68-77,13.4-106.47L492.32,63.64Z"/><g class="cls-35"><path id="path77496-2" data-name="path77496" class="cls-36" d="M492.31,63.64C486.39,60.52,477,59.17,468,59.55L312.25,74.21c-7.09.39-15.56,1.07-21.34,4.12l-87.63,46.2c-4.76,2.51-11,5.73-7.88,9.11.5.54,2,1.74,2,1.75,7.54,6.92,4.76,16.41-7.73,23s-30.79,8.14-43.93,4.08a29.13,29.13,0,0,0-3.15-1.13c-6-1.4-12.13,1.59-16.82,4.06l-12.26,6.46L74.4,192.47c-1.18.63-1.62,1.18-1.6,1.78,0,.78,1,1.24,2.28,1.9,11.64,6.14,10.6,16.74-2.51,23.65-1.38.73-2.63,1.22-2.87,2s.15,1.14,1.21,1.69l54.46,28.71c4.1,2.17,9.29,1.57,14.45-1.15l9.41-5c.79-.5,1.75-.93,2.65-1.4,14.3-7.53,36.09-8.22,48.78-1.52s11.4,18.18-2.9,25.72l-14.24,7.51c-4.58,2.41-3.36,4.69-.69,6.1l65.59,34.58c16.69,8.8,45.32,7.9,64.11-2l36.28-19.12L425,255.75c2.11-1.11,2.08-2.22,1.53-2.51-10.39-5.48-9.33-14.93,2.38-21.1s29.63-6.74,40-1.26c.55.29,2.16.57,4.76-.81l59.47-31.35c42.62-22.47,68-77,13.4-106.47L492.32,63.64Z"/></g><path id="path77500" class="cls-30" d="M482.71,66.17c-3-1.58-9.36-2.64-15.16-2.4L312.91,78.31c-.26,0-.53.08-.8.11-6.63.37-11.36,1.18-12.67,1.87l-87.63,46.2c-1.87,1-2.9,1.59-3.67,2.09a1.18,1.18,0,0,0,.16.08l.42.39c10.25,9.42,6.34,22.4-10.54,31.3s-41.87,11-59.82,5.49l-.3-.16a34.21,34.21,0,0,0-3.77,1.68L122,173.82,88.24,191.64c10,7.74,8.94,18.34-2.87,26.79l47.21,24.89,7.13-3.76a8.87,8.87,0,0,1,1-.52c1.16-.65,2.46-1.3,2.65-1.4,19.45-10.26,49.65-11.2,66.92-2.09s15.48,25-4,35.28l-10.77,5.68L258,309.46c12.11,6.39,32.32,5.75,46-1.44l36.27-19.13,71.4-37.64c-8.05-8-5.41-18.7,8.71-26.15s34.44-8.83,49.6-4.59l54.67-28.82c18-9.5,34.51-27.5,39-46.16S561.3,108,537,94.78c-.07,0-.11,0-.16-.07L482.7,66.17h0Z"/><path id="path77502" class="cls-14" d="M480.88,67.13c-2.25-1.18-8.16-2.21-13.16-2h-.32C416,69.92,306.23,80.23,304.26,80.54a13,13,0,0,0-3.19.59l-87.63,46.2c-1.16.61-1.56.94-2.17,1.3,10.37,9.88,6.09,23.3-11.46,32.56s-42.94,11.49-61.76,6a19.15,19.15,0,0,0-2.13,1l-12.26,6.46L91.19,191.78c9,7.77,8,17.88-2.81,26.29l44.42,23.42,5.13-2.71a1.26,1.26,0,0,1,.18-.08c.26-.16.5-.27.66-.35a2.72,2.72,0,0,0,.33-.18c1.24-.68,2.71-1.42,2.65-1.39,20.48-10.8,52.19-11.79,70.37-2.21s16.3,26.3-4.18,37.1L199,276.39l60.89,32.1c11.25,5.93,29.86,5.34,42.53-1.34L338.69,288l70.24-37c-7.45-8.35-4.61-19.13,9.87-26.76s34.93-9.13,50.76-5.21l53.5-28.21c17.33-9.13,33.72-27,38.15-45.39s-2.27-36.81-26-49.7a.74.74,0,0,0-.15-.08L480.9,67.12h0ZM206.47,129.62c.11.11.07.3-.17.08h.31c-.07,0-.11,0-.15-.07Z"/><g class="cls-37"><path id="path77504-2" data-name="path77504" class="cls-38" d="M480.88,67.13c-2.25-1.18-8.16-2.21-13.16-2h-.32C416,69.92,306.23,80.23,304.26,80.54a13,13,0,0,0-3.19.59l-87.63,46.2c-1.16.61-1.56.94-2.17,1.3,10.37,9.88,6.09,23.3-11.46,32.56s-42.94,11.49-61.76,6a19.15,19.15,0,0,0-2.13,1l-12.26,6.46L91.19,191.78c9,7.77,8,17.88-2.81,26.29l44.42,23.42,5.13-2.71a1.26,1.26,0,0,1,.18-.08c.26-.16.5-.27.66-.35a2.72,2.72,0,0,0,.33-.18c1.24-.68,2.71-1.42,2.65-1.39,20.48-10.8,52.19-11.79,70.37-2.21s16.3,26.3-4.18,37.1L199,276.39l60.89,32.1c11.25,5.93,29.86,5.34,42.53-1.34L338.69,288l70.24-37c-7.45-8.35-4.61-19.13,9.87-26.76s34.93-9.13,50.76-5.21l53.5-28.21c17.33-9.13,33.72-27,38.15-45.39s-2.27-36.81-26-49.7a.74.74,0,0,0-.15-.08L480.9,67.12h0ZM206.47,129.62c.11.11.07.3-.17.08h.31c-.07,0-.11,0-.15-.07Z"/></g><path id="path77506" class="cls-39" d="M478.13,66.6a17.44,17.44,0,0,0-4.23-1.18,35.2,35.2,0,0,0-6.34-.38h-.32C416.12,69.82,306.7,80.1,304.87,80.39a6,6,0,0,0-1.91.38l-87,45.85-.5.27c9.48,10.48,4.94,24.07-13.13,33.6s-43.8,11.91-63.73,6.92a.35.35,0,0,1-.17.09L126.2,174,95.72,190c7.63,7.72,6.67,17.19-2.71,25.47l40.15,21.17,2.15-1.14.15-.08c.39-.22.71-.39,1-.53.07,0-.13.09.17-.08.68-.38,1.29-.68,1.83-1l.66-.35.15-.09c.39-.2.91-.33,1.31-.53,22-11,55.17-12,74.37-1.84,19.55,10.3,17.53,28.29-4.49,39.9l-6.13,3.23L262.72,305c9.95,5.25,26,4.75,37.21-1.16l36.28-19.13,68.58-36.15c-6.57-8.81-3.45-19.74,11.52-27.64s35.71-9.54,52.42-6.08l51.85-27.33c16.26-8.57,32.6-26.24,36.91-44.12s-2.19-35.74-25.11-48.17c.07,0-.07,0-.15-.08L478.1,66.59h0Z"/><g class="cls-40"><path id="path77508-2" data-name="path77508" class="cls-41" d="M478.13,66.6a17.44,17.44,0,0,0-4.23-1.18,35.2,35.2,0,0,0-6.34-.38h-.32C416.12,69.82,306.7,80.1,304.87,80.39a6,6,0,0,0-1.91.38l-87,45.85-.5.27c9.48,10.48,4.94,24.07-13.13,33.6s-43.8,11.91-63.73,6.92a.35.35,0,0,1-.17.09L126.2,174,95.72,190c7.63,7.72,6.67,17.19-2.71,25.47l40.15,21.17,2.15-1.14.15-.08c.39-.22.71-.39,1-.53.07,0-.13.09.17-.08.68-.38,1.29-.68,1.83-1l.66-.35.15-.09c.39-.2.91-.33,1.31-.53,22-11,55.17-12,74.37-1.84,19.55,10.3,17.53,28.29-4.49,39.9l-6.13,3.23L262.72,305c9.95,5.25,26,4.75,37.21-1.16l36.28-19.13,68.58-36.15c-6.57-8.81-3.45-19.74,11.52-27.64s35.71-9.54,52.42-6.08l51.85-27.33c16.26-8.57,32.6-26.24,36.91-44.12s-2.19-35.74-25.11-48.17c.07,0-.07,0-.15-.08L478.1,66.59h0Z"/></g><path id="path77516" class="cls-14" d="M122.72,285.8l.07-6.27,10.12,5.34.07,6.27Z"/><path id="path77518" class="cls-42" d="M540.57,245.44l22.37-11.8c7.46-3.93,7.46-3.93,7.46,3.94v7.86c0,7.87,0,7.87-7.46,11.8L540.57,269c-7.46,3.93-7.46,3.93-7.46-3.93v-7.87C533.11,249.37,533.11,249.37,540.57,245.44Z"/><g id="g77520"><path id="path77522" class="cls-42" d="M377,352.11c0,3.42-3,7.79-6.78,9.77s-6.78.8-6.78-2.62,3-7.79,6.78-9.77S377,348.69,377,352.11Z"/><path id="path77524" class="cls-43" d="M372.41,348.8a8.51,8.51,0,0,0-2.21.67c-3.75,2-6.65,6.36-6.65,9.78a5,5,0,0,0,0,1,7.62,7.62,0,0,0,2.21-.68c3.75-2,6.84-6.36,6.84-9.78a4.42,4.42,0,0,0-.19-1Z"/></g><g id="g77526"><path id="path77528" class="cls-42" d="M502.28,286.37c0,3.42-3,7.79-6.79,9.76s-6.78.81-6.78-2.61,3-7.8,6.78-9.77S502.28,283,502.28,286.37Z"/><path id="path77530" class="cls-43" d="M497.66,283.05a8.25,8.25,0,0,0-2.22.68c-3.75,2-6.65,6.36-6.65,9.78a4.86,4.86,0,0,0,0,1,7.29,7.29,0,0,0,2.21-.67c3.75-2,6.84-6.37,6.84-9.79a5.32,5.32,0,0,0-.18-1Z"/></g><g id="g77532"><path id="path77534" class="cls-42" d="M627.52,220.62c0,3.42-3,7.8-6.78,9.77s-6.79.8-6.79-2.62,3-7.79,6.79-9.77S627.52,217.2,627.52,220.62Z"/><path id="path77536" class="cls-43" d="M622.9,217.31a8.58,8.58,0,0,0-2.22.67c-3.74,2-6.65,6.37-6.65,9.79a4.87,4.87,0,0,0,0,1,7.77,7.77,0,0,0,2.22-.68c3.74-2,6.83-6.36,6.83-9.78a5,5,0,0,0-.18-1Z"/></g><path id="path77538" class="cls-44" d="M195.45,129.57a2.75,2.75,0,0,0,0,4.05c.5.54,1.83,1.68,1.84,1.69a12.78,12.78,0,0,1,3.88,6.24c.68-3.61-.52-7.21-3.88-10.29C197.29,131.26,196,130.11,195.45,129.57Zm382.19,5.23c-1.12,23.3-20,46.94-44.52,59.89l-59.48,31.2c-2.61,1.38-4.07,1.13-4.62.84-10.39-5.48-28.37-4.82-40.08,1.35-7.4,3.91-10.54,9.15-9.24,13.84.83-3.5,3.89-7,9.24-9.79C440.65,226,458.63,225.47,469,231c.55.29,2,.53,4.62-.84l59.48-31.38c26-13.7,45.59-39.33,44.52-63.93ZM75.19,192.15l-.74.34c-1.17.62-1.68,1.08-1.66,1.69,0,.78,1,1.36,2.22,2,4.51,2.38,7,5.35,7.75,8.6,1.1-4.63-1.38-9.3-7.57-12.65Zm-3,27.84c-1.22.62-2.37,1.16-2.59,1.85s.24,1.14,1.3,1.69q27.22,14.35,54.49,28.68c4.1,2.16,9.25,1.54,14.41-1.19l9.42-4.89c.79-.5,1.69-1,2.58-1.52,14.3-7.53,36.08-8.21,48.77-1.51,4.76,2.51,7.62,5.71,8.5,9.11.87-4.88-1.86-9.66-8.5-13.16-12.69-6.69-34.47-6-48.77,1.52-.89.47-1.79.84-2.58,1.35L139.85,247c-5.17,2.72-10.31,3.17-14.41,1q-26.58-14-53.2-28Zm352.45,31.88-75.92,40-36.21,19.06c-18.79,9.91-47.41,10.82-64.1,2l-65.57-34.58a6.09,6.09,0,0,1-1.11-.84c-2.38,2-1.13,3.71,1.11,4.89L248.46,317c16.69,8.8,45.31,8.06,64.1-1.86l36.21-19.23,76.29-40.14c2.11-1.11,2-2.24,1.48-2.53A18.41,18.41,0,0,1,424.69,251.87Z"/><g id="g77540"><path id="path77542" class="cls-45" d="M262.32,332a17.57,17.57,0,0,0-6.65,1.69h-3v3.54c0,1.55,1.59,3.06,4.43,4,4.89,1.69,11.82,1.3,15.52-1a4,4,0,0,0,2.22-3v-3.54h-2.77a11.37,11.37,0,0,0-1.67-.68,20.9,20.9,0,0,0-8.12-1Z"/><path id="path77544" class="cls-46" d="M255,330.7c-3.71,2.31-2.76,5.55,2.12,7.25s11.85,1.19,15.55-1.12,2.75-5.56-2.13-7.25S258.65,328.39,255,330.7Z"/><path id="path77546" class="cls-29" d="M259.44,330.32l-2.19,1.16,4.34,2.28-4.34,2.29,2.19,1.15,4.34-2.29,4.34,2.29,2.2-1.15L266,333.76l4.34-2.28-2.2-1.16-4.34,2.29Z"/><path id="path77548" class="cls-20" d="M259.36,330.31l-2,1.18,2,1Z"/><path id="path77550" class="cls-20" d="M261.58,333.68,257.33,336l2,1.18,2.22-1.18Z"/><path id="path77552" class="cls-20" d="M268,330.31l-4.24,2.36v2.19l4.24,2.36,2.22-1.18L266,333.68l4.25-2.19Z"/><path id="path77554" class="cls-14" d="M268,330.31v2.36l2.22-1.18L268,330.31Z"/><path id="path77556" class="cls-14" d="M266,333.68V336l2,1.18,2.22-1.18Z"/></g><g id="g77558"><path id="path77560" class="cls-47" d="M444.46,237.53a17.34,17.34,0,0,0-6.65,1.69h-3v3.54c0,1.55,1.59,3.06,4.43,4.05,4.88,1.69,11.81,1.3,15.52-1a4,4,0,0,0,2.22-3v-3.54h-2.77a11.84,11.84,0,0,0-1.67-.68,20.53,20.53,0,0,0-8.12-1Z"/><path id="path77562" class="cls-46" d="M437.08,236.23c-3.7,2.32-2.75,5.56,2.13,7.25s11.84,1.19,15.55-1.12,2.75-5.55-2.13-7.25S440.79,233.92,437.08,236.23Z"/><path id="path77564" class="cls-29" d="M441.58,235.86,439.39,237l4.34,2.29-4.34,2.28,2.19,1.16,4.34-2.29,4.34,2.29,2.2-1.16-4.35-2.28,4.35-2.29-2.2-1.15-4.34,2.28Z"/><path id="path77566" class="cls-20" d="M441.5,235.84l-2,1.18,2,1Z"/><path id="path77568" class="cls-20" d="M443.72,239.22l-4.25,2.36,2,1.18,2.22-1.18Z"/><path id="path77570" class="cls-20" d="M450.18,235.84l-4.25,2.36v2.2l4.25,2.36,2.22-1.18-4.25-2.36,4.25-2.2Z"/><path id="path77572" class="cls-14" d="M450.18,235.84v2.36L452.4,237l-2.22-1.18Z"/><path id="path77574" class="cls-14" d="M448.15,239.22v2.36l2,1.18,2.22-1.18Z"/></g><g id="g77576"><path id="path77578" class="cls-48" d="M607.68,136.86a17.43,17.43,0,0,0-6.65,1.69h-2.95v3.54c0,1.55,1.58,3.06,4.43,4,4.88,1.7,11.81,1.3,15.52-1a4,4,0,0,0,2.22-3v-3.55h-2.78a12.45,12.45,0,0,0-1.66-.67,20.56,20.56,0,0,0-8.13-1Z"/><path id="path77580" class="cls-46" d="M600.31,135.56c-3.7,2.31-2.75,5.56,2.13,7.25S614.28,144,618,141.69s2.75-5.56-2.13-7.25S604,133.25,600.31,135.56Z"/><path id="path77582" class="cls-29" d="M604.81,135.19l-2.19,1.15,4.34,2.29-4.34,2.28,2.19,1.15,4.34-2.28,4.34,2.28,2.19-1.15-4.34-2.28,4.34-2.29-2.19-1.15-4.34,2.28Z"/><path id="path77584" class="cls-20" d="M604.73,135.17l-2,1.18,2,1Z"/><path id="path77586" class="cls-20" d="M607,138.54l-4.25,2.37,2,1.18,2.22-1.18Z"/><path id="path77588" class="cls-20" d="M613.41,135.17l-4.25,2.36v2.2l4.25,2.36,2.22-1.18-4.25-2.37,4.25-2.19Z"/><path id="path77590" class="cls-14" d="M613.41,135.17v2.36l2.22-1.18-2.22-1.18Z"/><path id="path77592" class="cls-14" d="M611.38,138.54v2.37l2,1.18,2.22-1.18Z"/></g><path id="path77594" class="cls-49" d="M173.24,200.83,291.18,263c5.56,2.93,11.73,2.85,18.08-.05L499.72,162.54c7.15-3.77,9.36-6.83,12.09-11.13l12.07-25.47c1-3.41,1.32-7.34-3.69-10l-61.1-32.22c-3.39-1.79-6.81-2-10.85-2l-114.7,8.64a24.38,24.38,0,0,0-10.63,2.83l-71.1,37.48a10.52,10.52,0,0,0-6,9.47V153l-72.56,38.25c-5.13,2.71-3.4,7.77,0,9.58Z"/><g class="cls-50"><path id="path77596-2" data-name="path77596" class="cls-51" d="M173.24,200.83,291.18,263c5.56,2.93,11.73,2.85,18.08-.05L499.72,162.54c7.15-3.77,9.36-6.83,12.09-11.13l12.07-25.47c1-3.41,1.32-7.34-3.69-10l-61.1-32.22c-3.39-1.79-6.81-2-10.85-2l-114.7,8.64a24.38,24.38,0,0,0-10.63,2.83l-71.1,37.48a10.52,10.52,0,0,0-6,9.47V153l-72.56,38.25c-5.13,2.71-3.4,7.77,0,9.58Z"/></g><path id="path77598" class="cls-52" d="M448.15,81.67l-73,5.56,132.45,69.84a32.45,32.45,0,0,0,4.25-5.74l12-25.47c1-3.41,1.31-7.31-3.7-10L459.05,83.69c-3.39-1.79-6.86-2-10.9-2Z"/><path id="path77600" class="cls-52" d="M191.38,181.7l-18.1,9.61c-5.13,2.71-3.42,7.64,0,9.45L291.13,263c5.56,2.93,11.75,2.91,18.11,0l18.1-9.61Z"/><g id="g22529"><path id="path22531" class="cls-53" d="M28.93,205.09a17.43,17.43,0,0,0-6.65,1.68h-3v3.54c0,1.55,1.58,3.06,4.43,4.05,4.88,1.69,11.81,1.3,15.52-1a4,4,0,0,0,2.22-3v-3.54H38.72a12.45,12.45,0,0,0-1.66-.67,20.74,20.74,0,0,0-8.13-1Z"/><path id="path22533" class="cls-46" d="M21.56,203.79c-3.7,2.31-2.75,5.56,2.13,7.25s11.84,1.19,15.55-1.12,2.75-5.56-2.13-7.25S25.27,201.48,21.56,203.79Z"/><path id="path22535" class="cls-29" d="M26.06,203.42l-2.19,1.15,4.34,2.28-4.34,2.29,2.19,1.15L30.4,208l4.34,2.28,2.19-1.15-4.34-2.29,4.34-2.28-2.19-1.15L30.4,205.7Z"/><path id="path22537" class="cls-20" d="M26,203.4l-2,1.18,2,1Z"/><path id="path22539" class="cls-20" d="M28.2,206.77,24,209.13l2,1.18,2.22-1.18Z"/><path id="path22541" class="cls-20" d="M34.66,203.4l-4.25,2.36V208l4.25,2.36,2.22-1.18-4.25-2.36,4.25-2.19Z"/><path id="path22543" class="cls-14" d="M34.66,203.4v2.36l2.22-1.18-2.22-1.18Z"/><path id="path22545" class="cls-14" d="M32.63,206.77v2.36l2,1.18,2.22-1.18Z"/></g><g id="g22549"><path id="path22551" class="cls-54" d="M157.59,137.35a17.57,17.57,0,0,0-6.65,1.69h-3v3.54c0,1.55,1.59,3.06,4.43,4,4.89,1.69,11.82,1.3,15.52-1a4,4,0,0,0,2.22-3V139h-2.77a12.58,12.58,0,0,0-1.67-.68,20.9,20.9,0,0,0-8.12-1Z"/><path id="path22553" class="cls-46" d="M150.22,136.06c-3.71,2.31-2.76,5.56,2.12,7.25s11.84,1.19,15.55-1.12,2.75-5.56-2.13-7.25S153.92,133.75,150.22,136.06Z"/><path id="path22555" class="cls-29" d="M154.71,135.68l-2.19,1.16,4.34,2.28-4.34,2.29,2.19,1.15,4.34-2.28,4.34,2.28,2.2-1.15-4.34-2.29,4.34-2.28-2.2-1.16L159.05,138Z"/><path id="path22557" class="cls-20" d="M154.63,135.67l-2,1.18,2,1Z"/><path id="path22559" class="cls-20" d="M156.85,139l-4.25,2.36,2,1.18,2.22-1.18Z"/><path id="path22561" class="cls-20" d="M163.31,135.67,159.07,138v2.19l4.24,2.36,2.22-1.18L161.28,139l4.25-2.19Z"/><path id="path22563" class="cls-14" d="M163.31,135.67V138l2.22-1.18-2.22-1.18Z"/><path id="path22565" class="cls-14" d="M161.28,139v2.36l2,1.18,2.22-1.18Z"/></g><g id="g22599"><path id="path22571" class="cls-55" d="M388.75,24.41a17.43,17.43,0,0,0-6.65,1.69h-3v3.54c0,1.55,1.59,3.06,4.44,4,4.88,1.7,11.81,1.3,15.52-1a4,4,0,0,0,2.21-3V26.09h-2.77a12.45,12.45,0,0,0-1.66-.67,20.56,20.56,0,0,0-8.13-1Z"/><path id="path22573" class="cls-46" d="M381.38,23.11c-3.71,2.32-2.76,5.56,2.13,7.25s11.84,1.19,15.54-1.12,2.76-5.55-2.12-7.25S385.09,20.8,381.38,23.11Z"/><path id="path22575" class="cls-29" d="M385.87,22.74l-2.19,1.15L388,26.18l-4.34,2.28,2.19,1.16,4.35-2.29,4.34,2.29,2.19-1.16-4.34-2.28,4.34-2.29-2.19-1.15L390.22,25Z"/><path id="path22577" class="cls-20" d="M385.79,22.72l-2,1.19,2,1V22.73Z"/><path id="path22579" class="cls-20" d="M388,26.1l-4.25,2.36,2,1.18L388,28.46V26.1Z"/><path id="path22581" class="cls-20" d="M394.48,22.72l-4.25,2.37v2.19l4.25,2.36,2.21-1.18-4.24-2.36,4.24-2.19Z"/><path id="path22583" class="cls-14" d="M394.48,22.72v2.37l2.21-1.19-2.21-1.18Z"/><path id="path22585" class="cls-14" d="M392.45,26.1v2.36l2,1.18,2.21-1.18-4.25-2.36Z"/></g></g></g></g></svg>