<svg xmlns="http://www.w3.org/2000/svg" xmlns:xlink="http://www.w3.org/1999/xlink" viewBox="0 0 544.19 458.35"><defs><style>.cls-1{mask:url(#mask);filter:url(#luminosity-noclip-19);}.cls-10,.cls-12,.cls-14,.cls-16,.cls-18,.cls-2,.cls-20,.cls-22,.cls-24,.cls-26,.cls-28,.cls-30,.cls-32,.cls-34,.cls-36,.cls-4,.cls-6,.cls-8{mix-blend-mode:multiply;}.cls-2{fill:url(#radial-gradient);}.cls-3{mask:url(#mask-2);filter:url(#luminosity-noclip-24);}.cls-4{fill:url(#linear-gradient);}.cls-5{mask:url(#mask-3);filter:url(#luminosity-noclip-25);}.cls-6{fill:url(#linear-gradient-2);}.cls-7{mask:url(#mask-4);filter:url(#luminosity-noclip-26);}.cls-8{fill:url(#linear-gradient-3);}.cls-9{mask:url(#mask-5);filter:url(#luminosity-noclip-27);}.cls-10{fill:url(#linear-gradient-4);}.cls-11{mask:url(#mask-6);filter:url(#luminosity-noclip-28);}.cls-12{fill:url(#linear-gradient-5);}.cls-13{mask:url(#mask-7);filter:url(#luminosity-noclip-20);}.cls-14{fill:url(#radial-gradient-2);}.cls-15{mask:url(#mask-8);filter:url(#luminosity-noclip-29);}.cls-16{fill:url(#linear-gradient-6);}.cls-17{mask:url(#mask-9);filter:url(#luminosity-noclip-30);}.cls-18{fill:url(#linear-gradient-7);}.cls-19{mask:url(#mask-10);filter:url(#luminosity-noclip-31);}.cls-20{fill:url(#linear-gradient-8);}.cls-21{mask:url(#mask-11);filter:url(#luminosity-noclip-32);}.cls-22{fill:url(#linear-gradient-9);}.cls-23{mask:url(#mask-12);filter:url(#luminosity-noclip-33);}.cls-24{fill:url(#linear-gradient-10);}.cls-25{mask:url(#mask-13);filter:url(#luminosity-noclip-34);}.cls-26{fill:url(#linear-gradient-11);}.cls-27{mask:url(#mask-14);filter:url(#luminosity-noclip-35);}.cls-28{fill:url(#linear-gradient-12);}.cls-29{mask:url(#mask-15);filter:url(#luminosity-noclip-36);}.cls-30{fill:url(#linear-gradient-13);}.cls-31{mask:url(#mask-16);filter:url(#luminosity-noclip-21);}.cls-32{fill:url(#linear-gradient-14);}.cls-33{mask:url(#mask-17);filter:url(#luminosity-noclip-22);}.cls-34{fill:url(#linear-gradient-15);}.cls-35{mask:url(#mask-18);filter:url(#luminosity-noclip-23);}.cls-36{fill:url(#linear-gradient-16);}.cls-37{fill:#242424;}.cls-38{fill:#373737;}.cls-39{mask:url(#mask-19);}.cls-40{fill:url(#radial-gradient-3);}.cls-41{fill:#101010;}.cls-42{fill:#323232;}.cls-43{fill:#a91c24;}.cls-44{fill:#131313;}.cls-45{fill:#8e1d25;}.cls-46{fill:#fff;}.cls-47{fill:url(#linear-gradient-17);}.cls-48{fill:#0d0d0d;}.cls-49{fill:#434343;}.cls-50{fill:url(#linear-gradient-18);}.cls-51{fill:gray;}.cls-52{fill:#999;}.cls-53{fill:url(#radial-gradient-4);}.cls-54{fill:#a2a2a2;}.cls-55{fill:#666;}.cls-56{fill:#555;}.cls-57{fill:#7d7d7d;}.cls-58{fill:#c9c9c9;}.cls-59{fill:#ececec;}.cls-60{fill:#a2a08c;}.cls-61{fill:#e6e3c7;}.cls-62{fill:#5e5b4a;}.cls-63{fill:#8d896f;}.cls-64{mask:url(#mask-20);}.cls-65{fill:url(#radial-gradient-5);}.cls-66{fill:#8c8c8c;}.cls-67{fill:#1f1f1f;}.cls-68{fill:#2f2f2f;}.cls-69{fill:#1a1a1a;}.cls-70{fill:#a7a7a7;}.cls-71{fill:#484848;}.cls-72{fill:#626262;}.cls-73{mask:url(#mask-21);}.cls-74{fill:url(#linear-gradient-19);}.cls-75{mask:url(#mask-22);}.cls-76{fill:url(#linear-gradient-20);}.cls-77{mask:url(#mask-23);}.cls-78{fill:url(#linear-gradient-21);}.cls-79{mask:url(#mask-24);}.cls-80{fill:url(#linear-gradient-22);}.cls-81{mask:url(#mask-25);}.cls-82{fill:url(#linear-gradient-23);}.cls-83{mask:url(#mask-26);}.cls-84{fill:url(#linear-gradient-24);}.cls-85{mask:url(#mask-27);}.cls-86{fill:url(#linear-gradient-25);}.cls-87{fill:#a6a6a6;}.cls-88{fill:#c2c0a8;}.cls-89{mask:url(#mask-28);}.cls-90{fill:url(#linear-gradient-26);}.cls-91{mask:url(#mask-29);}.cls-92{fill:url(#linear-gradient-27);}.cls-93{mask:url(#mask-30);}.cls-94{fill:url(#linear-gradient-28);}.cls-95{mask:url(#mask-31);}.cls-96{fill:url(#linear-gradient-29);}.cls-97{mask:url(#mask-32);}.cls-98{fill:url(#linear-gradient-30);}.cls-99{mask:url(#mask-33);}.cls-100{fill:url(#linear-gradient-31);}.cls-101{mask:url(#mask-34);}.cls-102{fill:url(#linear-gradient-32);}.cls-103{mask:url(#mask-35);}.cls-104{fill:url(#linear-gradient-33);}.cls-105{mask:url(#mask-36);}.cls-106{fill:url(#linear-gradient-34);}.cls-107{filter:url(#luminosity-noclip-18);}.cls-108{filter:url(#luminosity-noclip-17);}.cls-109{filter:url(#luminosity-noclip-16);}.cls-110{filter:url(#luminosity-noclip-15);}.cls-111{filter:url(#luminosity-noclip-14);}.cls-112{filter:url(#luminosity-noclip-13);}.cls-113{filter:url(#luminosity-noclip-12);}.cls-114{filter:url(#luminosity-noclip-11);}.cls-115{filter:url(#luminosity-noclip-10);}.cls-116{filter:url(#luminosity-noclip-9);}.cls-117{filter:url(#luminosity-noclip-8);}.cls-118{filter:url(#luminosity-noclip-7);}.cls-119{filter:url(#luminosity-noclip-6);}.cls-120{filter:url(#luminosity-noclip-5);}.cls-121{filter:url(#luminosity-noclip-4);}.cls-122{filter:url(#luminosity-noclip-3);}.cls-123{filter:url(#luminosity-noclip-2);}.cls-124{filter:url(#luminosity-noclip);}</style><filter id="luminosity-noclip" x="2.82" y="-8259.35" width="300.11" height="32766" filterUnits="userSpaceOnUse" color-interpolation-filters="sRGB"><feFlood flood-color="#fff" result="bg"/><feBlend in="SourceGraphic" in2="bg"/></filter><mask id="mask" x="2.82" y="-8259.35" width="300.11" height="32766" maskUnits="userSpaceOnUse"><g class="cls-124"/></mask><radialGradient id="radial-gradient" cx="2.21" cy="-155.74" r="18.33" gradientTransform="matrix(9.07, 0, 0, -13.51, 84.09, -1828.17)" gradientUnits="userSpaceOnUse"><stop offset="0" stop-color="#fff"/><stop offset="1"/></radialGradient><filter id="luminosity-noclip-2" x="126.21" y="-8259.35" width="9.65" height="32766" filterUnits="userSpaceOnUse" color-interpolation-filters="sRGB"><feFlood flood-color="#fff" result="bg"/><feBlend in="SourceGraphic" in2="bg"/></filter><mask id="mask-2" x="126.21" y="-8259.35" width="9.65" height="32766" maskUnits="userSpaceOnUse"><g class="cls-123"/></mask><linearGradient id="linear-gradient" x1="-3.36" y1="-144.71" x2="-2.73" y2="-145.85" gradientTransform="matrix(11.73, 0, 0, -11.73, 162.87, -1438.66)" xlink:href="#radial-gradient"/><filter id="luminosity-noclip-3" x="93.73" y="-8259.35" width="9.38" height="32766" filterUnits="userSpaceOnUse" color-interpolation-filters="sRGB"><feFlood flood-color="#fff" result="bg"/><feBlend in="SourceGraphic" in2="bg"/></filter><mask id="mask-3" x="93.73" y="-8259.35" width="9.38" height="32766" maskUnits="userSpaceOnUse"><g class="cls-122"/></mask><linearGradient id="linear-gradient-2" x1="-5.88" y1="-146.07" x2="-5.48" y2="-146.58" gradientTransform="matrix(11.73, 0, 0, -11.73, 162.87, -1438.66)" xlink:href="#radial-gradient"/><filter id="luminosity-noclip-4" x="103.15" y="-8259.35" width="11.71" height="32766" filterUnits="userSpaceOnUse" color-interpolation-filters="sRGB"><feFlood flood-color="#fff" result="bg"/><feBlend in="SourceGraphic" in2="bg"/></filter><mask id="mask-4" x="103.15" y="-8259.35" width="11.71" height="32766" maskUnits="userSpaceOnUse"><g class="cls-121"/></mask><linearGradient id="linear-gradient-3" x1="-3.77" y1="-146.72" x2="-4.65" y2="-147.08" gradientTransform="matrix(11.73, 0, 0, -11.73, 162.87, -1438.66)" xlink:href="#radial-gradient"/><filter id="luminosity-noclip-5" x="109.51" y="-8259.35" width="16.87" height="32766" filterUnits="userSpaceOnUse" color-interpolation-filters="sRGB"><feFlood flood-color="#fff" result="bg"/><feBlend in="SourceGraphic" in2="bg"/></filter><mask id="mask-5" x="109.51" y="-8259.35" width="16.87" height="32766" maskUnits="userSpaceOnUse"><g class="cls-120"/></mask><linearGradient id="linear-gradient-4" x1="-2.57" y1="-147.96" x2="-3.96" y2="-148.58" gradientTransform="matrix(11.73, 0, 0, -11.73, 162.87, -1438.66)" xlink:href="#radial-gradient"/><filter id="luminosity-noclip-6" x="113.6" y="-8259.35" width="22.59" height="32766" filterUnits="userSpaceOnUse" color-interpolation-filters="sRGB"><feFlood flood-color="#fff" result="bg"/><feBlend in="SourceGraphic" in2="bg"/></filter><mask id="mask-6" x="113.6" y="-8259.35" width="22.59" height="32766" maskUnits="userSpaceOnUse"><g class="cls-119"/></mask><linearGradient id="linear-gradient-5" x1="-1.44" y1="-149.07" x2="-3.25" y2="-149.77" gradientTransform="matrix(11.73, 0, 0, -11.73, 162.87, -1438.66)" xlink:href="#radial-gradient"/><filter id="luminosity-noclip-7" x="0" y="-8259.35" width="544.19" height="32766" filterUnits="userSpaceOnUse" color-interpolation-filters="sRGB"><feFlood flood-color="#fff" result="bg"/><feBlend in="SourceGraphic" in2="bg"/></filter><mask id="mask-7" x="0" y="-8259.35" width="544.19" height="32766" maskUnits="userSpaceOnUse"><g class="cls-118"/></mask><radialGradient id="radial-gradient-2" cx="-795.99" cy="665.27" r="21.44" gradientTransform="matrix(9.18, -9.29, 17.06, 0, -3715.31, -7350.1)" xlink:href="#radial-gradient"/><filter id="luminosity-noclip-8" x="126.91" y="-8259.35" width="21.16" height="32766" filterUnits="userSpaceOnUse" color-interpolation-filters="sRGB"><feFlood flood-color="#fff" result="bg"/><feBlend in="SourceGraphic" in2="bg"/></filter><mask id="mask-8" x="126.91" y="-8259.35" width="21.16" height="32766" maskUnits="userSpaceOnUse"><g class="cls-117"/></mask><linearGradient id="linear-gradient-6" x1="-1" y1="-150.87" x2="-1.88" y2="-151.24" gradientTransform="matrix(11.73, 0, 0, -11.73, 162.87, -1438.66)" xlink:href="#radial-gradient"/><filter id="luminosity-noclip-9" x="138.93" y="-8259.35" width="18.17" height="32766" filterUnits="userSpaceOnUse" color-interpolation-filters="sRGB"><feFlood flood-color="#fff" result="bg"/><feBlend in="SourceGraphic" in2="bg"/></filter><mask id="mask-9" x="138.93" y="-8259.35" width="18.17" height="32766" maskUnits="userSpaceOnUse"><g class="cls-116"/></mask><linearGradient id="linear-gradient-7" x1="-1.27" y1="-152.56" x2="-0.12" y2="-152.25" gradientTransform="matrix(11.73, 0, 0, -11.73, 162.87, -1438.66)" gradientUnits="userSpaceOnUse"><stop offset="0"/><stop offset="1" stop-color="#fff"/></linearGradient><filter id="luminosity-noclip-10" x="114.63" y="-8259.35" width="6.9" height="32766" filterUnits="userSpaceOnUse" color-interpolation-filters="sRGB"><feFlood flood-color="#fff" result="bg"/><feBlend in="SourceGraphic" in2="bg"/></filter><mask id="mask-10" x="114.63" y="-8259.35" width="6.9" height="32766" maskUnits="userSpaceOnUse"><g class="cls-115"/></mask><linearGradient id="linear-gradient-8" x1="-4.05" y1="-145.02" x2="-3.79" y2="-146" gradientTransform="matrix(11.73, 0, 0, -11.73, 162.87, -1438.66)" xlink:href="#radial-gradient"/><filter id="luminosity-noclip-11" x="86.74" y="-8259.35" width="7.21" height="32766" filterUnits="userSpaceOnUse" color-interpolation-filters="sRGB"><feFlood flood-color="#fff" result="bg"/><feBlend in="SourceGraphic" in2="bg"/></filter><mask id="mask-11" x="86.74" y="-8259.35" width="7.21" height="32766" maskUnits="userSpaceOnUse"><g class="cls-114"/></mask><linearGradient id="linear-gradient-9" x1="-5.64" y1="-144.15" x2="-6.26" y2="-144.89" gradientTransform="matrix(11.73, 0, 0, -11.73, 162.87, -1438.66)" xlink:href="#radial-gradient"/><filter id="luminosity-noclip-12" x="71.39" y="-8259.35" width="10.98" height="32766" filterUnits="userSpaceOnUse" color-interpolation-filters="sRGB"><feFlood flood-color="#fff" result="bg"/><feBlend in="SourceGraphic" in2="bg"/></filter><mask id="mask-12" x="71.39" y="-8259.35" width="10.98" height="32766" maskUnits="userSpaceOnUse"><g class="cls-113"/></mask><linearGradient id="linear-gradient-10" x1="-6.73" y1="-142.68" x2="-7.34" y2="-143.53" gradientTransform="matrix(11.73, 0, 0, -11.73, 162.87, -1438.66)" xlink:href="#radial-gradient"/><filter id="luminosity-noclip-13" x="58.34" y="-8259.35" width="14.07" height="32766" filterUnits="userSpaceOnUse" color-interpolation-filters="sRGB"><feFlood flood-color="#fff" result="bg"/><feBlend in="SourceGraphic" in2="bg"/></filter><mask id="mask-13" x="58.34" y="-8259.35" width="14.07" height="32766" maskUnits="userSpaceOnUse"><g class="cls-112"/></mask><linearGradient id="linear-gradient-11" x1="-7.63" y1="-141.24" x2="-8.26" y2="-142.25" gradientTransform="matrix(11.73, 0, 0, -11.73, 162.87, -1438.66)" xlink:href="#radial-gradient"/><filter id="luminosity-noclip-14" x="42.99" y="-8259.35" width="17.77" height="32766" filterUnits="userSpaceOnUse" color-interpolation-filters="sRGB"><feFlood flood-color="#fff" result="bg"/><feBlend in="SourceGraphic" in2="bg"/></filter><mask id="mask-14" x="42.99" y="-8259.35" width="17.77" height="32766" maskUnits="userSpaceOnUse"><g class="cls-111"/></mask><linearGradient id="linear-gradient-12" x1="-8.36" y1="-140.17" x2="-9.17" y2="-140.72" gradientTransform="matrix(11.73, 0, 0, -11.73, 162.87, -1438.66)" xlink:href="#radial-gradient"/><filter id="luminosity-noclip-15" x="32.75" y="-8259.35" width="18.91" height="32766" filterUnits="userSpaceOnUse" color-interpolation-filters="sRGB"><feFlood flood-color="#fff" result="bg"/><feBlend in="SourceGraphic" in2="bg"/></filter><mask id="mask-15" x="32.75" y="-8259.35" width="18.91" height="32766" maskUnits="userSpaceOnUse"><g class="cls-110"/></mask><linearGradient id="linear-gradient-13" x1="-9.23" y1="-138.95" x2="-9.9" y2="-139.42" gradientTransform="matrix(11.73, 0, 0, -11.73, 162.87, -1438.66)" xlink:href="#radial-gradient"/><filter id="luminosity-noclip-16" x="51.42" y="-8259.35" width="27.43" height="32766" filterUnits="userSpaceOnUse" color-interpolation-filters="sRGB"><feFlood flood-color="#fff" result="bg"/><feBlend in="SourceGraphic" in2="bg"/></filter><mask id="mask-16" x="51.42" y="-8259.35" width="27.43" height="32766" maskUnits="userSpaceOnUse"><g class="cls-109"/></mask><linearGradient id="linear-gradient-14" x1="-8.51" y1="-147.19" x2="-8.31" y2="-147.55" gradientTransform="matrix(11.73, 0, 0, -11.73, 162.87, -1438.66)" xlink:href="#radial-gradient"/><filter id="luminosity-noclip-17" x="82.21" y="-8259.35" width="10.67" height="32766" filterUnits="userSpaceOnUse" color-interpolation-filters="sRGB"><feFlood flood-color="#fff" result="bg"/><feBlend in="SourceGraphic" in2="bg"/></filter><mask id="mask-17" x="82.21" y="-8259.35" width="10.67" height="32766" maskUnits="userSpaceOnUse"><g class="cls-108"/></mask><linearGradient id="linear-gradient-15" x1="-6.88" y1="-146.33" x2="-6.43" y2="-146.98" gradientTransform="matrix(11.73, 0, 0, -11.73, 162.87, -1438.66)" xlink:href="#radial-gradient"/><filter id="luminosity-noclip-18" x="136.09" y="-8259.35" width="32.78" height="32766" filterUnits="userSpaceOnUse" color-interpolation-filters="sRGB"><feFlood flood-color="#fff" result="bg"/><feBlend in="SourceGraphic" in2="bg"/></filter><mask id="mask-18" x="136.09" y="-8259.35" width="32.78" height="32766" maskUnits="userSpaceOnUse"><g class="cls-107"/></mask><linearGradient id="linear-gradient-16" x1="-1.43" y1="-144.18" x2="-0.97" y2="-145.09" gradientTransform="matrix(11.73, 0, 0, -11.73, 162.87, -1438.66)" xlink:href="#radial-gradient"/><filter id="luminosity-noclip-19" x="2.82" y="134.38" width="300.11" height="319.73" filterUnits="userSpaceOnUse" color-interpolation-filters="sRGB"><feFlood flood-color="#fff" result="bg"/><feBlend in="SourceGraphic" in2="bg"/></filter><mask id="mask-19" x="2.82" y="134.38" width="300.11" height="319.73" maskUnits="userSpaceOnUse"><g class="cls-1"><path id="path24219-4" class="cls-2" d="M2.82,134.38V292L302.93,454.11V296.54Z"/></g></mask><radialGradient id="radial-gradient-3" cx="2.21" cy="-155.74" r="18.33" gradientTransform="matrix(9.07, 0, 0, -13.51, 84.09, -1828.17)" gradientUnits="userSpaceOnUse"><stop offset="0" stop-color="#5a5a5a"/><stop offset="1" stop-color="#757575"/></radialGradient><linearGradient id="linear-gradient-17" x1="-112.64" y1="-155.45" x2="-113.85" y2="-155.77" gradientTransform="matrix(9.29, 5.36, 0, -9.29, 1291.56, -450.96)" gradientUnits="userSpaceOnUse"><stop offset="0" stop-color="#ccc"/><stop offset="1" stop-color="#fff"/></linearGradient><linearGradient id="linear-gradient-18" x1="5.5" y1="-150.45" x2="8.19" y2="-149.08" gradientTransform="matrix(11.73, 0, 0, -11.73, 162.87, -1445.66)" gradientUnits="userSpaceOnUse"><stop offset="0" stop-color="#1a1a1a"/><stop offset="1"/></linearGradient><radialGradient id="radial-gradient-4" cx="-1.14" cy="-156.43" r="8.62" gradientTransform="matrix(8.19, 0, 0, -8.94, 113.63, -1127.02)" gradientUnits="userSpaceOnUse"><stop offset="0"/><stop offset="1" stop-color="#737373"/></radialGradient><filter id="luminosity-noclip-20" x="0" y="0" width="544.19" height="294.98" filterUnits="userSpaceOnUse" color-interpolation-filters="sRGB"><feFlood flood-color="#fff" result="bg"/><feBlend in="SourceGraphic" in2="bg"/></filter><mask id="mask-20" x="0" y="0" width="544.19" height="294.98" maskUnits="userSpaceOnUse"><g class="cls-13"><path id="path24209-3" class="cls-14" d="M544.19,164.94,238.45,0,0,130,305.74,295Z"/></g></mask><radialGradient id="radial-gradient-5" cx="-795.99" cy="665.27" r="21.44" gradientTransform="matrix(9.18, -9.29, 17.06, 0, -3715.31, -7350.1)" gradientUnits="userSpaceOnUse"><stop offset="0" stop-color="#6f6f6f"/><stop offset="1" stop-color="#6f6f6f"/></radialGradient><filter id="luminosity-noclip-21" x="51.42" y="285.08" width="27.43" height="15.46" filterUnits="userSpaceOnUse" color-interpolation-filters="sRGB"><feFlood flood-color="#fff" result="bg"/><feBlend in="SourceGraphic" in2="bg"/></filter><mask id="mask-21" x="51.42" y="285.08" width="27.43" height="15.46" maskUnits="userSpaceOnUse"><g class="cls-31"><path id="path23628-2" class="cls-32" d="M75.27,285.08l-2.87,1.15c1.16,1.67,2.56,3.22,3.83,4.83l2.62-1.15c-1.27-1.58-2.42-3.19-3.58-4.83Zm-11.81,4.71L60.58,291c1.3,1.88,2,2.91,3.42,4.74l3.29-.65c-1.36-1.77-2.57-3.49-3.83-5.32Zm-9.18,3.83-2.86,1.19c1.33,1.93,2.7,3.83,4.12,5.72l2.8-1.31C57,297.42,55.55,295.47,54.28,293.62Z"/></g></mask><linearGradient id="linear-gradient-19" x1="-8.51" y1="-147.19" x2="-8.31" y2="-147.55" gradientTransform="matrix(11.73, 0, 0, -11.73, 162.87, -1438.66)" gradientUnits="userSpaceOnUse"><stop offset="0" stop-color="#3d3d3d"/><stop offset="1" stop-color="#3d3d3d"/></linearGradient><filter id="luminosity-noclip-22" x="82.21" y="281.34" width="10.67" height="10.85" filterUnits="userSpaceOnUse" color-interpolation-filters="sRGB"><feFlood flood-color="#fff" result="bg"/><feBlend in="SourceGraphic" in2="bg"/></filter><mask id="mask-22" x="82.21" y="281.34" width="10.67" height="10.85" maskUnits="userSpaceOnUse"><g class="cls-33"><path id="path23676-4" class="cls-34" d="M85.17,281.34l-3,1a72.83,72.83,0,0,0,8.37,9.81l2.3-2.18a65.23,65.23,0,0,1-7.71-8.67Z"/></g></mask><linearGradient id="linear-gradient-20" x1="-6.88" y1="-146.33" x2="-6.43" y2="-146.98" xlink:href="#linear-gradient-19"/><filter id="luminosity-noclip-23" x="136.09" y="252.14" width="32.78" height="26.28" filterUnits="userSpaceOnUse" color-interpolation-filters="sRGB"><feFlood flood-color="#fff" result="bg"/><feBlend in="SourceGraphic" in2="bg"/></filter><mask id="mask-23" x="136.09" y="252.14" width="32.78" height="26.28" maskUnits="userSpaceOnUse"><g class="cls-35"><path id="path23714-6" class="cls-36" d="M159.81,252.14,157,253.45a148.62,148.62,0,0,1,8.76,16l3.07-1.21A158.5,158.5,0,0,0,159.81,252.14Zm-9,3.89-2.86,1.17a118,118,0,0,1,8.65,16.14l3.08-1.21A125.1,125.1,0,0,0,150.79,256ZM139,260.83,136.09,262s5.92,11.12,7.7,16.43l3.33-1.2A86.48,86.48,0,0,0,139,260.83Z"/></g></mask><linearGradient id="linear-gradient-21" x1="-1.43" y1="-144.18" x2="-0.97" y2="-145.09" xlink:href="#linear-gradient-19"/><filter id="luminosity-noclip-24" x="126.21" y="264.69" width="9.65" height="16.63" filterUnits="userSpaceOnUse" color-interpolation-filters="sRGB"><feFlood flood-color="#fff" result="bg"/><feBlend in="SourceGraphic" in2="bg"/></filter><mask id="mask-24" x="126.21" y="264.69" width="9.65" height="16.63" maskUnits="userSpaceOnUse"><g class="cls-3"><path id="path23757-3" class="cls-4" d="M126.21,265.75a49,49,0,0,1,6.33,15.56c1.38-.29,1.67-.38,3.32-.72a57,57,0,0,0-6.71-15.9Z"/></g></mask><linearGradient id="linear-gradient-22" x1="-3.36" y1="-144.71" x2="-2.73" y2="-145.85" xlink:href="#linear-gradient-19"/><filter id="luminosity-noclip-25" x="93.73" y="278.23" width="9.38" height="7.68" filterUnits="userSpaceOnUse" color-interpolation-filters="sRGB"><feFlood flood-color="#fff" result="bg"/><feBlend in="SourceGraphic" in2="bg"/></filter><mask id="mask-25" x="93.73" y="278.23" width="9.38" height="7.68" maskUnits="userSpaceOnUse"><g class="cls-5"><path id="path23795-4" class="cls-6" d="M97.12,278.23l-3.39.63a38.25,38.25,0,0,0,7.34,7.05l2-2.42a28.12,28.12,0,0,1-6-5.26Z"/></g></mask><linearGradient id="linear-gradient-23" x1="-5.88" y1="-146.07" x2="-5.48" y2="-146.58" xlink:href="#linear-gradient-19"/><filter id="luminosity-noclip-26" x="103.15" y="283.49" width="11.71" height="7.11" filterUnits="userSpaceOnUse" color-interpolation-filters="sRGB"><feFlood flood-color="#fff" result="bg"/><feBlend in="SourceGraphic" in2="bg"/></filter><mask id="mask-26" x="103.15" y="283.49" width="11.71" height="7.11" maskUnits="userSpaceOnUse"><g class="cls-7"><path id="path23846-9" class="cls-8" d="M103.37,283.49c-.57.9.07,4.07,1,4.59,4,2.17,7.56,2.86,10.47,2.36,0,0-3.37-4.31-3.37-4.31a13.71,13.71,0,0,1-7.1-1.92c-.35-.19-.67-.51-1-.72Z"/></g></mask><linearGradient id="linear-gradient-24" x1="-3.77" y1="-146.72" x2="-4.65" y2="-147.08" xlink:href="#linear-gradient-19"/><filter id="luminosity-noclip-27" x="109.51" y="301.37" width="16.87" height="5.9" filterUnits="userSpaceOnUse" color-interpolation-filters="sRGB"><feFlood flood-color="#fff" result="bg"/><feBlend in="SourceGraphic" in2="bg"/></filter><mask id="mask-27" x="109.51" y="301.37" width="16.87" height="5.9" maskUnits="userSpaceOnUse"><g class="cls-9"><path id="path23884-6" class="cls-10" d="M110.53,301.37l-1,3.39c6.45,2.57,12.25,3.19,16.86,1.77l-3-4.27A22.34,22.34,0,0,1,110.53,301.37Z"/></g></mask><linearGradient id="linear-gradient-25" x1="-2.57" y1="-147.96" x2="-3.96" y2="-148.58" xlink:href="#linear-gradient-19"/><filter id="luminosity-noclip-28" x="113.6" y="316.11" width="22.59" height="6.26" filterUnits="userSpaceOnUse" color-interpolation-filters="sRGB"><feFlood flood-color="#fff" result="bg"/><feBlend in="SourceGraphic" in2="bg"/></filter><mask id="mask-28" x="113.6" y="316.11" width="22.59" height="6.26" maskUnits="userSpaceOnUse"><g class="cls-11"><path id="path23963-6" class="cls-12" d="M114.37,316.11l-.77,3.63c8.6,3.07,16.42,3.38,22.59,1.34l-2.88-4.29c-5.22,1.7-11.78,1.62-18.94-.68Z"/></g></mask><linearGradient id="linear-gradient-26" x1="-1.44" y1="-149.07" x2="-3.25" y2="-149.77" xlink:href="#linear-gradient-19"/><filter id="luminosity-noclip-29" x="126.91" y="334.48" width="21.16" height="6.21" filterUnits="userSpaceOnUse" color-interpolation-filters="sRGB"><feFlood flood-color="#fff" result="bg"/><feBlend in="SourceGraphic" in2="bg"/></filter><mask id="mask-29" x="126.91" y="334.48" width="21.16" height="6.21" maskUnits="userSpaceOnUse"><g class="cls-15"><path id="path23984-9" class="cls-16" d="M145.33,334.48a37.46,37.46,0,0,1-18.17,1.45l-.25,3.87c7.85,1.45,15.15,1.13,21.15-.95Z"/></g></mask><linearGradient id="linear-gradient-27" x1="-1" y1="-150.87" x2="-1.88" y2="-151.24" xlink:href="#linear-gradient-19"/><filter id="luminosity-noclip-30" x="138.93" y="348.25" width="18.17" height="6.83" filterUnits="userSpaceOnUse" color-interpolation-filters="sRGB"><feFlood flood-color="#fff" result="bg"/><feBlend in="SourceGraphic" in2="bg"/></filter><mask id="mask-30" x="138.93" y="348.25" width="18.17" height="6.83" maskUnits="userSpaceOnUse"><g class="cls-17"><path id="path24005-3" class="cls-18" d="M154.28,348.26a41.65,41.65,0,0,1-15.35,2.17l.77,4.59a45,45,0,0,0,17.4-2.41l-2.82-4.36Z"/></g></mask><linearGradient id="linear-gradient-28" x1="-1.27" y1="-152.56" x2="-0.12" y2="-152.25" xlink:href="#linear-gradient-19"/><filter id="luminosity-noclip-31" x="114.63" y="268.29" width="6.9" height="10.12" filterUnits="userSpaceOnUse" color-interpolation-filters="sRGB"><feFlood flood-color="#fff" result="bg"/><feBlend in="SourceGraphic" in2="bg"/></filter><mask id="mask-31" x="114.63" y="268.29" width="6.9" height="10.12" maskUnits="userSpaceOnUse"><g class="cls-19"><path id="path24034-6" class="cls-20" d="M114.63,269a22.19,22.19,0,0,1,3,8.48l3.91,1a28,28,0,0,0-3.72-10.12s-.08,0-3.18.68Z"/></g></mask><linearGradient id="linear-gradient-29" x1="-4.05" y1="-145.02" x2="-3.79" y2="-146" xlink:href="#linear-gradient-19"/><filter id="luminosity-noclip-32" x="86.74" y="253.6" width="7.21" height="12.97" filterUnits="userSpaceOnUse" color-interpolation-filters="sRGB"><feFlood flood-color="#fff" result="bg"/><feBlend in="SourceGraphic" in2="bg"/></filter><mask id="mask-32" x="86.74" y="253.6" width="7.21" height="12.97" maskUnits="userSpaceOnUse"><g class="cls-21"><path id="path24055-7" class="cls-22" d="M90.77,253.6c-2.56,1.5-4,4.35-4,8.38a18.05,18.05,0,0,0,.51,4.11l3.84.48a13.55,13.55,0,0,1-.26-2.41c0-3,1.23-5.26,3.12-6.43Z"/></g></mask><linearGradient id="linear-gradient-30" x1="-5.64" y1="-144.15" x2="-6.26" y2="-144.89" xlink:href="#linear-gradient-19"/><filter id="luminosity-noclip-33" x="71.39" y="237.63" width="10.98" height="15.9" filterUnits="userSpaceOnUse" color-interpolation-filters="sRGB"><feFlood flood-color="#fff" result="bg"/><feBlend in="SourceGraphic" in2="bg"/></filter><mask id="mask-33" x="71.39" y="237.63" width="10.98" height="15.9" maskUnits="userSpaceOnUse"><g class="cls-23"><path id="path24076-4" class="cls-24" d="M79.43,237.63c-5,2.7-8,8-8,15.65l4.35.24c.53-5.48,2.87-9.49,6.63-11.63Z"/></g></mask><linearGradient id="linear-gradient-31" x1="-6.73" y1="-142.68" x2="-7.34" y2="-143.53" xlink:href="#linear-gradient-19"/><filter id="luminosity-noclip-34" x="58.34" y="223.07" width="14.07" height="17.16" filterUnits="userSpaceOnUse" color-interpolation-filters="sRGB"><feFlood flood-color="#fff" result="bg"/><feBlend in="SourceGraphic" in2="bg"/></filter><mask id="mask-34" x="58.34" y="223.07" width="14.07" height="17.16" maskUnits="userSpaceOnUse"><g class="cls-25"><path id="path24097-8" class="cls-26" d="M69.6,223.07c-5.8,2.94-9.76,8.36-11.26,16l4.35,1.21c1.59-5.95,5-10.34,9.72-12.81l-2.81-4.35Z"/></g></mask><linearGradient id="linear-gradient-32" x1="-7.63" y1="-141.24" x2="-8.26" y2="-142.25" xlink:href="#linear-gradient-19"/><filter id="luminosity-noclip-35" x="42.99" y="205.5" width="17.77" height="17.57" filterUnits="userSpaceOnUse" color-interpolation-filters="sRGB"><feFlood flood-color="#fff" result="bg"/><feBlend in="SourceGraphic" in2="bg"/></filter><mask id="mask-35" x="42.99" y="205.5" width="17.77" height="17.57" maskUnits="userSpaceOnUse"><g class="cls-27"><path id="path24118-5" class="cls-28" d="M57.88,205.5C51,208.56,45.65,214.7,43,222.83c2.15.13,2.56.13,5.11.24,2.63-5.93,7.12-10.87,12.65-13.26Z"/></g></mask><linearGradient id="linear-gradient-33" x1="-8.36" y1="-140.17" x2="-9.17" y2="-140.72" xlink:href="#linear-gradient-19"/><filter id="luminosity-noclip-36" x="32.75" y="191.71" width="18.91" height="17.11" filterUnits="userSpaceOnUse" color-interpolation-filters="sRGB"><feFlood flood-color="#fff" result="bg"/><feBlend in="SourceGraphic" in2="bg"/></filter><mask id="mask-36" x="32.75" y="191.71" width="18.91" height="17.11" maskUnits="userSpaceOnUse"><g class="cls-29"><path id="path24139-1" class="cls-30" d="M48.64,191.71a33.55,33.55,0,0,0-15.89,15.17l4.87,1.93a31.25,31.25,0,0,1,14-12.88Z"/></g></mask><linearGradient id="linear-gradient-34" x1="-9.23" y1="-138.95" x2="-9.9" y2="-139.42" xlink:href="#linear-gradient-19"/></defs><title>Fuente de Poder1</title><g id="Capa_2" data-name="Capa 2"><g id="Ñëîé_1" data-name="Ñëîé 1"><g id="g28736"><path id="rect7422-9" class="cls-37" d="M0,130,305.74,295V458.35L0,293.41Z"/><path id="path23673-4" class="cls-38" d="M2.82,134.38V292L302.93,454.11V296.54Z"/><g class="cls-39"><path id="path24219-4-2" data-name="path24219-4" class="cls-40" d="M2.82,134.38V292L302.93,454.11V296.54Z"/></g><path id="path23835-1" class="cls-41" d="M264.71,407l6.43-3.4-6.41-4.39Z"/><path id="rect23833-8" class="cls-41" d="M233.82,357l36.48,19.9a2.54,2.54,0,0,1,1.24,2v24c0,.75-.55,1-1.24.68l-36.48-19.9a2.54,2.54,0,0,1-1.24-2v-24C232.58,356.9,233.13,356.6,233.82,357Z"/><path id="path23537-7" d="M33.65,180.73,49,174.6l110.52,60.27,15.35,22.87v104.4l-15.35,6.13L49,308,33.65,285.13Z"/><path id="path23671-6" class="cls-41" d="M226.54,360.31l6.48-3.47-.44,12.1Z"/><path id="rect7428-0" class="cls-42" d="M227.27,360.45l36.48,19.9a2.54,2.54,0,0,1,1.24,2v23.95c0,.75-.55,1.05-1.24.67l-36.48-19.89a2.56,2.56,0,0,1-1.24-2V361.13C226,360.38,226.58,360.08,227.27,360.45Z"/><path id="path4109-4" class="cls-43" d="M229.8,365.39l31.41,17.12L258.65,384l-28.18-7.11Z"/><path id="path7430-5" class="cls-44" d="M229.8,365.39v19.52l.67,8.81V376.85Z"/><path id="path7432-1" class="cls-45" d="M230.47,376.85v16.87c11.12.39,20.07,5.47,28.18,9.76V384c-8.13-4.65-17-7-28.18-7.11Z"/><path id="path7434-5" class="cls-46" d="M251.5,387.94c-1.88-1-3.42-.42-3.42,1.36a6.71,6.71,0,0,0,3.42,5.1c1.89,1,3.42.41,3.42-1.37A6.65,6.65,0,0,0,251.5,387.94Zm0,1.43a3.69,3.69,0,0,1,1.9,2.83c0,1-.84,1.33-1.9.76a3.72,3.72,0,0,1-1.9-2.83C249.6,389.13,250.45,388.8,251.5,389.37Z"/><path id="rect7436-5" class="cls-47" d="M234.33,385.28a18.91,18.91,0,0,1,7.6,1.57,1.3,1.3,0,0,1,.7,1.15v.48c0,.43-.27.5-.7.38-2.08-.54-3-1.31-7.6-1.57-.44,0-.7-.73-.7-1.15v-.48C233.63,385.24,233.89,385.26,234.33,385.28Z"/><path id="path23569-3" class="cls-48" d="M222.42,271.35c-1.29-.11-2.3.78-2.3,2.42v39.39a7.26,7.26,0,0,0,3.58,5.8l57.06,30.93c2,1.09,3.58.25,3.58-1.93V308.81a7.67,7.67,0,0,0-3.58-6L223.7,271.83a3.22,3.22,0,0,0-1.28-.48Zm5.63,10.39a2.62,2.62,0,0,1,2,.49l44.26,23.92a6.2,6.2,0,0,1,3.07,4.59v18.61a15.11,15.11,0,0,1-.51,1.45,5.49,5.49,0,0,1-.77,1l-5.37,3.62a2.49,2.49,0,0,1-2.81.49L236.5,318.72c-1.16-.63-2.08-2.32-2.82-3.63l-5.37-9.67a13.3,13.3,0,0,1-.77-1.69L227,302V283.19a1.53,1.53,0,0,1,1-1.45Z"/><path id="path23574-1" class="cls-48" d="M276.57,353.63l6.76-3.5-7.1-4Z"/><path id="rect7440-7" class="cls-49" d="M217.09,275.28l56.84,31a7.45,7.45,0,0,1,3.6,5.9v39.3c0,2.18-1.61,3-3.6,2l-56.84-31a7.42,7.42,0,0,1-3.6-5.9v-39.3C213.49,275.07,215.09,274.2,217.09,275.28Z"/><path id="path7442-5" class="cls-50" d="M223.37,285.55l44.28,24.14a5.76,5.76,0,0,1,3,4.4v18.72a6.62,6.62,0,0,1-.32,1.39,3.94,3.94,0,0,1-.81.89l-5.38,3.72a2.63,2.63,0,0,1-2.91.48l-31.34-17.08c-1.16-.64-2.17-2.35-2.91-3.66l-5.46-9.64a17.09,17.09,0,0,1-.73-1.73,12.4,12.4,0,0,1-.32-1.74V286.73C220.42,285.18,221.73,284.65,223.37,285.55Z"/><path id="rect7444-8" class="cls-51" d="M243.79,313.68l3.44,1.88v7.26L243.79,321Z"/><path id="path23669-5" class="cls-52" d="M132.79,222.16a13.86,13.86,0,0,0-9-1.74c-11.21,1.55-16.74,13-19.19,21-.5-.24-1-.39-1.53-.6.33-8.62-.11-21.64-7.42-32.08-6.56-9.35-35.71-27.64-33.52-6.43,1.43,13.8,11.92,31.28,19.19,41.88-.16.24-.36.43-.51.69-7.91-9-19.91-21.09-29.42-23.54-8.58-2.21-25.33,11.32-5.89,30.14,12.64,12.23,28.66,18.26,38.38,20.93.25.47.5.92.77,1.39-8.24-.35-19.51.26-21.75,8.19-2,7.15,10.38,39,27.63,36.58,11.22-1.55,16.75-13,19.19-20.95.43.2.85.52,1.28.7-.31,8.63.43,21.64,7.68,32,6.55,9.36,35.7,27.65,33.51,6.44-1.42-13.8-12.17-31.42-19.44-42,.16-.24.36-.43.51-.69,7.91,9,19.85,21.08,29.42,23.54,8.58,2.21,25.33-11.32,5.89-30.14-12.64-12.23-28.4-17.88-38.13-20.55-.25-.48-.49-.91-.76-1.39,8.23.36,19.5-.49,21.74-8.44,1.65-5.81-6.4-28-18.67-34.83Z"/><path id="path7450-4" class="cls-53" d="M130,224.21a13.91,13.91,0,0,0-9-1.74c-11.22,1.55-16.75,13-19.19,20.95-.5-.23-1-.39-1.54-.59.34-8.63-.1-21.65-7.41-32.08-6.56-9.36-35.71-27.65-33.52-6.44,1.42,13.8,11.91,31.29,19.19,41.88-.17.25-.36.43-.51.69-7.92-9-19.92-21.09-29.43-23.54-8.58-2.2-25.33,11.32-5.88,30.14,12.63,12.23,28.65,18.26,38.38,20.93.25.47.5.93.76,1.39-8.23-.35-19.5.27-21.74,8.2-2,7.15,10.37,39,27.63,36.57C99,319,104.5,307.56,107,299.62c.43.2.85.52,1.28.7-.31,8.64.43,21.64,7.67,32,6.56,9.36,35.71,27.64,33.52,6.43-1.43-13.8-12.17-31.42-19.45-42a8,8,0,0,0,.51-.68c7.91,9,19.86,21.07,29.43,23.53,8.58,2.21,25.33-11.32,5.88-30.14-12.63-12.22-28.4-17.88-38.12-20.55-.25-.48-.5-.9-.77-1.38,8.24.35,19.5-.5,21.75-8.44,1.64-5.81-6.41-28-18.68-34.84Z"/><path id="path5035-3" class="cls-54" d="M52.71,162.41l-19.44,7.74.38,115L49,308l110.52,60.27,29.3-2.86V255.21l-19.44-29Zm107,66,10.23,15.71L111,235.64c-13.76-7.51-25.61-6.26-30.95,1.93l-3.33-3.87L55,171.35v-.24ZM48.23,174.9,70,237.27c0,13.11,15.33,40.77,27.25,52.26l-2.31,1.69L41.2,282.28l-.77-.72V177.15Zm78.93,69.2,48.1,8,6.65,10.15-.25,96.19-9.21,3.86-27.38-75.88c0-13.11-8.3-29.11-20.21-40.6ZM46.31,290.25,111,299.68c13.06,7.12,24.27,6.34,30-.75.36-.45.94,1.14.94,1.14l22.52,62.39,1.86,2.23L55.78,304.27Z"/><path id="path24197-5" class="cls-55" d="M48.23,174.66l.77-.06,8.82,4.81L76.76,233.7,70,237.28Z"/><path id="path24189-9" class="cls-55" d="M49,308l6.78-3.73-9.47-14L34.41,286Z"/><path id="path24185-4" class="cls-56" d="M33.65,180.73l6.73-2.7,0,103.53-6.79,3.57Z"/><path id="path23839-8" class="cls-56" d="M182,369l6.78-3.54-.08-110.32-6.7,3.66Z"/><path id="path7452-5" class="cls-57" d="M45.93,166.16l-19.45,7.76v110.2l19.45,29,116.66,63.62L182,369V258.75l-19.45-29ZM49,174.6l110.52,60.27,9.21,13.73-64.47-9.31c-13.76-7.5-25.61-6.22-31,2l-3.32-4L48.23,174.9v-.24l.77-.06Zm-6.14,2.45,27.37,75.83c0,13.1,8.3,28.77,20.21,40.26l-2.3,1.65L34.41,286l-.76-.9V180.73ZM174.11,256.6l.76,1.14v104.4l-9.21,3.68L138.29,290c0-13.1-8.3-29-20.21-40.5l2.3-1.65,53.73,8.76Zm-38.89,44.53,3.32,4.23L160.29,368l-.77.3L49,308l-9.47-14.11,64.73,9.44c13.88,7.57,25.68,6.18,31-2.2Z"/><path id="path24199-1" class="cls-55" d="M145.07,286.39l-6.78,3.6,27.37,75.83,6.79-3.55Z"/><path id="path5039-3" class="cls-58" d="M106.36,198.33c-42.23-23-76.5-9.34-76.5,30.54s34.27,90.95,76.5,114,76.24,9.2,76.24-30.68S148.58,221.36,106.36,198.33Zm0,3.87c40,21.82,72.15,69.94,72.15,107.74s-32.14,50.86-72.15,29S34,268.9,34,231.1s32.4-50.72,72.41-28.9Z"/><path id="path24183-5" class="cls-55" d="M162.59,229.78l6.79-3.57,19.44,29L182,258.75Z"/><path id="path5041-8" class="cls-58" d="M106.36,210.66c-35-19.1-63.45-7.75-63.45,25.33s28.43,75.44,63.45,94.53,63.45,7.75,63.45-25.33S141.38,229.75,106.36,210.66Zm0,3.86c32.8,17.89,59.35,57.45,59.35,88.44s-26.55,41.59-59.35,23.7S47,269.21,47,238.22,73.55,196.63,106.36,214.52Z"/><path id="path5043-3" class="cls-58" d="M106.36,226.36c-25.78-14.05-46.82-5.65-46.82,18.7s21,55.46,46.82,69.51,46.56,5.76,46.56-18.59S132.13,240.42,106.36,226.36Zm0,3.87c23.56,12.85,42.47,41.27,42.47,63.52s-18.91,29.8-42.47,17-42.73-41.17-42.73-63.42,19.17-29.91,42.73-17.06Z"/><path id="path5045-6" class="cls-58" d="M106.36,239.41c-18.15-9.89-33-3.95-33,13.18s14.86,39,33,48.93,32.75,4.07,32.75-13.07-14.61-39.14-32.75-49Zm0,3.87C122.29,252,135,271.17,135,286.22s-12.72,20.12-28.65,11.44-28.91-27.79-28.91-42.84S90.43,234.59,106.36,243.28Z"/><path id="path5047-2" class="cls-58" d="M106.36,253.91c-9.67-5.27-17.66-2.08-17.66,7s8,20.79,17.66,26.06,17.39,2.19,17.39-6.94-7.73-20.89-17.39-26.17Zm0,3.87c7.45,4.06,13.3,13,13.3,20.07s-5.85,9.37-13.3,5.31-13.56-12.93-13.56-20S98.91,253.72,106.36,257.78Z"/><path id="path23961-9" class="cls-58" d="M171.94,235.16c1-.38,1.76-1,3.07-.73a10.22,10.22,0,0,1,3.32,1.21,18.18,18.18,0,0,1,7.68,9.42c.8,2.53.67,4.66-.26,6.05-.49.73-1.67.7-2.56,1a10.5,10.5,0,0,0,1,.49c4.1-2.24,5.44-3.41,3.83-8.46a18.14,18.14,0,0,0-7.67-9.43,11,11,0,0,0-3.33-1.45,5.33,5.33,0,0,0-5.11,1.45c-.1.1.08.38,0,.49Z"/><path id="path23959-7" class="cls-58" d="M175.52,239c-.76.06-1.6,0-2.05.48s-.16,1-.25,1.46l1.79.48a2.67,2.67,0,0,1,.51-2.42Z"/><path id="path23957-2" class="cls-58" d="M167.59,243.61a4.16,4.16,0,0,1,3.32.24,22.72,22.72,0,0,1,3.33,1.7,24.75,24.75,0,0,0,5.12,2.65c.9.19.48-1.07,1-1.45a35.48,35.48,0,0,1-4.09-2.17,23.16,23.16,0,0,0-3.33-1.69,4.11,4.11,0,0,0-3.33-.24Z"/><path id="path23955-6" class="cls-58" d="M133.05,257.63c-1.31.52-.67.42-2.05,1-12,4.78-18.64,6.16-22.26,6.28-1.81.06-7.4-3-9.21-5.08-3.62-4.06-10.28-12.59-22.26-30.45-24-35.83-36.59-55.1-36.59-55.1a10.64,10.64,0,0,0-3.32-3.14A28.91,28.91,0,0,0,34,168.94c-2.2-1.08-4.16-1.81-5.11-2.66-2.34-2.08-3.67-5-2.82-6.77.39-.79,1.68,0,2.56,0,0-.37-.66-.9-.51-1.21.85-1.74,3.29-1.59,5.63.49a13.7,13.7,0,0,1,3.07,4.11,31.35,31.35,0,0,1,2,7,27.48,27.48,0,0,0-2.56-1.69l2.82,2.42c.86-1.76.39-4.29-.77-6.77a21.14,21.14,0,0,0-5.12-6.76,15.6,15.6,0,0,0-3.32-2.42c-2.67-1.32-4.62-.33-6.14,1a8.36,8.36,0,0,0,.51,5.31,20.93,20.93,0,0,0,5.12,7,26.63,26.63,0,0,0,6.91,4.11,21.35,21.35,0,0,1,2.55,1.45,4.76,4.76,0,0,1,1,1s12.51,19.23,36.58,55.1c12.08,18,18.82,26.92,23,31.66a29.32,29.32,0,0,0,6.65,5.07,16.69,16.69,0,0,0,6.65,2.18c4.22-.14,11-1.95,23-6.77,22.69-9.06,33.19-13.43,34.54-14l2-1a1.14,1.14,0,0,1,1,0,21.24,21.24,0,0,1,2.56,1.45,46.74,46.74,0,0,0,7.16,3.86c.89-.26,2.07-.23,2.56-1,.93-1.39,1.06-3.52.26-6.05a18.18,18.18,0,0,0-7.68-9.42,10.22,10.22,0,0,0-3.32-1.21c-1.31-.26-2.1.35-3.07.72a5.32,5.32,0,0,0-.77,5.32l2.05.49c.09-.49-.08-1.1.25-1.46s1.29-.41,2.05-.48c.08-.13-.11-.37,0-.48a3.38,3.38,0,0,1,3.07-.73c2.34.47,4.78,3.13,5.63,5.8s-.48,4.1-2.82,3.63c-.19,0-.76-.37-1-.48-.54.37-.12,1.63-1,1.44a24.51,24.51,0,0,1-5.12-2.65,22.18,22.18,0,0,0-3.33-1.69,4.13,4.13,0,0,0-3.32-.25c-1.36.59-11.87,5-34.54,14Z"/><path id="path23950-5" class="cls-58" d="M24.57,291c.9-.45,1.47-1.24,2.81-1,2.42.49,4.87,2.4,6.91,3.63a24.43,24.43,0,0,0,2.56,1.45,1.18,1.18,0,0,0,1,0l2.05-1a1.18,1.18,0,0,1-1,0,24.43,24.43,0,0,1-2.56-1.45c-2.05-1.22-4.49-3.13-6.91-3.62A4.3,4.3,0,0,0,24.57,291Z"/><path id="path23948-3" class="cls-58" d="M38.38,307.17c-.75.79-2.1.83-3.32,1a5.41,5.41,0,0,0,1,.48C37.61,308.24,37.73,307.57,38.38,307.17Z"/><path id="path23946-2" class="cls-58" d="M36.59,300.65l2.56.72c.86,2.7.39,4.59-.77,5.8.55-.32,1.52-.41,2-1,1.16-1.21,1.62-3.1.77-5.79l-3.84-1-.77,1.21Z"/><path id="path23942-0" class="cls-58" d="M77.27,284.21c1.3-.52.67-.41,2-1,12-4.79,18.64-6.17,22.26-6.29,1.81-.06,7.4,3,9.21,5.08,3.62,4.07,10.28,12.6,22.26,30.45,24,35.83,36.58,55.1,36.58,55.1a10.55,10.55,0,0,0,3.33,3.14,27.77,27.77,0,0,0,3.33,2.18c2.2,1.08,4.16,1.8,5.11,2.65-.48-.55,0-1.19-.51-1.69a27.21,27.21,0,0,0-6.91-4.11,27.09,27.09,0,0,1-2.56-1.2,3.94,3.94,0,0,1-1-1.21s-12.52-19-36.59-54.86c-12.07-18-18.81-26.93-23-31.66a29.53,29.53,0,0,0-6.65-5.32,15.2,15.2,0,0,0-6.66-1.93c-4.21.14-11,1.7-23,6.53-21.44,8.6-34.54,14-34.54,14l-2.05,1a1.18,1.18,0,0,1-1,0,24.43,24.43,0,0,1-2.56-1.45c-2-1.23-4.49-3.14-6.91-3.63-1.34-.27-1.91.52-2.81,1-.84,1.38-1,3.38-.26,5.8A18.17,18.17,0,0,0,32,306.2c.86.51,2.06,1.4,3.07,1.94,1.23-.14,2.58-.18,3.33-1,1.16-1.21,1.63-3.1.77-5.8l-2.56-.72v.24c-.37.38-1,.66-1.54,1.21-.11.38,0,.91-.25,1.21a3.38,3.38,0,0,1-3.07.72c-2.34-.47-4.78-2.88-5.63-5.56s.47-4.34,2.81-3.86a8.25,8.25,0,0,1,1,.48c.53-.34.15-1.63,1-1.45a24.43,24.43,0,0,1,5.12,2.66A24.13,24.13,0,0,0,39.4,298a4.15,4.15,0,0,0,3.33.24s13.12-5.42,34.54-14Z"/><path id="path7456-6" class="cls-59" d="M104.39,199.31c-42.23-23-76.5-9.34-76.5,30.54s34.27,91,76.5,114,76.24,9.2,76.24-30.68S146.61,222.34,104.39,199.31Zm0,3.87c40,21.82,72.15,69.95,72.15,107.74s-32.14,50.86-72.15,29S32,269.88,32,232.09s32.4-50.73,72.41-28.91Z"/><path id="path7458-8" class="cls-59" d="M104.39,211.64c-35-19.1-63.45-7.75-63.45,25.33s28.43,75.44,63.45,94.54,63.45,7.74,63.45-25.33S139.41,230.74,104.39,211.64Zm0,3.87c32.8,17.89,59.35,57.45,59.35,88.43s-26.55,41.59-59.35,23.7S45,270.19,45,239.2s26.55-41.59,59.36-23.69Z"/><path id="path7460-8" class="cls-59" d="M104.39,227.35C78.62,213.29,57.57,221.7,57.57,246s21.05,55.46,46.82,69.52S151,321.31,151,297s-20.79-55.57-46.56-69.62Zm0,3.86c23.56,12.85,42.47,41.27,42.47,63.52s-18.91,29.81-42.47,17-42.73-41.16-42.73-63.42,19.17-29.9,42.73-17.06Z"/><path id="path7462-0" class="cls-59" d="M104.39,240.4c-18.14-9.9-33-4-33,13.17s14.87,39,33,48.94,32.75,4.06,32.75-13.08S122.53,250.29,104.39,240.4Zm0,3.86C120.32,253,133,272.15,133,287.2s-12.72,20.13-28.65,11.44-28.91-27.79-28.91-42.83,13-20.23,28.91-11.55Z"/><path id="path7464-9" class="cls-59" d="M104.39,254.9c-9.67-5.27-17.66-2.08-17.66,7s8,20.79,17.66,26.06,17.39,2.18,17.39-6.95S114.05,260.17,104.39,254.9Zm0,3.86c7.45,4.07,13.3,13,13.3,20.07s-5.85,9.37-13.3,5.31-13.56-12.92-13.56-20S96.94,254.7,104.39,258.76Z"/><path id="path24174-7" class="cls-58" d="M171.42,234.63l2-1.06,1.77,2.82Z"/><path id="path5049-5" class="cls-58" d="M32,153.71c-3.34-1.65-6.21-.49-8.45.73-.15.31.33.85.26,1.21,1.52-1.3,3.47-2.29,6.14-1a15.9,15.9,0,0,1,3.33,2.42,21.11,21.11,0,0,1,5.11,6.76c1.16,2.48,1.63,5,.77,6.77l-2.81-2.42c-.1-.05-.16-.19-.26-.24-2.21-1.08-4.16-1.8-5.12-2.66a7.1,7.1,0,0,1-2.3-5.8c-.88,0-2.17-.79-2.56,0-.85,1.75.48,4.69,2.82,6.77.95.85,2.91,1.58,5.11,2.66a28.91,28.91,0,0,1,3.33,2.17,10.64,10.64,0,0,1,3.32,3.14s12.54,19.28,36.59,55.11c12,17.85,18.64,26.38,22.26,30.45,1.81,2,7.4,5.13,9.21,5.07,3.62-.12,10.28-1.5,22.26-6.28,1.38-.55.74-.45,2.05-1-12,4.78-18.64,6.17-22.26,6.28-1.81.07-7.4-3-9.21-5.07-3.62-4.07-10.28-12.6-22.26-30.45-24-35.83-36.59-55.1-36.59-55.1a9.84,9.84,0,0,0-3.07-2.9l1.54-.73c.85-1.75.39-4.28-.77-6.76a21.29,21.29,0,0,0-5.12-6.77A16,16,0,0,0,32,153.71Z"/><path id="path7466-9" class="cls-59" d="M30.06,154.72c-3.34-1.66-6.47-1.35-7.67,1.13-1.61,3.3.7,9.25,5.12,13.18,2.42,2.15,4.86,3,6.9,4A22.35,22.35,0,0,1,37,174.43a4.3,4.3,0,0,1,1,1s12.52,19.14,36.59,55c12.08,18,18.82,26.91,23,31.65a29,29,0,0,0,6.65,5.14,16.09,16.09,0,0,0,6.65,2.11c4.21-.13,11-1.71,23-6.53,24.07-9.61,36.59-15.09,36.59-15.09a1.42,1.42,0,0,1,1,.08,23,23,0,0,1,2.56,1.39c2,1.23,4.48,3,6.91,3.53,4.42.89,6.72-2.55,5.11-7.6a18.32,18.32,0,0,0-7.67-9.51,10.89,10.89,0,0,0-3.33-1.33,5.32,5.32,0,0,0-5.12,1.32c-1.15,1.22-1.62,3.17-.76,5.87l3.83.88a2.74,2.74,0,0,1,.52-2.86,3.35,3.35,0,0,1,3.07-.74c2.34.47,4.77,3.05,5.62,5.72s-.47,4.26-2.81,3.79c-1-.2-2.91-1.47-5.12-2.79a22.34,22.34,0,0,0-3.32-1.58c-1.16-.46-2.39-.85-3.33-.36,0,0-12.54,5.49-36.58,15.09-12,4.78-18.64,6.11-22.26,6.23-1.81.06-7.4-3-9.21-5C96,255.79,89.38,247.2,77.4,229.35c-24.05-35.83-36.59-55-36.59-55a10.92,10.92,0,0,0-3.33-3.26A27.35,27.35,0,0,0,34.16,169,27.4,27.4,0,0,1,29,166.24c-2.34-2.08-3.67-5.1-2.81-6.85s3.28-1.67,5.62.41a13.7,13.7,0,0,1,3.07,4.09c.67,1.43.89,2.66.52,3.43l3.83,3.3c.86-1.76.39-4.23-.76-6.71A21.63,21.63,0,0,0,33.39,157a14.89,14.89,0,0,0-3.33-2.3Z"/><path id="path24191-3" class="cls-58" d="M37.24,308.18l3-1.83L36.8,304.1Z"/><path id="path7468-2" class="cls-59" d="M30.06,307.23a18.34,18.34,0,0,1-7.67-9.5c-1.61-5.06.7-8.5,5.12-7.61,2.42.49,4.86,2.3,6.9,3.53a23.4,23.4,0,0,0,2.56,1.4,1.44,1.44,0,0,0,1,.07S50.51,289.64,74.58,280c12.08-4.82,18.82-6.39,23-6.53a16.09,16.09,0,0,1,6.65,2.11,29,29,0,0,1,6.65,5.14c4.21,4.74,11,13.66,23,31.65,24.07,35.87,36.59,55,36.59,55a4.12,4.12,0,0,0,1,1,22.35,22.35,0,0,0,2.56,1.39c2,1,4.48,1.86,6.91,4,4.42,3.93,6.72,9.89,5.11,13.19-1.2,2.47-4.33,2.78-7.67,1.13a15.58,15.58,0,0,1-3.33-2.3A21.78,21.78,0,0,1,170,379c-1.15-2.48-1.62-4.94-.76-6.7l3.83,3.3c-.37.76-.15,2,.52,3.42a13.57,13.57,0,0,0,3.07,4.09c2.34,2.08,4.77,2.16,5.62.41s-.47-4.77-2.81-6.85a28,28,0,0,0-5.12-2.79,27.22,27.22,0,0,1-3.32-2,11.08,11.08,0,0,1-3.33-3.27s-12.54-19.16-36.58-55c-12-17.86-18.64-26.44-22.26-30.51-1.81-2-7.4-5.08-9.21-5-3.63.12-10.28,1.44-22.26,6.23-24.05,9.6-36.59,15.08-36.59,15.08-.94.49-2.17.11-3.33-.36a22.27,22.27,0,0,1-3.32-1.57C32,296.06,30,294.78,29,294.59c-2.34-.47-3.67,1.11-2.81,3.78s3.28,5.26,5.62,5.73a3.38,3.38,0,0,0,3.07-.74,2.76,2.76,0,0,0,.52-2.87l3.83.89c.86,2.69.39,4.64-.76,5.86a5.32,5.32,0,0,1-5.12,1.32,10.65,10.65,0,0,1-3.33-1.33Z"/><path id="path23586-0" class="cls-60" d="M173.49,236.54l-1.71,1.15.17,1.75c0,.19-.25.29-.25.49,0,3.4,2.8,7.7,6.39,9.66a8,8,0,0,0,2.56,1h.26l1.39,0s.55-.44.66-.5a3.33,3.33,0,0,0,1.53-3.14c0-3.4-2.94-7.71-6.4-9.67a6.16,6.16,0,0,0-4.6-.73Z"/><path id="path23588-3" class="cls-61" d="M183.16,248c0,3.4-2.92,4.56-6.52,2.6s-6.51-6.31-6.51-9.71,2.92-4.56,6.51-2.6S183.16,244.59,183.16,248Z"/><path id="path23590-8" class="cls-62" d="M174.6,239.81l-1.54.62,2.05,3.29-2.05.82,1.54,2.28,2-.81,2.05,3.05,1.54-.62-2-3.05,2-1.06-1.54-2.28-2.05.81Z"/><path id="path23592-0" class="cls-62" d="M174.6,239.81l-1.54.62,2.05,3.29-2.05.82,1.54,2.28,2-.81,2.05,3.05,1.54-.62-2-3.05,2-1.06-1.54-2.28-2.05.81Z"/><path id="path23594-0" class="cls-62" d="M174.6,239.81l-1.54.62,2.05,3.29-2.05.82,1.54,2.28,2-.81,2.05,3.05,1.54-.62-2-3.05,2-1.06-1.54-2.28-2.05.81Z"/><path id="path23596-1" class="cls-63" d="M173.72,240.16l-.66.27,2,3.3.77-.24Zm0,4.12-.77.24,1.62,2.3.67-.26Zm3.66,1.49-.76.24,2,3.1.78-.33Z"/><path id="path7492-3" d="M12.07,145c0,2-1.74,2.71-3.88,1.54S4.3,142.83,4.3,140.8s1.74-2.72,3.89-1.55S12.07,143,12.07,145Z"/><path id="path7494-5" d="M12.07,267c0,2-1.74,2.72-3.88,1.55s-3.89-3.76-3.89-5.78,1.74-2.72,3.89-1.55S12.07,265,12.07,267Z"/><path id="path7496-9" d="M249.39,415.93c0,2-1.74,2.72-3.88,1.55s-3.88-3.76-3.88-5.79,1.73-2.72,3.88-1.55S249.39,413.9,249.39,415.93Z"/><path id="path7498-9" d="M299.36,300c0,2-1.74,2.72-3.88,1.55s-3.88-3.76-3.88-5.78,1.73-2.72,3.88-1.55S299.36,297.94,299.36,300Z"/><path id="rect7500-1" class="cls-49" d="M544.19,164.94,238.45,0,0,130,305.74,295Z"/><g class="cls-64"><path id="path24209-3-2" data-name="path24209-3" class="cls-65" d="M544.19,164.94,238.45,0,0,130,305.74,295Z"/></g><path id="path23571-8" class="cls-48" d="M214.63,275l6.66-3.4,1.61,6.91Z"/><path id="path7502-0" class="cls-66" d="M368.75,193.44l1.39-.76a5.62,5.62,0,0,1,4.81.19l37.44,20.41c1.42.78,1.58,1.95.34,2.63l-1.39.76a5.62,5.62,0,0,1-4.81-.19l-37.44-20.42c-1.42-.78-1.58-1.95-.34-2.62Zm95.48-52.07,1.4-.76a5.56,5.56,0,0,1,4.8.19l37.44,20.41c1.43.78,1.58,1.95.35,2.62l-1.4.76a5.62,5.62,0,0,1-4.81-.18L464.58,144C463.15,143.21,463,142,464.23,141.37Zm-10.61,5.78,1.4-.76a5.6,5.6,0,0,1,4.8.19L497.26,167c1.43.78,1.58,1.95.35,2.62l-1.4.76a5.62,5.62,0,0,1-4.81-.19L454,149.78c-1.43-.78-1.58-1.95-.35-2.63ZM443,152.94l1.4-.76a5.6,5.6,0,0,1,4.8.19l37.44,20.41c1.43.78,1.58,1.95.35,2.62l-1.4.77a5.6,5.6,0,0,1-4.8-.19l-37.44-20.42c-1.43-.78-1.58-1.95-.35-2.62Zm-10.61,5.79,1.4-.76a5.62,5.62,0,0,1,4.81.18L476,178.57c1.43.78,1.58,2,.35,2.62L475,182a5.56,5.56,0,0,1-4.8-.19l-37.44-20.41c-1.43-.78-1.58-1.95-.35-2.62Zm-10.61,5.78,1.4-.76a5.62,5.62,0,0,1,4.81.19l37.43,20.42c1.43.77,1.58,1.94.35,2.62l-1.4.76a5.6,5.6,0,0,1-4.8-.19l-37.44-20.42c-1.43-.78-1.58-1.94-.34-2.62Zm-10.6,5.79,1.39-.76a5.62,5.62,0,0,1,4.81.18l37.43,20.42c1.43.78,1.58,2,.35,2.62l-1.4.76a5.56,5.56,0,0,1-4.8-.19l-37.44-20.41c-1.43-.78-1.58-1.95-.34-2.62Zm-10.61,5.78,1.39-.76a5.62,5.62,0,0,1,4.81.19l37.43,20.42c1.43.77,1.58,1.94.35,2.62l-1.4.76a5.6,5.6,0,0,1-4.8-.19L400.92,178.7C399.49,177.93,399.34,176.76,400.58,176.08ZM390,181.87l1.39-.76a5.59,5.59,0,0,1,4.81.19l37.43,20.41c1.43.78,1.59,1.95.35,2.62l-1.39.76a5.62,5.62,0,0,1-4.81-.18l-37.44-20.42C388.89,183.71,388.73,182.54,390,181.87Zm-10.61,5.78,1.39-.76a5.62,5.62,0,0,1,4.81.19L423,207.5c1.42.78,1.58,1.94.34,2.62l-1.39.76a5.62,5.62,0,0,1-4.81-.19L379.7,190.28C378.28,189.5,378.12,188.33,379.36,187.65ZM273.27,245.51l1.39-.76a5.62,5.62,0,0,1,4.81.19l37.43,20.41c1.43.78,1.58,1.95.35,2.63l-1.4.76a5.6,5.6,0,0,1-4.8-.19l-37.44-20.42C272.18,247.35,272,246.19,273.27,245.51Zm84.87-46.28,1.39-.77a5.66,5.66,0,0,1,4.81.19l37.44,20.42c1.42.78,1.58,2,.34,2.62l-1.39.76a5.62,5.62,0,0,1-4.81-.19l-37.43-20.41C357.06,201.07,356.9,199.9,358.14,199.23ZM347.53,205l1.39-.76a5.62,5.62,0,0,1,4.81.19l37.44,20.41c1.43.78,1.58,2,.34,2.63l-1.39.76a5.62,5.62,0,0,1-4.81-.19l-37.43-20.42c-1.43-.78-1.58-1.95-.35-2.62Zm-10.61,5.79,1.39-.76a5.62,5.62,0,0,1,4.81.18l37.44,20.42c1.43.78,1.58,2,.34,2.62l-1.39.76a5.59,5.59,0,0,1-4.81-.19l-37.43-20.41c-1.43-.78-1.58-1.95-.35-2.62Zm-10.61,5.78,1.4-.76a5.6,5.6,0,0,1,4.8.19L370,236.43c1.43.77,1.58,1.94.34,2.62l-1.39.76a5.62,5.62,0,0,1-4.81-.19L326.66,219.2c-1.43-.77-1.58-1.94-.35-2.62Zm-10.61,5.79,1.4-.76a5.56,5.56,0,0,1,4.8.19l37.44,20.41c1.43.78,1.58,1.95.35,2.62l-1.4.76a5.62,5.62,0,0,1-4.81-.18L316.05,225c-1.43-.78-1.58-2-.35-2.62Zm-10.61,5.78,1.4-.76a5.6,5.6,0,0,1,4.8.19L348.73,248c1.43.77,1.58,1.94.35,2.62l-1.4.76a5.6,5.6,0,0,1-4.8-.19l-37.44-20.41C304,230,303.86,228.83,305.09,228.15Zm-10.61,5.79,1.4-.76a5.56,5.56,0,0,1,4.8.19l37.44,20.41c1.43.78,1.58,1.95.35,2.62l-1.4.76a5.6,5.6,0,0,1-4.8-.18l-37.44-20.42c-1.43-.78-1.58-1.95-.35-2.62Zm-10.61,5.78,1.4-.76a5.62,5.62,0,0,1,4.81.19l37.43,20.42c1.43.78,1.58,1.95.35,2.62l-1.4.76a5.6,5.6,0,0,1-4.8-.19l-37.44-20.41c-1.43-.78-1.58-1.95-.34-2.63ZM262.66,251.3l1.39-.76a5.62,5.62,0,0,1,4.81.18l37.43,20.42c1.43.78,1.58,1.95.35,2.62l-1.39.76a5.59,5.59,0,0,1-4.81-.19L263,253.92c-1.43-.78-1.58-1.95-.34-2.62Zm57.75-84.22,1.39-.76a5.59,5.59,0,0,1,4.81.19l37.44,20.41c1.43.78,1.58,2,.34,2.62l-1.39.76a5.62,5.62,0,0,1-4.81-.18L320.76,169.7C319.33,168.92,319.18,167.75,320.41,167.08ZM415.89,115l1.4-.76a5.56,5.56,0,0,1,4.8.19l37.44,20.41c1.43.78,1.58,2,.34,2.62l-1.39.76a5.59,5.59,0,0,1-4.81-.19l-37.43-20.41C414.81,116.85,414.66,115.68,415.89,115Zm-10.61,5.78,1.4-.76a5.6,5.6,0,0,1,4.8.19l37.44,20.42c1.43.77,1.58,1.94.35,2.62l-1.4.76a5.6,5.6,0,0,1-4.8-.19l-37.44-20.42c-1.43-.77-1.58-1.94-.35-2.62Zm-10.61,5.79,1.4-.76a5.56,5.56,0,0,1,4.8.19l37.44,20.41c1.43.78,1.58,2,.35,2.62l-1.4.76a5.6,5.6,0,0,1-4.8-.18L395,129.2c-1.43-.78-1.58-1.95-.35-2.62Zm-10.61,5.78,1.4-.76a5.62,5.62,0,0,1,4.81.19l37.43,20.42c1.43.78,1.58,1.95.35,2.62l-1.4.76a5.6,5.6,0,0,1-4.8-.19L384.41,135c-1.43-.78-1.58-2-.34-2.63Zm-10.6,5.79,1.39-.76a5.62,5.62,0,0,1,4.81.19L417.09,158c1.43.78,1.58,1.95.35,2.62l-1.4.77a5.6,5.6,0,0,1-4.8-.19L373.8,140.77C372.37,140,372.22,138.82,373.46,138.15Zm-10.61,5.79,1.39-.76a5.62,5.62,0,0,1,4.81.18l37.43,20.42c1.43.78,1.58,1.95.35,2.62l-1.4.76a5.57,5.57,0,0,1-4.8-.19l-37.44-20.41C361.76,145.78,361.61,144.61,362.85,143.94Zm-10.61,5.78,1.39-.76a5.62,5.62,0,0,1,4.81.19l37.43,20.41c1.43.78,1.58,1.95.35,2.63l-1.39.76a5.62,5.62,0,0,1-4.81-.19l-37.44-20.42c-1.43-.78-1.58-2-.34-2.62Zm-10.61,5.79,1.39-.76a5.62,5.62,0,0,1,4.81.18l37.43,20.42c1.43.78,1.59,2,.35,2.62l-1.39.76a5.59,5.59,0,0,1-4.81-.19L342,158.13c-1.42-.78-1.58-1.95-.34-2.62ZM331,161.29l1.39-.76a5.62,5.62,0,0,1,4.81.19l37.44,20.42c1.42.77,1.58,1.94.34,2.62l-1.39.76a5.62,5.62,0,0,1-4.81-.19l-37.44-20.42C329.94,163.14,329.78,162,331,161.29ZM224.93,219.15l1.39-.76a5.62,5.62,0,0,1,4.81.19L268.56,239c1.43.78,1.58,1.95.35,2.62l-1.39.77a5.66,5.66,0,0,1-4.81-.19l-37.44-20.42c-1.43-.78-1.58-2-.34-2.62Zm84.87-46.29,1.39-.76a5.62,5.62,0,0,1,4.81.19l37.44,20.42c1.42.78,1.58,1.94.34,2.62l-1.39.76a5.62,5.62,0,0,1-4.81-.19l-37.43-20.42c-1.43-.77-1.59-1.94-.35-2.62Zm-10.61,5.79,1.39-.76a5.62,5.62,0,0,1,4.81.19l37.44,20.41c1.43.78,1.58,1.95.34,2.62l-1.39.76a5.62,5.62,0,0,1-4.81-.18l-37.43-20.42c-1.43-.78-1.58-2-.35-2.62Zm-10.61,5.78,1.4-.76a5.6,5.6,0,0,1,4.8.19l37.44,20.42c1.43.78,1.58,1.95.34,2.62l-1.39.76a5.62,5.62,0,0,1-4.81-.19l-37.43-20.41C287.5,186.28,287.35,185.11,288.58,184.43ZM278,190.22l1.4-.76a5.6,5.6,0,0,1,4.8.19l37.44,20.41c1.43.78,1.58,1.95.35,2.63l-1.4.76a5.62,5.62,0,0,1-4.81-.19l-37.43-20.42C276.89,192.06,276.74,190.89,278,190.22ZM267.36,196l1.4-.76a5.6,5.6,0,0,1,4.8.18L311,215.85c1.43.78,1.58,2,.35,2.62l-1.4.76a5.62,5.62,0,0,1-4.81-.19l-37.43-20.41c-1.43-.78-1.58-1.95-.35-2.62Zm-10.61,5.78,1.4-.76a5.6,5.6,0,0,1,4.8.19l37.44,20.41c1.43.78,1.58,2,.35,2.63l-1.4.76a5.6,5.6,0,0,1-4.8-.19L257.1,204.41C255.67,203.63,255.52,202.47,256.75,201.79Zm-10.61,5.79,1.4-.76a5.59,5.59,0,0,1,4.81.19l37.43,20.41c1.43.78,1.58,2,.35,2.62l-1.4.76a5.56,5.56,0,0,1-4.8-.19L246.49,210.2C245.06,209.42,244.91,208.25,246.14,207.58Zm-10.61,5.78,1.4-.76a5.62,5.62,0,0,1,4.81.19l37.43,20.42c1.43.78,1.58,1.94.35,2.62l-1.4.76a5.6,5.6,0,0,1-4.8-.19L235.88,216C234.45,215.21,234.3,214,235.53,213.36Zm-21.21,11.57,1.39-.76a5.62,5.62,0,0,1,4.81.19L258,244.78c1.43.78,1.59,1.95.35,2.62l-1.39.76a5.62,5.62,0,0,1-4.81-.19l-37.44-20.41C213.24,226.78,213.08,225.61,214.32,224.93Z"/><path id="rect7504-6" class="cls-67" d="M305.74,458.35V295l238.45-130V328.31Z"/><path id="path7506-7" d="M452.07,315.38V355a5,5,0,0,1-2.56,3.81c-1.41.77-2.56.32-2.56-1V318.17a5,5,0,0,1,2.56-3.81c1.42-.78,2.56-.32,2.56,1Zm12.24-6.68v39.63a5,5,0,0,1-2.56,3.82c-1.41.77-2.56.31-2.56-1V311.49a5,5,0,0,1,2.56-3.81c1.42-.77,2.56-.32,2.56,1ZM476.55,302v39.64a5,5,0,0,1-2.55,3.81c-1.42.77-2.56.32-2.56-1V304.81A5,5,0,0,1,474,301C475.41,300.23,476.55,300.69,476.55,302Zm12.25-6.67V335a5,5,0,0,1-2.56,3.81c-1.42.78-2.56.32-2.56-1V298.14a5,5,0,0,1,2.56-3.81C487.65,293.55,488.8,294,488.8,295.35Z"/><path id="path7508-5" class="cls-68" d="M305.74,458.35V442.74l97.53-53.18,6,5.44,31.47-17.16,6-11.95,97.52-53.19v15.61Z"/><path id="path7510-1" class="cls-68" d="M305.74,344.22V295l13.4-7.3v40.06Z"/><path id="path7512-9" class="cls-68" d="M544.19,214.19V164.94l-13.39,7.31v40.06Z"/><path id="path4122-8" class="cls-69" d="M258.65,384l2.56-1.45,0,19.05-2.58,1.92Z"/><path id="rect7446-9" class="cls-51" d="M229.54,297.8l3.44,1.87v7.26l-3.44-1.87Z"/><path id="path4901-9" class="cls-70" d="M240.5,291.71l-11,6,3.58,1.93,11-6Z"/><path id="path4904-8" class="cls-71" d="M247.41,291.71l-14.33,8v7.25l17.4-9.67V293.4Z"/><path id="path4959-9" class="cls-71" d="M264.81,306l-17.65,9.67v7.25L271,309.83c-3.07-1.95-6.14-3.87-6.14-3.87Z"/><path id="path4912-0" class="cls-70" d="M243.79,313.68l17.6-9.59,3.44,1.87-17.6,9.6Z"/><path id="rect7448-5" class="cls-51" d="M258,313.59l3.43,1.88v7.26L258,320.86Z"/><path id="path4908-7" class="cls-70" d="M269.42,307.41l-11.26,6.29,3.32,1.69,11.52-6Z"/><path id="path4910-1" class="cls-71" d="M273.25,309.1l-11.77,6.29v7.25l14.08-7.49-2.31-6Z"/><path id="rect4932-0" class="cls-42" d="M215.69,274.79c-1.3-.11-2.31.78-2.31,2.42V316.6a7.26,7.26,0,0,0,3.59,5.8l57,30.93c2,1.09,3.58.24,3.58-1.93V312.25A7.66,7.66,0,0,0,274,306.2l-57-30.93a3.28,3.28,0,0,0-1.28-.48Zm5.63,10.39a2.63,2.63,0,0,1,2,.48l44.26,23.93a6.19,6.19,0,0,1,3.07,4.59v18.61a12.7,12.7,0,0,1-.51,1.45,5.6,5.6,0,0,1-.76,1L264,338.83a2.47,2.47,0,0,1-2.81.48l-31.47-17.15c-1.16-.64-2.08-2.32-2.82-3.63l-5.37-9.67a15,15,0,0,1-.77-1.69l-.51-1.69V286.63a1.52,1.52,0,0,1,1-1.45Z"/><path id="path5106-1" d="M419.62,116.57a4.56,4.56,0,0,0-2.31.48l-1,.72,37.35,20.3a5.77,5.77,0,0,0,4.87.25l1-.73-37.35-20.54a6,6,0,0,0-2.56-.48Zm-10.49,5.8a4.56,4.56,0,0,0-2.31.48l-1.27.72,37.61,20.31a5.78,5.78,0,0,0,4.86.24l1-.73-37.61-20.54a4.85,4.85,0,0,0-2.3-.48Zm-10.75,5.8a4.52,4.52,0,0,0-2.3.48l-1,.73,37.35,20.3a5.78,5.78,0,0,0,4.86.24l1-.73-37.35-20.54a6,6,0,0,0-2.56-.48ZM387.89,134a4.52,4.52,0,0,0-2.3.48l-1.28.73,37.61,20.3a5.78,5.78,0,0,0,4.86.24l1-.73-37.61-20.54a4.85,4.85,0,0,0-2.3-.48Zm-10.74,5.8a4.62,4.62,0,0,0-2.31.24l-1,.72,37.35,20.55a5.78,5.78,0,0,0,4.86.24l1.28-.49c-.11-.08-.11-.16-.25-.24L379.7,140.25a6,6,0,0,0-2.55-.48ZM468,142.91a4.52,4.52,0,0,0-2.3.48l-1.28.49c.1.07.14.17.26.24L502,164.42a5.75,5.75,0,0,0,4.86.24l1-.73-37.36-20.3a6.12,6.12,0,0,0-2.56-.72Zm-101.31,2.66a4.62,4.62,0,0,0-2.31.24l-1,.72,37.35,20.55a5.78,5.78,0,0,0,4.86.24l1-.73L369,146.05a4.87,4.87,0,0,0-2.3-.48Zm90.82,3.14a5.71,5.71,0,0,0-2.56.48l-1,.73,37.61,20.3a5.2,5.2,0,0,0,4.61.24l1.28-.73-37.61-20.54a4.91,4.91,0,0,0-2.31-.48Zm-101.57,2.42a4.42,4.42,0,0,0-2.3.48l-1,.72,37.36,20.55a5.78,5.78,0,0,0,4.86.24l1-.73-37.35-20.54a6.12,6.12,0,0,0-2.56-.72Zm90.83,3.38a4.66,4.66,0,0,0-2.31.48l-1,.73L480.76,176a5.77,5.77,0,0,0,4.87.24l1-.73L449.3,155a6,6,0,0,0-2.56-.48Zm-101.32,2.42a4.42,4.42,0,0,0-2.3.48l-1.28.72c.06,0,.18,0,.25,0l37.36,20.55a5.78,5.78,0,0,0,4.86.24l1-.73-37.61-20.54a5,5,0,0,0-2.3-.72Zm90.83,3.38a5.71,5.71,0,0,0-2.56.48l-1,.73,37.61,20.3a5.75,5.75,0,0,0,4.86.24l1-.73-37.61-20.54a4.85,4.85,0,0,0-2.3-.48Zm-101.57,2.42a4.45,4.45,0,0,0-2.31.48l-1,.72,37.35,20.55a5.73,5.73,0,0,0,4.86,0l1.28-.49c-.08-.06-.15-.18-.25-.24l-37.36-20.3a6.12,6.12,0,0,0-2.56-.72Zm90.82,3.38a4.62,4.62,0,0,0-2.3.48l-1,.73,37.35,20.3a5.75,5.75,0,0,0,4.86.24l1-.73-37.35-20.54a6,6,0,0,0-2.56-.48Zm-101.32,2.42a4.44,4.44,0,0,0-2.3.48l-1.28.48c.09.06.16.19.26.24l37.35,20.55a5.73,5.73,0,0,0,4.86,0l1-.73-37.36-20.3a6.12,6.12,0,0,0-2.56-.72ZM415,171.91a4.58,4.58,0,0,0-2.3.24l-1.28.73L449,193.42a5.75,5.75,0,0,0,4.86.24l1-.73-37.61-20.54a4.85,4.85,0,0,0-2.3-.48Zm-101.57,2.42a4.4,4.4,0,0,0-2.3.48l-1,.72,37.61,20.55a5.19,5.19,0,0,0,4.61,0l1.28-.49c-.09-.06-.16-.18-.26-.24L316,175.05a6.16,6.16,0,0,0-2.56-.72Zm90.83,3.38A4.62,4.62,0,0,0,402,178l-1,.72,37.35,20.55a5.75,5.75,0,0,0,4.86.24l1.28-.49c-.11-.08-.12-.16-.25-.24l-37.36-20.54a6,6,0,0,0-2.56-.48ZM303,180.13a4.4,4.4,0,0,0-2.3.48l-1.28.48c.08.06.15.19.25.24L337,201.88a5.73,5.73,0,0,0,4.86,0l1-.73-37.35-20.3a6.16,6.16,0,0,0-2.56-.72Zm90.83,3.14a4.56,4.56,0,0,0-2.31.48l-1,.73L427.8,205a5.75,5.75,0,0,0,4.86.24l1-.73L396.08,184a5.1,5.1,0,0,0-2.31-.72ZM292.2,185.93a4.52,4.52,0,0,0-2.3.48l-1,.72,37.61,20.3a5.18,5.18,0,0,0,4.6.25l1.28-.49c-.09-.06-.15-.18-.25-.24l-37.36-20.3A6.12,6.12,0,0,0,292.2,185.93ZM383,189.07a4.49,4.49,0,0,0-2.3.48l-1,.73,37.36,20.54a5.75,5.75,0,0,0,4.86.24l1-.73-37.35-20.54a6.12,6.12,0,0,0-2.56-.72Zm-101.32,2.66a4.52,4.52,0,0,0-2.3.48l-1.28.48c.1.07.14.18.26.24l37.35,20.3a5.75,5.75,0,0,0,4.86.25l1-.73-37.36-20.3A6.12,6.12,0,0,0,281.71,191.73Zm90.83,3.14a4.49,4.49,0,0,0-2.3.48l-1.28.48c.09.07.15.19.25.25l37.36,20.54a5.7,5.7,0,0,0,4.86,0l1-.73-37.61-20.3a5,5,0,0,0-2.3-.72Zm-101.32,2.66a5.58,5.58,0,0,0-2.56.48l-1,.72L305.25,219a5.2,5.2,0,0,0,4.61.25l1.27-.73-37.6-20.3a5.1,5.1,0,0,0-2.31-.72Zm90.57,3.14a4.54,4.54,0,0,0-2.3.48l-1,.73,37.35,20.54a5.7,5.7,0,0,0,4.86,0l1.28-.49c-.09-.06-.15-.18-.25-.24l-37.36-20.3a6.12,6.12,0,0,0-2.56-.72Zm-101.31,2.66a4.56,4.56,0,0,0-2.31.48l-1,.72,37.35,20.3a5.77,5.77,0,0,0,4.87.25l1-.73L263,204.05a6.16,6.16,0,0,0-2.56-.72Zm90.82,3.14a4.65,4.65,0,0,0-2.3.48l-1.28.49c.09.05.16.18.26.24l37.35,20.54a5.7,5.7,0,0,0,4.86,0l1-.73-37.36-20.3a6.12,6.12,0,0,0-2.56-.72ZM250,209.13a4.56,4.56,0,0,0-2.31.48l-1.27.72L284,230.63a5.75,5.75,0,0,0,4.86.25l1-.73-37.61-20.3A5,5,0,0,0,250,209.13Zm90.57,3.14a4.6,4.6,0,0,0-2.3.48l-1,.73L374.84,234a5.15,5.15,0,0,0,4.61,0l1.28-.49c-.09-.06-.16-.18-.26-.24L343.12,213a6.16,6.16,0,0,0-2.56-.72Zm-101.32,2.66a4.52,4.52,0,0,0-2.3.48l-1,.72,37.35,20.3a5.75,5.75,0,0,0,4.86.25l1.28-.49c-.1-.07-.14-.17-.26-.24L241.8,215.41a6,6,0,0,0-2.56-.48Zm90.83,3.14a4.49,4.49,0,0,0-2.3.48l-1.28.48c.08.06.15.19.25.25l37.36,20.3a5.78,5.78,0,0,0,4.86.24l1-.73-37.35-20.3A6.16,6.16,0,0,0,330.07,218.07Zm-101.32,2.66a4.52,4.52,0,0,0-2.3.48l-1.28.72,37.61,20.3a5.75,5.75,0,0,0,4.86.25l1-.73-37.61-20.54a4.85,4.85,0,0,0-2.3-.48Zm90.57,3.14a4.52,4.52,0,0,0-2.3.48l-1,.73,37.61,20.3a5.21,5.21,0,0,0,4.6.24l1.28-.49c-.09-.06-.15-.18-.25-.24l-37.36-20.3A6.12,6.12,0,0,0,319.32,223.87ZM218,226.53a4.56,4.56,0,0,0-2.31.48l-1,.72L252,248a5.75,5.75,0,0,0,4.86.25l1.28-.49c-.11-.08-.11-.16-.25-.24L220.56,227a6,6,0,0,0-2.55-.48Zm90.82,3.14a4.62,4.62,0,0,0-2.3.48l-1.28.49c.1.06.14.17.26.24l37.35,20.3a5.75,5.75,0,0,0,4.86.24l1-.73-37.36-20.3A6.12,6.12,0,0,0,308.83,229.67Zm-10.49,5.8a5.71,5.71,0,0,0-2.56.48l-1,.73L332.37,257a5.2,5.2,0,0,0,4.61.24l1.28-.73-37.61-20.3a5.1,5.1,0,0,0-2.31-.72Zm-10.74,5.8a4.56,4.56,0,0,0-2.31.48l-1,.73,37.36,20.3a5.75,5.75,0,0,0,4.86.24l1-.73L290.16,242A6.16,6.16,0,0,0,287.6,241.27Zm-10.49,5.8a4.6,4.6,0,0,0-2.3.48l-1.28.73,37.61,20.3a5.75,5.75,0,0,0,4.86.24l1-.73-37.61-20.54a4.85,4.85,0,0,0-2.3-.48Zm-10.75,5.8a4.62,4.62,0,0,0-2.3.48l-1,.73,37.35,20.3a5.75,5.75,0,0,0,4.86.24l1-.73-37.35-20.54a6,6,0,0,0-2.56-.48Z"/><path id="path5114-5" class="cls-72" d="M487.14,293.88a4,4,0,0,0-1,.48,4.81,4.81,0,0,0-.51.25c0,.06,0,.16,0,.24s.25.25.25.48V335a4.88,4.88,0,0,1-2,3.39c-.05,0,.05.2,0,.24.39.65,1.24.82,2.3.24a5.06,5.06,0,0,0,2.56-3.87V295.33c0-1-.62-1.59-1.54-1.45Zm-12,6.77a2.52,2.52,0,0,0-1,.24,4.9,4.9,0,0,0-.52.24c0,.05,0,.18,0,.24a2.23,2.23,0,0,1,0,.73v39.63a4.43,4.43,0,0,1-2,3.14c.23,1,1.32,1.16,2.56.49a4.71,4.71,0,0,0,2.55-3.63V302.1c0-1-.61-1.59-1.53-1.45Zm-12.28,6.76a2.81,2.81,0,0,0-1,.25,3.91,3.91,0,0,0-.51.24c0,.07,0,.15,0,.24s0,.26,0,.48v39.63a4.76,4.76,0,0,1-1.79,3.39c.31.84,1.14,1.12,2.3.48a5.06,5.06,0,0,0,2.56-3.87V308.62c0-1-.61-1.34-1.53-1.21Zm-12.28,6.53a4.07,4.07,0,0,0-1,.48c-.15.08-.36.14-.51.24,0,.07,0,.17,0,.24s.26.25.26.49V355a4.9,4.9,0,0,1-2,3.39c-.05,0,0,.2,0,.24.39.65,1.24.82,2.3.24a5.07,5.07,0,0,0,2.56-3.87V315.39c0-1-.61-1.59-1.53-1.45Z"/><g class="cls-73"><path id="path23628-2-2" data-name="path23628-2" class="cls-74" d="M75.27,285.08l-2.87,1.15c1.16,1.67,2.56,3.22,3.83,4.83l2.62-1.15c-1.27-1.58-2.42-3.19-3.58-4.83Zm-11.81,4.71L60.58,291c1.3,1.88,2,2.91,3.42,4.74l3.29-.65c-1.36-1.77-2.57-3.49-3.83-5.32Zm-9.18,3.83-2.86,1.19c1.33,1.93,2.7,3.83,4.12,5.72l2.8-1.31C57,297.42,55.55,295.47,54.28,293.62Z"/></g><g class="cls-75"><path id="path23676-4-2" data-name="path23676-4" class="cls-76" d="M85.17,281.34l-3,1a72.83,72.83,0,0,0,8.37,9.81l2.3-2.18a65.23,65.23,0,0,1-7.71-8.67Z"/></g><g class="cls-77"><path id="path23714-6-2" data-name="path23714-6" class="cls-78" d="M159.81,252.14,157,253.45a148.62,148.62,0,0,1,8.76,16l3.07-1.21A158.5,158.5,0,0,0,159.81,252.14Zm-9,3.89-2.86,1.17a118,118,0,0,1,8.65,16.14l3.08-1.21A125.1,125.1,0,0,0,150.79,256ZM139,260.83,136.09,262s5.92,11.12,7.7,16.43l3.33-1.2A86.48,86.48,0,0,0,139,260.83Z"/></g><g class="cls-79"><path id="path23757-3-2" data-name="path23757-3" class="cls-80" d="M126.21,265.75a49,49,0,0,1,6.33,15.56c1.38-.29,1.67-.38,3.32-.72a57,57,0,0,0-6.71-15.9Z"/></g><g class="cls-81"><path id="path23795-4-2" data-name="path23795-4" class="cls-82" d="M97.12,278.23l-3.39.63a38.25,38.25,0,0,0,7.34,7.05l2-2.42a28.12,28.12,0,0,1-6-5.26Z"/></g><g class="cls-83"><path id="path23846-9-2" data-name="path23846-9" class="cls-84" d="M103.37,283.49c-.57.9.07,4.07,1,4.59,4,2.17,7.56,2.86,10.47,2.36,0,0-3.37-4.31-3.37-4.31a13.71,13.71,0,0,1-7.1-1.92c-.35-.19-.67-.51-1-.72Z"/></g><g class="cls-85"><path id="path23884-6-2" data-name="path23884-6" class="cls-86" d="M110.53,301.37l-1,3.39c6.45,2.57,12.25,3.19,16.86,1.77l-3-4.27A22.34,22.34,0,0,1,110.53,301.37Z"/></g><path id="path24160-1" class="cls-58" d="M26.24,289.39l-2.19,1.08,2.88,1.11Z"/><path id="path5052-9" class="cls-58" d="M99.53,272.61c-4.21.14-11,1.71-23,6.53-1.38.55-.74.44-2,1,12.07-4.83,18.81-6.39,23-6.53a15.2,15.2,0,0,1,6.66,1.93,29.53,29.53,0,0,1,6.65,5.32c4.21,4.73,10.95,13.67,23,31.66,24.07,35.86,36.59,54.86,36.59,54.86a3.94,3.94,0,0,0,1,1.21,27.09,27.09,0,0,0,2.56,1.2,27.21,27.21,0,0,1,6.91,4.11c.56.5,0,1.14.51,1.69,2.34,2.09,3.67,5.27,2.82,7,.27,1.53,2.33,3.25,1.79,4.35-.77,1.57-3,.84-4.86.73.9.56,1.9,1.25,2.3,1.45,2.39-.65,3.4-.67,4.6-3.14,1.61-3.3-.69-9.13-5.11-13A26.8,26.8,0,0,0,176,368.8a24.06,24.06,0,0,1-2.56-1.45,5.16,5.16,0,0,1-1-1s-12.52-19-36.59-54.86c-12.08-18-18.81-26.92-23-31.66a28.81,28.81,0,0,0-6.65-5.31A15.11,15.11,0,0,0,99.53,272.61Z"/><path id="path24168-7" class="cls-87" d="M169.25,372.26l1.92-1.05L175,374.6l-1.93,1Z"/><path id="path23922-4" class="cls-59" d="M30.06,307.23a18.34,18.34,0,0,1-7.67-9.5c-1.61-5.06.7-8.5,5.12-7.61,2.42.49,4.86,2.3,6.9,3.53a23.4,23.4,0,0,0,2.56,1.4,1.44,1.44,0,0,0,1,.07S50.51,289.64,74.58,280c12.08-4.82,18.82-6.39,23-6.53a16.09,16.09,0,0,1,6.65,2.11,29,29,0,0,1,6.65,5.14c4.21,4.74,11,13.66,23,31.65,24.07,35.87,36.59,55,36.59,55a4.12,4.12,0,0,0,1,1,22.35,22.35,0,0,0,2.56,1.39c2,1,4.48,1.86,6.91,4,4.42,3.93,6.72,9.89,5.11,13.19-1.2,2.47-4.33,2.78-7.67,1.13a15.58,15.58,0,0,1-3.33-2.3A21.78,21.78,0,0,1,170,379c-1.15-2.48-1.62-4.94-.76-6.7l3.83,3.3c-.37.76-.15,2,.52,3.42a13.57,13.57,0,0,0,3.07,4.09c2.34,2.08,4.77,2.16,5.62.41s-.47-4.77-2.81-6.85a28,28,0,0,0-5.12-2.79,27.22,27.22,0,0,1-3.32-2,11.08,11.08,0,0,1-3.33-3.27s-12.54-19.16-36.58-55c-12-17.86-18.64-26.44-22.26-30.51-1.81-2-7.4-5.08-9.21-5-3.63.12-10.28,1.44-22.26,6.23-24.05,9.6-36.59,15.08-36.59,15.08-.94.49-2.17.11-3.33-.36a22.27,22.27,0,0,1-3.32-1.57C32,296.06,30,294.78,29,294.59c-2.34-.47-3.67,1.11-2.81,3.78s3.28,5.26,5.62,5.73a3.38,3.38,0,0,0,3.07-.74,2.76,2.76,0,0,0,.52-2.87l3.83.89c.86,2.69.39,4.64-.76,5.86a5.32,5.32,0,0,1-5.12,1.32,10.65,10.65,0,0,1-3.33-1.33Z"/><path id="path7474-8" class="cls-88" d="M25.85,156.15l-1.71,1.15.17,1.75c0,.19-.26.28-.26.48,0,3.4,2.8,7.71,6.4,9.67a8.25,8.25,0,0,0,2.56,1h1.65s.54-.43.65-.49a3.33,3.33,0,0,0,1.54-3.14c0-3.4-3-7.72-6.4-9.67a6.16,6.16,0,0,0-4.6-.73Z"/><path id="path5070-4" class="cls-61" d="M35.51,167.59c0,3.4-2.91,4.57-6.51,2.6s-6.51-6.3-6.51-9.7,2.91-4.56,6.51-2.6S35.51,164.2,35.51,167.59Z"/><path id="path7476-0" class="cls-62" d="M27,159.42l-1.54.62,2,3.29-2,.81L27,166.43l2-.82,2.05,3,1.53-.61-2-3.05,2-1.06-1.53-2.29-2.05.82Z"/><path id="path5078-5" class="cls-62" d="M27,159.42l-1.54.62,2,3.29-2,.81L27,166.43l2-.82,2.05,3,1.53-.61-2-3.05,2-1.06-1.53-2.29-2.05.82Z"/><path id="path5082-9" class="cls-62" d="M27,159.42l-1.54.62,2,3.29-2,.81L27,166.43l2-.82,2.05,3,1.53-.61-2-3.05,2-1.06-1.53-2.29-2.05.82Z"/><path id="path5085-3" class="cls-63" d="M26.08,159.77l-.66.27,2,3.3.77-.24Zm0,4.11-.76.25,1.62,2.3.66-.27Zm3.67,1.49-.77.24,2,3.11.78-.33Z"/><g class="cls-89"><path id="path23963-6-2" data-name="path23963-6" class="cls-90" d="M114.37,316.11l-.77,3.63c8.6,3.07,16.42,3.38,22.59,1.34l-2.88-4.29c-5.22,1.7-11.78,1.62-18.94-.68Z"/></g><g class="cls-91"><path id="path23984-9-2" data-name="path23984-9" class="cls-92" d="M145.33,334.48a37.46,37.46,0,0,1-18.17,1.45l-.25,3.87c7.85,1.45,15.15,1.13,21.15-.95Z"/></g><g class="cls-93"><path id="path24005-3-2" data-name="path24005-3" class="cls-94" d="M154.28,348.26a41.65,41.65,0,0,1-15.35,2.17l.77,4.59a45,45,0,0,0,17.4-2.41l-2.82-4.36Z"/></g><g class="cls-95"><path id="path24034-6-2" data-name="path24034-6" class="cls-96" d="M114.63,269a22.19,22.19,0,0,1,3,8.48l3.91,1a28,28,0,0,0-3.72-10.12s-.08,0-3.18.68Z"/></g><g class="cls-97"><path id="path24055-7-2" data-name="path24055-7" class="cls-98" d="M90.77,253.6c-2.56,1.5-4,4.35-4,8.38a18.05,18.05,0,0,0,.51,4.11l3.84.48a13.55,13.55,0,0,1-.26-2.41c0-3,1.23-5.26,3.12-6.43Z"/></g><g class="cls-99"><path id="path24076-4-2" data-name="path24076-4" class="cls-100" d="M79.43,237.63c-5,2.7-8,8-8,15.65l4.35.24c.53-5.48,2.87-9.49,6.63-11.63Z"/></g><g class="cls-101"><path id="path24097-8-2" data-name="path24097-8" class="cls-102" d="M69.6,223.07c-5.8,2.94-9.76,8.36-11.26,16l4.35,1.21c1.59-5.95,5-10.34,9.72-12.81l-2.81-4.35Z"/></g><g class="cls-103"><path id="path24118-5-2" data-name="path24118-5" class="cls-104" d="M57.88,205.5C51,208.56,45.65,214.7,43,222.83c2.15.13,2.56.13,5.11.24,2.63-5.93,7.12-10.87,12.65-13.26Z"/></g><g class="cls-105"><path id="path24139-1-2" data-name="path24139-1" class="cls-106" d="M48.64,191.71a33.55,33.55,0,0,0-15.89,15.17l4.87,1.93a31.25,31.25,0,0,1,14-12.88Z"/></g><path id="path24162-0" class="cls-87" d="M35.44,300.49l1.92-1.05,3.84,1-1.93,1Z"/><path id="path23944-5" class="cls-58" d="M29.94,295.09a11,11,0,0,0-1-.48c-2.34-.48-3.67,1.19-2.82,3.86s3.29,5.09,5.63,5.56a3.38,3.38,0,0,0,3.07-.72c.28-.3.15-.82.26-1.21-.44.45-.74,1.07-1.28,1-2.34-.47-4.78-2.88-5.63-5.55-.54-1.69.89-1.84,1.79-2.42Z"/><path id="path23600-5" class="cls-60" d="M26,292.42l-1.71,1.15.17,1.75c0,.18-.25.28-.25.48,0,3.4,2.8,7.71,6.4,9.67a7.84,7.84,0,0,0,2.55,1h.26l1.39,0s.55-.44.66-.5A3.33,3.33,0,0,0,37,302.81c0-3.39-3-7.71-6.4-9.66a6.11,6.11,0,0,0-4.6-.73Z"/><path id="path23602-8" class="cls-61" d="M35.63,303.86c0,3.4-2.92,4.56-6.51,2.6s-6.52-6.3-6.52-9.7,2.92-4.56,6.52-2.6S35.63,300.46,35.63,303.86Z"/><path id="path23604-0" class="cls-62" d="M27.07,295.69l-1.54.61,2,3.29-2,.82,1.54,2.29,2.05-.82,2,3.05,1.54-.61-2.05-3.05,2.05-1.06-1.54-2.29-2,.82Z"/><path id="path23606-3" class="cls-62" d="M27.07,295.69l-1.54.61,2,3.29-2,.82,1.54,2.29,2.05-.82,2,3.05,1.54-.61-2.05-3.05,2.05-1.06-1.54-2.29-2,.82Z"/><path id="path23608-3" class="cls-62" d="M27.07,295.69l-1.54.61,2,3.29-2,.82,1.54,2.29,2.05-.82,2,3.05,1.54-.61-2.05-3.05,2.05-1.06-1.54-2.29-2,.82Z"/><path id="path23610-6" class="cls-63" d="M26.19,296l-.66.26,2,3.31.77-.25Zm0,4.11-.77.24,1.62,2.31.67-.27Zm3.67,1.49-.77.24,2,3.1.78-.33Z"/><path id="path23614-1" class="cls-60" d="M173.49,372.87,171.78,374l.17,1.75c0,.19-.25.29-.25.49,0,3.39,2.8,7.7,6.39,9.66a8,8,0,0,0,2.56,1h.26l1.39,0s.55-.44.66-.5a3.33,3.33,0,0,0,1.53-3.14c0-3.4-2.94-7.72-6.4-9.67a6.16,6.16,0,0,0-4.6-.73Z"/><path id="path23616-7" class="cls-61" d="M183.16,384.32c0,3.39-2.92,4.56-6.52,2.6s-6.51-6.31-6.51-9.71,2.92-4.56,6.51-2.6S183.16,380.92,183.16,384.32Z"/><path id="path23618-4" class="cls-62" d="M174.6,376.14l-1.54.62,2.05,3.29-2.05.81,1.54,2.29,2-.82,2.05,3.05,1.54-.61-2-3,2-1.06-1.54-2.28-2.05.81Z"/><path id="path23620-9" class="cls-62" d="M174.6,376.14l-1.54.62,2.05,3.29-2.05.81,1.54,2.29,2-.82,2.05,3.05,1.54-.61-2-3,2-1.06-1.54-2.28-2.05.81Z"/><path id="path23622-3" class="cls-62" d="M174.6,376.14l-1.54.62,2.05,3.29-2.05.81,1.54,2.29,2-.82,2.05,3.05,1.54-.61-2-3,2-1.06-1.54-2.28-2.05.81Z"/><path id="path23624-8" class="cls-63" d="M173.72,376.49l-.66.27,2,3.3.77-.24Zm0,4.12-.77.24,1.62,2.3.67-.26Zm3.66,1.48-.76.24,2,3.11.78-.33Z"/></g></g></g></svg>