<svg xmlns="http://www.w3.org/2000/svg" xmlns:xlink="http://www.w3.org/1999/xlink" viewBox="0 0 239.82 377.05"><defs><style>.cls-1{fill:#22282f;}.cls-2{fill:#262e36;}.cls-3{fill:#2b333c;}.cls-4{fill:#111518;}.cls-5{fill:url(#Áåçûìÿííûé_ãðàäèåíò_121);}.cls-6{fill:#2f3740;}.cls-7{fill:url(#Áåçûìÿííûé_ãðàäèåíò_117);}.cls-8{fill:#e6e6e6;}.cls-9{fill:#282f36;}.cls-10{fill:#1e2429;}.cls-11{fill:#b3b3b3;}.cls-12{fill:#d9d9d9;}.cls-13{fill:#13161a;}.cls-14{fill:#999;}.cls-15{fill:#7da5b3;}</style><linearGradient id="Áåçûìÿííûé_ãðàäèåíò_121" x1="0.07" y1="342.06" x2="191.64" y2="342.06" gradientTransform="matrix(-1, 0, 0, 1, 239.82, 0)" gradientUnits="userSpaceOnUse"><stop offset="0.14" stop-color="#131720"/><stop offset="0.15" stop-color="#1e2429"/><stop offset="0.39" stop-color="#1e2429"/><stop offset="0.4" stop-color="#282f36"/><stop offset="0.79" stop-color="#282f36"/><stop offset="0.8" stop-color="#1e2429"/></linearGradient><linearGradient id="Áåçûìÿííûé_ãðàäèåíò_117" x1="3.62" y1="326.02" x2="188.09" y2="326.02" gradientTransform="matrix(-1, 0, 0, 1, 239.82, 0)" gradientUnits="userSpaceOnUse"><stop offset="0.13" stop-color="#bfbfbf"/><stop offset="0.15" stop-color="#ccc"/><stop offset="0.4" stop-color="#ccc"/><stop offset="0.41" stop-color="#d9d9d9"/><stop offset="0.79" stop-color="#d9d9d9"/><stop offset="0.8" stop-color="#ccc"/></linearGradient></defs><title>Hervidor Electrico</title><g id="Capa_2" data-name="Capa 2"><g id="Ñëîé_1" data-name="Ñëîé 1"><path class="cls-1" d="M62.46,265.5q2.16,3.94,4.43,8l2.43,4.27,26.29,15.79V269.46L75.67,257.51c-28.56-51.32-42-92.87-40-123.61,1.31-19.67,8.81-32.46,17.08-40.67A55,55,0,0,1,75,79.81l20.66,12.4v-24L70.17,52.9l-2,.39a54.65,54.65,0,0,0-16.09,6.6l0,0-1.81,1.14-1.85,1.16,0,0a67.78,67.78,0,0,0-8,6.57c-.93,1-1.89,1.92-2.82,2.94a69.81,69.81,0,0,0-15.09,27,99.11,99.11,0,0,0-4,22.55C15.86,159.12,30.67,207.6,62.46,265.5Z"/><path class="cls-2" d="M33.55,71.48l6.78-2.66,11.72-4.57L70.17,52.9l-2,.39a54.65,54.65,0,0,0-16.09,6.6l0,0-1.81,1.14-1.85,1.16,0,0Z"/><polygon class="cls-3" points="75.91 257.76 57.55 268.86 77.49 280.82 95.86 269.72 75.91 257.76"/><polygon class="cls-4" points="77.49 304.87 95.86 293.77 95.86 269.72 77.49 280.82 77.49 304.87"/><polygon class="cls-4" points="77.49 103.57 95.61 92.21 95.61 68.16 77.49 79.52 77.49 103.57"/><polygon class="cls-3" points="70.16 52.89 50.04 64.64 77.49 79.52 95.61 68.16 70.16 52.89"/><path class="cls-2" d="M.19,148.1c1.71,34.54,15.94,76.68,42.44,125.64l.48.88,3,1.17,10.6-6.41.85-.53,5.15-3.1,13.21-8c-28.56-51.32-42-92.88-40-123.61,1.31-19.67,9.62-33.72,17.89-41.93L43.07,88.46l-4.33,5.37,2.15,4.42L22.67,99,21.6,99,.94,125.77c-.29,2.19-.51,4.49-.67,6.85A130.6,130.6,0,0,0,.19,148.1Z"/><path class="cls-1" d="M.19,148.1c1.71,34.54,15.94,76.68,42.44,125.64l.48.88c1.81,3.36,3.71,6.77,5.66,10.21l2.43,4.25,26.29,15.78V280.81L58.27,269.3l-.72-.45c-28.56-51.29-42-92.87-40-123.58,1.71-25.8,14.12-39.77,24.9-47.07a0,0,0,0,1,0,0,53.46,53.46,0,0,1,14.36-7l20.66,12.37v-24L52.05,64.25l-2,.38C48.23,65,7.67,73.51.94,125.77c-.29,2.19-.51,4.49-.67,6.85A130.6,130.6,0,0,0,.19,148.1Z"/><path class="cls-5" d="M48.18,307.07v13.21c0,17,13.08,33.93,38,45.1,42.17,19,102.25,14.33,134.19-10.35,13.09-10.12,19.42-22,19.42-33.88V307.94c0,11.85-6.33,23.75-19.42,33.88-31.94,24.68-92,29.3-134.19,10.35C61.26,341,48.18,324.11,48.18,307.07Z"/><path class="cls-6" d="M48.18,308.32c0,17,13.08,33.93,38,45.1,42.17,18.95,102.25,14.33,134.19-10.35,13.09-10.13,19.42-22,19.42-33.88,0-17-13.08-33.91-37.95-45.1-42.17-19-102.25-14.31-134.19,10.35C54.51,284.57,48.18,296.47,48.18,308.32Z"/><path class="cls-7" d="M51.73,292.33v12.72c0,16.41,12.6,32.68,36.55,43.43,40.61,18.25,98.47,13.8,129.22-10,12.61-9.75,18.7-21.21,18.7-32.62V293.17c0,11.41-6.09,22.87-18.7,32.62-30.75,23.76-88.61,28.22-129.22,10C64.33,325,51.73,308.74,51.73,292.33Z"/><path class="cls-8" d="M51.73,293.53c0,16.41,12.6,32.68,36.55,43.43,40.61,18.25,98.47,13.8,129.22-10,12.61-9.75,18.7-21.21,18.7-32.62,0-16.39-12.59-32.66-36.55-43.43-40.6-18.25-98.46-13.78-129.21,10C57.83,270.66,51.73,282.12,51.73,293.53Z"/><path class="cls-9" d="M47.92,201.06c0,3.82,0,7.68.06,11.51,0,1.5.05,3,.05,4.46,0,2.22,0,4.42.11,6.61,0,1.41,0,2.83.08,4.24,0,.56,0,1.14,0,1.69q.16,6.59.35,12.71c0,.66,0,1.33,0,2,.14,4.49.3,8.79.48,12.81,0,.48,0,.95.06,1.42,0,1.19.1,2.41.16,3.61,0,1.52.13,3,.21,4.57v.11c.06,1.47.14,2.94.22,4.39,0,.91.08,1.83.13,2.71.08,1.28.13,2.53.21,3.78,0,.77.08,1.52.14,2.27,0,1.11.1,2.16.18,3.11a9.29,9.29,0,0,0,.06.94c.08,1.25.13,2.33.21,3.3s.11,1.78.16,2.47.08,1.11.11,1.47.05.58.05.89c0,16.53,12.7,32.93,36.83,43.75,1.07.47,2.14.94,3.23,1.38,2.16.89,4.38,1.72,6.62,2.5,1.44.5,2.88,1,4.38,1.39,1.68.52,3.36,1,5.07,1.41.56.17,1.12.31,1.71.44,1.87.48,3.73.89,5.6,1.25,1.6.34,3.23.64,4.86.89,2.08.36,4.19.67,6.3.92,1.47.16,2.93.33,4.4.47h0c.21,0,.45.05.67.05,1.3.11,2.61.22,3.92.31.37,0,.75.05,1.12.05,1.33.09,2.67.14,4,.17,1.58.06,3.15.08,4.73.08,4.7,0,9.34-.19,14-.61l1.68-.17c1.39-.13,2.75-.27,4.11-.46s2.77-.37,4.14-.59,2.93-.47,4.37-.75h.06c1.25-.22,2.48-.47,3.68-.74.59-.12,1.17-.25,1.76-.39,1-.25,2.08-.48,3.1-.75,1.2-.31,2.4-.64,3.6-1,.19-.06.37-.09.56-.17,1.39-.39,2.75-.81,4.08-1.25h.06c1.33-.44,2.64-.91,3.95-1.39s2.53-1,3.79-1.47a10.09,10.09,0,0,0,1.2-.49c2.16-.92,4.24-1.89,6.3-2.92h0c2.38-1.22,4.67-2.52,6.86-3.88,1.1-.7,2.17-1.39,3.21-2.11s2.08-1.47,3.06-2.25h0a60,60,0,0,0,6.43-5.68A46.83,46.83,0,0,0,232.24,310a34.25,34.25,0,0,0,4.68-17.06,7.72,7.72,0,0,0-.06-.83h.06s.08-1,.18-2.83c0-.14,0-.28,0-.42s0-.52.05-.77c.06-.84.11-1.64.16-2.47.08-1.53.19-3.05.27-4.58,0-.64,0-1.28.11-1.88.05-1.22.13-2.45.18-3.64.06-.83.08-1.66.14-2.47s.08-1.83.13-2.72.08-1.63.11-2.46c0-.14,0-.28,0-.42q.24-5.16.48-11.21c0-.52,0-1.05.06-1.58.08-1.83.13-3.69.18-5.52.08-2.52.16-5,.24-7.55v-.13c.16-5.14.27-10.54.38-16.18.08-4.74.13-9.51.16-14.25,0-2.59,0-5.22,0-7.85,0-3.89,0-7.8,0-11.69,0-1.91-.05-3.82-.08-5.76,0-3.52-.11-7.08-.19-10.6-.18-6.16-.37-12.34-.66-18.53-.14-3.13-.3-6.3-.48-9.43-.46-7.77-1-15.48-1.71-23-.14-1.58-.3-3.13-.48-4.69-.14-1.19-.24-2.38-.38-3.58-.34-3.24-.72-6.46-1.17-9.67-.37-2.92-.77-5.75-1.2-8.55-.22-1.39-.43-2.77-.67-4.16-.48-2.72-1-5.41-1.47-8-.26-1.31-.53-2.61-.8-3.89-.48-2.38-1-4.74-1.63-7.1-.26-1.11-.55-2.25-.85-3.36,0-.14-.08-.27-.11-.41-.08-.31-.16-.59-.26-.89-.46-1.75-1-3.47-1.5-5.13-.08-.34-.18-.67-.29-1,0-.06,0-.08,0-.11-2.67-9-9.63-17.73-20.63-24.77a79.68,79.68,0,0,0-11.07-6c-35.64-16-86.05-12.63-114.24,7.37-.75.5-1.49,1.06-2.21,1.61C69.09,48.41,63.88,55.89,61.8,63.58q-1.56,4.86-2.88,10.23c-.32,1.2-.61,2.42-.88,3.64s-.56,2.47-.83,3.74c-.21,1-.43,2.06-.64,3.08s-.34,1.75-.51,2.64c-.26,1.38-.53,2.8-.77,4.19s-.48,2.8-.69,4.21c-.22,1.25-.4,2.47-.59,3.72-.11.72-.21,1.44-.32,2.16-.21,1.39-.4,2.81-.59,4.22-.29,2.25-.58,4.49-.85,6.8L52,114.37c-.27,2.5-.54,5-.78,7.6-.64,6.38-1.14,12.79-1.54,19.17-.16,2.33-.3,4.66-.43,7,0,.78-.08,1.56-.11,2.3-.13,2.14-.24,4.25-.32,6.38-.16,3.33-.27,6.66-.37,10-.06,1.58-.11,3.19-.14,4.77,0,.72,0,1.42,0,2.11-.05,1.55-.08,3.11-.11,4.63-.08,3.08-.13,6.16-.16,9.21,0,2.33,0,4.66,0,7S47.92,198.84,47.92,201.06Z"/><path class="cls-10" d="M130.05,346.5c.21,0,.45.05.67.05,1.3.11,2.61.22,3.92.31.37,0,.75.05,1.12.05,1.33.09,2.67.14,4,.17,1.58.06,3.15.08,4.73.08,4.7,0,9.34-.19,14-.61l1.68-.17c1.39-.13,2.75-.27,4.11-.46s2.77-.37,4.14-.59,2.93-.47,4.37-.75h.06c1.25-.22,2.48-.47,3.68-.74.59-.12,1.17-.25,1.76-.39,1-.25,2.08-.48,3.1-.75,1.2-.31,2.4-.64,3.6-1,.19-.06.37-.09.56-.17,1.39-.39,2.75-.81,4.08-1.25h.06c1.33-.44,2.64-.91,3.95-1.39s2.53-1,3.79-1.47a10.09,10.09,0,0,0,1.2-.49c2.16-.92,4.24-1.89,6.3-2.92h0c2.38-1.22,4.67-2.49,6.86-3.88,1.1-.7,2.17-1.39,3.21-2.11s2.08-1.47,3.06-2.25h0a60,60,0,0,0,6.43-5.68A46.2,46.2,0,0,0,232.24,310a34.25,34.25,0,0,0,4.68-17.06,7.72,7.72,0,0,0-.06-.83l.24-2.83c0-.14,0-.28,0-.42s0-.52.05-.77c.06-.84.11-1.64.16-2.47.08-1.53.19-3.05.27-4.58,0-.64,0-1.28.11-1.88.05-1.22.13-2.45.18-3.64.06-.83.08-1.66.14-2.47s.08-1.83.13-2.72.08-1.63.11-2.46c0-.14,0-.28,0-.42.16-3.74.35-7.46.48-11.21,0-.52,0-1.05.06-1.58.08-1.83.13-3.69.18-5.52.08-2.52.16-5,.24-7.55v-.13c.16-5.39.3-10.8.38-16.18.08-4.74.13-9.51.16-14.25,0-.67,0-1.36,0-2v-5.82c0-3.89,0-7.8,0-11.69,0-1.91-.05-3.82-.08-5.76,0-3.52-.11-7.08-.19-10.6,0-.66,0-1.36-.05-2s0-1.32-.07-2c-.15-4.84-.31-9.68-.54-14.53-.14-3.13-.3-6.3-.48-9.43-.22-3.61-.43-7.21-.7-10.82-.29-4.08-.64-8.13-1-12.18-.14-1.58-.3-3.13-.48-4.69-.14-1.19-.24-2.38-.38-3.58-.34-3.24-.72-6.46-1.17-9.67-.19-1.64-.4-3.25-.64-4.89l-.56-3.66c-.22-1.39-.43-2.77-.67-4.16-.48-2.72-1-5.41-1.47-8-.26-1.31-.53-2.61-.8-3.89-.48-2.38-1-4.74-1.63-7.1-.26-1.11-.55-2.25-.85-3.36,0-.14-.08-.27-.11-.41-.08-.31-.16-.59-.26-.89a39,39,0,0,1-1.5-5.13c-.08-.34-.18-.67-.29-1,0-.06,0-.08,0-.11-2.67-9-9.63-17.73-20.63-24.77a5.86,5.86,0,0,0-1.65.52A14.5,14.5,0,0,0,199.28,43c-1.6,1.81-3.25,3.72-3.89,6.08-.72,2.66,0,5.52-.24,8.29-.11,1.5-.43,3.19.53,4.33,1.57,1.8,2,4.36,2.69,6.74s1.26,4.63,1.82,7q1.8,7.53,3.15,15.12c2,11.21,3.36,22.5,4.4,33.84,1.12,12.13,1.87,24.28,2.38,36.46s.72,24.29.8,36.44q.08,16.93-.29,33.88-.33,14.34-.91,28.71c-.3,7-.62,13.95-1,20.91-.21,3.52-.4,7.05-.66,10.54a6.33,6.33,0,0,1-.06.78c0,.28,0,.55,0,.83,0,11.51-6.14,23.05-18.84,32.87C174.14,337.4,152.76,344.42,130.05,346.5Z"/><path class="cls-6" d="M47.93,201.06c0,3.82,0,7.68,0,11.51,0,1.5.05,3,.05,4.46,0,2.22.06,4.42.11,6.61,0,1.41,0,2.83.08,4.24,0,.56,0,1.14,0,1.69.1,4.25.21,8.47.34,12.71,0,.66.06,1.33.06,2q.2,6.41.48,12.81c0,.48,0,.95,0,1.42,0,1.19.11,2.41.16,3.61,0,1.52.14,3,.22,4.57v.11c0,1.47.13,2.94.21,4.39,0,.91.08,1.83.13,2.71.08,1.28.14,2.53.22,3.78,0,.77.08,1.52.13,2.27,0,1.06.11,2.08.19,3.11a9.36,9.36,0,0,0,.05.94c0,1.11.13,2.19.21,3.3.06.84.11,1.64.16,2.47,0,.5.08,1,.11,1.47a8.37,8.37,0,0,1,.05.89c0,16.53,12.71,32.93,36.84,43.75,1.06.47,2.13.94,3.23,1.38,2.16.89,4.37,1.72,6.61,2.5,1.45.5,2.89,1,4.38,1.39,1.68.52,3.36,1,5.07,1.41.56.17,1.12.31,1.71.44,1.87.48,3.74.89,5.61,1.25,1.6.34,3.22.64,4.85.89,2.08.36,4.19.67,6.3.92a156.16,156.16,0,0,0,24.18,1.05c1.71-.05,3.42-.14,5.13-.25-16.23-1.08-32.22-4.69-46.18-11C84.6,325,71.92,308.63,71.92,292.1c-.61-8.16-1-16.34-1.44-24.5Q69,237.9,68.85,208.21c-.16-24.38.35-48.79,2.16-73.12,1.63-22,4.06-44.35,9.93-65.66,1.12-4,2.32-7.4,2.32-11.62A47.44,47.44,0,0,0,80,40.47a1.46,1.46,0,0,0-.14-.28c-.74.5-1.49,1.06-2.21,1.61-8.57,6.61-13.77,14.09-15.85,21.78-1.05,3.24-2,6.65-2.89,10.23-.32,1.2-.61,2.42-.88,3.64s-.56,2.47-.82,3.74c-.22,1-.43,2.06-.65,3.08s-.34,1.75-.5,2.64c-.27,1.38-.54,2.8-.78,4.19s-.48,2.8-.69,4.21c-.21,1.25-.4,2.47-.59,3.72-.1.72-.21,1.44-.32,2.16-.21,1.39-.4,2.81-.59,4.22-.29,2.25-.58,4.49-.85,6.8L52,114.37c-.24,2.11-.45,4.22-.67,6.33-.05.41-.08.85-.1,1.27-.64,6.38-1.15,12.79-1.55,19.17-.16,2.33-.3,4.66-.43,7,0,.78-.08,1.56-.1,2.3-.14,2.14-.25,4.25-.32,6.38-.16,3.33-.27,6.66-.38,10-.05,1.58-.11,3.19-.13,4.77,0,.72-.06,1.42-.06,2.11-.05,1.55-.08,3.11-.1,4.63-.08,3.08-.14,6.16-.16,9.21,0,2.33-.06,4.64-.06,7S47.93,198.84,47.93,201.06Z"/><path class="cls-11" d="M155.11,100.13l50.45,89.15a6.85,6.85,0,0,0,12.76-2.18L231,123.56Z"/><path class="cls-12" d="M219.64,67.7s54.95,121.11-64.53,32.43Z"/><path class="cls-9" d="M159.38,99.73c14.92,10.84,27.84,19,38.38,24,8.3,4,15.11,6,20.23,6,.4,0,.8,0,1.18,0,3.81-.25,6.46-1.72,8.14-4.46,1.49-2.47,2.13-5.88,2.16-9.88.13-14.12-7.45-35.37-11.85-45.77Z"/><path class="cls-13" d="M197.76,123.77c8.3,4,15.11,6,20.23,6,.4,0,.8,0,1.18,0,3.81-.25,6.46-1.72,8.14-4.46,1.49-2.47,2.13-5.88,2.16-9.88l-7.82-7.6S216.42,122.33,197.76,123.77Z"/><path class="cls-14" d="M219.17,129.79c3.82-.25,6.46-1.72,8.14-4.46,6.81-11.18-4-42.33-9.69-55.65C217.62,69.68,220.37,106.77,219.17,129.79Z"/><path class="cls-12" d="M61.8,61C61.8,75.57,73,90.05,94.34,99.62c36.15,16.25,87.66,12.28,115-8.88C220.6,82.07,226,71.86,226,61.7c0-14.59-11.21-29.07-32.54-38.66-36.15-16.25-87.66-12.27-115,8.88C67.23,40.59,61.8,50.8,61.8,61Z"/><path class="cls-9" d="M63.23,61.19c0,9.9,5.36,19.79,16.43,28.23,7.89,6,17.78,10.58,28.77,13.65a131.61,131.61,0,0,0,35.13,4.68h.72c24.26,0,48.12-6.35,63.89-18.33C219.24,81,224.6,71.09,224.6,61.19c0-20.27-16.37-37.56-32.63-47.81-1.92-1.22-3.85-2.32-5.74-3.34A89.26,89.26,0,0,0,144.28,0V0c-.12,0-.23,0-.38,0l-.34,0V0a89.24,89.24,0,0,0-42,10A91.54,91.54,0,0,0,81.07,25C71,34.75,63.23,47.27,63.23,61.19Z"/><path class="cls-10" d="M195.46,31.33,110.34,82.42C159.36,21.73,195.46,31.33,195.46,31.33Z"/><path class="cls-6" d="M195.46,31.33S227.71,91,110.34,82.42Z"/><path class="cls-6" d="M77.47,38.31c6.3-10.57,15.66-17.75,26.43-22.86,7.28-3.45,15.25-5.59,23.26-5.27,3.72.15,7.88,1.14,9.79,4.46a3.79,3.79,0,0,1,.58,1.81c0,1.43-1.08,2.59-2.16,3.49-8,6.65-18.56,8.9-27.18,14.62-6,4-10.94,9.59-15.38,15.43-2.06,2.72-4.14,5.59-7.07,7.25a11.27,11.27,0,0,1-4.88,1.44,5.15,5.15,0,0,1-3.39-.81,5.69,5.69,0,0,1-1.53-2.08C73.3,50.32,74.37,43.5,77.47,38.31Z"/><path class="cls-6" d="M147.89,8.6a16,16,0,0,1,4.26-1.53,25,25,0,0,1,12.76.74c4.38,1.41,8.53,3.1,10.31,7.85a3.13,3.13,0,0,1,.12,2.45c-1.18,2.32-4,.56-5.63.07a52.5,52.5,0,0,0-8.4-1.77,32,32,0,0,0-8.35-.1c-2.52.35-4.43,1.64-7.06,1.44a3.39,3.39,0,0,1-1.79-.51,3.17,3.17,0,0,1-.77-3.23A8.59,8.59,0,0,1,147.89,8.6Z"/><path class="cls-15" d="M83.94,306l9.8,5.88c4.25,2.55,7.69-.15,7.69-6V139.32c0-5.88-3.44-12.71-7.69-15.26l-9.8-5.88c-4.25-2.55-7.69.15-7.69,6v166.5C76.25,296.59,79.69,303.42,83.94,306Z"/><path class="cls-13" d="M80.43,117.3c-1.21,1.15-2,3.15-2,5.88V289.67c0,5.88,3.44,12.71,7.69,15.26l9.8,5.89a5.54,5.54,0,0,0,3.51.87c-1.41,1.35-3.44,1.53-5.72.16L83.94,306c-4.25-2.55-7.69-9.38-7.69-15.26V124.21C76.25,120.09,78,117.58,80.43,117.3Z"/></g></g></svg>