<svg xmlns="http://www.w3.org/2000/svg" viewBox="0 0 397.74 415.08"><defs><style>.cls-1{isolation:isolate;}.cls-2{fill:#3e4448;}.cls-3{fill:#2a3033;}.cls-4{fill:#5c6366;}.cls-5{fill:#f1f2f2;}.cls-6{fill:#d1d3d4;}.cls-7{fill:#fff;}.cls-8{fill:#bcbec0;}.cls-9{fill:#333a3d;}.cls-10,.cls-11{opacity:0.1;}.cls-10{mix-blend-mode:overlay;}.cls-12{fill:#57aa00;}.cls-13{fill:#6fce1b;}.cls-14{fill:#ffa300;}.cls-15{fill:#ffca00;}.cls-16{fill:#ddd;}</style></defs><title>Recurso 6</title><g class="cls-1"><g id="Capa_2" data-name="Capa 2"><g id="Ñëîé_1" data-name="Ñëîé 1"><polygon class="cls-2" points="208.08 111.36 196.47 110.59 214.69 168.66 211.1 168.42 211.31 169.03 255 167.74 259.33 130.68 208.08 111.36"/><path class="cls-3" d="M214.69,168.66l-43-137c-1-3.1-3.54-5.73-5.74-5.88a2.23,2.23,0,0,0-1.53.45h0L9.42,115.8,12,126.59l.21.84,40.21,120L59,258.54l152.53-88.83-.43-1.29Z"/><path class="cls-4" d="M170.66,29.39c-1.23-2-3-3.47-4.68-3.58a2.23,2.23,0,0,0-1.53.45L9.42,115.8l1.38,5.7c1.12-.53,2.21-1.09,3.26-1.7Z"/><path class="cls-2" d="M10.29,115.7c-2.19-.15-3.19,2.25-2.22,5.35L51,258l8,.53-43-137C15.06,118.48,12.49,115.84,10.29,115.7Z"/><polygon class="cls-5" points="196.45 165.45 144.3 0 13.32 75.62 63.88 229.86 69.23 238.9 193.86 166.31 193.52 165.26 196.45 165.45"/><polygon class="cls-6" points="226.65 244.08 174.51 78.63 43.52 154.25 94.08 308.49 99.44 317.53 224.07 244.94 223.72 243.89 226.65 244.08"/><polygon class="cls-7" points="226.65 237.28 174.51 71.83 43.52 147.46 94.08 301.69 99.44 310.73 224.07 238.15 223.72 237.09 226.65 237.28"/><path class="cls-6" d="M133.3,241.83c-63.46-5.54-133.3-13-133.3-13V339.24H0c.07,6.69,4.51,13.37,13.36,18.48l86,49.67c9.32,5.39,21.67,7.92,33.89,7.67l6.5-64.91Z"/><path class="cls-8" d="M233.58,245.36c8.43,4.87-43.36,1.44-100.28-3.53V415.06c11.13-.22,22.14-2.76,30.63-7.67L358.54,295c9.16-5.29,13.57-12.26,13.32-19.18h0V166.46Z"/><path class="cls-2" d="M0,246.93H0c.07,6.7,4.51,13.38,13.36,18.48l86,49.68c9.32,5.38,21.67,7.92,33.89,7.67l6.5-19.51-6.5-61.42c-63.46-5.54-133.3-13-133.3-13Z"/><path class="cls-3" d="M133.3,241.83v80.93c11.13-.23,22.14-2.77,30.63-7.67L358.54,202.73c9.16-5.28,13.57-12.25,13.32-19.18h0V166.46l-138.31,78.9C242,250.23,190.22,246.8,133.3,241.83Z"/><path class="cls-9" d="M233.58,148.7l-21.53-12.44L57,225.76c-.23.13-.48.24-.71.37l21.56,12.45c17.82,10.29,46.71,10.29,64.53,0L233.58,186C251.4,175.66,251.4,159,233.58,148.7Z"/><path class="cls-4" d="M358.54,148.5l-86-49.68c-17.82-10.29-46.71-10.29-64.53,0l-12.86,7.43,2.92,9.3,35.55,20.53c17.82,10.29,17.82,27,0,37.25L142.42,226c-17.82,10.29-46.71,10.29-64.53,0l-45.07-26L13.36,211.18c-17.81,10.29-17.82,27,0,37.25l86,49.68c17.82,10.29,46.72,10.29,64.53,0L358.54,185.75C376.36,175.47,376.36,158.79,358.54,148.5Z"/><g class="cls-10"><path class="cls-7" d="M177.92,205.47,142.42,226c-17.82,10.29-46.71,10.29-64.53,0L41.64,205l70.85,98.33c16.88,4.52,37.53,2.79,51.44-5.25l57-32.92Z"/><path class="cls-7" d="M210.86,97.31c-1,.48-2,1-2.89,1.51l-12.86,7.43,2.92,9.3,35.55,20.53c17.82,10.29,17.82,27,0,37.25l-16.85,9.73,43,59.73L299.25,220Z"/></g><path class="cls-3" d="M397.74,321.17,394,319.29a31.42,31.42,0,0,0-9.63-8.22l-45.07-26L261.47,330v78.66c11.5-.07,23-2.63,31.75-7.7l91.16-52.63c8.61-5,13-11.44,13.31-17.95Z"/><path class="cls-2" d="M261.47,330,193.9,369c-4.66-1-10.28-2.35-10.28-2.35v8.28l45.07,26c9,5.22,20.93,7.78,32.78,7.7Z"/><path class="cls-4" d="M384.38,302.79l-85-49.09-83.47,48.19c-17.75,10.25-32.27,35.4-32.27,55.89v8.87h0l45.07,26c17.82,10.29,46.71,10.29,64.53,0L384.38,340C402.2,329.76,402.2,313.07,384.38,302.79Z"/><path class="cls-3" d="M326.6,245.69c-5.44-1.68-12.21-.67-19.55,3.57l-7.69,4.44h0l35.25,20.35V268.6l-3.54-18Z"/><path class="cls-6" d="M325.42,245.3c3.62,3.93,5.75,10,5.75,17.89v8.87l8.14,4.71h0v-8.87C339.31,255.2,333.81,247.18,325.42,245.3Z"/><path class="cls-7" d="M238.35,387.34l134.86-77.86-85.72-48.93-71.6,41.34c-17.28,10-31.46,34.08-32.2,54.26Z"/><path class="cls-6" d="M242.26,385.09l131-75.61-85.72-48.93-71.6,41.34c-16.07,9.28-29.46,30.77-31.85,50Z"/><path class="cls-7" d="M251.15,387.34,386,309.48l-92.16-52.61-78,45c-15.35,8.86-28.26,28.86-31.48,47.36Z"/><path class="cls-11" d="M299.36,253.7l-83.47,48.19c-17.75,10.25-32.27,35.4-32.27,55.89v17.15l32,18.48v-7.23l155.63-91Z"/><path class="cls-12" d="M131,282.29v1.13h-5.48v-.71h-4.06v-.26H120v-.16h-1.91v3.23h0a3.74,3.74,0,0,0,2.15,2.9,10.74,10.74,0,0,0,5.2,1.23h.08a10.77,10.77,0,0,0,5.12-1.24,3.67,3.67,0,0,0,2.15-3v-3.12Z"/><path class="cls-13" d="M130.64,285.29a11.48,11.48,0,0,1-10.4,0c-2.87-1.66-2.87-4.35,0-6a11.48,11.48,0,0,1,10.4,0C133.51,280.94,133.51,283.63,130.64,285.29Z"/><path class="cls-14" d="M146.31,291.13v1.13h-5.47v-.71h-4.07v-.26h-1.45v-.16H133.4v3.23h0a3.74,3.74,0,0,0,2.15,2.9,10.75,10.75,0,0,0,5.2,1.24h.09a10.73,10.73,0,0,0,5.11-1.24,3.66,3.66,0,0,0,2.16-3v-3.12Z"/><path class="cls-15" d="M146,294.13a11.48,11.48,0,0,1-10.4,0c-2.87-1.66-2.87-4.35,0-6a11.48,11.48,0,0,1,10.4,0C148.82,289.78,148.82,292.47,146,294.13Z"/><path class="cls-8" d="M113.75,270.16v1.65h-8v-1H99.88v-.39H97.76v-.23H95v4.7h0c.06,1.53,1.1,3.05,3.12,4.21a15.42,15.42,0,0,0,7.56,1.8h.13a15.42,15.42,0,0,0,7.44-1.81c2.08-1.2,3.13-2.78,3.13-4.36v-4.55Z"/><ellipse class="cls-16" cx="105.66" cy="270.16" rx="10.69" ry="6.17"/></g></g></g></svg>