<svg xmlns="http://www.w3.org/2000/svg" xmlns:xlink="http://www.w3.org/1999/xlink" viewBox="0 0 419.8 315.23"><defs><style>.cls-1{isolation:isolate;}.cls-2{mix-blend-mode:multiply;fill:url(#Áåçûìÿííûé_ãðàäèåíò_2);}.cls-3{fill:#ddf2eb;}.cls-4{fill:#6fc5ff;}.cls-5{fill:#68d2e8;}.cls-6{fill:#6e7c7c;}</style><linearGradient id="Áåçûìÿííûé_ãðàäèåíò_2" x1="178.58" y1="304.26" x2="336.77" y2="46.47" gradientUnits="userSpaceOnUse"><stop offset="0.13" stop-color="#a1a1bd"/><stop offset="0.89" stop-color="#fff"/></linearGradient></defs><title>Ipad-Tablet</title><g class="cls-1"><g id="Capa_2" data-name="Capa 2"><g id="Ñëîé_1" data-name="Ñëîé 1"><path class="cls-2" d="M62.4,310.43l6.87,4a5.83,5.83,0,0,0,5.94,0L416.81,110a6.3,6.3,0,0,0,0-10.72l-6.34-3.79a5.8,5.8,0,0,0-6,0L62.35,299.68A6.29,6.29,0,0,0,62.4,310.43Z"/><path class="cls-3" d="M3.39,124.42C43.52,100.71,177.43,22.09,213.15,1a7.61,7.61,0,0,1,10.2,2.65L285.09,177c2.12,6.12-1.67,9.64-5.11,11.67L73.1,310.37a7.62,7.62,0,0,1-10.2-2.64L1.17,134.39A7.07,7.07,0,0,1,3.39,124.42Z"/><path class="cls-4" d="M27.87,121.23,215.35,11a1.06,1.06,0,0,1,1.55.61l58.58,167.35a1.2,1.2,0,0,1-.5,1.43L87.49,290.61a1.08,1.08,0,0,1-1.56-.62L27.37,122.67A1.21,1.21,0,0,1,27.87,121.23Z"/><path class="cls-5" d="M275.48,178.92,216.9,11.57a1.07,1.07,0,0,0-1.56-.61L157.51,45,136,262.09l139-81.74A1.2,1.2,0,0,0,275.48,178.92Z"/><path class="cls-6" d="M3.39,124.42C44.08,100.38,181.59,19.63,213.76.63c.24-.14,4.18-1.17,2.46-.15C177,23.65,39.22,104.83,5,125.07c-2.08,1.23-3.73,4.85-2.31,8.71l62.11,172.5a8.8,8.8,0,0,0,4,5.16,11,11,0,0,1-1.58-.41,7,7,0,0,1-4.34-3.3L1.17,134.39A7.08,7.08,0,0,1,3.39,124.42Z"/></g></g></g></svg>