<svg xmlns="http://www.w3.org/2000/svg" viewBox="0 0 495.02 556.45"><defs><style>.cls-1{fill:#2c2c2e;}.cls-2{fill:#cfcfcf;}.cls-3{fill:#525257;}.cls-4{fill:#a6a6a6;}.cls-5{fill:#c9c9c9;}.cls-6{fill:#e3e8ed;}.cls-7{fill:gray;}.cls-8{fill:#d6d6d6;}.cls-9{fill:#474747;}.cls-10{fill:#575757;}.cls-11{fill:#999;}.cls-12{fill:#abdef4;}.cls-13{fill:#5d5d5d;}.cls-14{fill:#333;}.cls-15{fill:#0098c9;}</style></defs><title>Juguete Electronico</title><g id="Capa_2" data-name="Capa 2"><g id="Ñëîé_1" data-name="Ñëîé 1"><path class="cls-1" d="M437.08,438.57l-222-188.48s44.66-24,48.95-27.11,10.2-3.28,16.71.37l190.59,106.9c13,7.3,23.66,27.06,23.66,43.92v18.26c0,8.17-2.5,14.21-6.56,17.45C484.14,413.31,437.08,438.57,437.08,438.57Z"/><path class="cls-2" d="M430.72,431.27a10.45,10.45,0,0,1-4.7-1.53L235.43,322.84c-10.13-5.68-19-22.56-19-36.11V268.46c0-5.34,1.58-11.1,5.05-11.1a10.25,10.25,0,0,1,4.7,1.53L416.75,365.78c10.14,5.69,19,22.56,19,36.12v18.26C435.78,425.51,434.2,431.27,430.72,431.27Z"/><path class="cls-3" d="M421.39,358,230.8,251.09a19.23,19.23,0,0,0-9.34-2.74c-8.4,0-14.32,7.55-14.32,20.11v18.26c0,16.86,10.65,36.62,23.66,43.92l190.59,106.9a19.31,19.31,0,0,0,9.33,2.73c8.41,0,14.33-7.54,14.33-20.11V401.9C445.05,385.05,434.4,365.28,421.39,358Zm5.12,50.95a6.35,6.35,0,0,1-9.52,5.34L240.07,315c-6.52-3.65-14.39-17.37-14.39-28.32s1.62-16.79,8.41-13l178,99.85c6.52,3.66,14.39,17.11,14.39,28.32Z"/><polygon class="cls-4" points="235.07 534.17 43.63 426.8 235.06 319.43 426.51 376.52 426.51 426.8 235.07 534.17"/><polygon class="cls-5" points="235.07 483.89 43.63 376.51 235.06 269.14 426.51 376.52 235.07 483.89"/><path class="cls-1" d="M229.94,554.75,8,366.26s44.66-23.95,49-27.1,10.2-3.28,16.71.37l190.59,106.9c13,7.3,23.66,27.06,23.66,43.91V508.6c0,8.17-2.5,14.22-6.56,17.45C277,529.49,229.94,554.75,229.94,554.75Z"/><path class="cls-2" d="M223.58,547.44a10.34,10.34,0,0,1-4.69-1.52L28.3,439c-10.14-5.69-19-22.56-19-36.12V384.64c0-5.35,1.58-11.1,5.06-11.1A10.34,10.34,0,0,1,19,375.06L209.62,482c10.13,5.69,19,22.56,19,36.12v18.26C228.64,541.69,227.06,547.44,223.58,547.44Z"/><path class="cls-3" d="M214.25,474.16,23.66,367.27a19.23,19.23,0,0,0-9.34-2.74C5.92,364.53,0,372.08,0,384.64V402.9c0,16.86,10.65,36.62,23.66,43.92L214.25,553.71a19.23,19.23,0,0,0,9.34,2.74c8.4,0,14.32-7.55,14.32-20.11V518.08C237.91,501.22,227.26,481.46,214.25,474.16Zm5.12,50.95a6.35,6.35,0,0,1-9.52,5.34L32.93,431.22c-6.52-3.66-14.39-17.37-14.39-28.32s1.62-16.8,8.41-13l178,99.85c6.52,3.66,14.39,17.1,14.39,28.32Z"/><path class="cls-6" d="M429.58,288.06s38.94,12,23.83,48.41c-4.19,8.33-12.49,6.71-12.66-1.77s8.72-20.36-19.7-31.28C408.55,297.29,422.94,284.35,429.58,288.06Z"/><path class="cls-6" d="M404.32,295.86s-25.21,27.71,12.74,49.22c10,5.13,17.32.64,11.44-6.24s-21.44-11.89-6.44-35C427.71,292.61,407,289.53,404.32,295.86Z"/><path class="cls-7" d="M280.59,206.47S317.41,232,366,259.38c18.25,10.27,48.78-22.44,26.3-38.53s-74-47.92-86-55.77S262.42,192.92,280.59,206.47Z"/><path class="cls-8" d="M417.06,248.05c.52,15.12-11.67,27.79-27.24,28.3s-28.6-11.34-29.13-26.46,11.68-27.79,27.24-28.3S416.53,232.93,417.06,248.05Z"/><path class="cls-7" d="M420.83,255.87a17.17,17.17,0,0,0-12.76-7.66,42.88,42.88,0,0,0-15.26,1.52c-15.9,4.27-14.74,20.13-13.09,25s5.68,24.74,33.28,37.14C447,327.15,439.29,283.81,420.83,255.87Z"/><path class="cls-9" d="M217.14,414.38s-83.5-46.57-84.29-47.34a3.21,3.21,0,0,1-.82-2.38L118.3,215.79a9.2,9.2,0,0,1,4.31-7.25l134.48-75.43a3.09,3.09,0,0,1,3.05-.29l83.66,47Z"/><path class="cls-10" d="M202.94,259.91,343.8,179.79l-83.66-47a3.09,3.09,0,0,0-3.05.29L122.61,208.54a8.84,8.84,0,0,0-3.34,3.76C170.62,244.13,202.94,259.91,202.94,259.91Z"/><path class="cls-11" d="M334,350.35l-113.75,63.8c-2.38,1.34-4.31.26-4.31-2.41L202.23,262.86a9.21,9.21,0,0,1,4.31-7.25L341,180.19c2.38-1.34,4.31-.26,4.31,2.41l-7,160.5A9.18,9.18,0,0,1,334,350.35Z"/><path class="cls-8" d="M254.42,121v74.47c0,3.93-2.68,7.85-8,10.85-10.68,6-28,6-38.7,0-5.33-3-8-6.92-8-10.85h0V136.88Z"/><path class="cls-12" d="M304.89,22.05,189.14,86.65c-20.27,11.37-30,30.76-33.58,57.49s2.28,33.08,9.93,48.12c6.53,1.1,14.29-.46,22.64-5.15l118.64-66.54c23-12.9,41.72-44.39,41.72-70.19V39C348.49,13.19,327.89,9.15,304.89,22.05Z"/><path class="cls-13" d="M340.27,15.12C329.91,7.73,225.1-20.76,131,27.3s28.87,162.48,28.87,162.48a12.39,12.39,0,0,0,4.43,2.25c-.89-2.25-1.67-4.53-2.38-6.83,0,0-17.26-64.82,24.12-88.14l67.87-38.24S300,24.87,320.13,22.94C326.81,21,350.63,22.51,340.27,15.12Z"/><path class="cls-14" d="M326,25.38c6.8,2.44,11.23,9.34,11.23,20V56.72c0,18.81-13.64,41.78-30.42,51.18L188.13,174.44c-13.54,7.6-24.91,3.93-28.84-7.63-.41,9.32,1.87,17.38,5,25.22,6.78,1.52,15,.06,23.87-4.92l118.64-66.54c23-12.9,41.72-44.39,41.72-70.19V39A39.39,39.39,0,0,0,346,24.61C339.32,23.85,332.64,23.44,326,25.38Z"/><path class="cls-7" d="M312.2,123.63,193.57,190.17c-23,12.9-41.72,2.4-41.72-23.4V155.39c0-25.8,18.71-57.29,41.72-70.19L312.2,18.66c23-12.9,41.72-2.41,41.72,23.39V53.43C353.92,79.23,335.21,110.72,312.2,123.63ZM193.57,97.87c-16.78,9.41-30.42,32.37-30.42,51.18v11.38c0,18.82,13.64,26.48,30.42,17.07L312.2,111c16.78-9.41,30.42-32.37,30.42-51.19V48.39c0-18.82-13.64-26.47-30.42-17.06Z"/><path class="cls-15" d="M215.27,130l-17.2,9.64c-1.74,1-3.15.19-3.15-1.76V123.79a6.7,6.7,0,0,1,3.15-5.29l17.2-9.65c1.73-1,3.14-.18,3.14,1.77v14A6.75,6.75,0,0,1,215.27,130Z"/><path class="cls-15" d="M296.84,84.22l-17.2,9.64c-1.74,1-3.15.19-3.15-1.76V78a6.7,6.7,0,0,1,3.15-5.29l17.2-9.65c1.73-1,3.14-.18,3.14,1.77v14A6.75,6.75,0,0,1,296.84,84.22Z"/><path class="cls-7" d="M124,274.46s-7.75,43.31-12,97.74c-1.61,20.43,42,33,47.14,6.32S171.45,293,173.51,279,128.66,252.68,124,274.46Z"/><path class="cls-8" d="M184.79,284a35.91,35.91,0,0,1-9.22,20.81c-7.67,8.44-62.51-15.24-61.69-23.91,1.88-20.09,16.21-38.42,36.89-36.59S186.67,263.91,184.79,284Z"/><path class="cls-8" d="M164.59,376.08c3.54,14.74-5.89,29.46-21.06,32.9s-30.33-5.73-33.86-20.47,5.9-29.46,21.06-32.89S161.06,361.35,164.59,376.08Z"/><path class="cls-6" d="M186.34,409.2s41.45-13.94,55.33,30.46c2.55,10.64-5.6,14.49-11.93,6.56s-7.53-25-39.36-16.89C175.41,431.64,178.06,410,186.34,409.2Z"/><path class="cls-6" d="M170.81,433s-.94,42.7,46.62,38.45c12.13-1.64,15-10.66,5-13.37s-26.67,2.66-30.94-29C188.09,414.73,168.45,425.27,170.81,433Z"/><path class="cls-7" d="M162.32,381.24s-9.33-7.32-23-.65-11.56,21.09-11.56,21.09,22.26,39.83,59.19,38.95S186.48,402.42,162.32,381.24Z"/></g></g></svg>