<svg xmlns="http://www.w3.org/2000/svg" xmlns:xlink="http://www.w3.org/1999/xlink" viewBox="0 0 398.44 401.29"><defs><style>.cls-1{isolation:isolate;}.cls-2{fill:#b0a69c;}.cls-3{fill:#362c33;}.cls-4{fill:#3b90c2;}.cls-5,.cls-9{opacity:0.2;}.cls-5,.cls-8{mix-blend-mode:soft-light;}.cls-6{fill:#ded9d2;}.cls-7{fill:url(#linear-gradient);}.cls-9{fill:#fff;}.cls-10{fill:#30212e;}.cls-11{fill:#27252e;}.cls-12{fill:#3a3843;}.cls-13{fill:#13120d;}.cls-14{fill:#2b2b2a;}.cls-15{fill:#40403d;}.cls-16{fill:#b3b3b0;}.cls-17{fill:#323232;}.cls-18{fill:#cc9500;}.cls-19{fill:#858062;}</style><linearGradient id="linear-gradient" x1="14.54" y1="334.5" x2="398.44" y2="334.5" gradientUnits="userSpaceOnUse"><stop offset="0.38" stop-color="#b5aca3"/><stop offset="0.42" stop-color="#cbc4ba"/></linearGradient></defs><title>Recurso 7</title><g class="cls-1"><g id="Capa_2" data-name="Capa 2"><g id="Ñëîé_1" data-name="Ñëîé 1"><path class="cls-2" d="M232.19,1.44l-1.61-.9c-1.53-.82-3.51-.73-5.67.46L8.73,119.88C3.91,122.53,0,129.65,0,135.77V303.12c0,3.35,1.17,5.71,3,6.73l1.45.78Z"/><path class="cls-2" d="M233.79,2.33l-1.6-.9c-1.53-.82-3.51-.73-5.68.46L10.34,120.77c-4.82,2.66-8.73,9.77-8.73,15.89V304c0,3.35,1.17,5.71,3,6.73l1.45.79Z"/><path class="cls-3" d="M3.21,304.91c0,6.12,3.91,8.93,8.73,6.28L228.12,192.31c4.82-2.65,8.73-9.77,8.73-15.89V9.07c0-6.12-3.91-8.94-8.73-6.29L11.94,121.67c-4.82,2.65-8.73,9.76-8.73,15.89Z"/><path d="M122.19,67.41A4.49,4.49,0,0,1,120,71c-1.19.66-2.15.13-2.15-1.18A4.48,4.48,0,0,1,120,66.23C121.22,65.57,122.19,66.1,122.19,67.41Z"/><polygon class="cls-4" points="11.06 294.02 229 174.16 229 14.75 11.06 134.61 11.06 294.02"/><polygon class="cls-5" points="165.25 37.36 87.98 269.38 119.01 252.31 196.27 20.3 165.25 37.36"/><polygon class="cls-5" points="132.41 55.42 55.15 287.43 67.93 280.4 145.19 48.39 132.41 55.42"/><path class="cls-6" d="M18.32,311.85c-4.57-2.51-5.06-6.31-1.11-8.49L235.65,183.23c3.95-2.17,10.86-1.9,15.43.61l143.58,79c4.57,2.51,5.06,6.3,1.11,8.48L177.33,391.49c-4,2.17-10.86,1.9-15.43-.61Z"/><path class="cls-7" d="M398.44,267.71c0,1.36-.89,2.67-2.67,3.65L177.33,391.49c-4,2.17-10.86,1.9-15.43-.61l-143.58-79c-2.49-1.37-3.77-3.13-3.78-4.79v8.32c0,1.67,1.28,3.43,3.78,4.8l143.58,79c4.57,2.51,11.48,2.78,15.43.61L395.77,279.7c1.79-1,2.67-2.31,2.67-3.69Z"/><path class="cls-8" d="M236.68,348.37a5.83,5.83,0,0,0,5,.2l75.92-41.75c1.29-.71,1.13-1.95-.36-2.76l-48.64-26.83a5.83,5.83,0,0,0-5-.2l-75.92,41.75c-1.29.71-1.13,2,.36,2.76Z"/><path class="cls-6" d="M317.27,305.78,268.63,279a5.83,5.83,0,0,0-5-.2L187.68,320.5a2.24,2.24,0,0,0-.5.37,3.06,3.06,0,0,0,.86.67l48.64,26.83a5.83,5.83,0,0,0,5,.2l75.92-41.75a2.24,2.24,0,0,0,.5-.37A3.06,3.06,0,0,0,317.27,305.78Z"/><path class="cls-9" d="M317.27,305.78,268.63,279a5.83,5.83,0,0,0-5-.2L187.68,320.5a2.24,2.24,0,0,0-.5.37,3.06,3.06,0,0,0,.86.67l48.64,26.83a5.83,5.83,0,0,0,5,.2l75.92-41.75a2.24,2.24,0,0,0,.5-.37A3.06,3.06,0,0,0,317.27,305.78Z"/><polygon class="cls-10" points="52.97 292.52 215.93 202.9 207.91 198.49 44.95 288.11 52.97 292.52"/><path class="cls-8" d="M318.58,236.65l-66.34-36.49c-2.61-1.43-6.56-1.59-8.82-.35L49.7,306.35c-2.26,1.24-2,3.41.63,4.85l66.35,36.48c2.61,1.44,6.55,1.59,8.81.35L319.21,241.49C321.47,240.25,321.19,238.08,318.58,236.65Z"/><path d="M117.72,343.94l-6.22-3.42c-1.23-.67-1.36-1.69-.3-2.28l9.86-5.42a4.8,4.8,0,0,1,4.14.17l6.22,3.42c1.22.67,1.36,1.69.29,2.27l-9.85,5.42A4.8,4.8,0,0,1,117.72,343.94Z"/><path d="M261.44,264.9l-6.22-3.42c-1.22-.67-1.36-1.69-.29-2.28l9.85-5.42a4.8,4.8,0,0,1,4.14.17l6.22,3.42c1.23.67,1.36,1.69.3,2.27l-9.86,5.42A4.76,4.76,0,0,1,261.44,264.9Z"/><path d="M133.1,335.48l-6.21-3.42c-1.23-.67-1.36-1.69-.3-2.28l6.63-3.65a4.82,4.82,0,0,1,4.15.17l6.21,3.42c1.23.67,1.36,1.69.3,2.27l-6.64,3.65A4.8,4.8,0,0,1,133.1,335.48Z"/><path d="M109.82,337.33a4.82,4.82,0,0,1-4.13,0l-6.52-3.59c-1.14-.63-1.14-1.65,0-2.27l21.73-12a4.75,4.75,0,0,1,4.13,0l6.53,3.58c1.14.63,1.14,1.65,0,2.28Z"/><path d="M97.64,330.63a4.75,4.75,0,0,1-4.13,0L87,327c-1.14-.62-1.14-1.64,0-2.27l15.62-8.59a4.82,4.82,0,0,1,4.13,0l6.52,3.59c1.14.63,1.14,1.65,0,2.27Z"/><path d="M85.47,323.93a4.77,4.77,0,0,1-4.14,0l-6.52-3.58c-1.14-.63-1.14-1.65,0-2.28l12.49-6.86a4.75,4.75,0,0,1,4.13,0L98,314.79c1.14.63,1.14,1.65,0,2.28Z"/><path d="M73.29,317.24a4.82,4.82,0,0,1-4.13,0l-6.53-3.59c-1.14-.63-1.14-1.65,0-2.27l6.56-3.61a4.75,4.75,0,0,1,4.13,0l6.53,3.59c1.14.62,1.14,1.64,0,2.27Z"/><path d="M61.21,310.59a4.75,4.75,0,0,1-4.13,0l-3.56-2c-1.14-.62-1.14-1.64,0-2.27l5.94-3.27a4.82,4.82,0,0,1,4.13,0l3.56,2c1.14.63,1.14,1.65,0,2.27Z"/><path d="M72.71,304.27a4.75,4.75,0,0,1-4.13,0l-3.56-2c-1.14-.63-1.14-1.64,0-2.27L71,296.77a4.75,4.75,0,0,1,4.13,0l3.56,2c1.14.62,1.14,1.64,0,2.27Z"/><path d="M84.21,298a4.82,4.82,0,0,1-4.13,0l-3.57-2c-1.13-.63-1.13-1.65,0-2.28l5.95-3.26a4.75,4.75,0,0,1,4.13,0l3.56,1.95c1.14.63,1.14,1.65,0,2.28Z"/><path d="M95.71,291.62a4.77,4.77,0,0,1-4.14,0l-3.56-2c-1.14-.62-1.14-1.64,0-2.27L94,284.12a4.82,4.82,0,0,1,4.13,0l3.56,2c1.14.63,1.14,1.65,0,2.27Z"/><path d="M107.21,285.3a4.84,4.84,0,0,1-4.14,0l-3.56-2c-1.14-.63-1.14-1.65,0-2.27l5.95-3.27a4.75,4.75,0,0,1,4.13,0l3.56,2c1.14.62,1.14,1.64,0,2.27Z"/><path d="M118.71,279a4.77,4.77,0,0,1-4.14,0L111,277c-1.14-.63-1.14-1.65,0-2.28l5.95-3.27a4.82,4.82,0,0,1,4.13,0l3.56,2c1.14.63,1.14,1.65,0,2.28Z"/><path d="M130.2,272.65a4.75,4.75,0,0,1-4.13,0l-3.56-2c-1.14-.62-1.14-1.64,0-2.27l6-3.27a4.75,4.75,0,0,1,4.13,0l3.56,2c1.14.63,1.14,1.64,0,2.27Z"/><path d="M141.7,266.33a4.82,4.82,0,0,1-4.13,0l-3.56-2c-1.14-.63-1.14-1.65,0-2.27l5.94-3.27a4.77,4.77,0,0,1,4.14,0l3.56,2c1.14.62,1.14,1.64,0,2.27Z"/><path d="M153.2,260a4.75,4.75,0,0,1-4.13,0l-3.56-2c-1.14-.62-1.14-1.64,0-2.27l5.94-3.27a4.84,4.84,0,0,1,4.14,0l3.56,2c1.14.63,1.14,1.65,0,2.27Z"/><path d="M164.7,253.68a4.75,4.75,0,0,1-4.13,0l-3.56-2c-1.14-.63-1.14-1.65,0-2.27l5.94-3.27a4.75,4.75,0,0,1,4.13,0l3.57,2c1.14.62,1.14,1.64,0,2.27Z"/><path d="M176.2,247.35a4.75,4.75,0,0,1-4.13,0l-3.56-1.95c-1.14-.63-1.14-1.65,0-2.28l5.94-3.26a4.75,4.75,0,0,1,4.13,0l3.57,1.95c1.13.63,1.13,1.65,0,2.28Z"/><path d="M187.7,241a4.75,4.75,0,0,1-4.13,0l-3.56-2c-1.14-.62-1.14-1.64,0-2.27l5.94-3.27a4.75,4.75,0,0,1,4.13,0l3.56,2c1.14.63,1.14,1.65,0,2.27Z"/><path d="M199.2,234.71a4.82,4.82,0,0,1-4.13,0l-3.56-2c-1.14-.63-1.14-1.65,0-2.27l5.94-3.27a4.75,4.75,0,0,1,4.13,0l3.56,2c1.14.62,1.14,1.64,0,2.27Z"/><path d="M210.7,228.38a4.75,4.75,0,0,1-4.13,0L203,226.43c-1.14-.63-1.14-1.65,0-2.28l5.94-3.27a4.82,4.82,0,0,1,4.13,0l3.56,2c1.14.63,1.14,1.65,0,2.27Z"/><path d="M222.2,222.06a4.75,4.75,0,0,1-4.13,0l-3.57-2c-1.13-.63-1.13-1.64,0-2.27l5.95-3.27a4.75,4.75,0,0,1,4.13,0l3.56,2c1.14.62,1.14,1.64,0,2.27Z"/><path d="M233.7,215.74a4.84,4.84,0,0,1-4.14,0l-3.56-2c-1.14-.63-1.14-1.65,0-2.28l5.95-3.26a4.75,4.75,0,0,1,4.13,0l3.56,1.95c1.14.63,1.14,1.65,0,2.28Z"/><path d="M245.2,209.41a4.77,4.77,0,0,1-4.14,0l-3.56-2c-1.14-.62-1.14-1.64,0-2.27l5.95-3.27a4.82,4.82,0,0,1,4.13,0l3.56,2c1.14.63,1.14,1.65,0,2.27Z"/><path d="M145.28,328.78l-6.22-3.42c-1.22-.67-1.36-1.69-.29-2.27l6.63-3.65a4.8,4.8,0,0,1,4.14.16l6.22,3.42c1.23.67,1.36,1.69.3,2.28L149.42,329A4.8,4.8,0,0,1,145.28,328.78Z"/><path d="M157.46,322.08l-6.22-3.41c-1.22-.68-1.36-1.7-.29-2.28l6.63-3.65a4.83,4.83,0,0,1,4.14.16l6.22,3.42c1.22.68,1.36,1.7.3,2.28l-6.64,3.65A4.8,4.8,0,0,1,157.46,322.08Z"/><path d="M133.1,322.08l-6.21-3.41c-1.23-.68-1.36-1.7-.3-2.28l6.63-3.65a4.85,4.85,0,0,1,4.15.16l6.21,3.42c1.23.68,1.36,1.7.3,2.28l-6.64,3.65A4.8,4.8,0,0,1,133.1,322.08Z"/><path d="M145.35,315.35l-6.22-3.42c-1.22-.67-1.36-1.69-.29-2.28l6.63-3.65a4.8,4.8,0,0,1,4.14.17l6.22,3.42c1.22.67,1.36,1.69.3,2.27l-6.64,3.65A4.8,4.8,0,0,1,145.35,315.35Z"/><path d="M157.59,308.61l-6.21-3.41c-1.23-.68-1.36-1.7-.3-2.28l6.64-3.65a4.83,4.83,0,0,1,4.14.16l6.21,3.42c1.23.68,1.36,1.7.3,2.28l-6.63,3.65A4.82,4.82,0,0,1,157.59,308.61Z"/><path d="M169.84,301.88l-6.21-3.42c-1.23-.67-1.36-1.69-.3-2.28l6.63-3.65a4.82,4.82,0,0,1,4.15.17l6.21,3.42c1.23.67,1.36,1.69.3,2.27L174,302A4.8,4.8,0,0,1,169.84,301.88Z"/><path d="M182.09,295.14l-6.22-3.41c-1.22-.68-1.36-1.7-.29-2.28l6.63-3.65a4.83,4.83,0,0,1,4.14.16l6.22,3.42c1.22.68,1.36,1.7.3,2.28l-6.64,3.65A4.8,4.8,0,0,1,182.09,295.14Z"/><path d="M194.33,288.41,188.12,285c-1.23-.67-1.36-1.69-.3-2.28l6.64-3.65a4.8,4.8,0,0,1,4.14.17l6.21,3.42c1.23.67,1.36,1.69.3,2.28l-6.63,3.64A4.82,4.82,0,0,1,194.33,288.41Z"/><path d="M206.58,281.68l-6.21-3.42c-1.23-.68-1.36-1.7-.3-2.28l6.63-3.65a4.85,4.85,0,0,1,4.15.16l6.21,3.42c1.23.68,1.36,1.7.3,2.28l-6.64,3.65A4.83,4.83,0,0,1,206.58,281.68Z"/><path d="M218.83,274.94l-6.22-3.42c-1.22-.67-1.36-1.69-.3-2.28l6.64-3.65a4.8,4.8,0,0,1,4.14.17l6.22,3.42c1.22.67,1.36,1.69.3,2.28L223,275.1A4.8,4.8,0,0,1,218.83,274.94Z"/><path d="M231.07,268.2l-6.21-3.41c-1.23-.68-1.36-1.7-.3-2.28l6.64-3.65a4.83,4.83,0,0,1,4.14.16l6.21,3.42c1.23.68,1.36,1.7.3,2.28l-6.63,3.65A4.82,4.82,0,0,1,231.07,268.2Z"/><path d="M243.32,261.47l-6.21-3.42c-1.23-.67-1.36-1.69-.3-2.28l6.63-3.64a4.78,4.78,0,0,1,4.15.16l6.21,3.42c1.23.67,1.36,1.69.3,2.28l-6.64,3.64A4.8,4.8,0,0,1,243.32,261.47Z"/><path d="M114.88,318.71l-6.22-3.42c-1.23-.67-1.36-1.69-.3-2.27l6.64-3.65a4.8,4.8,0,0,1,4.14.16l6.21,3.42c1.23.67,1.36,1.69.3,2.28L119,318.88A4.8,4.8,0,0,1,114.88,318.71Z"/><path d="M127.12,312l-6.21-3.42c-1.23-.67-1.36-1.69-.3-2.28l6.63-3.65a4.82,4.82,0,0,1,4.15.17l6.21,3.42c1.23.67,1.36,1.69.3,2.27l-6.64,3.65A4.8,4.8,0,0,1,127.12,312Z"/><path d="M139.37,305.24l-6.22-3.42c-1.22-.67-1.36-1.69-.3-2.27l6.64-3.65a4.8,4.8,0,0,1,4.14.16l6.22,3.42c1.22.67,1.36,1.69.3,2.28l-6.64,3.65A4.8,4.8,0,0,1,139.37,305.24Z"/><path d="M151.62,298.51l-6.22-3.42c-1.23-.67-1.36-1.69-.3-2.28l6.64-3.65a4.8,4.8,0,0,1,4.14.17l6.21,3.42c1.23.67,1.36,1.69.3,2.27l-6.63,3.65A4.8,4.8,0,0,1,151.62,298.51Z"/><path d="M163.86,291.77l-6.21-3.41c-1.23-.68-1.36-1.7-.3-2.28l6.63-3.65a4.82,4.82,0,0,1,4.15.16l6.21,3.42c1.23.67,1.36,1.7.3,2.28L168,291.94A4.8,4.8,0,0,1,163.86,291.77Z"/><path d="M176.11,285l-6.22-3.42c-1.22-.67-1.36-1.69-.3-2.28l6.64-3.65a4.8,4.8,0,0,1,4.14.17l6.22,3.42c1.22.67,1.36,1.69.3,2.27l-6.64,3.65A4.8,4.8,0,0,1,176.11,285Z"/><path d="M188.36,278.3l-6.22-3.41c-1.23-.68-1.36-1.7-.3-2.28l6.64-3.65a4.8,4.8,0,0,1,4.14.16l6.21,3.42c1.23.68,1.36,1.69.3,2.28l-6.63,3.65A4.8,4.8,0,0,1,188.36,278.3Z"/><path d="M200.6,271.57l-6.21-3.42c-1.23-.67-1.36-1.69-.3-2.28l6.63-3.65a4.82,4.82,0,0,1,4.15.17l6.21,3.42c1.23.67,1.36,1.69.3,2.27l-6.64,3.65A4.8,4.8,0,0,1,200.6,271.57Z"/><path d="M212.85,264.83l-6.22-3.41c-1.22-.68-1.36-1.7-.3-2.28l6.64-3.65a4.8,4.8,0,0,1,4.14.16l6.22,3.42c1.22.68,1.36,1.7.3,2.28L217,265A4.8,4.8,0,0,1,212.85,264.83Z"/><path d="M225.09,258.1l-6.21-3.42c-1.23-.67-1.36-1.69-.3-2.28l6.64-3.65a4.8,4.8,0,0,1,4.14.17l6.21,3.42c1.23.67,1.36,1.69.3,2.27l-6.63,3.65A4.82,4.82,0,0,1,225.09,258.1Z"/><path d="M237.34,251.36,231.13,248c-1.23-.68-1.36-1.7-.3-2.28l6.63-3.65a4.85,4.85,0,0,1,4.15.16l6.21,3.42c1.23.68,1.36,1.7.3,2.28l-6.64,3.65A4.8,4.8,0,0,1,237.34,251.36Z"/><path d="M169.64,315.39,163.42,312c-1.22-.68-1.36-1.7-.3-2.28l61.77-34a4.8,4.8,0,0,1,4.14.17l6.22,3.42c1.22.67,1.36,1.69.29,2.27l-61.76,34A4.83,4.83,0,0,1,169.64,315.39Z"/><path d="M237,278.34l-6.22-3.42c-1.22-.67-1.36-1.69-.29-2.27l6.63-3.65a4.8,4.8,0,0,1,4.14.16l6.22,3.42c1.22.67,1.36,1.69.3,2.28l-6.64,3.65A4.8,4.8,0,0,1,237,278.34Z"/><path d="M249.18,271.64,243,268.23c-1.22-.68-1.36-1.7-.3-2.28l6.64-3.65a4.83,4.83,0,0,1,4.14.16l6.22,3.42c1.22.68,1.36,1.7.29,2.28l-6.63,3.65A4.8,4.8,0,0,1,249.18,271.64Z"/><path d="M276.8,256.46,270.58,253c-1.22-.68-1.36-1.7-.3-2.28l6.64-3.65a4.83,4.83,0,0,1,4.14.16l6.22,3.42c1.22.68,1.36,1.7.29,2.28l-6.63,3.65A4.83,4.83,0,0,1,276.8,256.46Z"/><path d="M289.05,249.72l-6.22-3.42c-1.22-.67-1.36-1.69-.3-2.28l6.64-3.65a4.8,4.8,0,0,1,4.14.17l6.22,3.42c1.22.67,1.36,1.69.29,2.27l-6.63,3.65A4.8,4.8,0,0,1,289.05,249.72Z"/><path d="M301.3,243l-6.22-3.42c-1.22-.67-1.36-1.69-.29-2.28l6.63-3.64a4.8,4.8,0,0,1,4.14.16l6.22,3.42c1.22.67,1.36,1.69.3,2.28l-6.64,3.64A4.76,4.76,0,0,1,301.3,243Z"/><path d="M255.57,254.74l-6.22-3.42c-1.22-.68-1.36-1.7-.3-2.28l15.69-8.63a4.8,4.8,0,0,1,4.14.17L275.1,244c1.22.67,1.36,1.69.3,2.27l-15.69,8.63A4.83,4.83,0,0,1,255.57,254.74Z"/><path d="M276.87,243l-6.22-3.42c-1.22-.67-1.36-1.69-.29-2.28l6.63-3.64a4.8,4.8,0,0,1,4.14.16l6.22,3.42c1.23.67,1.36,1.69.3,2.28L281,243.18A4.76,4.76,0,0,1,276.87,243Z"/><path d="M253.87,244.71a4.75,4.75,0,0,1-4.13,0l-6.52-3.58c-1.14-.63-1.14-1.65,0-2.28l21.45-11.79a4.75,4.75,0,0,1,4.13,0l6.52,3.59c1.14.62,1.14,1.64,0,2.27Z"/><path d="M232.42,229.72a4.75,4.75,0,0,1-4.13,0l-6.52-3.59c-1.14-.62-1.14-1.64,0-2.27l18.54-10.2a4.82,4.82,0,0,1,4.13,0l6.53,3.59c1.14.63,1.14,1.65,0,2.27Z"/><path d="M250.85,233a4.75,4.75,0,0,1-4.13,0l-6.52-3.59c-1.14-.62-1.14-1.64,0-2.27l12.29-6.76a4.75,4.75,0,0,1,4.13,0l6.53,3.59c1.14.62,1.14,1.64,0,2.27Z"/><path d="M289.12,236.28l-6.22-3.41c-1.22-.68-1.35-1.7-.29-2.28l6.63-3.65a4.8,4.8,0,0,1,4.14.16l6.22,3.42c1.23.67,1.36,1.69.3,2.28l-6.64,3.65A4.8,4.8,0,0,1,289.12,236.28Z"/><path d="M276.94,229.59l-6.21-3.42c-1.23-.68-1.36-1.7-.3-2.28l6.63-3.65a4.85,4.85,0,0,1,4.15.16l6.21,3.42c1.23.68,1.36,1.7.3,2.28l-6.64,3.65A4.83,4.83,0,0,1,276.94,229.59Z"/><path d="M264.76,222.89l-6.21-3.42c-1.23-.67-1.36-1.69-.3-2.28l6.63-3.65a4.82,4.82,0,0,1,4.15.17l6.21,3.42c1.23.67,1.36,1.69.3,2.27l-6.63,3.65A4.82,4.82,0,0,1,264.76,222.89Z"/><path d="M252.59,216.19l-6.22-3.42c-1.23-.67-1.36-1.69-.3-2.28l6.64-3.64a4.8,4.8,0,0,1,4.14.16l6.21,3.42c1.23.67,1.36,1.69.3,2.28l-6.63,3.65A4.8,4.8,0,0,1,252.59,216.19Z"/><path d="M99.57,313.74l-6.22-3.42c-1.23-.68-1.36-1.7-.3-2.28l6.64-3.65a4.8,4.8,0,0,1,4.14.17l6.22,3.41c1.22.68,1.35,1.7.29,2.28l-6.63,3.65A4.83,4.83,0,0,1,99.57,313.74Z"/><path d="M111.81,307l-6.21-3.42c-1.23-.67-1.36-1.69-.3-2.27l6.63-3.65a4.82,4.82,0,0,1,4.15.16l6.21,3.42c1.23.67,1.36,1.69.3,2.28L116,307.17A4.82,4.82,0,0,1,111.81,307Z"/><path d="M124.06,300.27l-6.22-3.42c-1.22-.67-1.36-1.69-.29-2.28l6.63-3.65a4.8,4.8,0,0,1,4.14.17l6.22,3.41c1.22.68,1.36,1.7.3,2.28l-6.64,3.65A4.8,4.8,0,0,1,124.06,300.27Z"/><path d="M136.31,293.53l-6.22-3.42c-1.23-.67-1.36-1.69-.3-2.27l6.64-3.65a4.8,4.8,0,0,1,4.14.16l6.22,3.42c1.22.67,1.35,1.69.29,2.28l-6.63,3.65A4.8,4.8,0,0,1,136.31,293.53Z"/><path d="M148.55,286.8l-6.21-3.42c-1.23-.67-1.36-1.69-.3-2.28l6.63-3.65a4.82,4.82,0,0,1,4.15.17L159,281c1.23.68,1.36,1.7.3,2.28L152.7,287A4.82,4.82,0,0,1,148.55,286.8Z"/><path d="M160.8,280.06l-6.22-3.42c-1.22-.67-1.36-1.69-.29-2.27l6.63-3.65a4.8,4.8,0,0,1,4.14.16l6.22,3.42c1.22.67,1.36,1.69.3,2.28l-6.64,3.65A4.8,4.8,0,0,1,160.8,280.06Z"/><path d="M173.05,273.33l-6.22-3.42c-1.23-.67-1.36-1.69-.3-2.28l6.64-3.65a4.8,4.8,0,0,1,4.14.17l6.22,3.41c1.22.68,1.35,1.7.29,2.28l-6.63,3.65A4.8,4.8,0,0,1,173.05,273.33Z"/><path d="M185.29,266.59l-6.21-3.42c-1.23-.67-1.36-1.69-.3-2.27l6.63-3.65a4.82,4.82,0,0,1,4.15.16l6.21,3.42c1.23.67,1.36,1.69.3,2.28l-6.63,3.65A4.82,4.82,0,0,1,185.29,266.59Z"/><path d="M197.54,259.86l-6.22-3.42c-1.22-.67-1.36-1.69-.29-2.28l6.63-3.65a4.8,4.8,0,0,1,4.14.17L208,254.1c1.22.67,1.36,1.69.3,2.27L201.68,260A4.8,4.8,0,0,1,197.54,259.86Z"/><path d="M209.79,253.12l-6.22-3.42c-1.23-.67-1.36-1.69-.3-2.27l6.64-3.65a4.8,4.8,0,0,1,4.14.16l6.22,3.42c1.22.67,1.35,1.69.29,2.28l-6.63,3.65A4.8,4.8,0,0,1,209.79,253.12Z"/><path d="M222,246.39,215.82,243c-1.23-.67-1.36-1.69-.3-2.28l6.63-3.65a4.82,4.82,0,0,1,4.15.17l6.21,3.42c1.23.67,1.36,1.69.3,2.27l-6.63,3.65A4.82,4.82,0,0,1,222,246.39Z"/><path d="M81.47,310.3l-6.22-3.42c-1.22-.68-1.36-1.7-.3-2.28L81.59,301a4.83,4.83,0,0,1,4.14.16L92,304.53c1.22.68,1.36,1.7.29,2.28l-6.63,3.65A4.83,4.83,0,0,1,81.47,310.3Z"/><path d="M93.71,303.56l-6.21-3.42c-1.23-.67-1.36-1.69-.3-2.28l6.64-3.64a4.76,4.76,0,0,1,4.14.16l6.21,3.42c1.23.67,1.36,1.69.3,2.28l-6.63,3.64A4.82,4.82,0,0,1,93.71,303.56Z"/><path d="M106,296.83l-6.21-3.42c-1.23-.68-1.36-1.7-.3-2.28l6.63-3.65a4.83,4.83,0,0,1,4.14.16l6.22,3.42c1.23.68,1.36,1.7.3,2.28L110.1,297A4.83,4.83,0,0,1,106,296.83Z"/><path d="M118.21,290.09,112,286.67c-1.22-.67-1.36-1.69-.3-2.28l6.64-3.64a4.76,4.76,0,0,1,4.14.16l6.22,3.42c1.22.67,1.36,1.69.29,2.28l-6.63,3.64A4.76,4.76,0,0,1,118.21,290.09Z"/><path d="M130.45,283.36l-6.21-3.42c-1.23-.68-1.36-1.7-.3-2.28l6.64-3.65a4.83,4.83,0,0,1,4.14.16l6.21,3.42c1.23.68,1.36,1.7.3,2.28l-6.63,3.65A4.85,4.85,0,0,1,130.45,283.36Z"/><path d="M142.7,276.62l-6.21-3.42c-1.23-.67-1.36-1.69-.3-2.28l6.63-3.64a4.8,4.8,0,0,1,4.14.16l6.22,3.42c1.23.67,1.36,1.69.3,2.28l-6.64,3.64A4.76,4.76,0,0,1,142.7,276.62Z"/><path d="M155,269.89l-6.22-3.42c-1.22-.68-1.36-1.7-.3-2.28l6.64-3.65a4.83,4.83,0,0,1,4.14.16l6.22,3.42c1.22.68,1.36,1.7.29,2.28l-6.63,3.65A4.83,4.83,0,0,1,155,269.89Z"/><path d="M167.19,263.15,161,259.73c-1.23-.67-1.36-1.69-.3-2.28l6.64-3.64a4.8,4.8,0,0,1,4.14.16l6.21,3.42c1.23.67,1.36,1.69.3,2.28l-6.63,3.64A4.78,4.78,0,0,1,167.19,263.15Z"/><path d="M179.44,256.42,173.23,253c-1.23-.68-1.36-1.7-.3-2.28l6.63-3.65a4.83,4.83,0,0,1,4.14.16l6.22,3.42c1.23.68,1.36,1.7.3,2.28l-6.64,3.65A4.83,4.83,0,0,1,179.44,256.42Z"/><path d="M191.69,249.68l-6.22-3.42c-1.22-.67-1.36-1.69-.3-2.28l6.64-3.64a4.8,4.8,0,0,1,4.14.16l6.22,3.42c1.22.67,1.36,1.69.29,2.28l-6.63,3.64A4.76,4.76,0,0,1,191.69,249.68Z"/><path d="M203.93,243l-6.21-3.42c-1.23-.68-1.36-1.7-.3-2.28l6.64-3.65a4.8,4.8,0,0,1,4.14.17l6.21,3.41c1.23.68,1.36,1.7.3,2.28l-6.63,3.65A4.85,4.85,0,0,1,203.93,243Z"/><path d="M216,236.32l-6.22-3.41c-1.22-.68-1.36-1.7-.3-2.28L216.1,227a4.8,4.8,0,0,1,4.14.16l6.22,3.42c1.22.67,1.36,1.69.29,2.28l-6.63,3.65A4.8,4.8,0,0,1,216,236.32Z"/><path d="M234.3,239.64l-6.22-3.42c-1.22-.67-1.36-1.69-.29-2.27l6.63-3.65a4.8,4.8,0,0,1,4.14.16l6.22,3.42c1.23.67,1.36,1.69.3,2.28l-6.64,3.65A4.8,4.8,0,0,1,234.3,239.64Z"/><path class="cls-11" d="M131.13,338.41l-9.78,5.37a3.53,3.53,0,0,1-3-.12L112,340.2c-.9-.5-1-1.25-.22-1.68l9.78-5.38a3.58,3.58,0,0,1,3.06.12l6.29,3.47C131.82,337.22,131.91,338,131.13,338.41Z"/><path class="cls-11" d="M274.86,259.37l-9.78,5.38a3.55,3.55,0,0,1-3.06-.13l-6.29-3.46c-.91-.5-1-1.25-.22-1.68l9.78-5.38a3.56,3.56,0,0,1,3,.12l6.3,3.47C275.54,258.18,275.64,258.94,274.86,259.37Z"/><path class="cls-11" d="M143.3,331.72l-6.56,3.6a3.53,3.53,0,0,1-3.05-.12l-6.3-3.46c-.9-.5-1-1.25-.22-1.68l6.56-3.61a3.56,3.56,0,0,1,3.05.12l6.3,3.47C144,330.53,144.08,331.29,143.3,331.72Z"/><path class="cls-11" d="M121.44,319.81l-21.73,12c-.84.46-.84,1.21,0,1.67l6.52,3.59a3.54,3.54,0,0,0,3,0L131,325.08c.84-.47.84-1.22,0-1.68l-6.52-3.59A3.54,3.54,0,0,0,121.44,319.81Z"/><path class="cls-11" d="M103.15,316.48l-15.62,8.59c-.84.46-.84,1.21,0,1.67l6.53,3.59a3.52,3.52,0,0,0,3,0l15.62-8.59c.84-.46.84-1.21,0-1.67l-6.53-3.59A3.52,3.52,0,0,0,103.15,316.48Z"/><path class="cls-11" d="M87.84,311.51l-12.49,6.86c-.84.46-.84,1.21,0,1.68l6.53,3.58a3.45,3.45,0,0,0,3,0l12.49-6.86c.84-.46.84-1.21,0-1.68l-6.53-3.58A3.45,3.45,0,0,0,87.84,311.51Z"/><path class="cls-11" d="M69.74,308.07l-6.56,3.6c-.85.47-.85,1.22,0,1.68l6.52,3.59a3.52,3.52,0,0,0,3,0l6.56-3.61c.85-.46.85-1.21,0-1.68l-6.52-3.58A3.45,3.45,0,0,0,69.74,308.07Z"/><path class="cls-11" d="M60,303.39l-5.94,3.27c-.84.46-.84,1.21,0,1.68l3.56,2a3.47,3.47,0,0,0,3.05,0L66.61,307c.84-.47.84-1.22,0-1.68l-3.56-2A3.54,3.54,0,0,0,60,303.39Z"/><path class="cls-11" d="M71.5,297.07l-5.94,3.27c-.84.46-.84,1.21,0,1.67l3.56,2a3.52,3.52,0,0,0,3,0l6-3.27c.84-.46.84-1.21,0-1.67l-3.56-2A3.54,3.54,0,0,0,71.5,297.07Z"/><path class="cls-11" d="M83,290.74,77.06,294c-.84.47-.84,1.22,0,1.68l3.56,2a3.52,3.52,0,0,0,3,0l6-3.27c.84-.46.84-1.21,0-1.68l-3.56-2A3.54,3.54,0,0,0,83,290.74Z"/><path class="cls-11" d="M94.5,284.42l-5.94,3.27c-.84.46-.84,1.21,0,1.67l3.56,2a3.45,3.45,0,0,0,3,0l6-3.27c.84-.46.84-1.21,0-1.67l-3.56-2A3.54,3.54,0,0,0,94.5,284.42Z"/><path class="cls-11" d="M106,278.1l-5.94,3.27c-.84.46-.84,1.21,0,1.67l3.56,2a3.52,3.52,0,0,0,3,0l6-3.27c.84-.46.84-1.21,0-1.67l-3.56-2A3.47,3.47,0,0,0,106,278.1Z"/><path class="cls-11" d="M117.5,271.77,111.56,275c-.85.46-.85,1.21,0,1.68l3.56,2a3.52,3.52,0,0,0,3,0l6-3.27c.84-.47.84-1.22,0-1.68l-3.57-2A3.52,3.52,0,0,0,117.5,271.77Z"/><path class="cls-11" d="M129,265.45l-6,3.27c-.84.46-.84,1.21,0,1.67l3.57,2a3.52,3.52,0,0,0,3,0l5.94-3.27c.85-.46.85-1.21,0-1.67l-3.56-2A3.52,3.52,0,0,0,129,265.45Z"/><path class="cls-11" d="M140.5,259.13l-5.95,3.26c-.84.47-.84,1.22,0,1.68l3.57,2a3.52,3.52,0,0,0,3,0l5.94-3.27c.84-.46.84-1.21,0-1.68l-3.56-1.95A3.45,3.45,0,0,0,140.5,259.13Z"/><path class="cls-11" d="M152,252.8l-5.95,3.27c-.84.46-.84,1.21,0,1.68l3.56,1.95a3.48,3.48,0,0,0,3,0l5.94-3.27c.84-.46.84-1.21,0-1.67l-3.56-2A3.52,3.52,0,0,0,152,252.8Z"/><path class="cls-11" d="M163.5,246.48l-5.95,3.27c-.84.46-.84,1.21,0,1.67l3.56,2a3.54,3.54,0,0,0,3,0l5.94-3.27c.84-.46.84-1.21,0-1.67l-3.56-2A3.52,3.52,0,0,0,163.5,246.48Z"/><path class="cls-11" d="M175,240.15l-5.95,3.27c-.84.47-.84,1.21,0,1.68l3.56,2a3.54,3.54,0,0,0,3,0l5.94-3.27c.84-.47.84-1.22,0-1.68l-3.56-2A3.52,3.52,0,0,0,175,240.15Z"/><path class="cls-11" d="M186.5,233.83l-5.95,3.27c-.84.46-.84,1.21,0,1.67l3.56,2a3.54,3.54,0,0,0,3,0l5.94-3.27c.84-.46.84-1.21,0-1.67l-3.56-2A3.52,3.52,0,0,0,186.5,233.83Z"/><path class="cls-11" d="M198,227.51l-5.94,3.27c-.84.46-.84,1.21,0,1.67l3.56,2a3.54,3.54,0,0,0,3,0l5.94-3.27c.84-.46.84-1.21,0-1.68l-3.56-2A3.48,3.48,0,0,0,198,227.51Z"/><path class="cls-11" d="M209.49,221.18l-5.94,3.27c-.84.46-.84,1.21,0,1.68l3.56,2a3.45,3.45,0,0,0,3,0l5.95-3.26c.84-.47.84-1.22,0-1.68l-3.56-2A3.54,3.54,0,0,0,209.49,221.18Z"/><path class="cls-11" d="M221,214.86l-5.94,3.27c-.84.46-.84,1.21,0,1.67l3.56,2a3.52,3.52,0,0,0,3,0l5.95-3.27c.84-.46.84-1.21,0-1.67l-3.56-2A3.54,3.54,0,0,0,221,214.86Z"/><path class="cls-11" d="M232.49,208.54l-5.94,3.26c-.84.47-.84,1.22,0,1.68l3.56,2a3.52,3.52,0,0,0,3,0l5.95-3.27c.84-.46.84-1.21,0-1.68l-3.56-2A3.48,3.48,0,0,0,232.49,208.54Z"/><path class="cls-11" d="M244,202.21l-5.94,3.27c-.84.46-.84,1.21,0,1.67l3.56,2a3.45,3.45,0,0,0,3,0l5.95-3.27c.84-.46.84-1.21,0-1.67l-3.56-2A3.54,3.54,0,0,0,244,202.21Z"/><path class="cls-11" d="M155.48,325l-6.56,3.61a3.55,3.55,0,0,1-3.06-.13L139.57,325c-.91-.49-1-1.25-.22-1.68l6.56-3.6a3.53,3.53,0,0,1,3.05.12l6.3,3.46C156.16,323.84,156.26,324.59,155.48,325Z"/><path class="cls-11" d="M167.65,318.32l-6.55,3.61a3.58,3.58,0,0,1-3.06-.12l-6.29-3.47c-.91-.49-1-1.24-.22-1.67l6.56-3.61a3.53,3.53,0,0,1,3,.12l6.3,3.46C168.34,317.14,168.44,317.89,167.65,318.32Z"/><path class="cls-11" d="M143.3,318.32l-6.56,3.61a3.56,3.56,0,0,1-3.05-.12l-6.3-3.47c-.9-.49-1-1.24-.22-1.67l6.56-3.61a3.53,3.53,0,0,1,3.05.12l6.3,3.46C144,317.14,144.08,317.89,143.3,318.32Z"/><path class="cls-11" d="M155.54,311.59l-6.56,3.6a3.53,3.53,0,0,1-3-.12l-6.29-3.46c-.91-.5-1-1.25-.22-1.68l6.56-3.61a3.56,3.56,0,0,1,3.05.12l6.29,3.47C156.23,310.4,156.33,311.16,155.54,311.59Z"/><path class="cls-11" d="M167.79,304.85l-6.56,3.61a3.56,3.56,0,0,1-3-.12l-6.3-3.47c-.9-.49-1-1.24-.22-1.67l6.56-3.61a3.53,3.53,0,0,1,3.05.12l6.3,3.46C168.47,303.67,168.57,304.42,167.79,304.85Z"/><path class="cls-11" d="M180,298.12l-6.56,3.6a3.53,3.53,0,0,1-3-.12l-6.3-3.46c-.9-.5-1-1.25-.22-1.68l6.56-3.61a3.56,3.56,0,0,1,3.05.12l6.3,3.47C180.72,296.93,180.82,297.69,180,298.12Z"/><path class="cls-11" d="M192.28,291.38,185.72,295a3.56,3.56,0,0,1-3.05-.12l-6.29-3.47c-.91-.49-1-1.24-.22-1.67l6.56-3.61a3.53,3.53,0,0,1,3.05.12l6.29,3.46C193,290.2,193.07,291,192.28,291.38Z"/><path class="cls-11" d="M204.53,284.65l-6.56,3.6a3.53,3.53,0,0,1-3.05-.12l-6.3-3.46c-.9-.5-1-1.25-.22-1.68l6.56-3.61a3.56,3.56,0,0,1,3,.12l6.3,3.47C205.21,283.46,205.31,284.22,204.53,284.65Z"/><path class="cls-11" d="M216.78,277.91l-6.56,3.61a3.53,3.53,0,0,1-3.05-.12l-6.3-3.46c-.9-.5-1-1.25-.22-1.68l6.56-3.61a3.53,3.53,0,0,1,3,.12l6.3,3.46C217.46,276.73,217.56,277.48,216.78,277.91Z"/><path class="cls-11" d="M229,271.18l-6.56,3.6a3.53,3.53,0,0,1-3.05-.12l-6.29-3.46c-.91-.5-1-1.25-.22-1.68l6.56-3.61a3.53,3.53,0,0,1,3,.13l6.29,3.46C229.71,270,229.81,270.75,229,271.18Z"/><path class="cls-11" d="M241.27,264.44l-6.56,3.61a3.53,3.53,0,0,1-3.05-.12l-6.3-3.46c-.9-.5-1-1.25-.22-1.68l6.56-3.61a3.53,3.53,0,0,1,3.05.12l6.3,3.46C242,263.26,242.05,264,241.27,264.44Z"/><path class="cls-11" d="M253.52,257.71l-6.56,3.6a3.53,3.53,0,0,1-3.05-.12l-6.3-3.46c-.9-.5-1-1.25-.22-1.68l6.56-3.61a3.53,3.53,0,0,1,3.05.13l6.3,3.46C254.2,256.53,254.3,257.28,253.52,257.71Z"/><path class="cls-11" d="M125.07,315l-6.56,3.61a3.56,3.56,0,0,1-3.05-.12l-6.3-3.47c-.9-.49-1-1.24-.22-1.68l6.56-3.6a3.53,3.53,0,0,1,3,.12l6.3,3.46C125.75,313.77,125.85,314.52,125.07,315Z"/><path class="cls-11" d="M137.32,308.22l-6.56,3.6a3.53,3.53,0,0,1-3-.12l-6.3-3.46c-.9-.5-1-1.25-.22-1.68l6.56-3.61a3.56,3.56,0,0,1,3.05.12l6.3,3.47C138,307,138.1,307.78,137.32,308.22Z"/><path class="cls-11" d="M149.56,301.48,143,305.09A3.58,3.58,0,0,1,140,305l-6.29-3.47c-.91-.49-1-1.24-.22-1.68l6.55-3.6a3.55,3.55,0,0,1,3.06.12l6.29,3.46C150.25,300.3,150.35,301.05,149.56,301.48Z"/><path class="cls-11" d="M161.81,294.75l-6.56,3.6a3.53,3.53,0,0,1-3.05-.12l-6.3-3.46c-.9-.5-1-1.25-.22-1.68l6.56-3.61a3.56,3.56,0,0,1,3,.12l6.3,3.47C162.49,293.56,162.59,294.32,161.81,294.75Z"/><path class="cls-11" d="M174.06,288l-6.56,3.61a3.56,3.56,0,0,1-3.05-.12l-6.3-3.47c-.9-.49-1-1.24-.22-1.67l6.56-3.61a3.53,3.53,0,0,1,3,.12l6.3,3.46C174.74,286.83,174.84,287.58,174.06,288Z"/><path class="cls-11" d="M186.3,281.28l-6.55,3.6a3.55,3.55,0,0,1-3.06-.12l-6.29-3.46c-.91-.5-1-1.25-.22-1.68l6.55-3.61a3.58,3.58,0,0,1,3.06.12l6.29,3.47C187,280.09,187.09,280.85,186.3,281.28Z"/><path class="cls-11" d="M198.55,274.54,192,278.15a3.56,3.56,0,0,1-3.05-.12l-6.3-3.47c-.9-.49-1-1.24-.22-1.67l6.56-3.61a3.53,3.53,0,0,1,3.05.12l6.3,3.46C199.23,273.36,199.33,274.11,198.55,274.54Z"/><path class="cls-11" d="M210.8,267.81l-6.56,3.6a3.53,3.53,0,0,1-3.05-.12l-6.3-3.46c-.9-.5-1-1.25-.22-1.68l6.56-3.61a3.56,3.56,0,0,1,3.05.12l6.3,3.47C211.48,266.62,211.58,267.38,210.8,267.81Z"/><path class="cls-11" d="M223,261.07l-6.56,3.61a3.56,3.56,0,0,1-3-.12l-6.29-3.47c-.91-.49-1-1.24-.22-1.67l6.55-3.61a3.55,3.55,0,0,1,3.06.12l6.29,3.46C223.73,259.89,223.83,260.64,223,261.07Z"/><path class="cls-11" d="M235.29,254.34l-6.56,3.6a3.53,3.53,0,0,1-3-.12l-6.3-3.46c-.9-.5-1-1.25-.22-1.68l6.56-3.61a3.56,3.56,0,0,1,3.05.12l6.3,3.47C236,253.15,236.07,253.91,235.29,254.34Z"/><path class="cls-11" d="M247.54,247.6,241,251.21a3.56,3.56,0,0,1-3-.12l-6.3-3.47c-.9-.49-1-1.24-.22-1.67l6.56-3.61a3.53,3.53,0,0,1,3.05.12l6.3,3.46C248.22,246.42,248.32,247.17,247.54,247.6Z"/><path class="cls-11" d="M235,281.31l-61.69,33.92a3.53,3.53,0,0,1-3.05-.12l-6.3-3.46c-.9-.5-1-1.25-.21-1.68L225.39,276a3.58,3.58,0,0,1,3.06.12l6.29,3.47C235.65,280.12,235.74,280.88,235,281.31Z"/><path class="cls-11" d="M247.19,274.58l-6.55,3.61a3.58,3.58,0,0,1-3.06-.12l-6.29-3.47c-.91-.49-1-1.25-.22-1.68l6.56-3.6a3.53,3.53,0,0,1,3.05.12l6.3,3.46C247.88,273.4,248,274.15,247.19,274.58Z"/><path class="cls-11" d="M259.37,267.88l-6.56,3.61a3.56,3.56,0,0,1-3.05-.12l-6.29-3.47c-.91-.49-1-1.24-.22-1.67l6.55-3.61a3.55,3.55,0,0,1,3.06.12l6.29,3.46C260.06,266.7,260.16,267.45,259.37,267.88Z"/><path class="cls-11" d="M287,252.69l-6.56,3.61a3.53,3.53,0,0,1-3.05-.12l-6.3-3.46c-.9-.5-1-1.25-.22-1.68l6.56-3.61a3.55,3.55,0,0,1,3.06.12l6.29,3.46C287.68,251.51,287.77,252.26,287,252.69Z"/><path class="cls-11" d="M299.24,246l-6.56,3.6a3.53,3.53,0,0,1-3.05-.12L283.34,246c-.91-.5-1-1.25-.22-1.68l6.55-3.61a3.58,3.58,0,0,1,3.06.12l6.29,3.47C299.93,244.77,300,245.53,299.24,246Z"/><path class="cls-11" d="M311.49,239.22l-6.55,3.6a3.55,3.55,0,0,1-3.06-.12l-6.29-3.46c-.91-.5-1-1.25-.22-1.68l6.56-3.6a3.53,3.53,0,0,1,3.05.12l6.3,3.46C312.18,238,312.28,238.79,311.49,239.22Z"/><path class="cls-11" d="M274.81,246l-15.61,8.59a3.53,3.53,0,0,1-3.05-.12L249.86,251c-.91-.5-1-1.25-.22-1.68l15.61-8.59a3.56,3.56,0,0,1,3.05.12l6.3,3.47C275.5,244.81,275.6,245.56,274.81,246Z"/><path class="cls-11" d="M287.07,239.26l-6.56,3.6a3.52,3.52,0,0,1-3.06-.12l-6.29-3.46c-.91-.5-1-1.25-.22-1.68l6.56-3.6a3.53,3.53,0,0,1,3.05.12l6.3,3.46C287.75,238.08,287.85,238.83,287.07,239.26Z"/><path class="cls-11" d="M265.21,227.36l-21.45,11.79c-.84.47-.84,1.21,0,1.68l6.53,3.59a3.52,3.52,0,0,0,3,0l21.45-11.8c.84-.46.84-1.21,0-1.68l-6.52-3.58A3.48,3.48,0,0,0,265.21,227.36Z"/><path class="cls-11" d="M240.86,214l-18.55,10.2c-.84.46-.84,1.21,0,1.67l6.53,3.59a3.52,3.52,0,0,0,3,0l18.54-10.2c.85-.46.85-1.21,0-1.67L243.9,214A3.52,3.52,0,0,0,240.86,214Z"/><path class="cls-11" d="M253,220.66l-12.29,6.76c-.84.46-.84,1.21,0,1.67l6.53,3.59a3.52,3.52,0,0,0,3,0l12.29-6.76c.84-.46.84-1.21,0-1.67l-6.52-3.59A3.54,3.54,0,0,0,253,220.66Z"/><path class="cls-11" d="M299.32,232.52l-6.56,3.61a3.58,3.58,0,0,1-3.06-.12l-6.29-3.47c-.91-.49-1-1.24-.22-1.68l6.56-3.6a3.53,3.53,0,0,1,3.05.12l6.3,3.46C300,231.34,300.1,232.09,299.32,232.52Z"/><path class="cls-11" d="M287.14,225.82l-6.56,3.61a3.53,3.53,0,0,1-3.05-.12l-6.3-3.46c-.9-.5-1-1.25-.22-1.68l6.56-3.61a3.53,3.53,0,0,1,3.05.12l6.3,3.46C287.82,224.64,287.92,225.39,287.14,225.82Z"/><path class="cls-11" d="M275,219.13l-6.56,3.6a3.53,3.53,0,0,1-3-.12l-6.3-3.46c-.9-.5-1-1.25-.22-1.68l6.56-3.61a3.56,3.56,0,0,1,3.05.12l6.3,3.47C275.64,217.94,275.74,218.7,275,219.13Z"/><path class="cls-11" d="M262.78,212.43,256.22,216a3.53,3.53,0,0,1-3.05-.13l-6.3-3.46c-.9-.5-1-1.25-.22-1.68l6.56-3.6a3.53,3.53,0,0,1,3,.12l6.3,3.46C263.47,211.25,263.56,212,262.78,212.43Z"/><path class="cls-11" d="M109.76,310l-6.56,3.61a3.53,3.53,0,0,1-3-.12L93.85,310c-.9-.5-1-1.25-.22-1.68l6.56-3.61a3.59,3.59,0,0,1,3.06.12l6.29,3.47C110.45,308.79,110.54,309.54,109.76,310Z"/><path class="cls-11" d="M122,303.24l-6.56,3.61a3.56,3.56,0,0,1-3-.12l-6.3-3.47c-.9-.49-1-1.25-.22-1.68l6.56-3.6a3.53,3.53,0,0,1,3,.12l6.3,3.46C122.69,302.06,122.79,302.81,122,303.24Z"/><path class="cls-11" d="M134.25,296.5l-6.55,3.61a3.55,3.55,0,0,1-3.06-.12l-6.29-3.46c-.91-.5-1-1.25-.22-1.68l6.56-3.61a3.56,3.56,0,0,1,3,.12l6.3,3.47C134.94,295.32,135,296.07,134.25,296.5Z"/><path class="cls-11" d="M146.5,289.77l-6.56,3.61a3.56,3.56,0,0,1-3.05-.12l-6.3-3.47c-.9-.49-1-1.25-.22-1.68l6.56-3.6a3.55,3.55,0,0,1,3.06.12l6.29,3.46C147.19,288.59,147.28,289.34,146.5,289.77Z"/><path class="cls-11" d="M158.75,283l-6.56,3.61a3.53,3.53,0,0,1-3.05-.12l-6.3-3.46c-.9-.5-1-1.25-.22-1.68l6.56-3.61a3.56,3.56,0,0,1,3,.12l6.3,3.47C159.43,281.85,159.53,282.6,158.75,283Z"/><path class="cls-11" d="M171,276.3l-6.55,3.61a3.58,3.58,0,0,1-3.06-.12l-6.29-3.47c-.91-.49-1-1.25-.22-1.68l6.56-3.6a3.53,3.53,0,0,1,3,.12l6.3,3.46C171.68,275.12,171.78,275.87,171,276.3Z"/><path class="cls-11" d="M183.24,269.56l-6.56,3.61a3.53,3.53,0,0,1-3.05-.12l-6.3-3.46c-.9-.5-1-1.25-.22-1.68l6.56-3.61a3.59,3.59,0,0,1,3.06.12l6.29,3.47C183.93,268.38,184,269.13,183.24,269.56Z"/><path class="cls-11" d="M195.49,262.83l-6.56,3.61a3.56,3.56,0,0,1-3.05-.12l-6.3-3.47c-.9-.49-1-1.25-.22-1.68l6.56-3.6a3.53,3.53,0,0,1,3.05.12l6.3,3.46C196.17,261.65,196.27,262.4,195.49,262.83Z"/><path class="cls-11" d="M207.73,256.1l-6.55,3.6a3.55,3.55,0,0,1-3.06-.12l-6.29-3.46c-.91-.5-1-1.25-.22-1.68l6.56-3.61a3.56,3.56,0,0,1,3.05.12l6.3,3.47C208.42,254.91,208.52,255.66,207.73,256.1Z"/><path class="cls-11" d="M220,249.36,213.42,253a3.56,3.56,0,0,1-3-.12l-6.3-3.47c-.9-.49-1-1.24-.22-1.68l6.56-3.6a3.55,3.55,0,0,1,3.06.12l6.29,3.46C220.67,248.18,220.76,248.93,220,249.36Z"/><path class="cls-11" d="M232.23,242.63l-6.56,3.6a3.53,3.53,0,0,1-3-.12l-6.3-3.46c-.9-.5-1-1.25-.22-1.68l6.56-3.61a3.56,3.56,0,0,1,3.05.12L232,241C232.91,241.44,233,242.2,232.23,242.63Z"/><path class="cls-11" d="M91.66,306.53l-6.56,3.61a3.53,3.53,0,0,1-3-.12l-6.3-3.46c-.9-.5-1-1.25-.21-1.68l6.55-3.61a3.55,3.55,0,0,1,3.06.12l6.29,3.46C92.35,305.35,92.45,306.1,91.66,306.53Z"/><path class="cls-11" d="M103.91,299.8l-6.56,3.6a3.53,3.53,0,0,1-3-.12L88,299.82c-.9-.5-1-1.25-.22-1.68l6.56-3.6a3.49,3.49,0,0,1,3,.12l6.3,3.46C104.59,298.62,104.69,299.37,103.91,299.8Z"/><path class="cls-11" d="M116.16,293.06l-6.56,3.61a3.53,3.53,0,0,1-3-.12l-6.3-3.46c-.91-.5-1-1.25-.22-1.68l6.56-3.61a3.53,3.53,0,0,1,3,.12l6.3,3.46C116.84,291.88,116.94,292.63,116.16,293.06Z"/><path class="cls-11" d="M128.4,286.33l-6.56,3.6a3.53,3.53,0,0,1-3-.12l-6.3-3.46c-.9-.5-1-1.25-.21-1.68l6.55-3.6a3.55,3.55,0,0,1,3.06.12l6.29,3.46C129.09,285.15,129.19,285.9,128.4,286.33Z"/><path class="cls-11" d="M140.65,279.59l-6.56,3.61a3.53,3.53,0,0,1-3.05-.12l-6.3-3.46c-.9-.5-1-1.25-.22-1.68l6.56-3.61a3.53,3.53,0,0,1,3,.12l6.3,3.46C141.33,278.41,141.43,279.16,140.65,279.59Z"/><path class="cls-11" d="M152.9,272.86l-6.56,3.6a3.53,3.53,0,0,1-3.05-.12l-6.3-3.46c-.91-.5-1-1.25-.22-1.68l6.56-3.6a3.53,3.53,0,0,1,3,.12l6.3,3.46C153.58,271.68,153.68,272.43,152.9,272.86Z"/><path class="cls-11" d="M165.14,266.12l-6.56,3.61a3.53,3.53,0,0,1-3.05-.12l-6.3-3.46c-.9-.5-1-1.25-.21-1.68l6.55-3.61a3.55,3.55,0,0,1,3.06.12l6.29,3.46C165.83,264.94,165.93,265.69,165.14,266.12Z"/><path class="cls-11" d="M177.39,259.39l-6.56,3.6a3.49,3.49,0,0,1-3.05-.12l-6.3-3.46c-.9-.5-1-1.25-.22-1.68l6.56-3.6a3.53,3.53,0,0,1,3.05.12l6.3,3.46C178.07,258.21,178.17,259,177.39,259.39Z"/><path class="cls-11" d="M189.64,252.65l-6.56,3.61a3.53,3.53,0,0,1-3.05-.12l-6.3-3.46c-.91-.5-1-1.25-.22-1.68l6.56-3.61a3.53,3.53,0,0,1,3.05.12l6.3,3.46C190.32,251.47,190.42,252.22,189.64,252.65Z"/><path class="cls-11" d="M201.88,245.92l-6.56,3.61a3.53,3.53,0,0,1-3-.13l-6.3-3.46c-.9-.5-1-1.25-.21-1.68l6.55-3.6a3.55,3.55,0,0,1,3.06.12l6.29,3.46C202.57,244.74,202.67,245.49,201.88,245.92Z"/><path class="cls-11" d="M214.13,239.18l-6.56,3.61a3.53,3.53,0,0,1-3-.12l-6.3-3.46c-.9-.5-1-1.25-.22-1.68l6.56-3.61a3.53,3.53,0,0,1,3.05.12l6.3,3.46C214.81,238,214.91,238.75,214.13,239.18Z"/><path class="cls-11" d="M226.17,232.56l-6.56,3.61a3.56,3.56,0,0,1-3.05-.12l-6.3-3.47c-.9-.49-1-1.24-.21-1.67l6.55-3.61a3.55,3.55,0,0,1,3.06.12l6.29,3.46C226.86,231.38,227,232.13,226.17,232.56Z"/><path class="cls-11" d="M244.5,235.88l-6.56,3.61a3.58,3.58,0,0,1-3.06-.12l-6.29-3.47c-.91-.49-1-1.25-.22-1.68l6.56-3.6a3.53,3.53,0,0,1,3,.12l6.3,3.46C245.18,234.7,245.28,235.45,244.5,235.88Z"/><path class="cls-12" d="M131.13,337.21l-9.78,5.38a3.56,3.56,0,0,1-3-.12L112,339c-.9-.5-1-1.25-.22-1.68l9.78-5.38a3.55,3.55,0,0,1,3.06.12l6.29,3.46C131.82,336,131.91,336.78,131.13,337.21Z"/><path class="cls-12" d="M274.86,258.17l-9.78,5.38a3.55,3.55,0,0,1-3.06-.12L255.73,260c-.91-.5-1-1.25-.22-1.68l9.78-5.38a3.53,3.53,0,0,1,3,.12l6.3,3.46C275.54,257,275.64,257.74,274.86,258.17Z"/><path class="cls-12" d="M143.3,330.52l-6.56,3.61a3.56,3.56,0,0,1-3.05-.12l-6.3-3.47c-.9-.49-1-1.24-.22-1.68l6.56-3.6a3.53,3.53,0,0,1,3.05.12l6.3,3.46C144,329.34,144.08,330.09,143.3,330.52Z"/><path class="cls-12" d="M121.44,318.62,99.71,330.57c-.84.46-.84,1.21,0,1.68l6.52,3.58a3.47,3.47,0,0,0,3,0L131,323.88c.84-.46.84-1.21,0-1.67l-6.52-3.59A3.54,3.54,0,0,0,121.44,318.62Z"/><path class="cls-12" d="M103.15,315.29l-15.62,8.58c-.84.47-.84,1.22,0,1.68l6.53,3.59a3.52,3.52,0,0,0,3,0l15.62-8.59c.84-.47.84-1.22,0-1.68l-6.53-3.58A3.45,3.45,0,0,0,103.15,315.29Z"/><path class="cls-12" d="M87.84,310.31l-12.49,6.87c-.84.46-.84,1.21,0,1.67l6.53,3.59a3.52,3.52,0,0,0,3,0l12.49-6.87c.84-.46.84-1.21,0-1.67l-6.53-3.59A3.52,3.52,0,0,0,87.84,310.31Z"/><path class="cls-12" d="M69.74,306.87l-6.56,3.61c-.85.46-.85,1.21,0,1.67l6.52,3.59a3.52,3.52,0,0,0,3,0l6.56-3.61c.85-.46.85-1.21,0-1.67l-6.52-3.59A3.52,3.52,0,0,0,69.74,306.87Z"/><path class="cls-12" d="M60,302.2l-5.94,3.27c-.84.46-.84,1.21,0,1.67l3.56,2a3.54,3.54,0,0,0,3.05,0l5.94-3.27c.84-.46.84-1.21,0-1.68l-3.56-1.95A3.48,3.48,0,0,0,60,302.2Z"/><path class="cls-12" d="M71.5,295.87l-5.94,3.27c-.84.46-.84,1.21,0,1.68l3.56,1.95a3.45,3.45,0,0,0,3,0l6-3.26c.84-.47.84-1.22,0-1.68l-3.56-2A3.54,3.54,0,0,0,71.5,295.87Z"/><path class="cls-12" d="M83,289.55l-5.94,3.27c-.84.46-.84,1.21,0,1.67l3.56,2a3.52,3.52,0,0,0,3,0l6-3.27c.84-.46.84-1.21,0-1.67l-3.56-2A3.54,3.54,0,0,0,83,289.55Z"/><path class="cls-12" d="M94.5,283.22l-5.94,3.27c-.84.47-.84,1.22,0,1.68l3.56,2a3.52,3.52,0,0,0,3,0l6-3.27c.84-.46.84-1.21,0-1.68l-3.56-2A3.54,3.54,0,0,0,94.5,283.22Z"/><path class="cls-12" d="M106,276.9l-5.94,3.27c-.84.46-.84,1.21,0,1.67l3.56,2a3.45,3.45,0,0,0,3,0l6-3.27c.84-.46.84-1.21,0-1.67l-3.56-2A3.54,3.54,0,0,0,106,276.9Z"/><path class="cls-12" d="M117.5,270.58l-5.94,3.27c-.85.46-.85,1.21,0,1.67l3.56,2a3.52,3.52,0,0,0,3,0l6-3.27c.84-.46.84-1.21,0-1.67l-3.57-2A3.52,3.52,0,0,0,117.5,270.58Z"/><path class="cls-12" d="M129,264.25l-6,3.27c-.84.47-.84,1.21,0,1.68l3.57,2a3.52,3.52,0,0,0,3,0l5.94-3.27c.85-.47.85-1.22,0-1.68l-3.56-2A3.52,3.52,0,0,0,129,264.25Z"/><path class="cls-12" d="M140.5,257.93l-5.95,3.27c-.84.46-.84,1.21,0,1.67l3.57,2a3.52,3.52,0,0,0,3,0l5.94-3.27c.84-.46.84-1.21,0-1.67l-3.56-2A3.52,3.52,0,0,0,140.5,257.93Z"/><path class="cls-12" d="M152,251.61l-5.95,3.26c-.84.47-.84,1.22,0,1.68l3.56,2a3.54,3.54,0,0,0,3,0l5.94-3.27c.84-.46.84-1.21,0-1.68L155,251.61A3.45,3.45,0,0,0,152,251.61Z"/><path class="cls-12" d="M163.5,245.28l-5.95,3.27c-.84.46-.84,1.21,0,1.68l3.56,2a3.48,3.48,0,0,0,3,0l5.94-3.27c.84-.46.84-1.21,0-1.67l-3.56-2A3.52,3.52,0,0,0,163.5,245.28Z"/><path class="cls-12" d="M175,239l-5.95,3.27c-.84.46-.84,1.21,0,1.67l3.56,2a3.54,3.54,0,0,0,3,0l5.94-3.27c.84-.46.84-1.21,0-1.67L178,239A3.52,3.52,0,0,0,175,239Z"/><path class="cls-12" d="M186.5,232.63l-5.95,3.27c-.84.47-.84,1.22,0,1.68l3.56,2a3.54,3.54,0,0,0,3,0l5.94-3.27c.84-.47.84-1.21,0-1.68l-3.56-2A3.52,3.52,0,0,0,186.5,232.63Z"/><path class="cls-12" d="M198,226.31l-5.94,3.27c-.84.46-.84,1.21,0,1.67l3.56,2a3.54,3.54,0,0,0,3,0l5.94-3.27c.84-.46.84-1.21,0-1.67l-3.56-2A3.54,3.54,0,0,0,198,226.31Z"/><path class="cls-12" d="M209.49,220l-5.94,3.27c-.84.46-.84,1.21,0,1.67l3.56,2a3.52,3.52,0,0,0,3,0l5.95-3.27c.84-.46.84-1.21,0-1.67l-3.56-2A3.48,3.48,0,0,0,209.49,220Z"/><path class="cls-12" d="M221,213.66l-5.94,3.27c-.84.46-.84,1.21,0,1.68l3.56,1.95a3.45,3.45,0,0,0,3,0l5.95-3.26c.84-.47.84-1.22,0-1.68l-3.56-2A3.54,3.54,0,0,0,221,213.66Z"/><path class="cls-12" d="M232.49,207.34l-5.94,3.27c-.84.46-.84,1.21,0,1.67l3.56,2a3.52,3.52,0,0,0,3,0L239.1,211c.84-.46.84-1.21,0-1.67l-3.56-2A3.54,3.54,0,0,0,232.49,207.34Z"/><path class="cls-12" d="M244,201l-5.94,3.26c-.84.47-.84,1.22,0,1.68l3.56,2a3.52,3.52,0,0,0,3,0l5.95-3.27c.84-.46.84-1.21,0-1.68L247,201A3.47,3.47,0,0,0,244,201Z"/><path class="cls-12" d="M155.48,323.82l-6.56,3.61a3.55,3.55,0,0,1-3.06-.12l-6.29-3.46c-.91-.5-1-1.25-.22-1.68l6.56-3.61a3.53,3.53,0,0,1,3.05.12l6.3,3.46C156.16,322.64,156.26,323.39,155.48,323.82Z"/><path class="cls-12" d="M167.65,317.13l-6.55,3.6a3.55,3.55,0,0,1-3.06-.12l-6.29-3.46c-.91-.5-1-1.25-.22-1.68l6.56-3.61a3.56,3.56,0,0,1,3,.12l6.3,3.47C168.34,315.94,168.44,316.69,167.65,317.13Z"/><path class="cls-12" d="M143.3,317.13l-6.56,3.6a3.53,3.53,0,0,1-3.05-.12l-6.3-3.46c-.9-.5-1-1.25-.22-1.68l6.56-3.61a3.56,3.56,0,0,1,3.05.12l6.3,3.47C144,315.94,144.08,316.7,143.3,317.13Z"/><path class="cls-12" d="M155.54,310.39,149,314a3.56,3.56,0,0,1-3-.12l-6.29-3.47c-.91-.49-1-1.24-.22-1.67l6.56-3.61a3.53,3.53,0,0,1,3.05.12l6.29,3.46C156.23,309.21,156.33,310,155.54,310.39Z"/><path class="cls-12" d="M167.79,303.66l-6.56,3.6a3.53,3.53,0,0,1-3-.12l-6.3-3.46c-.9-.5-1-1.25-.22-1.68l6.56-3.61a3.56,3.56,0,0,1,3.05.12l6.3,3.47C168.47,302.47,168.57,303.23,167.79,303.66Z"/><path class="cls-12" d="M180,296.92l-6.56,3.61a3.56,3.56,0,0,1-3-.12l-6.3-3.47c-.9-.49-1-1.24-.22-1.67l6.56-3.61a3.53,3.53,0,0,1,3.05.12l6.3,3.46C180.72,295.74,180.82,296.49,180,296.92Z"/><path class="cls-12" d="M192.28,290.19l-6.56,3.6a3.53,3.53,0,0,1-3.05-.12l-6.29-3.46c-.91-.5-1-1.25-.22-1.68l6.56-3.61a3.56,3.56,0,0,1,3.05.12l6.29,3.47C193,289,193.07,289.76,192.28,290.19Z"/><path class="cls-12" d="M204.53,283.45,198,287.06a3.56,3.56,0,0,1-3.05-.12l-6.3-3.47c-.9-.49-1-1.24-.22-1.67l6.56-3.61a3.53,3.53,0,0,1,3,.12l6.3,3.46C205.21,282.27,205.31,283,204.53,283.45Z"/><path class="cls-12" d="M216.78,276.72l-6.56,3.6a3.53,3.53,0,0,1-3.05-.12l-6.3-3.46c-.9-.5-1-1.25-.22-1.68l6.56-3.61a3.56,3.56,0,0,1,3,.12l6.3,3.47C217.46,275.53,217.56,276.29,216.78,276.72Z"/><path class="cls-12" d="M229,270l-6.56,3.61a3.56,3.56,0,0,1-3.05-.12L213.12,270c-.91-.49-1-1.24-.22-1.67l6.56-3.61a3.53,3.53,0,0,1,3,.12l6.29,3.46C229.71,268.8,229.81,269.55,229,270Z"/><path class="cls-12" d="M241.27,263.25l-6.56,3.6a3.53,3.53,0,0,1-3.05-.12l-6.3-3.46c-.9-.5-1-1.25-.22-1.68L231.7,258a3.56,3.56,0,0,1,3.05.12l6.3,3.47C242,262.06,242.05,262.82,241.27,263.25Z"/><path class="cls-12" d="M253.52,256.51,247,260.12a3.56,3.56,0,0,1-3.05-.12l-6.3-3.47c-.9-.49-1-1.24-.22-1.67l6.56-3.61a3.53,3.53,0,0,1,3.05.12l6.3,3.46C254.2,255.33,254.3,256.08,253.52,256.51Z"/><path class="cls-12" d="M125.07,313.75l-6.56,3.61a3.53,3.53,0,0,1-3.05-.12l-6.3-3.46c-.9-.5-1-1.25-.22-1.68l6.56-3.61a3.56,3.56,0,0,1,3,.12l6.3,3.47C125.75,312.57,125.85,313.32,125.07,313.75Z"/><path class="cls-12" d="M137.32,307l-6.56,3.61a3.56,3.56,0,0,1-3-.12l-6.3-3.47c-.9-.49-1-1.25-.22-1.68l6.56-3.6a3.53,3.53,0,0,1,3.05.12l6.3,3.46C138,305.84,138.1,306.59,137.32,307Z"/><path class="cls-12" d="M149.56,300.28,143,303.89a3.55,3.55,0,0,1-3.06-.12l-6.29-3.46c-.91-.5-1-1.25-.22-1.68L140,295a3.58,3.58,0,0,1,3.06.12l6.29,3.47C150.25,299.1,150.35,299.85,149.56,300.28Z"/><path class="cls-12" d="M161.81,293.55l-6.56,3.61a3.56,3.56,0,0,1-3.05-.12l-6.3-3.47c-.9-.49-1-1.25-.22-1.68l6.56-3.6a3.53,3.53,0,0,1,3,.12l6.3,3.46C162.49,292.37,162.59,293.12,161.81,293.55Z"/><path class="cls-12" d="M174.06,286.81l-6.56,3.61a3.53,3.53,0,0,1-3.05-.12l-6.3-3.46c-.9-.5-1-1.25-.22-1.68l6.56-3.61a3.56,3.56,0,0,1,3,.12l6.3,3.47C174.74,285.63,174.84,286.38,174.06,286.81Z"/><path class="cls-12" d="M186.3,280.08l-6.55,3.61a3.58,3.58,0,0,1-3.06-.12l-6.29-3.47c-.91-.49-1-1.25-.22-1.68l6.55-3.6a3.55,3.55,0,0,1,3.06.12l6.29,3.46C187,278.9,187.09,279.65,186.3,280.08Z"/><path class="cls-12" d="M198.55,273.34,192,277a3.53,3.53,0,0,1-3.05-.12l-6.3-3.46c-.9-.5-1-1.25-.22-1.68l6.56-3.61a3.56,3.56,0,0,1,3.05.12l6.3,3.47C199.23,272.16,199.33,272.91,198.55,273.34Z"/><path class="cls-12" d="M210.8,266.61l-6.56,3.61a3.56,3.56,0,0,1-3.05-.12l-6.3-3.47c-.9-.49-1-1.25-.22-1.68l6.56-3.6a3.53,3.53,0,0,1,3.05.12l6.3,3.46C211.48,265.43,211.58,266.18,210.8,266.61Z"/><path class="cls-12" d="M223,259.87l-6.56,3.61a3.53,3.53,0,0,1-3-.12l-6.29-3.46c-.91-.5-1-1.25-.22-1.68l6.55-3.61a3.58,3.58,0,0,1,3.06.12l6.29,3.47C223.73,258.69,223.83,259.44,223,259.87Z"/><path class="cls-12" d="M235.29,253.14l-6.56,3.61a3.56,3.56,0,0,1-3-.12l-6.3-3.47c-.9-.49-1-1.25-.22-1.68l6.56-3.6a3.53,3.53,0,0,1,3.05.12l6.3,3.46C236,252,236.07,252.71,235.29,253.14Z"/><path class="cls-12" d="M247.54,246.41,241,250a3.53,3.53,0,0,1-3-.12l-6.3-3.46c-.9-.5-1-1.25-.22-1.68l6.56-3.61a3.56,3.56,0,0,1,3.05.12l6.3,3.47C248.22,245.22,248.32,246,247.54,246.41Z"/><path class="cls-12" d="M235,280.11,173.27,314a3.49,3.49,0,0,1-3.05-.12l-6.3-3.46c-.9-.5-1-1.25-.21-1.68l61.68-33.92a3.55,3.55,0,0,1,3.06.12l6.29,3.46C235.65,278.93,235.74,279.68,235,280.11Z"/><path class="cls-12" d="M247.19,273.38,240.64,277a3.55,3.55,0,0,1-3.06-.12l-6.29-3.46c-.91-.5-1-1.25-.22-1.68l6.56-3.61a3.53,3.53,0,0,1,3.05.12l6.3,3.46C247.88,272.2,248,273,247.19,273.38Z"/><path class="cls-12" d="M259.37,266.69l-6.56,3.6a3.53,3.53,0,0,1-3.05-.12l-6.29-3.46c-.91-.5-1-1.25-.22-1.68l6.55-3.61a3.58,3.58,0,0,1,3.06.12l6.29,3.47C260.06,265.5,260.16,266.26,259.37,266.69Z"/><path class="cls-12" d="M287,251.5l-6.56,3.6a3.53,3.53,0,0,1-3.05-.12l-6.3-3.46c-.9-.5-1-1.25-.22-1.68l6.56-3.61a3.58,3.58,0,0,1,3.06.12l6.29,3.47C287.68,250.31,287.77,251.07,287,251.5Z"/><path class="cls-12" d="M299.24,244.76l-6.56,3.61a3.56,3.56,0,0,1-3.05-.12l-6.29-3.47c-.91-.49-1-1.25-.22-1.68l6.55-3.6a3.55,3.55,0,0,1,3.06.12l6.29,3.46C299.93,243.58,300,244.33,299.24,244.76Z"/><path class="cls-12" d="M311.49,238l-6.55,3.61a3.55,3.55,0,0,1-3.06-.12l-6.29-3.46c-.91-.5-1-1.25-.22-1.68l6.56-3.61a3.53,3.53,0,0,1,3.05.12l6.3,3.46C312.18,236.84,312.28,237.59,311.49,238Z"/><path class="cls-12" d="M274.81,244.8l-15.61,8.58a3.53,3.53,0,0,1-3.05-.12l-6.29-3.46c-.91-.5-1-1.25-.22-1.68l15.61-8.58a3.53,3.53,0,0,1,3.05.12l6.3,3.46C275.5,243.62,275.6,244.37,274.81,244.8Z"/><path class="cls-12" d="M287.07,238.06l-6.56,3.61a3.55,3.55,0,0,1-3.06-.12l-6.29-3.46c-.91-.5-1-1.25-.22-1.68l6.56-3.61a3.53,3.53,0,0,1,3.05.12l6.3,3.46C287.75,236.88,287.85,237.63,287.07,238.06Z"/><path class="cls-12" d="M265.21,226.16,243.76,238c-.84.46-.84,1.21,0,1.67l6.53,3.59a3.52,3.52,0,0,0,3,0l21.45-11.8c.84-.46.84-1.21,0-1.67l-6.52-3.59A3.54,3.54,0,0,0,265.21,226.16Z"/><path class="cls-12" d="M240.86,212.77,222.31,223c-.84.47-.84,1.22,0,1.68l6.53,3.59a3.52,3.52,0,0,0,3,0L250.42,218c.85-.46.85-1.21,0-1.68l-6.52-3.58A3.45,3.45,0,0,0,240.86,212.77Z"/><path class="cls-12" d="M253,219.46l-12.29,6.76c-.84.47-.84,1.21,0,1.68l6.53,3.58a3.45,3.45,0,0,0,3,0l12.29-6.75c.84-.47.84-1.22,0-1.68l-6.52-3.59A3.54,3.54,0,0,0,253,219.46Z"/><path class="cls-12" d="M299.32,231.32l-6.56,3.61a3.55,3.55,0,0,1-3.06-.12l-6.29-3.46c-.91-.5-1-1.25-.22-1.68l6.56-3.61a3.56,3.56,0,0,1,3.05.12l6.3,3.47C300,230.14,300.1,230.89,299.32,231.32Z"/><path class="cls-12" d="M287.14,224.63l-6.56,3.6a3.53,3.53,0,0,1-3.05-.12l-6.3-3.46c-.9-.5-1-1.25-.22-1.68l6.56-3.61a3.53,3.53,0,0,1,3.05.13l6.3,3.46C287.82,223.45,287.92,224.2,287.14,224.63Z"/><path class="cls-12" d="M275,217.93l-6.56,3.61a3.56,3.56,0,0,1-3-.12l-6.3-3.47c-.9-.49-1-1.25-.22-1.68l6.56-3.6a3.53,3.53,0,0,1,3.05.12l6.3,3.46C275.64,216.75,275.74,217.5,275,217.93Z"/><path class="cls-12" d="M262.78,211.23l-6.56,3.61a3.53,3.53,0,0,1-3.05-.12l-6.3-3.46c-.9-.5-1-1.25-.22-1.68l6.56-3.61a3.53,3.53,0,0,1,3,.12l6.3,3.46C263.47,210.05,263.56,210.8,262.78,211.23Z"/><path class="cls-12" d="M109.76,308.78l-6.56,3.61a3.53,3.53,0,0,1-3-.13l-6.3-3.46c-.9-.49-1-1.25-.22-1.68l6.56-3.6a3.55,3.55,0,0,1,3.06.12l6.29,3.46C110.45,307.6,110.54,308.35,109.76,308.78Z"/><path class="cls-12" d="M122,302l-6.56,3.61a3.53,3.53,0,0,1-3-.12l-6.3-3.46c-.9-.5-1-1.25-.22-1.68l6.56-3.61a3.56,3.56,0,0,1,3,.12l6.3,3.47C122.69,300.86,122.79,301.61,122,302Z"/><path class="cls-12" d="M134.25,295.31l-6.55,3.61a3.58,3.58,0,0,1-3.06-.12l-6.29-3.47c-.91-.49-1-1.25-.22-1.68l6.56-3.6a3.53,3.53,0,0,1,3,.12l6.3,3.46C134.94,294.13,135,294.88,134.25,295.31Z"/><path class="cls-12" d="M146.5,288.57l-6.56,3.61a3.53,3.53,0,0,1-3.05-.12l-6.3-3.46c-.9-.5-1-1.25-.22-1.68l6.56-3.61a3.59,3.59,0,0,1,3.06.12l6.29,3.47C147.19,287.39,147.28,288.14,146.5,288.57Z"/><path class="cls-12" d="M158.75,281.84l-6.56,3.61a3.56,3.56,0,0,1-3.05-.12l-6.3-3.47c-.9-.49-1-1.25-.22-1.68l6.56-3.6a3.53,3.53,0,0,1,3,.12l6.3,3.46C159.43,280.66,159.53,281.41,158.75,281.84Z"/><path class="cls-12" d="M171,275.1l-6.55,3.61a3.55,3.55,0,0,1-3.06-.12l-6.29-3.46c-.91-.5-1-1.25-.22-1.68l6.56-3.61a3.56,3.56,0,0,1,3,.12l6.3,3.47C171.68,273.92,171.78,274.67,171,275.1Z"/><path class="cls-12" d="M183.24,268.37,176.68,272a3.56,3.56,0,0,1-3.05-.12l-6.3-3.47c-.9-.49-1-1.25-.22-1.68l6.56-3.6a3.55,3.55,0,0,1,3.06.12l6.29,3.46C183.93,267.19,184,267.94,183.24,268.37Z"/><path class="cls-12" d="M195.49,261.63l-6.56,3.61a3.53,3.53,0,0,1-3.05-.12l-6.3-3.46c-.9-.5-1-1.25-.22-1.68l6.56-3.61a3.56,3.56,0,0,1,3.05.12l6.3,3.47C196.17,260.45,196.27,261.2,195.49,261.63Z"/><path class="cls-12" d="M207.73,254.9l-6.55,3.61a3.58,3.58,0,0,1-3.06-.12l-6.29-3.47c-.91-.49-1-1.25-.22-1.68l6.56-3.6a3.53,3.53,0,0,1,3.05.12l6.3,3.46C208.42,253.72,208.52,254.47,207.73,254.9Z"/><path class="cls-12" d="M220,248.16l-6.56,3.61a3.53,3.53,0,0,1-3-.12l-6.3-3.46c-.9-.5-1-1.25-.22-1.68l6.56-3.61a3.59,3.59,0,0,1,3.06.12l6.29,3.47C220.67,247,220.76,247.73,220,248.16Z"/><path class="cls-12" d="M232.23,241.43,225.67,245a3.56,3.56,0,0,1-3-.12l-6.3-3.47c-.9-.49-1-1.25-.22-1.68l6.56-3.6a3.53,3.53,0,0,1,3.05.12l6.3,3.46C232.91,240.25,233,241,232.23,241.43Z"/><path class="cls-12" d="M91.66,305.34l-6.56,3.6a3.53,3.53,0,0,1-3-.12l-6.3-3.46c-.9-.5-1-1.25-.21-1.68l6.55-3.61a3.58,3.58,0,0,1,3.06.12l6.29,3.47C92.35,304.15,92.45,304.91,91.66,305.34Z"/><path class="cls-12" d="M103.91,298.6l-6.56,3.61a3.56,3.56,0,0,1-3-.12L88,298.63c-.9-.5-1-1.25-.22-1.68l6.56-3.61a3.53,3.53,0,0,1,3,.12l6.3,3.46C104.59,297.42,104.69,298.17,103.91,298.6Z"/><path class="cls-12" d="M116.16,291.87l-6.56,3.6a3.53,3.53,0,0,1-3-.12l-6.3-3.46c-.91-.5-1-1.25-.22-1.68l6.56-3.61a3.53,3.53,0,0,1,3,.13l6.3,3.46C116.84,290.68,116.94,291.44,116.16,291.87Z"/><path class="cls-12" d="M128.4,285.13l-6.56,3.61a3.53,3.53,0,0,1-3-.12l-6.3-3.46c-.9-.5-1-1.25-.21-1.68l6.55-3.61a3.55,3.55,0,0,1,3.06.12l6.29,3.46C129.09,284,129.19,284.7,128.4,285.13Z"/><path class="cls-12" d="M140.65,278.4l-6.56,3.6a3.53,3.53,0,0,1-3.05-.12l-6.3-3.46c-.9-.5-1-1.25-.22-1.68l6.56-3.61a3.53,3.53,0,0,1,3,.13l6.3,3.46C141.33,277.21,141.43,278,140.65,278.4Z"/><path class="cls-12" d="M152.9,271.66l-6.56,3.61a3.53,3.53,0,0,1-3.05-.12l-6.3-3.46c-.91-.5-1-1.25-.22-1.68l6.56-3.61a3.53,3.53,0,0,1,3,.12l6.3,3.46C153.58,270.48,153.68,271.23,152.9,271.66Z"/><path class="cls-12" d="M165.14,264.93l-6.56,3.6a3.53,3.53,0,0,1-3.05-.12l-6.3-3.46c-.9-.5-1-1.25-.21-1.68l6.55-3.61a3.55,3.55,0,0,1,3.06.13l6.29,3.46C165.83,263.75,165.93,264.5,165.14,264.93Z"/><path class="cls-12" d="M177.39,258.19l-6.56,3.61a3.53,3.53,0,0,1-3.05-.12l-6.3-3.46c-.9-.5-1-1.25-.22-1.68l6.56-3.61a3.53,3.53,0,0,1,3.05.12l6.3,3.46C178.07,257,178.17,257.76,177.39,258.19Z"/><path class="cls-12" d="M189.64,251.46l-6.56,3.6a3.53,3.53,0,0,1-3.05-.12l-6.3-3.46c-.91-.5-1-1.25-.22-1.68l6.56-3.61a3.53,3.53,0,0,1,3.05.13l6.3,3.46C190.32,250.28,190.42,251,189.64,251.46Z"/><path class="cls-12" d="M201.88,244.72l-6.56,3.61a3.53,3.53,0,0,1-3-.12l-6.3-3.46c-.9-.5-1-1.25-.21-1.68l6.55-3.61a3.55,3.55,0,0,1,3.06.12l6.29,3.46C202.57,243.54,202.67,244.29,201.88,244.72Z"/><path class="cls-12" d="M214.13,238l-6.56,3.6a3.53,3.53,0,0,1-3-.12l-6.3-3.46c-.9-.5-1-1.25-.22-1.68l6.56-3.61a3.53,3.53,0,0,1,3.05.13l6.3,3.46C214.81,236.81,214.91,237.56,214.13,238Z"/><path class="cls-12" d="M226.17,231.36,219.61,235a3.53,3.53,0,0,1-3.05-.12l-6.3-3.46c-.9-.5-1-1.25-.21-1.68l6.55-3.61a3.58,3.58,0,0,1,3.06.12l6.29,3.47C226.86,230.18,227,230.93,226.17,231.36Z"/><path class="cls-12" d="M244.5,234.68l-6.56,3.61a3.55,3.55,0,0,1-3.06-.12l-6.29-3.46c-.91-.5-1-1.25-.22-1.68l6.56-3.61a3.53,3.53,0,0,1,3,.12l6.3,3.46C245.18,233.5,245.28,234.25,244.5,234.68Z"/><path class="cls-13" d="M25.55,320c0,1.22-.9,1.72-2,1.11a4.24,4.24,0,0,1-2-3.33c0-1.23.9-1.73,2-1.11A4.19,4.19,0,0,1,25.55,320Z"/><path class="cls-14" d="M24.33,320.21l1.18-.66a4.35,4.35,0,0,0-1.58-2.61l-1.19.65Z"/><path class="cls-15" d="M24.33,320.21c-.44.24-1.15-.15-1.59-.88s-.44-1.5,0-1.74,1.15.15,1.59.87S24.76,320,24.33,320.21Z"/><path d="M23.81,319.36c-.15.08-.4-.06-.55-.31s-.16-.53,0-.61.4.05.55.31S24,319.27,23.81,319.36Z"/><path class="cls-16" d="M101.22,359.09l-12.29-6.77c-.34-.18-.61,0-.61.34v2.26a1.53,1.53,0,0,0,.33.88,7.14,7.14,0,0,1,1,1.59,1.62,1.62,0,0,0,.65.75l9.59,5.27a.48.48,0,0,0,.64,0,1.63,1.63,0,0,1,1-.51c.21,0,.33-.23.33-.51v-2.26A1.25,1.25,0,0,0,101.22,359.09Z"/><path class="cls-13" d="M101.39,362.11c0,.12,0,.19-.14.21a1.82,1.82,0,0,0-1.11.59.21.21,0,0,1-.27,0l-9.59-5.28a.67.67,0,0,1-.27-.32,8.7,8.7,0,0,0-1.11-1.8.63.63,0,0,1-.14-.37V352.9c0-.1.07-.14.17-.09l12.29,6.76a.34.34,0,0,1,.17.28Z"/><polygon class="cls-16" points="99.67 361.23 90.48 356.18 90.48 355.13 99.67 360.18 99.67 361.23"/><path class="cls-16" d="M116.7,372.47l-9.15-5a.8.8,0,0,1-.36-.65V363c0-.25.16-.37.36-.26l9.15,5a.8.8,0,0,1,.36.65v3.78C117.06,372.47,116.9,372.58,116.7,372.47Z"/><path class="cls-13" d="M107.53,366.86v-3.54c0-.11.07-.16.15-.12l8.88,4.89a.33.33,0,0,1,.16.29v3.53c0,.11-.07.17-.16.12l-8.88-4.88A.38.38,0,0,1,107.53,366.86Z"/><polygon class="cls-16" points="115.88 369.28 108.37 365.14 108.37 364.42 115.88 368.55 115.88 369.28"/><polygon class="cls-17" points="115.88 370.34 108.37 366.21 108.37 365.14 115.88 369.28 115.88 370.34"/><polygon class="cls-18" points="109.74 366.26 109.18 365.95 109.18 366.65 109.74 366.96 109.74 366.26"/><polygon class="cls-18" points="111.52 367.23 110.95 366.93 110.95 367.63 111.52 367.94 111.52 367.23"/><polygon class="cls-18" points="113.29 368.21 112.73 367.9 112.73 368.61 113.29 368.91 113.29 368.21"/><polygon class="cls-18" points="115.07 369.19 114.51 368.88 114.51 369.58 115.07 369.89 115.07 369.19"/><path class="cls-16" d="M130.86,380.26l-9.16-5a.82.82,0,0,1-.35-.66V370.8c0-.25.16-.36.35-.26l9.16,5a.82.82,0,0,1,.35.65V380C131.21,380.25,131.05,380.37,130.86,380.26Z"/><path class="cls-13" d="M121.68,374.64v-3.53c0-.12.07-.17.16-.12l8.88,4.88a.36.36,0,0,1,.16.29v3.54c0,.11-.07.16-.16.11l-8.88-4.88A.36.36,0,0,1,121.68,374.64Z"/><polygon class="cls-16" points="130.04 377.06 122.52 372.93 122.52 372.2 130.04 376.33 130.04 377.06"/><polygon class="cls-17" points="130.04 378.12 122.52 373.99 122.52 372.93 130.04 377.06 130.04 378.12"/><polygon class="cls-18" points="123.9 374.04 123.34 373.73 123.34 374.44 123.9 374.75 123.9 374.04"/><polygon class="cls-18" points="125.67 375.02 125.11 374.71 125.11 375.42 125.67 375.72 125.67 375.02"/><polygon class="cls-18" points="127.45 376 126.89 375.69 126.89 376.39 127.45 376.7 127.45 376"/><polygon class="cls-18" points="129.22 376.97 128.66 376.66 128.66 377.37 129.22 377.68 129.22 376.97"/><polygon class="cls-13" points="35.29 323.19 34.41 322.7 34.41 322.11 30.13 319.76 30.13 320.35 29.13 319.8 29.13 323.99 30.71 324.87 30.71 325.87 33.7 327.52 33.7 326.51 35.29 327.38 35.29 323.19"/><path class="cls-16" d="M28.32,318.29v6.49l7.78,4.27v-6.49Zm7,9.1-1.59-.88v1l-3-1.65v-1L29.13,324V319.8l1,.55v-.59l4.28,2.35v.59l.88.49Z"/><polygon class="cls-13" points="39.05 329.97 40.4 330.71 42.72 326.91 41.37 326.16 39.05 329.97"/><polygon class="cls-19" points="39.05 329.97 40.4 330.71 40.09 331.21 38.44 330.31 41.07 326 41.37 326.16 39.05 329.97"/><polygon class="cls-13" points="41.21 331.16 42.56 331.9 44.88 328.1 43.53 327.35 41.21 331.16"/><polygon class="cls-19" points="41.21 331.16 42.56 331.9 42.26 332.4 40.61 331.5 43.23 327.19 43.53 327.35 41.21 331.16"/><polygon class="cls-13" points="43.38 332.35 44.73 333.1 47.05 329.29 45.7 328.54 43.38 332.35"/><polygon class="cls-19" points="43.38 332.35 44.73 333.1 44.42 333.6 42.77 332.69 45.4 328.38 45.7 328.54 43.38 332.35"/><polygon class="cls-13" points="45.54 333.54 46.89 334.29 49.21 330.48 47.86 329.74 45.54 333.54"/><polygon class="cls-19" points="45.54 333.54 46.89 334.29 46.59 334.79 44.94 333.88 47.56 329.57 47.86 329.74 45.54 333.54"/><polygon class="cls-13" points="47.71 334.74 49.06 335.48 51.38 331.67 50.03 330.93 47.71 334.74"/><polygon class="cls-19" points="47.71 334.74 49.06 335.48 48.75 335.98 47.1 335.07 49.73 330.76 50.03 330.93 47.71 334.74"/><polygon class="cls-13" points="49.87 335.93 51.22 336.67 53.54 332.86 52.19 332.12 49.87 335.93"/><polygon class="cls-19" points="49.87 335.93 51.22 336.67 50.92 337.17 49.27 336.26 51.89 331.95 52.19 332.12 49.87 335.93"/><polygon class="cls-13" points="52.04 337.12 53.39 337.86 55.71 334.05 54.36 333.31 52.04 337.12"/><polygon class="cls-19" points="52.04 337.12 53.39 337.86 53.08 338.36 51.43 337.45 54.06 333.14 54.36 333.31 52.04 337.12"/><polygon class="cls-13" points="54.2 338.31 55.55 339.05 57.87 335.24 56.52 334.5 54.2 338.31"/><polygon class="cls-19" points="54.2 338.31 55.55 339.05 55.25 339.55 53.6 338.64 56.22 334.33 56.52 334.5 54.2 338.31"/><polygon class="cls-13" points="56.37 339.5 57.72 340.24 60.04 336.43 58.69 335.69 56.37 339.5"/><polygon class="cls-19" points="56.37 339.5 57.72 340.24 57.41 340.74 55.76 339.83 58.38 335.52 58.69 335.69 56.37 339.5"/><polygon class="cls-13" points="58.53 340.69 59.88 341.43 62.2 337.62 60.85 336.88 58.53 340.69"/><polygon class="cls-19" points="58.53 340.69 59.88 341.43 59.58 341.93 57.93 341.02 60.55 336.71 60.85 336.88 58.53 340.69"/><polygon class="cls-13" points="60.7 341.88 62.05 342.62 64.37 338.81 63.02 338.07 60.7 341.88"/><polygon class="cls-19" points="60.7 341.88 62.05 342.62 61.74 343.12 60.09 342.21 62.72 337.9 63.02 338.07 60.7 341.88"/><polygon class="cls-13" points="62.86 343.07 64.21 343.81 66.53 340 65.18 339.26 62.86 343.07"/><polygon class="cls-19" points="62.86 343.07 64.21 343.81 63.91 344.31 62.26 343.4 64.88 339.09 65.18 339.26 62.86 343.07"/><polygon class="cls-13" points="65.03 344.26 66.38 345 68.7 341.19 67.35 340.45 65.03 344.26"/><polygon class="cls-19" points="65.03 344.26 66.38 345 66.07 345.5 64.42 344.59 67.05 340.28 67.35 340.45 65.03 344.26"/><polygon class="cls-13" points="67.19 345.45 68.54 346.19 70.86 342.38 69.51 341.64 67.19 345.45"/><polygon class="cls-19" points="67.19 345.45 68.54 346.19 68.24 346.69 66.58 345.78 69.21 341.47 69.51 341.64 67.19 345.45"/><polygon class="cls-13" points="69.36 346.64 70.71 347.38 73.03 343.57 71.68 342.83 69.36 346.64"/><polygon class="cls-19" points="69.36 346.64 70.71 347.38 70.4 347.88 68.75 346.97 71.38 342.67 71.68 342.83 69.36 346.64"/><polygon class="cls-13" points="71.52 347.83 72.87 348.57 75.19 344.76 73.84 344.02 71.52 347.83"/><polygon class="cls-19" points="71.52 347.83 72.87 348.57 72.57 349.07 70.92 348.16 73.54 343.86 73.84 344.02 71.52 347.83"/><polygon class="cls-13" points="73.69 349.02 75.04 349.76 77.36 345.95 76.01 345.21 73.69 349.02"/><polygon class="cls-19" points="73.69 349.02 75.04 349.76 74.73 350.26 73.08 349.35 75.7 345.05 76.01 345.21 73.69 349.02"/><polygon class="cls-13" points="75.85 350.21 77.2 350.95 79.52 347.14 78.17 346.4 75.85 350.21"/><polygon class="cls-19" points="75.85 350.21 77.2 350.95 76.9 351.45 75.25 350.55 77.87 346.24 78.17 346.4 75.85 350.21"/><polygon class="cls-13" points="78.02 351.4 79.37 352.14 81.69 348.34 80.34 347.59 78.02 351.4"/><polygon class="cls-19" points="78.02 351.4 79.37 352.14 79.06 352.64 77.41 351.74 80.03 347.43 80.34 347.59 78.02 351.4"/></g></g></g></svg>