<svg xmlns="http://www.w3.org/2000/svg" xmlns:xlink="http://www.w3.org/1999/xlink" viewBox="0 0 301.98 411.72"><defs><style>.cls-1{fill:url(#linear-gradient);}.cls-2{fill:url(#linear-gradient-2);}.cls-3{fill:url(#linear-gradient-3);}.cls-4{fill:url(#linear-gradient-4);}.cls-5{fill:url(#linear-gradient-5);}.cls-6{fill:#2d2729;}.cls-7{fill:#4f484b;}.cls-8{fill:#29abe2;}.cls-9{fill:url(#linear-gradient-6);}.cls-10{fill:none;stroke:#323f00;stroke-miterlimit:10;}.cls-11{fill:#231d1f;}.cls-12{fill:#2d2d2e;}.cls-13{fill:#0cbeed;}.cls-14{fill:#0bb8f4;}.cls-15{isolation:isolate;}.cls-16{fill:url(#linear-gradient-7);}.cls-17{fill:url(#linear-gradient-8);}.cls-18{fill:url(#linear-gradient-9);}.cls-19{fill:url(#linear-gradient-10);}.cls-20{fill:url(#linear-gradient-11);}.cls-21{fill:url(#linear-gradient-12);}.cls-22{fill:url(#linear-gradient-13);}.cls-23{fill:url(#linear-gradient-14);}.cls-24{fill:url(#linear-gradient-15);}.cls-25{fill:#fff;opacity:0.15;}</style><linearGradient id="linear-gradient" x1="131.07" y1="239.08" x2="301.48" y2="239.08" gradientUnits="userSpaceOnUse"><stop offset="0.01" stop-color="#b9baba"/><stop offset="0.62" stop-color="#b4b5b6"/><stop offset="1" stop-color="#aeafb0"/></linearGradient><linearGradient id="linear-gradient-2" y1="76.38" x2="301.48" y2="76.38" gradientUnits="userSpaceOnUse"><stop offset="0.01" stop-color="#d8d9d9"/><stop offset="0.62" stop-color="#d3d4d5"/><stop offset="1" stop-color="#cdcecf"/></linearGradient><linearGradient id="linear-gradient-3" y1="249.02" x2="131.07" y2="249.02" gradientUnits="userSpaceOnUse"><stop offset="0.01" stop-color="#a2a3a3"/><stop offset="0.62" stop-color="#9d9e9f"/><stop offset="1" stop-color="#979899"/></linearGradient><linearGradient id="linear-gradient-4" x1="131.07" y1="123.59" x2="301.48" y2="123.59" gradientUnits="userSpaceOnUse"><stop offset="0.01" stop-color="#848484"/><stop offset="0.62" stop-color="#7f8080"/><stop offset="1" stop-color="#797a7a"/></linearGradient><linearGradient id="linear-gradient-5" x1="131.07" y1="157.69" x2="301.48" y2="157.69" xlink:href="#linear-gradient-4"/><linearGradient id="linear-gradient-6" x1="187.58" y1="149.44" x2="212.22" y2="149.44" gradientUnits="userSpaceOnUse"><stop offset="0.01" stop-color="#a0a0a0"/><stop offset="0.62" stop-color="#9b9c9c"/><stop offset="1" stop-color="#959696"/></linearGradient><linearGradient id="linear-gradient-7" x1="190.62" y1="149.08" x2="209.39" y2="149.08" gradientUnits="userSpaceOnUse"><stop offset="0.01" stop-color="#7f7f7f"/><stop offset="0.62" stop-color="#7a7b7b"/><stop offset="1" stop-color="#747575"/></linearGradient><linearGradient id="linear-gradient-8" x1="192.59" y1="150.13" x2="210.87" y2="150.13" gradientTransform="translate(197.56 -101.3) rotate(52.39)" gradientUnits="userSpaceOnUse"><stop offset="0.01" stop-color="#6fa6a6"/><stop offset="0.32" stop-color="#6ea1a5"/><stop offset="0.67" stop-color="#6b94a1"/><stop offset="1" stop-color="#67819c"/></linearGradient><linearGradient id="linear-gradient-9" x1="195.44" y1="150.55" x2="210.22" y2="150.55" xlink:href="#linear-gradient-7"/><linearGradient id="linear-gradient-10" x1="198.49" y1="151.54" x2="212.22" y2="151.54" gradientUnits="userSpaceOnUse"><stop offset="0.01" stop-color="#7cbaba"/><stop offset="0.31" stop-color="#7bb5b9"/><stop offset="0.65" stop-color="#78a8b6"/><stop offset="1" stop-color="#7492b0"/></linearGradient><linearGradient id="linear-gradient-11" x1="215.04" y1="135.54" x2="239.68" y2="135.54" xlink:href="#linear-gradient-6"/><linearGradient id="linear-gradient-12" x1="218.08" y1="135.18" x2="236.85" y2="135.18" xlink:href="#linear-gradient-7"/><linearGradient id="linear-gradient-13" x1="220.05" y1="136.23" x2="238.33" y2="136.23" gradientTransform="matrix(1, 0, 0, 1, 0, 0)" xlink:href="#linear-gradient-8"/><linearGradient id="linear-gradient-14" x1="222.9" y1="136.65" x2="237.67" y2="136.65" xlink:href="#linear-gradient-7"/><linearGradient id="linear-gradient-15" x1="225.95" y1="137.63" x2="239.68" y2="137.63" xlink:href="#linear-gradient-10"/></defs><title>Lavadora_1</title><g id="Capa_2" data-name="Capa 2"><g id="Ñëîé_1" data-name="Ñëîé 1"><polygon class="cls-1" points="131.07 152.77 301.48 66.44 301.48 325.39 131.07 411.72 131.07 152.77"/><polygon class="cls-2" points="301.48 66.44 170.38 0 0 86.32 131.07 152.77 301.48 66.44"/><polygon class="cls-3" points="131.07 152.77 0 86.32 0 345.27 131.07 411.72 131.07 152.77"/><polygon class="cls-4" points="301.48 79.72 131.07 166.04 131.07 167.46 301.48 81.19 301.48 79.72"/><polygon class="cls-5" points="301.48 113.43 131.07 199.75 131.07 201.96 301.48 116.04 301.48 113.43"/><path class="cls-6" d="M219.35,183.15c35.34-17.9,64.08-3.53,64.19,32.09s-28.44,79-63.77,96.92-64.09,3.53-64.2-32.09S184,201.05,219.35,183.15Z"/><path class="cls-7" d="M194.53,315.47A36.24,36.24,0,0,1,178,311.74c-11.79-5.95-18.31-18.25-18.36-34.62-.05-15.9,6-33.9,17.06-50.7S202.56,196,218.32,188c16.35-8.28,31.88-9.54,43.74-3.55s18.31,18.25,18.36,34.62c.05,15.9-6,33.9-17.06,50.69s-25.81,30.44-41.58,38.43C212.23,313,203,315.47,194.53,315.47Zm51-129.32c-7.33,0-15.55,2.2-24.14,6.55-30.73,15.56-55.65,53.43-55.55,84.4,0,14.36,5.47,25,15.26,29.94s23.22,3.72,37.57-3.55c30.73-15.56,55.65-53.43,55.55-84.4,0-14.36-5.46-25-15.26-29.94A29.46,29.46,0,0,0,245.55,186.15Z"/><path class="cls-8" d="M268.24,223c-.09-27.1-22-38-48.84-24.42-13.58,6.88-25.84,18.71-34.64,32.23l69.69,33.55C263,251.16,268.28,236.36,268.24,223Z"/><path class="cls-8" d="M184.76,230.81c-8.62,13.24-13.93,28.09-13.88,41.5.08,27.11,22,38,48.84,24.42,13.62-6.9,25.92-18.8,34.73-32.37Z"/><path class="cls-9" d="M199.86,137c6.8-3.44,12.33-.68,12.36,6.18s-5.48,15.21-12.28,18.66-12.34.68-12.36-6.18S193.05,140.47,199.86,137Z"/><polygon class="cls-10" points="301.48 298.84 131.07 385.16 131.09 386.32 301.48 299.98 301.48 298.84"/><polygon class="cls-11" points="242.5 113.91 242.5 140.17 294.93 113.16 294.93 87.35 242.5 113.91"/><polygon class="cls-12" points="244.63 115.26 244.63 136.68 292.54 112.23 292.54 90.94 244.63 115.26"/><polygon class="cls-11" points="137.64 172.68 137.64 185.96 176.96 166.04 176.96 152.77 137.64 172.68"/><polygon class="cls-12" points="139.91 173.37 139.91 183.41 175.19 165.2 175.19 155.17 139.91 173.37"/><polygon class="cls-13" points="279.34 103.5 279.34 105.73 247.7 121.77 247.69 119.53 279.34 103.5"/><polygon class="cls-13" points="279.33 100.38 279.34 102.61 247.69 118.64 247.68 116.41 279.33 100.38"/><polygon class="cls-13" points="279.33 107.42 279.34 112.74 247.7 128.77 247.68 123.45 279.33 107.42"/><polygon class="cls-13" points="279.33 113.81 279.34 116.47 247.69 132.5 247.68 129.84 279.33 113.81"/><path class="cls-14" d="M286.16,99.42v.85l-.22.11-.21.11v-.85Z"/><path class="cls-14" d="M286.19,109.74v.85l-.44.22V110l.22-.11Z"/><path class="cls-14" d="M288.51,107.82l.42.52-.37.41-.43-.52C288.26,108.1,288.39,108,288.51,107.82Z"/><path class="cls-14" d="M283.36,101.48l.43.52c-.13.13-.26.27-.38.41l-.42-.52Z"/><path class="cls-14" d="M281.26,104.51l.74,0-.22.49-.74,0Z"/><path class="cls-14" d="M290.14,105.18l.74,0-.22.49-.74,0Z"/><path class="cls-14" d="M291.5,102.09v.44l-.85.43a1.7,1.7,0,0,0,0-.22,1.55,1.55,0,0,0,0-.22Z"/><path class="cls-14" d="M281.27,107.27a1.77,1.77,0,0,0,0,.23,1.48,1.48,0,0,0,0,.21l-.85.43v-.44Z"/><path class="cls-14" d="M281.79,109.41l.22.27-.73.79-.22-.27Z"/><path class="cls-14" d="M290.64,99.76l.22.27-.73.79a2.75,2.75,0,0,0-.22-.26Z"/><path class="cls-14" d="M283.44,110.39l.37,0-.42,1-.37,0Z"/><path class="cls-14" d="M288.53,98.86l.37,0-.42,1-.38,0Z"/><g class="cls-15"><path class="cls-16" d="M208,138.89l-.05,0-.07,0-.37-.16-.07,0-.06,0-.46-.14h0l-.51-.1h-.14l-.46,0h-.07s0,0,0,0h-1l-.41,0h0l-.46.07-.15,0-.29.06h0l-.54.15-.11,0a4,4,0,0,0-.45.15l-.06,0-.11,0-.49.19-.18.08-.65.31-.48.26-.16.08-.33.2-.18.11-.3.19-.18.12-.3.2-.17.12-.33.25-.12.09-.45.36-.09.07-.3.25s0,0,0,0c-.18.15-.35.31-.52.47l0,0-.47.47,0,0-.05.06c-.26.26-.51.52-.75.8l0,0-.06.07-.58.68a.1.1,0,0,1,0,.05l0,0c-.18.22-.35.44-.52.67l0,.06a.36.36,0,0,1-.07.1l-.39.57-.06.09,0,0c-.15.22-.29.44-.42.67a.1.1,0,0,0,0,.05l-.06.11c-.1.17-.21.34-.3.52l-.08.13,0,.06q-.19.35-.36.69v0l0,.07c-.11.21-.2.42-.3.63l0,.1a.87.87,0,0,1-.1.19,1.19,1.19,0,0,0-.24.63v0s0,0,0,0c-.1.26-.19.52-.27.77l0,.1,0,.09c0,.08-.05.15-.07.23a2.81,2.81,0,0,0-.08.31,1.55,1.55,0,0,0-.07.23c0,.05,0,.11,0,.16s0,.08,0,.12a3.59,3.59,0,0,0-.08.35c0,.08,0,.16,0,.24l-.06.36,0,.17a.06.06,0,0,1,0,0c0,.26-.06.51-.08.77,0,0,0,.1,0,.16,0,.26,0,.52,0,.77a6.22,6.22,0,0,0,.92,3.85,1.15,1.15,0,0,0,.7.44l3.33.7c-1.62-.82-2.62-2.58-2.63-5.08q0-.35,0-.69a.71.71,0,0,1,0-.14c0-.23,0-.45.07-.68l0-.19.06-.32c0-.07,0-.14,0-.21a2.82,2.82,0,0,1,.07-.31l.06-.25c0-.07,0-.14.05-.21s0-.18.08-.27l.06-.21.06-.16c.07-.23.15-.46.23-.68l0-.06.27-.66a1.11,1.11,0,0,0,.07-.16l.26-.56a.2.2,0,0,0,0-.08c.1-.21.21-.41.32-.61a.41.41,0,0,0,0-.09l.33-.57.07-.12c.12-.2.25-.4.38-.59l.07-.11c.11-.17.23-.34.35-.5l.11-.15c.14-.2.3-.4.45-.6l.08-.09c.16-.21.34-.41.51-.61l.05-.06c.22-.24.44-.48.67-.71l.09-.09.42-.41,0,0c.15-.14.3-.28.46-.41l.29-.25.09-.07c.13-.11.26-.22.4-.32l.11-.08a3.15,3.15,0,0,1,.29-.22l.15-.11.27-.18.16-.11.27-.17.16-.1.29-.17.14-.07.43-.23q.28-.15.57-.27l.17-.07c.14-.07.28-.12.43-.18l.15-.05.4-.14.1,0,.48-.13.28-.06.14,0,.4-.07h0l.36,0h1l.41,0h.12l.45.1h0l.41.13.11,0,.34.14,1.13.75Z"/><ellipse class="cls-17" cx="201.73" cy="150.13" rx="11.75" ry="7.16" transform="translate(-40.31 218.33) rotate(-52.39)"/></g><g class="cls-15"><path class="cls-18" d="M206.22,144.23l.11,0,.31-.11.07,0,.37-.1.22-.05.1,0,.31,0h0l.28,0h.26a2.54,2.54,0,0,1,.39,0h.07l.31,0h.1l.34.07h0l.31.1.09,0,.25.11.09,0h0l-3.06-1.56,0,0,0,0-.26-.11,0,0h0l-.31-.09h0l-.34-.07H206a1.55,1.55,0,0,0-.31,0h-.06a2.67,2.67,0,0,0-.4,0h-.26l-.28,0h0l-.31.05-.1,0-.19.05h0l-.37.1-.08,0-.3.1h0l-.08,0-.32.13-.13,0-.43.21-.33.17-.11.07-.22.12-.12.08a1.37,1.37,0,0,0-.2.13l-.13.08-.2.14-.11.08-.23.16-.08.07-.3.24-.07,0-.2.17,0,0-.35.32h0l-.33.32,0,0,0,0c-.18.17-.34.35-.51.54h0l0,.05-.38.45,0,.05,0,0-.34.45,0,0,0,.06-.27.39,0,.06,0,0-.28.45,0,0-.05.08-.21.36a.3.3,0,0,1,0,.08l0,0a5.06,5.06,0,0,0-.24.46v0a.08.08,0,0,0,0,.05c-.07.14-.14.28-.2.42l0,.07,0,.06c-.07.16-.14.33-.2.5h0v0l-.18.52a.14.14,0,0,1,0,.06l0,.06c0,.05,0,.1,0,.16l-.06.2a1.24,1.24,0,0,0,0,.16l0,.11s0,.05,0,.08,0,.16,0,.23l0,.17c0,.08,0,.16-.05.24a.5.5,0,0,1,0,.12v0l-.06.51v.11a4.61,4.61,0,0,0,0,.52,5,5,0,0,0,.67,2.65,4.63,4.63,0,0,0,.32.42,2.59,2.59,0,0,0,.37.37,3.58,3.58,0,0,0,.64.43l3.06,1.55a4,4,0,0,1-2-3.86c0-.17,0-.35,0-.52a.41.41,0,0,0,0-.11,4.88,4.88,0,0,1,.06-.52s0-.09,0-.14,0-.16,0-.24a1,1,0,0,1,0-.17,1.89,1.89,0,0,1,0-.23c0-.07,0-.13,0-.19a.94.94,0,0,0,0-.16l.06-.21,0-.15s0-.08,0-.13l.18-.52,0,0c.06-.17.13-.34.2-.51l.06-.12c.06-.14.12-.28.19-.42l0-.07.24-.46A.75.75,0,0,0,200,150l.21-.36a.41.41,0,0,1,.07-.11c.09-.15.18-.3.28-.45l.06-.09.26-.38a.44.44,0,0,0,.08-.11l.35-.45.06-.07c.12-.15.25-.31.38-.45l.05-.06c.16-.19.33-.37.5-.54l.07-.07.33-.32h0l.35-.32.23-.19.06,0a2.34,2.34,0,0,1,.31-.24.27.27,0,0,1,.08-.07l.22-.16.12-.08.2-.14.12-.08.21-.13.12-.08.22-.13.1-.06.33-.17.44-.21.12,0Z"/><path class="cls-19" d="M205.33,144.62c3.79-1.92,6.87-.38,6.89,3.44s-3.05,8.47-6.84,10.39-6.87.38-6.89-3.44S201.54,146.54,205.33,144.62Z"/></g><path class="cls-20" d="M227.32,123.12c6.8-3.45,12.33-.68,12.36,6.18S234.2,144.51,227.4,148s-12.34.68-12.36-6.18S220.51,126.57,227.32,123.12Z"/><g class="cls-15"><path class="cls-21" d="M235.43,125l-.05,0-.07,0-.37-.16-.07,0-.06,0-.46-.14h0l-.51-.1h-.14l-.46,0h-.1a5.8,5.8,0,0,0-.59,0h-.38l-.41,0h0l-.46.08-.15,0-.29.06h0l-.54.15-.11,0-.45.15-.06,0-.11,0-.49.19-.18.08-.65.3-.48.26-.16.09-.33.19-.18.11-.3.2a.94.94,0,0,0-.18.12l-.3.2-.17.12-.33.25-.12.09a5.46,5.46,0,0,0-.45.36l-.09.07-.3.25,0,0c-.18.15-.35.31-.52.47l0,0-.47.46-.05,0,0,.06c-.26.26-.51.52-.75.8l0,0-.06.06-.58.69,0,0,0,0-.52.68,0,.06a.36.36,0,0,1-.07.1l-.39.57-.06.09,0,0c-.15.22-.29.44-.43.66l0,.06-.06.11a5.39,5.39,0,0,0-.3.52l-.08.13,0,.06q-.19.35-.36.69v0l0,.07c-.11.21-.2.42-.3.63a1,1,0,0,0,0,.1.87.87,0,0,1-.1.19,1.16,1.16,0,0,0-.24.62,0,0,0,0,1,0,0v0c-.1.26-.19.52-.27.77l0,.1,0,.09c0,.07-.05.15-.07.23l-.09.3-.06.24,0,.16a.5.5,0,0,0,0,.12,3.59,3.59,0,0,0-.08.35c0,.08,0,.16,0,.24l-.06.36,0,.17a.06.06,0,0,1,0,0c0,.26-.06.51-.08.76a1,1,0,0,0,0,.17c0,.26,0,.51,0,.77a6.17,6.17,0,0,0,.92,3.85,1.14,1.14,0,0,0,.7.43L223,146c-1.62-.83-2.62-2.58-2.63-5.08q0-.35,0-.69a.66.66,0,0,1,0-.14c0-.23,0-.45.07-.68l0-.19.06-.32c0-.07,0-.14,0-.22s0-.2.07-.31l.06-.24c0-.07,0-.14,0-.21s.05-.18.08-.27l.06-.21a1,1,0,0,0,0-.16l.24-.69,0,0c.08-.22.18-.44.27-.66l.07-.16.26-.56a.3.3,0,0,0,0-.08c.1-.21.21-.41.32-.61a.31.31,0,0,0,.05-.1l.33-.56.07-.12c.12-.2.25-.4.38-.59a.41.41,0,0,1,.07-.11c.11-.17.23-.34.35-.5l.1-.15.46-.6.08-.09c.16-.21.34-.41.51-.61l.05-.06c.22-.25.44-.48.67-.71l.09-.09.42-.42,0,0c.15-.14.3-.28.46-.41l.29-.26.09-.07.4-.31.11-.08a3.15,3.15,0,0,1,.29-.22l.15-.11.27-.18.16-.11.27-.17.16-.1.29-.17.14-.08.43-.23L230,127l.17-.07.43-.17.15-.06.4-.13.09,0,.49-.13.28-.06.14,0,.4-.07h0l.36,0h1l.41,0,.12,0,.45.09h0l.41.13.11,0,.34.14s1.09.73,1.13.74Z"/><path class="cls-22" d="M229.16,127.05c5.05-2.55,9.16-.51,9.17,4.57s-4.06,11.25-9.11,13.8-9.15.5-9.17-4.57S224.11,129.6,229.16,127.05Z"/></g><g class="cls-15"><path class="cls-23" d="M233.68,130.33l.11-.05.31-.1.07,0,.37-.1.22-.05.1,0,.31-.05h0l.28,0h.72l.31,0,.09,0,.35.07h0l.31.1.09,0,.25.11a.2.2,0,0,1,.08,0h0l-3-1.56,0,0,0,0-.26-.11,0,0h-.05l-.3-.1h0l-.34-.07h-.1l-.31,0h-.72l-.28,0h0l-.31.05-.1,0-.2,0h0l-.36.1-.08,0-.3.11h0l-.08,0-.33.13-.12,0c-.14.07-.29.13-.43.21l-.33.17-.11.06-.22.13-.12.08a1.37,1.37,0,0,0-.2.13l-.13.08-.2.14-.11.08-.23.16-.08.07a3.24,3.24,0,0,0-.31.24l-.06.05-.2.17,0,0-.36.32h0l-.33.32,0,0,0,0a6.51,6.51,0,0,0-.51.54h0l0,0-.38.46,0,0,0,0-.34.45,0,0a.43.43,0,0,1,0,.07l-.27.39,0,.05,0,0c-.09.15-.19.29-.28.45l0,0-.05.08-.21.36,0,.07,0,.05a5.06,5.06,0,0,0-.24.46v0l0,.05-.19.42,0,.07,0,.05-.2.5h0v0l-.18.51a.19.19,0,0,1,0,.07s0,0,0,.06,0,.1,0,.15l-.06.21a.94.94,0,0,0,0,.16l0,.11s0,.05,0,.08a1.89,1.89,0,0,0,0,.23l0,.17c0,.08,0,.16-.05.24a.36.36,0,0,1,0,.11v0l-.06.52a.41.41,0,0,1,0,.11c0,.17,0,.35,0,.52a4.89,4.89,0,0,0,.67,2.64,2.83,2.83,0,0,0,.32.43,3.23,3.23,0,0,0,.37.37,3.08,3.08,0,0,0,.64.42l3,1.56a4.06,4.06,0,0,1-2-3.86c0-.17,0-.35,0-.52s0-.08,0-.11A4.88,4.88,0,0,1,226,140a.68.68,0,0,1,0-.14c0-.08,0-.16,0-.25a1.24,1.24,0,0,1,0-.16,1.55,1.55,0,0,1,.05-.23c0-.07,0-.13,0-.19a1.24,1.24,0,0,0,0-.16l.06-.21,0-.15,0-.13.18-.52v0l.21-.5a.61.61,0,0,0,.05-.12l.2-.42,0-.07.24-.46a.75.75,0,0,0,.07-.12l.21-.36a.75.75,0,0,1,.07-.12c.09-.15.18-.3.28-.44l.06-.09c.08-.13.17-.25.26-.38a.76.76,0,0,0,.08-.11c.12-.15.23-.31.35-.45l.06-.07c.12-.16.25-.31.38-.46l.05-.06c.16-.18.33-.36.5-.53l.07-.07.32-.32,0,0,.35-.31.23-.19.06-.06.3-.24.09-.06.22-.17.12-.08.2-.13.12-.09.21-.12.12-.08.22-.13.1-.06.33-.17.44-.21.12,0Z"/><path class="cls-24" d="M232.79,130.72c3.79-1.92,6.87-.38,6.89,3.44s-3.05,8.47-6.84,10.39-6.87.38-6.89-3.44S229,132.64,232.79,130.72Z"/></g><ellipse class="cls-25" cx="254.21" cy="224.81" rx="5.85" ry="22.85"/></g></g></svg>