<svg xmlns="http://www.w3.org/2000/svg" viewBox="0 0 247.72 397.77"><defs><style>.cls-1{fill:gray;}.cls-2{fill:#4d4d4d;}.cls-3{fill:#939598;}.cls-4{fill:#d1d3d4;}.cls-5{fill:#bcbec0;}.cls-6{fill:#a7a9ac;}.cls-7{fill:#808285;}.cls-8{fill:#6d6e71;}.cls-9{fill:#85e0ff;opacity:0.3;}.cls-10{fill:#1a1a1a;}.cls-11{fill:#6ab3cc;}.cls-12{fill:#666;}.cls-13{fill:#58595b;}</style></defs><title>Licuadora</title><g id="Capa_2" data-name="Capa 2"><g id="Ñëîé_1" data-name="Ñëîé 1"><polygon class="cls-1" points="171 63.2 191.23 75.1 229.67 52.49 209.82 40.65 171 63.2"/><polygon class="cls-1" points="171.91 173.72 191.36 184.67 214.75 170.44 195.8 160.04 171.91 173.72"/><polygon class="cls-2" points="191.31 89.12 191.23 75.1 171 63.2 170.87 77 191.31 89.12"/><polygon class="cls-2" points="191.36 198.67 191.36 184.44 171.91 173.72 171.88 187.1 191.36 198.67"/><polygon class="cls-3" points="195.8 160.04 214.75 170.44 214.73 75.25 196.04 85.52 195.8 160.04"/><polygon class="cls-4" points="230.33 175.76 229.67 52.49 191.23 75.1 191.31 89.12 214.51 75.47 214.75 170.44 191.36 184.67 191.36 198.67 230.33 175.76"/><polygon class="cls-5" points="25.39 214.92 0.46 314.68 122.69 386.56 122.69 272.13 25.39 214.92"/><polygon class="cls-4" points="219.98 214.92 247.72 312.83 122.69 386.56 122.69 272.13 219.98 214.92"/><polygon class="cls-6" points="25.39 214.92 122.69 157.72 219.98 214.92 122.69 272.13 25.39 214.92"/><polygon class="cls-7" points="122.69 397.77 122.69 386.56 247.72 312.83 247.67 321.56 122.69 397.77"/><polygon class="cls-8" points="0.46 314.5 0 325.67 122.69 397.77 122.69 386.56 0.46 314.5"/><path class="cls-5" d="M158.73,239.64c-20.71,12.18-54.41,12.12-75.26-.14s-20.95-32.07-.24-44.25,54.42-12.12,75.27.14S179.45,227.46,158.73,239.64Z"/><path class="cls-3" d="M154.5,232.16C136.11,243,106.18,242.93,87.67,232s-18.6-28.48-.21-39.3,48.32-10.75,66.84.12S172.9,221.34,154.5,232.16Z"/><path class="cls-8" d="M136.54,219.4c-8.59,5.06-22.55,5-31.2-.06s-8.69-13.29-.1-18.35,22.56-5,31.21.06S145.14,214.35,136.54,219.4Z"/><path class="cls-9" d="M166.72,241.17c-12.31,7.24-28.34,10.6-44.51,10.53-16-.06-32.19-3.48-44.44-10.69-24.63-14.48-24.76-37.9-.27-52.29s64.3-14.33,88.94.17S191.19,226.77,166.72,241.17Z"/><rect class="cls-3" x="113.44" y="182.9" width="13.76" height="28.33"/><path class="cls-7" d="M125.43,187a11,11,0,0,1-10.07,0c-2.79-1.64-2.79-4.29,0-5.93a11,11,0,0,1,10.08,0C128.19,182.66,128.2,185.32,125.43,187Z"/><path class="cls-3" d="M125.6,213.7a11.44,11.44,0,0,1-10.54,0c-2.92-1.72-2.93-4.49,0-6.2a11.49,11.49,0,0,1,10.55,0C128.5,209.22,128.51,212,125.6,213.7Z"/><path class="cls-9" d="M182.46,226.55c-7.14,15.37-33.33,26.93-60.1,26.74-26-.17-52.59-11.64-59.74-26.63C43.85,187.3,21.83,65.33,21.83,65.33L218.63,65S198.82,191.39,182.46,226.55Z"/><path class="cls-1" d="M190,106.32c-38.32,22.54-100.64,22.42-139.2-.25s-42.93-64.46-4.6-87S155.39-2,194,20.63,228.32,83.79,190,106.32Z"/><path class="cls-10" d="M190.05,98.93c-38.32,22.52-100.64,22.41-139.2-.27s-38.76-59.3-.44-81.84,100.65-22.41,139.2.26S228.37,76.39,190.05,98.93Z"/><path class="cls-11" d="M148.29,70.65c-16,9.4-42,9.35-58.09-.1s-17.91-26.9-1.92-36.31,45.57-8.82,61.67.65S164.29,61.25,148.29,70.65Z"/><path class="cls-12" d="M148.31,67.56c-16,9.4-42,9.35-58.09-.11S74.05,42.7,90,33.3s42-9.35,58.09.11S164.3,58.16,148.31,67.56Z"/><path class="cls-8" d="M87,309.59c0,15.81-11,22.18-24.5,14.22S38,296.59,38,280.78s11-22.17,24.5-14.22S87,293.78,87,309.59Z"/><path class="cls-5" d="M77.47,308.6c0,12.73-8.82,17.85-19.71,11.45S38,298.14,38,285.42,46.87,267.57,57.76,274,77.48,295.88,77.47,308.6Z"/><path class="cls-13" d="M72,308.42c0,11-7.6,15.38-17,9.86s-17-18.86-17-29.84,7.59-15.36,17-9.84S72,297.46,72,308.42Z"/></g></g></svg>