<svg xmlns="http://www.w3.org/2000/svg" viewBox="0 0 379.77 357.46"><defs><style>.cls-1{fill:#bebebe;}.cls-2{fill:#808285;}.cls-3{fill:#231f20;}.cls-4{fill:#17353d;}.cls-5{fill:#bcbec0;}.cls-6{fill:#59a929;}.cls-7{fill:#58595b;}.cls-8{fill:#2c8aa3;}.cls-9{fill:#a7a9ac;}.cls-10{fill:#939598;}.cls-11{fill:#6d6e71;}.cls-12{fill:#247e96;}</style></defs><title>Microondas</title><g id="Capa_2" data-name="Capa 2"><g id="Ñëîé_1" data-name="Ñëîé 1"><polygon class="cls-1" points="274.83 0 0.05 144.17 94.14 193.45 368.85 49.17 274.83 0"/><polygon class="cls-2" points="368.84 49.12 93.84 193.43 104.76 199.16 379.77 54.89 368.84 49.12"/><polygon class="cls-3" points="368.84 49.12 93.84 193.43 94.15 193.59 369.24 49.32 368.84 49.12"/><polygon class="cls-3" points="379.77 213.18 104.77 357.46 104.77 199.17 379.77 54.89 379.77 213.18"/><polygon class="cls-4" points="376.93 211.46 107.69 352.73 107.69 200.09 376.93 58.82 376.93 211.46"/><polygon class="cls-5" points="369.69 70.16 369.69 183.22 320.9 208.81 320.9 95.75 369.69 70.16"/><polygon class="cls-5" points="369.69 186.43 369.69 207.15 320.9 232.75 320.9 212.03 369.69 186.43"/><polygon class="cls-6" points="364.03 117.18 325.64 137.33 325.63 116.42 364.03 96.28 364.03 117.18"/><polygon class="cls-7" points="325.63 159.68 336.31 154.07 336.31 148.26 325.63 153.86 325.63 159.68"/><polygon class="cls-7" points="339.49 152.4 350.16 146.8 350.16 140.99 339.49 146.59 339.49 152.4"/><polygon class="cls-7" points="325.63 169.74 336.31 164.14 336.31 158.31 325.63 163.93 325.63 169.74"/><polygon class="cls-7" points="339.49 162.47 350.16 156.86 350.16 151.05 339.49 156.65 339.49 162.47"/><polygon class="cls-7" points="325.63 179.99 336.31 174.39 336.31 168.57 325.63 174.17 325.63 179.99"/><polygon class="cls-7" points="339.49 172.72 350.16 167.11 350.16 161.3 339.49 166.91 339.49 172.72"/><polygon class="cls-7" points="325.63 190.05 336.31 184.45 336.31 178.64 325.63 184.24 325.63 190.05"/><polygon class="cls-7" points="339.49 182.78 350.16 177.17 350.16 171.36 339.49 176.97 339.49 182.78"/><polygon class="cls-7" points="353.36 139.32 353.36 145.13 364.03 139.53 364.03 133.72 353.36 139.32"/><polygon class="cls-7" points="353.36 155.2 364.03 149.59 364.03 143.78 353.36 149.38 353.36 155.2"/><polygon class="cls-7" points="353.36 165.45 364.03 159.85 364.03 154.03 353.36 159.64 353.36 165.45"/><polygon class="cls-7" points="353.36 175.51 364.03 169.91 364.03 164.09 353.36 169.7 353.36 175.51"/><polygon class="cls-8" points="317.55 235.07 116.16 340.74 116.16 203.18 317.55 97.52 317.55 235.07"/><polygon class="cls-9" points="93.96 351.76 93.94 193.33 0.05 144.06 0 302.46 93.96 351.76"/><polygon class="cls-10" points="80.92 267.86 80.92 300.71 13.14 265.15 13.14 232.29 80.92 267.86"/><polygon class="cls-2" points="80.82 268.26 80.82 268.88 13.04 233.32 13.04 232.7 80.82 268.26"/><polygon class="cls-2" points="80.82 269.26 80.82 269.88 13.04 234.32 13.04 233.69 80.82 269.26"/><polygon class="cls-2" points="80.82 270.29 80.82 270.91 13.04 235.35 13.04 234.73 80.82 270.29"/><polygon class="cls-2" points="80.82 271.31 80.82 271.93 13.04 236.37 13.04 235.74 80.82 271.31"/><polygon class="cls-2" points="80.82 272.28 80.82 272.91 13.04 237.34 13.04 236.72 80.82 272.28"/><polygon class="cls-2" points="80.82 273.28 80.82 273.9 13.04 238.34 13.04 237.72 80.82 273.28"/><polygon class="cls-2" points="80.82 274.32 80.82 274.94 13.04 239.37 13.04 238.75 80.82 274.32"/><polygon class="cls-2" points="80.82 275.33 80.82 275.95 13.04 240.39 13.04 239.77 80.82 275.33"/><polygon class="cls-2" points="80.82 276.31 80.82 276.93 13.04 241.37 13.04 240.74 80.82 276.31"/><polygon class="cls-2" points="80.82 277.31 80.82 277.93 13.04 242.36 13.04 241.74 80.82 277.31"/><polygon class="cls-2" points="80.82 278.34 80.82 278.96 13.04 243.4 13.04 242.78 80.82 278.34"/><polygon class="cls-2" points="80.82 279.35 80.82 279.98 13.04 244.42 13.04 243.79 80.82 279.35"/><polygon class="cls-2" points="80.82 280.34 80.82 280.96 13.04 245.4 13.04 244.77 80.82 280.34"/><polygon class="cls-2" points="80.82 281.34 80.82 281.96 13.04 246.39 13.04 245.77 80.82 281.34"/><polygon class="cls-2" points="80.82 282.36 80.82 282.99 13.04 247.43 13.04 246.8 80.82 282.36"/><polygon class="cls-2" points="80.82 283.38 80.82 284.01 13.04 248.44 13.04 247.82 80.82 283.38"/><polygon class="cls-2" points="80.82 284.48 80.82 285.1 13.04 249.53 13.04 248.91 80.82 284.48"/><polygon class="cls-2" points="80.82 285.47 80.82 286.09 13.04 250.53 13.04 249.91 80.82 285.47"/><polygon class="cls-2" points="80.82 286.5 80.82 287.13 13.04 251.56 13.04 250.94 80.82 286.5"/><polygon class="cls-2" points="80.82 287.52 80.82 288.15 13.04 252.58 13.04 251.95 80.82 287.52"/><polygon class="cls-2" points="80.82 288.5 80.82 289.13 13.04 253.57 13.04 252.94 80.82 288.5"/><polygon class="cls-2" points="80.82 289.5 80.82 290.12 13.04 254.56 13.04 253.94 80.82 289.5"/><polygon class="cls-2" points="80.82 290.54 80.82 291.16 13.04 255.59 13.04 254.97 80.82 290.54"/><polygon class="cls-2" points="80.82 291.55 80.82 292.18 13.04 256.61 13.04 255.99 80.82 291.55"/><polygon class="cls-2" points="80.82 292.53 80.82 293.14 13.04 257.58 13.04 256.96 80.82 292.53"/><polygon class="cls-2" points="80.82 293.52 80.82 294.14 13.04 258.58 13.04 257.96 80.82 293.52"/><polygon class="cls-2" points="80.82 294.56 80.82 295.18 13.04 259.62 13.04 259 80.82 294.56"/><polygon class="cls-2" points="80.82 295.57 80.82 296.19 13.04 260.63 13.04 260.01 80.82 295.57"/><polygon class="cls-2" points="80.82 296.55 80.82 297.17 13.04 261.61 13.04 260.99 80.82 296.55"/><polygon class="cls-2" points="80.82 297.55 80.82 298.17 13.04 262.61 13.04 261.98 80.82 297.55"/><polygon class="cls-2" points="80.82 298.58 80.82 299.2 13.04 263.64 13.04 263.02 80.82 298.58"/><polygon class="cls-2" points="80.82 299.6 80.82 300.22 13.04 264.66 13.04 264.03 80.82 299.6"/><polygon class="cls-10" points="80.92 230.67 80.92 263.53 13.14 227.96 13.14 195.11 80.92 230.67"/><polygon class="cls-2" points="80.82 231.07 80.82 231.7 13.04 196.13 13.04 195.51 80.82 231.07"/><polygon class="cls-2" points="80.82 232.07 80.82 232.69 13.04 197.13 13.04 196.5 80.82 232.07"/><polygon class="cls-2" points="80.82 233.1 80.82 233.73 13.04 198.16 13.04 197.54 80.82 233.1"/><polygon class="cls-2" points="80.82 234.12 80.82 234.74 13.04 199.18 13.04 198.56 80.82 234.12"/><polygon class="cls-2" points="80.82 235.1 80.82 235.72 13.04 200.16 13.04 199.54 80.82 235.1"/><polygon class="cls-2" points="80.82 236.1 80.82 236.72 13.04 201.16 13.04 200.53 80.82 236.1"/><polygon class="cls-2" points="80.82 237.13 80.82 237.75 13.04 202.19 13.04 201.57 80.82 237.13"/><polygon class="cls-2" points="80.82 238.15 80.82 238.77 13.04 203.21 13.04 202.59 80.82 238.15"/><polygon class="cls-2" points="80.82 239.12 80.82 239.75 13.04 204.18 13.04 203.56 80.82 239.12"/><polygon class="cls-2" points="80.82 240.12 80.82 240.74 13.04 205.18 13.04 204.56 80.82 240.12"/><polygon class="cls-2" points="80.82 241.16 80.82 241.78 13.04 206.22 13.04 205.6 80.82 241.16"/><polygon class="cls-2" points="80.82 242.17 80.82 242.79 13.04 207.23 13.04 206.61 80.82 242.17"/><polygon class="cls-2" points="80.82 243.15 80.82 243.78 13.04 208.21 13.04 207.58 80.82 243.15"/><polygon class="cls-2" points="80.82 244.15 80.82 244.77 13.04 209.2 13.04 208.58 80.82 244.15"/><polygon class="cls-2" points="80.82 245.18 80.82 245.8 13.04 210.24 13.04 209.62 80.82 245.18"/><polygon class="cls-2" points="80.82 246.2 80.82 246.82 13.04 211.25 13.04 210.63 80.82 246.2"/><polygon class="cls-2" points="80.82 247.29 80.82 247.91 13.04 212.34 13.04 211.73 80.82 247.29"/><polygon class="cls-2" points="80.82 248.28 80.82 248.91 13.04 213.34 13.04 212.72 80.82 248.28"/><polygon class="cls-2" points="80.82 249.32 80.82 249.94 13.04 214.38 13.04 213.76 80.82 249.32"/><polygon class="cls-2" points="80.82 250.33 80.82 250.96 13.04 215.4 13.04 214.77 80.82 250.33"/><polygon class="cls-2" points="80.82 251.32 80.82 251.94 13.04 216.38 13.04 215.76 80.82 251.32"/><polygon class="cls-2" points="80.82 252.31 80.82 252.94 13.04 217.37 13.04 216.75 80.82 252.31"/><polygon class="cls-2" points="80.82 253.35 80.82 253.97 13.04 218.4 13.04 217.78 80.82 253.35"/><polygon class="cls-2" points="80.82 254.36 80.82 254.99 13.04 219.43 13.04 218.8 80.82 254.36"/><polygon class="cls-2" points="80.82 255.34 80.82 255.96 13.04 220.4 13.04 219.78 80.82 255.34"/><polygon class="cls-2" points="80.82 256.33 80.82 256.96 13.04 221.4 13.04 220.78 80.82 256.33"/><polygon class="cls-2" points="80.82 257.37 80.82 258 13.04 222.43 13.04 221.81 80.82 257.37"/><polygon class="cls-2" points="80.82 258.39 80.82 259.01 13.04 223.45 13.04 222.83 80.82 258.39"/><polygon class="cls-2" points="80.82 259.37 80.82 259.99 13.04 224.42 13.04 223.8 80.82 259.37"/><polygon class="cls-2" points="80.82 260.36 80.82 260.98 13.04 225.42 13.04 224.79 80.82 260.36"/><polygon class="cls-2" points="80.82 261.39 80.82 262.02 13.04 226.46 13.04 225.84 80.82 261.39"/><polygon class="cls-2" points="80.82 262.41 80.82 263.04 13.04 227.47 13.04 226.85 80.82 262.41"/><polygon class="cls-11" points="104.84 357.46 104.81 199.03 93.94 193.33 93.92 351.74 104.84 357.46"/><polygon class="cls-3" points="94.22 351.9 94.24 193.58 93.94 193.33 93.92 351.74 94.22 351.9"/><polygon class="cls-12" points="116.16 203.18 116.16 340.74 317.55 235.07 116.16 203.18"/></g></g></svg>