<svg xmlns="http://www.w3.org/2000/svg" viewBox="0 0 336.32 512"><defs><style>.cls-1{fill:#d8d8da;}.cls-2{isolation:isolate;}.cls-3{fill:#c6c5cb;}.cls-4{fill:#acabb1;}.cls-5{fill:#77767e;}.cls-6{fill:#898890;}.cls-7{fill:#1d1d1f;}.cls-8{fill:#cccccd;}.cls-9{fill:#3e3d43;}</style></defs><title>Monitor </title><g id="Capa_2" data-name="Capa 2"><g id="Layer_1" data-name="Layer 1"><polygon class="cls-1" points="105.93 355.61 227.76 284.81 238.6 294.05 214.5 394.62 272.99 428.39 272.96 441.2 151.12 512 78.5 470.07 105.93 355.61"/><g class="cls-2"><polygon class="cls-3" points="151.12 512 272.96 441.2 272.99 428.39 151.16 499.19 151.12 512"/><polygon class="cls-4" points="92.66 465.42 214.5 394.62 238.6 294.05 116.76 364.85 92.66 465.42"/><polygon class="cls-5" points="116.76 364.85 238.6 294.05 227.76 284.81 105.93 355.61 116.76 364.85"/><polygon class="cls-6" points="105.93 355.61 78.5 470.07 151.12 512 151.16 499.19 92.66 465.42 116.76 364.85 105.93 355.61"/></g><polygon class="cls-3" points="0 169.57 307.25 0 336.32 6.37 336.32 6.37 336.32 271.82 336.32 271.82 336.32 307.43 23.87 492.23 23.87 205.06 23.87 205.06 23.87 177.76 267.46 44.14 23.78 177.8 19.02 176.15 23.87 177.84 23.86 492.11 0.23 479.37 0.19 169.64 0 169.57"/><path class="cls-7" d="M199.43,362.24c4-2.29,7.2-.45,7.21,4.11a15.81,15.81,0,0,1-7.16,12.4c-4,2.29-7.19.45-7.21-4.11A15.8,15.8,0,0,1,199.43,362.24Z"/><polygon class="cls-4" points="23.87 177.84 23.86 492.11 0.23 479.37 0.19 169.57 23.87 177.84"/><polygon class="cls-1" points="307.25 0 336.32 6.37 23.78 177.8 0 169.57 307.25 0"/><polygon class="cls-8" points="307.25 0 336.32 6.37 23.78 177.8 0 169.57 307.25 0"/><polygon class="cls-7" points="23.87 452 336.32 271.82 336.32 6.37 23.87 177.76 23.87 452"/><polygon class="cls-9" points="37.66 426.26 325.03 259.52 325.03 26.48 37.66 184.44 37.66 426.26"/></g></g></svg>