<svg xmlns="http://www.w3.org/2000/svg" viewBox="0 0 307.23 291.73"><defs><style>.cls-1{fill:#e9eaeb;}.cls-2{fill:#414042;}.cls-3{fill:#f1f2f2;}.cls-4{fill:#d1d3d4;}.cls-5{fill:gray;}.cls-6{fill:#96a9a9;}.cls-7{fill:#231f20;}.cls-8{fill:#58595b;}.cls-9{fill:#a7a9ac;}</style></defs><title>Plancha</title><g id="Capa_2" data-name="Capa 2"><g id="Ñëîé_1" data-name="Ñëîé 1"><polygon class="cls-1" points="0 130.97 27.69 189.5 304.86 285.17 268.57 227.68 0 130.97"/><path class="cls-2" d="M27.69,189.5l-5,1.54S149.21,296.47,307.2,291.56l-15.07-73.7-2.91,11.26,16.49,55.94S165.15,278.65,27.69,189.5Z"/><path class="cls-3" d="M21.51,195.3l-.08,1.82s127.63,99.31,285.62,94.42l-9.3-44.79-5.5-29.24L306.11,287l-19.76-.72S174,291.76,21.51,195.3Z"/><path class="cls-4" d="M22.65,191l-1.14,4.26s127.14,93.84,285.69,96.26l-.18-6.43-1.53,1.34S175.08,287.49,22.65,191Z"/><path class="cls-1" d="M78.88,3.19S238.46,53,289.53,209.31c2.21,6.8,3.66,12.93,3.66,12.93l2.44,16-31.2-9.92S200.48,59.13,41.1,15.87L65.41,0Z"/><path class="cls-5" d="M287.72,235.85l-4.4,1.39c2.45,6.43,4,10.58,4,10.58C161.84,248.36,31.88,167.69,11,154.16L27.69,189.5S170.09,285.71,307,285.13C307,285.13,297.4,259.14,287.72,235.85Z"/><path class="cls-4" d="M32.67,145.57,96.74,90.12S167.54,117.26,214,211.59C214,211.59,120.43,197.27,32.67,145.57Z"/><path class="cls-6" d="M32.71,145.77,52.65,75.2s33.59,6.91,44.09,14.92Z"/><path class="cls-7" d="M172.07,155.45c-15.84,10.8-43.37,14.27-61.52,7.72s-20-20.64-4.2-31.46,43.38-14.27,61.52-7.73S187.9,144.62,172.07,155.45Z"/><path class="cls-7" d="M168.34,154.08C152.5,164.9,125,168.35,106.8,161.8s-20-20.63-4.19-31.45,43.38-14.27,61.54-7.72S184.17,143.25,168.34,154.08Z"/><path class="cls-8" d="M169.7,155.48c-15.84,10.8-43.38,14.27-61.54,7.71s-20-20.64-4.19-31.45,43.39-14.27,61.53-7.73S185.53,144.65,169.7,155.48Z"/><path class="cls-7" d="M164.66,152.91c-12.41,8.48-34,11.18-48.22,6.05s-15.7-16.17-3.29-24.65,34-11.19,48.22-6.05S177.08,144.44,164.66,152.91Z"/><path class="cls-9" d="M162.6,152.9c-12.42,8.49-34,11.2-48.24,6.07s-15.69-16.19-3.28-24.67,34-11.18,48.23-6.05S175,144.42,162.6,152.9Z"/><path class="cls-8" d="M157.23,150.36c-9,6.12-24.56,8.08-34.83,4.37s-11.34-11.68-2.36-17.81,24.54-8.08,34.81-4.37S166.18,144.22,157.23,150.36Z"/><path class="cls-4" d="M154.79,149.88c-9,6.12-24.55,8.07-34.83,4.37s-11.33-11.68-2.36-17.81,24.55-8.07,34.82-4.37S163.75,143.75,154.79,149.88Z"/><path class="cls-3" d="M52.68,75.28s99.1,14,161.35,136.39L266.46,229C181.48,53.42,41.1,15.87,41.1,15.87l-14,12.92L0,131l32.67,14.6Z"/><path class="cls-1" d="M303.59,282.35a2.75,2.75,0,0,1,.41,0l-15.66-43S208.72,102.55,167.58,67.65,41.1,15.87,41.1,15.87l-14,12.92s42.33,11,101.34,48.58c72.83,46.45,153.68,172.76,173.81,205.5A3,3,0,0,1,303.59,282.35Z"/><path class="cls-9" d="M299.71,244.7c-1.09-4.54-9.78-11.14-10-9.31-1.23,9.86-3.09-5.24-3.09-5.24l20.6,61.41S308,279.34,299.71,244.7Z"/><path class="cls-4" d="M304.38,282.26h.09a397.51,397.51,0,0,0-8.84-44c-4.92-18.75-12.43-39.91-21.05-56.08-21.9-41-38.81-70.2-77.64-104.82C146.29,32.22,65.41,0,65.41,0L41.1,15.87C159.31,56.4,208.66,118.74,247.8,181.52c33.4,53.57,51.3,91.09,55.84,101A3.21,3.21,0,0,1,304.38,282.26Z"/><path class="cls-5" d="M279.69,247.76l6.1-.78,9.84-8.7-2.44-16s11.14,40.71,13.34,62.33a4.33,4.33,0,0,1-1.68.6l-1.35-.24Z"/></g></g></svg>