<svg xmlns="http://www.w3.org/2000/svg" viewBox="0 0 471.86 368.29"><defs><style>.cls-1{isolation:isolate;}.cls-2{fill:#c7bbbc;}.cls-3{opacity:0.2;mix-blend-mode:soft-light;}.cls-4{fill:#322320;}.cls-5{fill:#ded4d1;}.cls-6{fill:#f7f0ed;}.cls-7{fill:#fff;opacity:0.3;}.cls-8{fill:#3a3945;}.cls-9{fill:#17161c;}.cls-10{fill:#6bc8f1;}</style></defs><title>Proyector_1</title><g class="cls-1"><g id="Capa_2" data-name="Capa 2"><g id="Ñëîé_1" data-name="Ñëîé 1"><path class="cls-2" d="M209.64,233.13,336.38,163c5.78-3.2,10.5.22,10.5,7.61h0c0,2.3,1.47,3.36,3.27,2.36l111-61.46c5.87-3.25,10.68.24,10.68,7.75v89.13c0,7.51-4.81,16.31-10.68,19.56L209.82,367.07c-5.88,3.25-10.68-.23-10.68-7.74v-107C199.14,245,203.86,236.33,209.64,233.13Z"/><path class="cls-3" d="M199.14,252.37v107c0,5.6,2.67,9,6.46,9a8.77,8.77,0,0,0,4.22-1.22L461.18,227.93c5.87-3.25,10.68-12.05,10.68-19.56V119.24c0-5.6-2.67-9-6.47-9a8.82,8.82,0,0,0-4.21,1.21L350.15,173a2.66,2.66,0,0,1-1.3.38c-1.16,0-2-1-2-2.74,0-5.51-2.62-8.81-6.36-8.81a8.56,8.56,0,0,0-4.14,1.2L209.64,233.13C203.86,236.33,199.14,245,199.14,252.37Zm4.23,0c0-5.9,3.92-13.25,8.39-15.72L338.5,166.49a4.55,4.55,0,0,1,2-.66c1.4,0,2.13,2.4,2.13,4.76,0,4.46,3.12,6.8,6.2,6.8a7,7,0,0,0,3.41-.92l111-61.46a4.67,4.67,0,0,1,2.1-.68,1.39,1.39,0,0,1,1.21.68,7.46,7.46,0,0,1,1,4.23v89.13c0,6-4,13.52-8.57,16L207.7,363.56a4.69,4.69,0,0,1-2.1.67c-1.53,0-2.23-2.54-2.23-4.9Z"/><path class="cls-4" d="M373.43,200.66l72.45-40.1a7.82,7.82,0,0,0,3.44-6.31h0c0-2.42-1.54-3.54-3.44-2.49l-72.45,40.11a7.8,7.8,0,0,0-3.44,6.3h0C370,200.6,371.53,201.72,373.43,200.66Z"/><path class="cls-4" d="M373.43,217.92l72.45-40.11a7.8,7.8,0,0,0,3.44-6.3h0c0-2.43-1.54-3.55-3.44-2.49l-72.45,40.1a7.84,7.84,0,0,0-3.44,6.31h0C370,217.86,371.53,219,373.43,217.92Z"/><path class="cls-4" d="M373.43,235.18l72.45-40.11a7.82,7.82,0,0,0,3.44-6.3h0c0-2.43-1.54-3.55-3.44-2.5l-72.45,40.11a7.8,7.8,0,0,0-3.44,6.3h0C370,235.11,371.53,236.23,373.43,235.18Z"/><path class="cls-4" d="M373.43,252.43l72.45-40.11a7.8,7.8,0,0,0,3.44-6.3h0c0-2.43-1.54-3.54-3.44-2.49l-72.45,40.1a7.84,7.84,0,0,0-3.44,6.31h0C370,252.37,371.53,253.48,373.43,252.43Z"/><path class="cls-5" d="M10.5,122.86C4.73,126.05,0,134.71,0,142.1v107c0,4.12,1.45,7,3.72,8.27,1.88,1,199.15,110.28,199.15,110.28h0c-2.28-1.25-3.74-4.15-3.74-8.28v-107c0-7.38,4.72-16,10.5-19.24L10.5,122.86Z"/><path class="cls-6" d="M157,59.36l-12.5-6.92-.81-.45c-1.78-.8-4-.64-6.45.71L10.5,122.86,209.64,233.13h0L336.38,163c2.69-1.48,5.14-1.52,7-.41Z"/><path class="cls-5" d="M157,59.36,262,1.22c2.65-1.47,5.09-1.56,7-.53L468,110.87h0c-1.85-.93-4.21-.8-6.78.62L350.15,173c-1.8,1-3.27-.06-3.27-2.36,0-4-1.36-6.75-3.5-8Z"/><path class="cls-7" d="M209.64,233.13,10.5,122.86C4.73,126.05,0,134.71,0,142.1H0L199.14,252.37C199.14,245,203.86,236.33,209.64,233.13Z"/><path class="cls-8" d="M334,230.16c-15.84-8.77-41.51,5.44-57.35,31.74s-15.83,54.72,0,63.48,41.51-5.44,57.35-31.74S349.82,238.92,334,230.16ZM326.5,289.5c-11.7,19.43-30.67,29.93-42.37,23.45s-11.7-27.48,0-46.91,30.67-29.93,42.37-23.45S338.2,270.07,326.5,289.5Z"/><path class="cls-9" d="M306.89,215.16c-15.84-8.77-41.51,5.44-57.35,31.74s-15.83,54.72,0,63.48l27.1,15c-15.83-8.76-15.83-37.18,0-63.48s41.51-40.51,57.35-31.74Z"/><path class="cls-9" d="M326.5,242.59a15.32,15.32,0,0,0-5.55-1.78c-9.54,1.11-25.13,9.5-35.12,26.09s-7.36,33-6.09,42.32a14.73,14.73,0,0,0,4.39,3.73c11.7,6.48,30.67-4,42.37-23.45S338.2,249.06,326.5,242.59Z"/><path class="cls-10" d="M284.13,266c-10,16.59-11.45,34.32-4.38,43.19,11.54,1.43,26.83-8.64,36.81-25.23S328,249.68,321,240.81C309.41,239.38,294.12,249.45,284.13,266Z"/><path class="cls-7" d="M303.51,277.24c16.11-21.79,16.84-9.17,7.65,5.45C300.35,299.88,289.31,296.45,303.51,277.24Z"/><path class="cls-8" d="M260.61,232.07a92.34,92.34,0,0,0-11.07,14.83q-1.17,1.95-2.23,3.92l27.1,15q1.06-2,2.23-3.92a92.34,92.34,0,0,1,11.07-14.83Z"/></g></g></g></svg>