<svg xmlns="http://www.w3.org/2000/svg" viewBox="0 0 439 447.87"><defs><style>.cls-1{fill:#999;}.cls-2{fill:#a9aaaa;}.cls-3{fill:#ccc;}.cls-4{fill:#010206;}.cls-5{fill:#353430;}.cls-6{fill:#505052;}.cls-7{fill:#5c5e5e;}.cls-8{fill:gray;}.cls-9{fill:#666;}.cls-10{fill:#333;}</style></defs><title>Radio</title><g id="Capa_2" data-name="Capa 2"><g id="Ñëîé_1" data-name="Ñëîé 1"><polygon class="cls-1" points="82.7 279.95 82.7 447.87 439 220.66 439 52.74 82.7 279.95"/><polygon class="cls-2" points="149.86 373.45 371.84 231.89 371.84 127.16 149.86 268.71 149.86 373.45"/><ellipse class="cls-3" cx="370.29" cy="180.51" rx="82.71" ry="45.14" transform="translate(21.3 399.38) rotate(-58.08)"/><ellipse class="cls-4" cx="370.29" cy="180.51" rx="71.65" ry="39.1" transform="translate(21.3 399.38) rotate(-58.08)"/><ellipse class="cls-5" cx="370.29" cy="180.51" rx="54.4" ry="29.69" transform="translate(21.3 399.38) rotate(-58.08)"/><ellipse class="cls-6" cx="370.29" cy="180.51" rx="19.46" ry="10.62" transform="translate(21.3 399.38) rotate(-58.08)"/><ellipse class="cls-3" cx="151.41" cy="320.09" rx="82.71" ry="45.14" transform="translate(-200.34 279.38) rotate(-58.08)"/><ellipse class="cls-4" cx="151.41" cy="320.09" rx="71.65" ry="39.1" transform="translate(-200.34 279.38) rotate(-58.08)"/><ellipse class="cls-5" cx="151.41" cy="320.09" rx="54.4" ry="29.69" transform="translate(-200.34 279.38) rotate(-58.08)"/><ellipse class="cls-6" cx="151.41" cy="320.09" rx="19.46" ry="10.62" transform="translate(-200.34 279.38) rotate(-58.08)"/><polygon class="cls-3" points="304.22 138.68 304.22 306.61 307.33 304.62 307.33 136.7 304.22 138.68"/><polygon class="cls-3" points="214.37 195.98 214.37 363.9 217.48 361.92 217.48 194 214.37 195.98"/><path class="cls-3" d="M220,305.56l81.76-52.14V195L220,247.19ZM298.63,252l-75.55,48.18V248.64l75.55-48.18Z"/><polygon class="cls-3" points="235.2 252.75 286.5 220.04 286.5 236.52 235.2 269.24 235.2 252.75"/><polygon class="cls-3" points="288.52 266.14 301.74 257.71 301.74 270.42 288.52 278.84 288.52 266.14"/><polygon class="cls-3" points="271.38 277.07 284.6 268.64 284.6 281.35 271.38 289.77 271.38 277.07"/><polygon class="cls-3" points="254.25 288 267.46 279.57 267.46 292.28 254.25 300.7 254.25 288"/><polygon class="cls-3" points="237.11 298.93 250.32 290.5 250.32 303.21 237.11 311.63 237.11 298.93"/><polygon class="cls-3" points="219.97 309.86 233.18 301.43 233.18 314.14 219.97 322.56 219.97 309.86"/><ellipse class="cls-7" cx="298.04" cy="189.2" rx="5.04" ry="2.75" transform="translate(-20.13 342.15) rotate(-58.08)"/><ellipse class="cls-7" cx="287.41" cy="195.97" rx="5.04" ry="2.75" transform="translate(-30.88 336.32) rotate(-58.08)"/><ellipse class="cls-7" cx="276.79" cy="202.75" rx="5.04" ry="2.75" transform="translate(-41.64 330.5) rotate(-58.08)"/><ellipse class="cls-7" cx="266.16" cy="209.52" rx="5.04" ry="2.75" transform="translate(-52.4 324.67) rotate(-58.08)"/><ellipse class="cls-7" cx="255.54" cy="216.3" rx="5.04" ry="2.75" transform="translate(-63.16 318.85) rotate(-58.08)"/><ellipse class="cls-7" cx="244.91" cy="223.07" rx="5.04" ry="2.75" transform="translate(-73.92 313.02) rotate(-58.08)"/><ellipse class="cls-7" cx="234.29" cy="229.85" rx="5.04" ry="2.75" transform="translate(-84.68 307.19) rotate(-58.08)"/><ellipse class="cls-7" cx="223.66" cy="236.62" rx="5.04" ry="2.75" transform="translate(-95.44 301.37) rotate(-58.08)"/><polygon class="cls-8" points="0 227.21 82.7 279.95 439 52.74 356.3 0 0 227.21"/><polygon class="cls-5" points="113.02 155.14 160.89 185.67 291.16 102.6 243.28 72.07 113.02 155.14"/><polygon class="cls-1" points="120.48 155.14 160.89 180.91 170.22 174.97 139.13 155.14 243.28 88.72 274.38 108.55 283.7 102.6 243.28 76.83 120.48 155.14"/><polygon class="cls-9" points="0 395.13 82.7 447.87 82.7 279.95 0 227.21 0 395.13"/><polygon class="cls-10" points="75.86 327.27 75.86 322.12 6.84 278.1 6.84 283.25 75.86 327.27"/><polygon class="cls-10" points="75.86 337.23 75.86 332.07 6.84 288.06 6.84 293.21 75.86 337.23"/><polygon class="cls-10" points="75.86 347.18 75.86 342.03 6.84 298.02 6.84 303.17 75.86 347.18"/><polygon class="cls-10" points="75.86 357.14 75.86 351.99 6.84 307.98 6.84 313.13 75.86 357.14"/><polygon class="cls-10" points="75.86 367.1 75.86 361.95 6.84 317.94 6.84 323.09 75.86 367.1"/><polygon class="cls-10" points="75.86 377.06 75.86 371.91 6.84 327.89 6.84 333.05 75.86 377.06"/><polygon class="cls-10" points="75.86 387.02 75.86 381.87 6.84 337.85 6.84 343 75.86 387.02"/><polygon class="cls-10" points="75.86 396.98 75.86 391.82 6.84 347.81 6.84 352.96 75.86 396.98"/></g></g></svg>