<?xml version="1.0"?>
<svg xmlns="http://www.w3.org/2000/svg" xmlns:xlink="http://www.w3.org/1999/xlink" version="1.1" id="Layer_1" x="0px" y="0px" viewBox="0 0 512 512" style="enable-background:new 0 0 512 512;" xml:space="preserve" width="512px" height="512px" class=""><g><path style="fill:#30AF28" d="M279.437,0H110.008h-27.99c-6.626,0-11.995,5.372-11.995,11.995v435.856  c0,6.625,5.369,11.995,11.995,11.995h27.989h174.276h49.622h14.024h27.991c6.626,0,11.995-5.37,11.995-11.995v-43.973v-62.854  v-158.09v-28.936v-45.519L279.437,0z" data-original="#FFC850" class="" data-old_color="#FFC850"/><path style="fill:#30AF28" d="M291.432,108.479h27.991h68.493L279.437,0v96.484C279.437,103.109,284.808,108.479,291.432,108.479z" data-original="#F7AE2D" class="" data-old_color="#F7AE2D"/><path style="fill:#268120" d="M301.698,96.484V22.261L279.437,0v96.484c0,6.625,5.372,11.995,11.995,11.995h22.261  C307.069,108.479,301.698,103.109,301.698,96.484z" data-original="#F49A2F" class="" data-old_color="#F49A2F"/><circle style="fill:#00C3F0;" cx="387.917" cy="457.939" r="54.059" data-original="#00C3F0" class=""/><path style="fill:#009FEF;" d="M356.117,457.941c0-26.042,18.413-47.777,42.93-52.91c-3.594-0.752-7.314-1.152-11.13-1.152  c-29.858,0-54.061,24.203-54.061,54.062c0,29.855,24.202,54.059,54.061,54.059c3.817,0,7.536-0.4,11.13-1.152  C374.53,505.716,356.117,483.98,356.117,457.941z" data-original="#009FEF"/><polyline style="fill:#00C3F0;" points="372.119,461.394 384.442,472.153 405.054,447.54 " data-original="#00C3F0" class=""/><g>
	<path style="fill:#F5F5F5;" d="M208.495,308.097h-54.646l20.453-32.831l3.918,14.415c1.011,3.715,4.378,6.16,8.051,6.16   c0.725,0,1.461-0.096,2.195-0.295c4.45-1.21,7.074-5.797,5.866-10.246l-9.121-33.549c-0.58-2.137-1.986-3.955-3.908-5.054   c-1.921-1.099-4.2-1.39-6.338-0.811l-33.546,9.122c-4.449,1.21-7.075,5.798-5.865,10.246c1.21,4.449,5.796,7.069,10.246,5.866   l13.743-3.736l-27.814,44.648c-1.603,2.574-1.686,5.816-0.213,8.466c1.471,2.651,4.266,4.295,7.299,4.295h69.681   c4.61,0,8.348-3.736,8.348-8.348C216.844,311.831,213.105,308.097,208.495,308.097z" data-original="#F5F5F5" class=""/>
	<path style="fill:#F5F5F5;" d="M323.455,312.031l-36.148-58.026c-2.436-3.915-7.586-5.111-11.499-2.671   c-3.915,2.438-5.11,7.586-2.671,11.5l28.198,45.264h-43.48l10.33-10.329c3.26-3.26,3.26-8.546,0-11.805   c-3.261-3.262-8.546-3.261-11.805-0.001l-24.583,24.58c-1.565,1.565-2.444,3.689-2.444,5.904c0,2.214,0.879,4.338,2.444,5.904   l24.583,24.58c1.631,1.629,3.767,2.444,5.904,2.444c2.136,0,4.273-0.815,5.902-2.445c3.26-3.26,3.26-8.546,0-11.805l-10.33-10.329   h58.515c3.033,0,5.826-1.645,7.298-4.295C325.141,317.846,325.059,314.604,323.455,312.031z" data-original="#F5F5F5" class=""/>
	<path style="fill:#F5F5F5;" d="M264.246,241.692c1.443,0,2.874-0.374,4.147-1.103c1.922-1.1,3.328-2.918,3.909-5.054l9.119-33.548   c1.21-4.449-1.417-9.036-5.866-10.246c-4.448-1.204-9.035,1.417-10.246,5.866l-3.991,14.681l-26.642-42.768   c-1.524-2.446-4.202-3.934-7.085-3.934c-2.883,0-5.562,1.487-7.086,3.934l-34.244,54.97c-2.438,3.913-1.242,9.062,2.671,11.5   c3.913,2.439,9.061,1.241,11.499-2.671l27.158-43.596l18.751,30.102l-13.452-3.659c-4.449-1.208-9.036,1.416-10.246,5.866   c-1.21,4.448,1.415,9.036,5.865,10.246l33.546,9.122C262.776,241.595,263.512,241.692,264.246,241.692z" data-original="#F5F5F5" class=""/>
	<path style="fill:#F5F5F5;" d="M384.442,480.501c-2.011,0-3.964-0.727-5.49-2.059l-12.324-10.759   c-3.474-3.033-3.83-8.306-0.799-11.779c3.032-3.473,8.306-3.83,11.778-0.799l5.906,5.156l15.139-18.08   c2.961-3.534,8.227-3.999,11.76-1.041c3.535,2.96,4.001,8.225,1.04,11.759l-20.61,24.613c-1.439,1.72-3.512,2.788-5.749,2.963   C384.876,480.492,384.659,480.501,384.442,480.501z" data-original="#F5F5F5" class=""/>
</g><g>
	<path style="fill:#1D7F17" d="M234.651,82.945H117.063c-4.61,0-8.348-3.736-8.348-8.348c0-4.611,3.738-8.348,8.348-8.348h117.589   c4.61,0,8.348,3.736,8.348,8.348C242.999,79.208,239.261,82.945,234.651,82.945z" data-original="#F2892A" class="" data-old_color="#F2892A"/>
	<path style="fill:#1D7F17" d="M234.651,116.827H117.063c-4.61,0-8.348-3.736-8.348-8.348s3.738-8.348,8.348-8.348h117.589   c4.61,0,8.348,3.736,8.348,8.348C242.999,113.09,239.261,116.827,234.651,116.827z" data-original="#F2892A" class="" data-old_color="#F2892A"/>
</g><path style="fill:#278321" d="M91.375,447.851V11.995C91.375,5.372,96.744,0,103.37,0H82.018c-6.626,0-11.995,5.372-11.995,11.995  v435.856c0,6.625,5.369,11.995,11.995,11.995h21.352C96.744,459.847,91.375,454.476,91.375,447.851z" data-original="#F2B741" class="" data-old_color="#F2B741"/><g>
	<path style="fill:#196114" d="M130.066,74.597c0-4.611,3.736-8.348,8.348-8.348h-21.353c-4.61,0-8.348,3.736-8.348,8.348   c0,4.611,3.738,8.348,8.348,8.348h21.353C133.804,82.945,130.066,79.208,130.066,74.597z" data-original="#EA801F" class="active-path" data-old_color="#EA801F"/>
	<path style="fill:#196114" d="M130.066,108.479c0-4.611,3.736-8.348,8.348-8.348h-21.353c-4.61,0-8.348,3.736-8.348,8.348   s3.738,8.348,8.348,8.348h21.353C133.804,116.827,130.066,113.09,130.066,108.479z" data-original="#EA801F" class="active-path" data-old_color="#EA801F"/>
</g></g> </svg>
