<svg viewBox="1 -49 511.99999 511" xmlns="http://www.w3.org/2000/svg"><path d="m72.699219 54.5h-54.191407v118.679688l81.117188-3.042969zm0 0" fill="#4e95a8"/><path d="m39.15625 54.5h-20.648438v118.679688l20.648438-.777344zm0 0" fill="#3b7c93"/><path d="m18.507812 170.136719h82.925782v235.222656h-82.925782zm0 0" fill="#3b7c93"/><path d="m18.507812 170.136719h20.648438v235.222656h-20.648438zm0 0" fill="#2f6780"/><path d="m71.363281 219.800781h-24.59375c-4.207031 0-7.613281-3.410156-7.613281-7.613281s3.40625-7.613281 7.613281-7.613281h24.59375c4.203125 0 7.609375 3.410156 7.609375 7.613281s-3.40625 7.613281-7.609375 7.613281zm0 0" fill="#2f6780"/><path d="m71.363281 257.578125h-24.59375c-4.207031 0-7.613281-3.40625-7.613281-7.609375 0-4.207031 3.40625-7.613281 7.613281-7.613281h24.59375c4.203125 0 7.609375 3.40625 7.609375 7.613281 0 4.203125-3.40625 7.609375-7.609375 7.609375zm0 0" fill="#2f6780"/><path d="m71.363281 295.359375h-24.59375c-4.207031 0-7.613281-3.410156-7.613281-7.613281s3.40625-7.613282 7.613281-7.613282h24.59375c4.203125 0 7.609375 3.410157 7.609375 7.613282s-3.40625 7.613281-7.609375 7.613281zm0 0" fill="#2f6780"/><path d="m71.363281 333.136719h-24.59375c-4.207031 0-7.613281-3.40625-7.613281-7.613281 0-4.203126 3.40625-7.609376 7.613281-7.609376h24.59375c4.203125 0 7.609375 3.40625 7.609375 7.609376 0 4.207031-3.40625 7.613281-7.609375 7.613281zm0 0" fill="#2f6780"/><path d="m71.363281 370.914062h-24.59375c-4.207031 0-7.613281-3.40625-7.613281-7.609374 0-4.203126 3.40625-7.613282 7.613281-7.613282h24.59375c4.203125 0 7.609375 3.410156 7.609375 7.613282 0 4.203124-3.40625 7.609374-7.609375 7.609374zm0 0" fill="#2f6780"/><path d="m75.382812 62.113281h-60.484374c-4.203126 0-7.613282-3.410156-7.613282-7.613281s3.410156-7.609375 7.613282-7.609375h60.484374c4.203126 0 7.609376 3.40625 7.609376 7.609375s-3.40625 7.613281-7.609376 7.613281zm0 0" fill="#3b7c93"/><path d="m153.816406 54.5h-54.191406v118.679688l81.117188-3.042969zm0 0" fill="#4e95a8"/><path d="m119.53125 54.5h-19.90625v118.679688l19.90625-.746094zm0 0" fill="#3b7c93"/><path d="m416.050781 228.527344c-40.824219 0-72.644531-22.453125-86.503906-58.394532h-148.804687v235.222657h254.125v-178.675781c-6.085938 1.210937-12.375 1.847656-18.816407 1.847656zm0 0" fill="#ededed"/><path d="m180.742188 170.136719h21.121093v235.222656h-21.121093zm0 0" fill="#d3d3cf"/><path d="m346.078125 325.523438h-42.082031v79.832031h49.855468v-72.058594c0-4.292969-3.480468-7.773437-7.773437-7.773437zm0 0" fill="#3b7c93"/><path d="m303.996094 325.523438h20.300781v79.832031h-20.300781zm0 0" fill="#2f6780"/><path d="m307.804688 405.355469h-46.046876v-72.257813c0-4.183594 3.390626-7.574218 7.574219-7.574218h38.472657zm0 0" fill="#3b7c93"/><path d="m289.742188 325.523438h-20.296876c-4.246093 0-7.6875 3.445312-7.6875 7.6875v72.144531h20.296876v-72.144531c0-4.242188 3.441406-7.6875 7.6875-7.6875zm0 0" fill="#2f6780"/><path d="m99.625 170.136719h81.117188v235.222656h-81.117188zm0 0" fill="#3b7c93"/><path d="m99.625 170.136719h20.648438v235.222656h-20.648438zm0 0" fill="#2f6780"/><path d="m152.480469 219.800781h-24.59375c-4.203125 0-7.613281-3.410156-7.613281-7.613281s3.410156-7.613281 7.613281-7.613281h24.59375c4.203125 0 7.613281 3.410156 7.613281 7.613281s-3.410156 7.613281-7.613281 7.613281zm0 0" fill="#2f6780"/><path d="m152.480469 257.578125h-24.59375c-4.203125 0-7.613281-3.40625-7.613281-7.609375 0-4.207031 3.410156-7.613281 7.613281-7.613281h24.59375c4.203125 0 7.613281 3.40625 7.613281 7.613281 0 4.203125-3.410156 7.609375-7.613281 7.609375zm0 0" fill="#2f6780"/><path d="m152.480469 295.359375h-24.59375c-4.203125 0-7.613281-3.410156-7.613281-7.613281s3.410156-7.613282 7.613281-7.613282h24.59375c4.203125 0 7.613281 3.410157 7.613281 7.613282s-3.410156 7.613281-7.613281 7.613281zm0 0" fill="#2f6780"/><g fill="#d3d3cf"><path d="m249.941406 219.800781h-24.59375c-4.207031 0-7.613281-3.410156-7.613281-7.613281s3.40625-7.613281 7.613281-7.613281h24.59375c4.203125 0 7.609375 3.410156 7.609375 7.613281s-3.40625 7.613281-7.609375 7.613281zm0 0"/><path d="m249.941406 257.578125h-24.59375c-4.207031 0-7.613281-3.40625-7.613281-7.609375 0-4.207031 3.40625-7.613281 7.613281-7.613281h24.59375c4.203125 0 7.609375 3.40625 7.609375 7.613281 0 4.203125-3.40625 7.609375-7.609375 7.609375zm0 0"/><path d="m249.941406 295.359375h-24.59375c-4.207031 0-7.613281-3.410156-7.613281-7.613281s3.40625-7.613282 7.613281-7.613282h24.59375c4.203125 0 7.609375 3.410157 7.609375 7.613282s-3.40625 7.613281-7.609375 7.613281zm0 0"/><path d="m320.101562 219.800781h-24.59375c-4.203124 0-7.613281-3.410156-7.613281-7.613281s3.410157-7.613281 7.613281-7.613281h24.59375c4.203126 0 7.613282 3.410156 7.613282 7.613281s-3.410156 7.613281-7.613282 7.613281zm0 0"/><path d="m320.101562 257.578125h-24.59375c-4.203124 0-7.613281-3.40625-7.613281-7.609375 0-4.207031 3.410157-7.613281 7.613281-7.613281h24.59375c4.203126 0 7.613282 3.40625 7.613282 7.613281 0 4.203125-3.410156 7.609375-7.613282 7.609375zm0 0"/><path d="m320.101562 295.359375h-24.59375c-4.203124 0-7.613281-3.410156-7.613281-7.613281s3.410157-7.613282 7.613281-7.613282h24.59375c4.203126 0 7.613282 3.410157 7.613282 7.613282s-3.410156 7.613281-7.613282 7.613281zm0 0"/><path d="m390.265625 257.578125h-24.59375c-4.207031 0-7.613281-3.40625-7.613281-7.609375 0-4.207031 3.40625-7.613281 7.613281-7.613281h24.59375c4.203125 0 7.609375 3.40625 7.609375 7.613281 0 4.203125-3.40625 7.609375-7.609375 7.609375zm0 0"/><path d="m390.265625 295.359375h-24.59375c-4.207031 0-7.613281-3.410156-7.613281-7.613281s3.40625-7.613282 7.613281-7.613282h24.59375c4.203125 0 7.609375 3.410157 7.609375 7.613282s-3.40625 7.613281-7.609375 7.613281zm0 0"/></g><path d="m152.480469 333.136719h-24.59375c-4.203125 0-7.613281-3.40625-7.613281-7.613281 0-4.203126 3.410156-7.609376 7.613281-7.609376h24.59375c4.203125 0 7.613281 3.40625 7.613281 7.609376 0 4.207031-3.410156 7.613281-7.613281 7.613281zm0 0" fill="#2f6780"/><path d="m152.480469 370.914062h-24.59375c-4.203125 0-7.613281-3.40625-7.613281-7.609374 0-4.203126 3.410156-7.613282 7.613281-7.613282h24.59375c4.203125 0 7.613281 3.410156 7.613281 7.613282 0 4.203124-3.410156 7.609374-7.613281 7.609374zm0 0" fill="#2f6780"/><path d="m158.128906 62.113281h-60.484375c-4.203125 0-7.613281-3.410156-7.613281-7.613281s3.410156-7.609375 7.613281-7.609375h60.484375c4.203125 0 7.609375 3.40625 7.609375 7.609375s-3.40625 7.613281-7.609375 7.613281zm0 0" fill="#3b7c93"/><path d="m140.363281 35.296875c-4.148437-.691406-6.949219-4.613281-6.257812-8.757813l3.28125-19.675781c.6875-4.148437 4.613281-6.9531248 8.757812-6.257812 4.148438.691406 6.949219 4.613281 6.257813 8.761719l-3.28125 19.671874c-.691406 4.15625-4.621094 6.949219-8.757813 6.257813zm0 0" fill="#a0d92a"/><path d="m112.90625 35.296875c-4.144531-.691406-6.945312-4.613281-6.257812-8.757813l3.28125-19.675781c.691406-4.148437 4.613281-6.9492185 8.757812-6.257812 4.148438.691406 6.949219 4.613281 6.257812 8.761719l-3.277343 19.671874c-.691407 4.15625-4.621094 6.949219-8.761719 6.257813zm0 0" fill="#a0d92a"/><path d="m55.976562 35.296875c-4.148437-.691406-6.949218-4.613281-6.257812-8.757813l3.28125-19.675781c.691406-4.148437 4.613281-6.9492185 8.757812-6.257812 4.148438.691406 6.949219 4.613281 6.257813 8.761719l-3.277344 19.671874c-.691406 4.15625-4.625 6.949219-8.761719 6.257813zm0 0" fill="#a0d92a"/><path d="m28.523438 35.296875c-4.148438-.691406-6.949219-4.613281-6.257813-8.757813l3.277344-19.675781c.691406-4.148437 4.617187-6.9531248 8.761719-6.257812 4.144531.691406 6.949218 4.613281 6.257812 8.761719l-3.28125 19.671874c-.691406 4.15625-4.621094 6.949219-8.757812 6.257813zm0 0" fill="#a0d92a"/><path d="m512 135.625c0 52.992188-42.957031 95.949219-95.949219 95.949219-52.992187 0-95.949219-42.957031-95.949219-95.949219s42.957032-95.949219 95.949219-95.949219c52.992188 0 95.949219 42.957031 95.949219 95.949219zm0 0" fill="#a0d92a"/><path d="m340.398438 135.625c0-49.5625 37.582031-90.34375 85.800781-95.414062-3.335938-.351563-6.71875-.535157-10.148438-.535157-52.992187 0-95.949219 42.957031-95.949219 95.949219s42.957032 95.949219 95.949219 95.949219c3.429688 0 6.8125-.183594 10.148438-.535157-48.21875-5.070312-85.800781-45.851562-85.800781-95.414062zm0 0" fill="#74c432"/><path d="m362.292969 184.074219h42.035156c4.203125 0 7.613281-3.40625 7.613281-7.609375s-3.410156-7.613282-7.613281-7.613282h-42.035156c-.109375 0-.257813 0-.386719-.222656s-.058594-.347656-.003906-.441406l11.050781-19.480469c5.34375 4.597657 13.53125.035157 12.492187-6.894531l-2.085937-13.933594c-.304687-5.195312-5.589844-8.539062-10.410156-6.644531l-13.765625 5.410156c-3.914063 1.535157-5.839844 5.953125-4.300782 9.867188.890626 2.269531 2.753907 3.867187 4.925782 4.511719l-11.148438 19.652343c-5.921875 10.441407 1.609375 23.398438 13.632813 23.398438zm0 0" fill="#49ae3a"/><path d="m483.4375 160.675781-20.484375-36.109375c-2.070313-3.65625-6.71875-4.941406-10.375-2.867187s-4.9375 6.722656-2.863281 10.378906l20.484375 36.109375c.054687.09375.125.222656-.003907.445312-.128906.21875-.277343.21875-.386718.21875h-23.03125c.460937-2.148437-.007813-4.480468-1.484375-6.335937-2.617188-3.289063-7.40625-3.835937-10.695313-1.21875-.613281.488281-11.082031 8.816406-11.652344 9.28125-3.6875 3.007813-3.753906 8.78125.097657 11.84375l11.550781 9.207031c3.296875 2.625 8.082031 2.070313 10.695312-1.210937 1.480469-1.855469 1.949219-4.191407 1.488282-6.34375h23.03125c12.007812 0 19.5625-12.941407 13.628906-23.398438zm0 0" fill="#49ae3a"/><path d="m448.0625 85.777344c-2.28125-.34375-4.476562.371094-6.101562 1.773437l-12.28125-21.644531c-6.003907-10.589844-21.25-10.597656-27.257813 0l-21.710937 38.269531c-2.074219 3.65625-.789063 8.300781 2.867187 10.375 3.652344 2.074219 8.300781.792969 10.375-2.863281l21.707031-38.273438c.058594-.097656.128906-.222656.390625-.222656.257813 0 .328125.125.386719.226563l12.371094 21.808593c-2.164063.644532-4.023438 2.238282-4.914063 4.5-1.539062 3.914063.382813 8.332032 4.296875 9.871094l13.753906 5.414063c4.777344 1.886719 10.101563-1.398438 10.417969-6.628907l2.097657-13.945312c.625-4.15625-2.242188-8.035156-6.398438-8.660156zm0 0" fill="#49ae3a"/><path d="m444.109375 412.96875h-436.496094c-4.207031 0-7.613281-3.40625-7.613281-7.613281 0-4.203125 3.40625-7.609375 7.613281-7.609375h436.496094c4.203125 0 7.613281 3.40625 7.613281 7.609375 0 4.207031-3.410156 7.613281-7.613281 7.613281zm0 0" fill="#2f6780"/></svg>