<svg xmlns="http://www.w3.org/2000/svg" viewBox="0 0 200 394.39"><defs><style>.cls-1{fill:#2e426e;}.cls-2{fill:#bf1127;}.cls-3{fill:#ff1734;}.cls-4{fill:#b6d4de;}.cls-5{fill:#f2f2f2;}.cls-6{fill:#bfbfbf;}.cls-7{fill:#fff;}.cls-8{fill:#60a2ba;}.cls-9{fill:#467587;}.cls-10{fill:#787878;}.cls-11{fill:#424242;}</style></defs><title>Reproductor MP3 MP4</title><g id="Capa_2" data-name="Capa 2"><g id="Layer_1" data-name="Layer 1"><path class="cls-1" d="M136.05,206.87l-.06,6.24c14,.13,51.69,3.6,57.12,17.93,3.23,8.54-6.45,19.66-15.14,27.49l-.51.46-.27.63c-.41,1-10,23.61-11.72,38-.2,1.27-3.85,9.34-56.72,44.14-28,18.42-56.07,35.32-56.35,35.49l3.22,5.35c.28-.17,28.6-17.21,56.76-35.76,58.07-38.24,58.92-45.42,59.28-48.48,1.45-12.21,9.45-31.9,11-35.64C197,249.61,202.51,238.22,199,228.83,191.05,208,141.65,206.92,136.05,206.87Z"/><path class="cls-2" d="M129.25,20.4,10.5,89c-4.78,2.76-8.65,9.47-8.65,15V311.65c0,2.76,1,4.7,2.53,5.6S18,324.94,18,324.94l111.29-76.86c4.78-2.76,8.65-9.47,8.65-15L150.27,28.46S137.2,21.29,136,20.26C134.44,18.88,132,18.81,129.25,20.4Z"/><path class="cls-3" d="M143.63,28.69,24.87,97.26c-4.78,2.76-8.65,9.46-8.65,15V320c0,5.51,3.87,7.75,8.65,5l118.76-68.57c4.77-2.75,8.64-9.46,8.64-15V33.69C152.27,28.17,148.4,25.94,143.63,28.69Z"/><polygon class="cls-4" points="28.06 204.9 140.43 140.02 140.43 51.4 28.06 116.27 28.06 204.9"/><path class="cls-5" d="M85.72,185.91c-21.19,12.24-38.37,42-38.37,66.47s17.18,34.4,38.37,22.16,38.38-42,38.38-66.47S106.92,173.68,85.72,185.91Z"/><path class="cls-6" d="M85.72,210c-9.67,5.58-17.51,19.17-17.51,30.34s7.84,15.7,17.51,10.11,17.52-19.17,17.52-30.34S95.4,204.41,85.72,210Z"/><polygon class="cls-7" points="38.92 138.89 36.61 129.73 32.77 131.95 32.77 147.32 35.15 145.95 35.15 133.84 37.67 144.49 40.14 143.07 42.66 129.51 42.66 141.61 45.05 140.23 45.05 124.86 41.2 127.08 38.92 138.89"/><path class="cls-7" d="M53.47,128.93a16.32,16.32,0,0,1-.18,3.11,4.3,4.3,0,0,1-.68,1.42,3.5,3.5,0,0,1-1.12,1.06,1.18,1.18,0,0,1-.9.21.73.73,0,0,1-.49-.56,15.62,15.62,0,0,1-.13-2.8v-5.11l-2.44,1.4v7.05a5.76,5.76,0,0,0,.33,2.28,1.23,1.23,0,0,0,1.06.76,2.81,2.81,0,0,0,1.67-.47,6.47,6.47,0,0,0,1.73-1.51,8.46,8.46,0,0,0,1.32-2.17v1.67L55.91,134V122.83l-2.44,1.4Z"/><path class="cls-7" d="M62.69,123.06a7,7,0,0,1-2.27.49.37.37,0,0,1-.25-.4,1.4,1.4,0,0,1,.28-.76,4.62,4.62,0,0,1,1.38-1.12,1.75,1.75,0,0,1,1.18-.33.82.82,0,0,1,.55.67l2.3-1.84a1.8,1.8,0,0,0-1.26-1.47,4.43,4.43,0,0,0-2.81.88,8,8,0,0,0-2.93,2.68,5.67,5.67,0,0,0-1,3c0,1.07.36,1.69,1.09,1.87a9.75,9.75,0,0,0,3.74-.72,1.33,1.33,0,0,1,.82-.08.53.53,0,0,1,.17.45,1.78,1.78,0,0,1-.32,1A4.39,4.39,0,0,1,62,128.58a1.69,1.69,0,0,1-1.34.32c-.32-.11-.53-.43-.63-.94l-2.45,1.86A2,2,0,0,0,59,131.5a4.18,4.18,0,0,0,3-.8,8.64,8.64,0,0,0,3.13-2.9,6.31,6.31,0,0,0,1.06-3.25c0-.93-.26-1.52-.77-1.75A4.54,4.54,0,0,0,62.69,123.06Z"/><polygon class="cls-7" points="68.31 126.8 70.75 125.4 70.75 114.26 68.31 115.67 68.31 126.8"/><polygon class="cls-7" points="68.31 114.16 70.75 112.75 70.75 110.02 68.31 111.43 68.31 114.16"/><path class="cls-7" d="M78.38,118.36a3.27,3.27,0,0,1-1.14,1.14c-.62.35-1.11.36-1.48,0a3.66,3.66,0,0,1-.55-2.48,6.42,6.42,0,0,1,.54-2.86,3.8,3.8,0,0,1,1.46-1.6,1.24,1.24,0,0,1,1.11-.2c.29.13.47.46.55,1l2.41-1.91a2.37,2.37,0,0,0-1.43-1.84,3.6,3.6,0,0,0-2.68.67,8.54,8.54,0,0,0-3.26,3.42,10.34,10.34,0,0,0-1.2,5c0,1.81.4,3,1.2,3.57s1.87.46,3.22-.32A8.32,8.32,0,0,0,80,119.31a10.19,10.19,0,0,0,1.43-3.84l-2.4.89A5.43,5.43,0,0,1,78.38,118.36Z"/><polygon class="cls-7" points="88.09 115.38 90.66 113.9 90.66 107.36 95.97 104.3 95.97 101.7 90.66 104.76 90.66 101.13 96.81 97.58 96.81 94.97 88.09 100.01 88.09 115.38"/><path class="cls-7" d="M103.09,95.33a9.1,9.1,0,0,0-2.45,2.14,10.26,10.26,0,0,0-1.7,3.08,9.75,9.75,0,0,0-.6,3.19,5.69,5.69,0,0,0,.6,2.91,2,2,0,0,0,1.75,1,4.63,4.63,0,0,0,2.41-.7,9.14,9.14,0,0,0,3.4-3.63,10.13,10.13,0,0,0,1.35-5c0-1.67-.45-2.79-1.34-3.37S104.48,94.53,103.09,95.33Zm1.61,7.43a4.29,4.29,0,0,1-1.6,1.81,1.35,1.35,0,0,1-1.61,0,2.68,2.68,0,0,1-.65-2.16,6.3,6.3,0,0,1,.65-2.91,4.3,4.3,0,0,1,1.61-1.81,1.33,1.33,0,0,1,1.6,0,2.67,2.67,0,0,1,.64,2.14A6.3,6.3,0,0,1,104.7,102.76Z"/><path class="cls-7" d="M113,90a9.59,9.59,0,0,0-1,2.08V90.49l-2.27,1.31v11.13l2.44-1.4V98.09a24.42,24.42,0,0,1,.2-3.86,4.73,4.73,0,0,1,.56-1.55,2.67,2.67,0,0,1,.87-.84,1.57,1.57,0,0,1,1.15-.18l.75-3A2.37,2.37,0,0,0,114,89,3.3,3.3,0,0,0,113,90Z"/><polygon class="cls-7" points="31.89 160.83 35.66 158.65 35.66 171.42 38.23 169.94 38.23 157.17 41.99 155 41.99 152.4 31.89 158.23 31.89 160.83"/><path class="cls-7" d="M45.86,154.51a9.74,9.74,0,0,0-1,2.08V155l-2.26,1.31v11.14L45,166V162.6a24.27,24.27,0,0,1,.2-3.85,4.66,4.66,0,0,1,.56-1.56,2.67,2.67,0,0,1,.87-.84,1.55,1.55,0,0,1,1.14-.17l.76-3a2.51,2.51,0,0,0-1.61.37A3.55,3.55,0,0,0,45.86,154.51Z"/><path class="cls-7" d="M57,155.44,57,152a5.81,5.81,0,0,0-.32-2.45,1.25,1.25,0,0,0-1.13-.54,5.6,5.6,0,0,0-2.42.94,8.25,8.25,0,0,0-2.71,2.34,8.1,8.1,0,0,0-1.28,3.13l2.21-.79a4.16,4.16,0,0,1,.59-1.43,3.07,3.07,0,0,1,1-.9c.64-.37,1.08-.5,1.31-.39s.35.45.35,1v.3a25.54,25.54,0,0,1-2.37,2.09,15.61,15.61,0,0,0-1.94,1.8,5.92,5.92,0,0,0-1,1.74,5.15,5.15,0,0,0-.38,1.9,2,2,0,0,0,.82,1.88,2.29,2.29,0,0,0,2.25-.36A6.38,6.38,0,0,0,53.5,161a10.32,10.32,0,0,0,1.34-1.87,2.11,2.11,0,0,1,.09.29c.09.33.17.58.23.74l2.41-1.39a4.67,4.67,0,0,1-.44-1.25A14.14,14.14,0,0,1,57,155.44Zm-2.37.26a7.21,7.21,0,0,1-.1,1.49A3.52,3.52,0,0,1,54,158.5a4,4,0,0,1-1.26,1.25.81.81,0,0,1-1.35-.73,2.33,2.33,0,0,1,.48-1.32,8.74,8.74,0,0,1,1.33-1.28c.67-.56,1.17-1,1.48-1.31Z"/><polygon class="cls-7" points="59.45 157.69 61.88 156.29 61.88 145.15 59.45 146.56 59.45 157.69"/><polygon class="cls-7" points="59.45 145.05 61.88 143.64 61.88 140.91 59.45 142.32 59.45 145.05"/><path class="cls-7" d="M72.15,140.22a1.25,1.25,0,0,0-1-.31,3.33,3.33,0,0,0-1.48.5,7.75,7.75,0,0,0-3,3.64v-1.64l-2.27,1.31v11.13l2.44-1.4v-5a12.68,12.68,0,0,1,.19-2.66,4.05,4.05,0,0,1,.69-1.51,3.49,3.49,0,0,1,1.13-1.08,1.15,1.15,0,0,1,.85-.19.76.76,0,0,1,.51.53,9.55,9.55,0,0,1,.15,2.24v5.68l2.44-1.4v-6.92a9.69,9.69,0,0,0-.14-1.91A1.89,1.89,0,0,0,72.15,140.22Z"/><polygon class="cls-7" points="75.23 135.93 77.67 134.53 77.67 131.8 75.23 133.21 75.23 135.93"/><polygon class="cls-7" points="75.23 148.58 77.67 147.17 77.67 136.04 75.23 137.44 75.23 148.58"/><path class="cls-7" d="M87.93,131.11a1.24,1.24,0,0,0-1-.32,3.42,3.42,0,0,0-1.47.5,7.87,7.87,0,0,0-3,3.64V133.3l-2.26,1.3v11.14l2.44-1.41v-5a13.81,13.81,0,0,1,.18-2.67,4.57,4.57,0,0,1,.69-1.51A3.7,3.7,0,0,1,84.6,134a1.15,1.15,0,0,1,.84-.2.74.74,0,0,1,.51.53,9.43,9.43,0,0,1,.16,2.25v5.68l2.43-1.41V134a9.75,9.75,0,0,0-.13-1.9A1.9,1.9,0,0,0,87.93,131.11Z"/><path class="cls-7" d="M97.17,126.34a2.09,2.09,0,0,0-2.82-.19,7.43,7.43,0,0,0-2.77,3.08,10.44,10.44,0,0,0-1.11,4.92,5,5,0,0,0,.85,3.24c.72.85,1.7.92,2.94.2A7.09,7.09,0,0,0,97,134.2v1.62a5.91,5.91,0,0,1-.12,1.42,3,3,0,0,1-.48,1A5,5,0,0,1,95,139.44a1.57,1.57,0,0,1-1.1.32c-.16-.06-.27-.26-.32-.63l-2.78,1.2c0,.14,0,.27,0,.36,0,1,.33,1.63,1,1.9s1.76-.05,3.32-1a10.57,10.57,0,0,0,2-1.5,7.34,7.34,0,0,0,1.3-1.62,7,7,0,0,0,.75-2,13.9,13.9,0,0,0,.27-3.1v-10l-2.28,1.31Zm-.73,6.77a4,4,0,0,1-1.5,1.71,1.13,1.13,0,0,1-1.41,0,3.17,3.17,0,0,1-.56-2.27,6.53,6.53,0,0,1,.56-2.84A3.74,3.74,0,0,1,95,128a1.22,1.22,0,0,1,1.49,0,3,3,0,0,1,.59,2.23A6.19,6.19,0,0,1,96.44,133.11Z"/><polygon class="cls-8" points="32.7 192.71 136.02 133.05 136.02 125.25 32.7 184.9 32.7 192.71"/><path class="cls-9" d="M55.55,167.25a16,16,0,0,0-7.24,12.54c0,4.62,3.24,6.49,7.24,4.18a16,16,0,0,0,7.23-12.54C62.78,166.82,59.54,165,55.55,167.25Z"/><path class="cls-1" d="M168.2,261.15c-18.31,3.66-35.26,7.28-41.36,11.29-11.29,7.41-114.24,69-115,69.41l3.1,5.41c.73-.41,104-62.16,115.28-69.6,5.6-3.67,26.61-7.88,39.16-10.39,4.32-.86,7.73-1.54,9.91-2.07l-1.46-6.07C175.81,259.63,172.28,260.33,168.2,261.15Z"/><path class="cls-10" d="M46.48,368.78c-4.93,3-8.21,6.77-7.48,13.33,2.18,12,11,12,11,12s17.68-14.9,12.72-24.44C60,364.48,52.4,365.17,46.48,368.78Z"/><path class="cls-11" d="M21.94,329c-5.75.28-10.74,1.14-15.7,4.61-4.8,3.35-6.95,8.23-6,12.35,2.65,11.7,9.36,14.35,17.16,10.14,4.18-2.26,8.34-7.27,12-12.22,3.2-4.3,6.46-8.37,4.16-12.8C32.17,328.32,26.44,328.74,21.94,329Z"/><path class="cls-10" d="M.23,345.91c2.65,11.7,9.36,14.35,17.16,10.14S28.91,343,24,333.49-2.43,334.21.23,345.91Z"/><path class="cls-11" d="M61.88,365.93c-1.22.29-4.6.12-7.34,1.54-15,8.89-8.36,25.86-4.54,26.66,2.5.52,4.81.57,11-3.08,2.56-1.49,4.72-4.83,7.18-8,3.55-4.57,6.68-9.63,3.75-15.27C70.17,364.29,66.64,364.76,61.88,365.93Z"/><path class="cls-1" d="M36.58,65.24c-5.7,0-6.25,2.61-6.25,2.61V82.71s.71,3.43,6.25,3.43,6.24-3.43,6.24-3.43V67.85S42.27,65.24,36.58,65.24Z"/><path class="cls-1" d="M99.05,3.39C91.47-1.34,81.33-1.12,68.91,4l-.15.07C32.47,21.53,33.13,55.43,33.41,69.91c0,1.17,0,2.22,0,3.16H39.7c0-1,0-2.07-.05-3.28-.28-14.39-.85-44.32,31.74-60C81.8,5.46,90,5.09,95.74,8.69c7.51,4.69,9.67,17.06,10.16,25.23l6.23-3.57C111.3,16.53,106.78,8.23,99.05,3.39Z"/><polygon class="cls-5" points="79.71 246.07 97.43 226.77 79.71 220.82 79.71 246.07"/></g></g></svg>