<svg xmlns="http://www.w3.org/2000/svg" viewBox="0 0 959.16 397.55"><defs><style>.cls-1,.cls-12{fill:#1a1a1a;}.cls-2{fill:#333;}.cls-3{fill:gray;}.cls-4{fill:#0082d0;}.cls-5{fill:#4d4d4d;}.cls-6{fill:#ff1d25;}.cls-10,.cls-11,.cls-7{fill:#e6e6e6;}.cls-8{fill:#007173;}.cls-14,.cls-9{fill:#fff;}.cls-9{opacity:0.2;}.cls-10{opacity:0.75;}.cls-11,.cls-12{opacity:0.5;}.cls-13{fill:#666;}</style></defs><title>Reproductor VHS</title><g id="Capa_2" data-name="Capa 2"><g id="Ñëîé_1" data-name="Ñëîé 1"><rect class="cls-1" x="658.86" y="380.59" width="135.03" height="15.76" rx="2.01"/><path d="M787.89,397.55h-123a7.2,7.2,0,0,1-7.19-7.19v-3.77a7.21,7.21,0,0,1,7.19-7.2h123a7.21,7.21,0,0,1,7.2,7.2v3.77A7.2,7.2,0,0,1,787.89,397.55Zm-123-15.76a4.8,4.8,0,0,0-4.79,4.8v3.77a4.81,4.81,0,0,0,4.79,4.8h123a4.81,4.81,0,0,0,4.8-4.8v-3.77a4.8,4.8,0,0,0-4.8-4.8Z"/><rect class="cls-1" x="17.86" y="380.59" width="135.03" height="15.76" rx="2.01"/><path d="M146.9,397.55h-123a7.2,7.2,0,0,1-7.2-7.19v-3.77a7.21,7.21,0,0,1,7.2-7.2h123a7.21,7.21,0,0,1,7.19,7.2v3.77A7.2,7.2,0,0,1,146.9,397.55Zm-123-15.76a4.8,4.8,0,0,0-4.8,4.8v3.77a4.81,4.81,0,0,0,4.8,4.8h123a4.81,4.81,0,0,0,4.79-4.8v-3.77a4.8,4.8,0,0,0-4.79-4.8Z"/><rect class="cls-2" x="2.63" y="202.48" width="805.97" height="181.79"/><path d="M808.6,386.9H2.63L0,384.27V202.48l2.63-2.63h806l2.63,2.63V384.27ZM5.25,381.64H806V205.11H5.25Z"/><rect x="2.33" y="302.87" width="805.46" height="11.66"/><path d="M808.31,315.06H1.8V302.35H808.31ZM2.85,314H807.26V303.4H2.85Z"/><rect class="cls-3" x="179.48" y="219.99" width="406.87" height="67.08"/><path d="M587.93,288.65h-410V218.41h410Zm-406.87-3.16H584.78V221.57H181.06Z"/><path class="cls-4" d="M771.78,255a44,44,0,1,0-42.16,45.84A44,44,0,0,0,771.78,255Z"/><path d="M727.76,302.55a45.72,45.72,0,1,1,1.92,0C729,302.53,728.4,302.55,727.76,302.55Zm.06-88.09c-.6,0-1.2,0-1.81,0a42.2,42.2,0,1,0,1.81,0Z"/><path class="cls-5" d="M764.24,255.7a37.55,37.55,0,1,1-39.1-36.39A37.77,37.77,0,0,1,764.24,255.7Z"/><path d="M726.72,297.46a39.26,39.26,0,0,1-26.91-10.64,40.5,40.5,0,0,1-2.37-56.77,39.32,39.32,0,0,1,27.61-13c21.9-.91,40.48,16.36,41.4,38.51A40.15,40.15,0,0,1,756,284.48a39.29,39.29,0,0,1-27.61,12.94C727.84,297.45,727.28,297.46,726.72,297.46Zm0-76-1.48,0A34.92,34.92,0,0,0,700.71,233a36.08,36.08,0,0,0,2.11,50.57,35,35,0,0,0,49.92-2.08,35.89,35.89,0,0,0-26-60Z"/><rect class="cls-1" x="19.09" y="229.95" width="70.56" height="32.46" transform="translate(-2.65 0.6) rotate(-0.62)"/><rect class="cls-6" x="19.25" y="226.67" width="68.3" height="31.52" transform="translate(-2.61 0.59) rotate(-0.62)"/><path d="M17.86,260.15l-.37-34.67,71.45-.77.37,34.67Zm2.82-31.55L21,257l65.15-.7-.31-28.37Z"/><rect class="cls-7" x="22.07" y="229.28" width="62" height="3.15"/><rect class="cls-1" x="441.51" y="332.92" width="70.56" height="32.46" transform="translate(-3.73 5.16) rotate(-0.62)"/><rect class="cls-5" x="441.68" y="329.65" width="68.3" height="31.52" transform="translate(-3.69 5.14) rotate(-0.62)"/><path d="M439.66,363.77l-.38-35.93,72.71-.79.39,35.94Zm4.08-31.57.29,27.11,63.89-.69-.3-27.11Z"/><rect class="cls-7" x="444.49" y="332.25" width="62" height="3.15"/><polygon class="cls-1" points="738.63 367.11 681.21 367.87 680.93 335.41 738.35 334.65 738.63 367.11"/><polygon class="cls-5" points="736.92 362.91 681.34 363.64 681.06 332.12 736.64 331.38 736.92 362.91"/><path d="M679.37,365.66l-.32-35.5,59.57-.79.31,35.5Zm3.7-31.58.24,27.55,51.6-.69-.24-27.54Z"/><rect class="cls-7" x="683.49" y="334.36" width="50.45" height="3.15"/><polygon class="cls-1" points="793.36 366.06 735.94 366.82 735.66 334.36 793.08 333.6 793.36 366.06"/><polygon class="cls-5" points="791.65 361.86 736.07 362.59 735.79 331.07 791.38 330.33 791.65 361.86"/><path d="M734.1,364.61l-.32-35.51,59.57-.78.31,35.5ZM737.8,333l.24,27.55,51.6-.69-.24-27.54Z"/><rect class="cls-7" x="738.22" y="333.31" width="50.46" height="3.15"/><polygon class="cls-1" points="121.94 247.03 98.9 247.4 98.76 229.53 121.8 229.15 121.94 247.03"/><polygon class="cls-5" points="119.14 243.5 97.88 243.82 97.78 229.78 119.03 229.46 119.14 243.5"/><path d="M96.32,245.43l-.13-17.2,24.41-.37.13,17.19Zm3.05-14.09.08,10.88,18.1-.28-.08-10.88Z"/><rect class="cls-7" x="99.83" y="231.99" width="17.12" height="1.25"/><polygon class="cls-1" points="638.89 243.87 602.88 244.25 602.65 226.37 638.67 226 638.89 243.87"/><polygon class="cls-5" points="634.5 240.34 601.28 240.67 601.12 226.63 634.34 226.3 634.5 240.34"/><path d="M599.33,242.66l-.21-18,37.17-.37.21,18Zm3.78-14.08.12,10.1,29.28-.29-.12-10.1Z"/><rect class="cls-7" x="604.32" y="228.84" width="26.76" height="1.25"/><polygon class="cls-1" points="121.94 278.55 98.9 278.92 98.76 261.05 121.8 260.68 121.94 278.55"/><polygon class="cls-5" points="119.14 275.02 97.88 275.35 97.78 261.31 119.03 260.98 119.14 275.02"/><path d="M96.32,277l-.13-17.19,24.41-.38.13,17.19Zm3.05-14.09.08,10.89,18.1-.28-.08-10.89Z"/><rect class="cls-7" x="99.83" y="263.51" width="17.12" height="1.25"/><ellipse class="cls-1" cx="142.38" cy="266.05" rx="11.03" ry="10.51"/><path class="cls-1" d="M147.23,261c-.35.3-2.54-1.39-5.49-1.33s-5.14,1.63-5.49,1.33,1.63-3,5.49-3S147.69,260.73,147.23,261Z"/><path class="cls-5" d="M150.27,264.48a8.94,8.94,0,1,1-8.94-8.93A8.93,8.93,0,0,1,150.27,264.48Z"/><path d="M141.33,275a10.51,10.51,0,1,1,10.51-10.51A10.52,10.52,0,0,1,141.33,275Zm0-17.87a7.36,7.36,0,1,0,7.36,7.36A7.36,7.36,0,0,0,141.33,257.12Z"/><path class="cls-7" d="M145.26,260.15c-.28.26-2.06-1.18-4.45-1.12s-4.16,1.38-4.45,1.12,1.33-2.56,4.45-2.56S145.63,260,145.26,260.15Z"/><path class="cls-1" d="M607.37,344.86a11,11,0,1,1-11-10.5A10.78,10.78,0,0,1,607.37,344.86Z"/><path class="cls-1" d="M601.19,339.78c-.36.3-2.54-1.39-5.5-1.33s-5.14,1.63-5.49,1.33,1.63-3,5.49-3S601.64,339.54,601.19,339.78Z"/><path class="cls-5" d="M604.22,343.29a8.94,8.94,0,1,1-8.94-8.93A8.93,8.93,0,0,1,604.22,343.29Z"/><path d="M595.28,353.8a10.51,10.51,0,1,1,10.51-10.51A10.52,10.52,0,0,1,595.28,353.8Zm0-17.87a7.36,7.36,0,1,0,7.36,7.36A7.36,7.36,0,0,0,595.28,335.93Z"/><path class="cls-7" d="M599.21,339c-.28.27-2.06-1.18-4.45-1.12s-4.16,1.39-4.45,1.12,1.33-2.56,4.45-2.56S599.58,338.76,599.21,339Z"/><ellipse class="cls-1" cx="644.67" cy="345.92" rx="11.03" ry="10.51"/><path class="cls-1" d="M649.52,340.83c-.35.31-2.54-1.39-5.49-1.33s-5.15,1.64-5.5,1.33,1.64-3,5.5-3S650,340.59,649.52,340.83Z"/><path class="cls-5" d="M652.55,344.34a8.93,8.93,0,1,1-8.93-8.93A8.93,8.93,0,0,1,652.55,344.34Z"/><path d="M643.62,354.85a10.51,10.51,0,1,1,10.51-10.51A10.53,10.53,0,0,1,643.62,354.85Zm0-17.87a7.36,7.36,0,1,0,7.36,7.36A7.36,7.36,0,0,0,643.62,337Z"/><path class="cls-7" d="M647.55,340c-.29.27-2.06-1.18-4.45-1.12s-4.16,1.39-4.45,1.12,1.33-2.56,4.45-2.56S647.92,339.82,647.55,340Z"/><path class="cls-1" d="M59.27,343.81c0,8.13-6.92,14.72-15.45,14.72s-15.45-6.59-15.45-14.72,6.92-14.71,15.45-14.71S59.27,335.69,59.27,343.81Z"/><path class="cls-1" d="M50.61,336.69c-.49.43-3.56-1.95-7.69-1.85-4.14-.1-7.2,2.28-7.7,1.85s2.3-4.23,7.7-4.21S51.25,336.36,50.61,336.69Z"/><circle class="cls-5" cx="42.35" cy="341.61" r="12.5"/><path d="M42.35,356.32a14.71,14.71,0,1,1,14.71-14.71A14.73,14.73,0,0,1,42.35,356.32Zm0-25a10.3,10.3,0,1,0,10.29,10.3A10.31,10.31,0,0,0,42.35,331.31Z"/><path class="cls-7" d="M47.84,335.55c-.39.37-2.87-1.65-6.22-1.57-3.35-.08-5.83,1.94-6.23,1.57S37.24,332,41.62,332,48.36,335.27,47.84,335.55Z"/><path class="cls-1" d="M109.7,343.81c0,8.13-6.91,14.72-15.44,14.72s-15.45-6.59-15.45-14.72,6.92-14.71,15.45-14.71S109.7,335.69,109.7,343.81Z"/><path class="cls-1" d="M101.05,336.69c-.49.43-3.56-1.95-7.69-1.85-4.14-.1-7.21,2.28-7.7,1.85s2.29-4.23,7.7-4.21S101.69,336.36,101.05,336.69Z"/><path class="cls-5" d="M105.29,341.61a12.51,12.51,0,1,1-12.5-12.51A12.5,12.5,0,0,1,105.29,341.61Z"/><path d="M92.79,356.32a14.71,14.71,0,1,1,14.71-14.71A14.73,14.73,0,0,1,92.79,356.32Zm0-25a10.3,10.3,0,1,0,10.29,10.3A10.31,10.31,0,0,0,92.79,331.31Z"/><path class="cls-7" d="M98.28,335.55c-.39.37-2.88-1.65-6.22-1.57-3.35-.08-5.83,1.94-6.23,1.57S87.68,332,92.06,332,98.8,335.27,98.28,335.55Z"/><path class="cls-1" d="M161.19,344.86c0,8.13-6.91,14.72-15.44,14.72S130.3,353,130.3,344.86s6.92-14.71,15.45-14.71S161.19,336.74,161.19,344.86Z"/><path class="cls-1" d="M152.54,337.74c-.49.43-3.56-1.94-7.7-1.85-4.13-.09-7.2,2.28-7.69,1.85-.64-.33,2.29-4.23,7.69-4.21S153.18,337.41,152.54,337.74Z"/><path class="cls-5" d="M156.78,342.66a12.51,12.51,0,1,1-12.5-12.51A12.5,12.5,0,0,1,156.78,342.66Z"/><path d="M144.28,357.37A14.71,14.71,0,1,1,159,342.66,14.73,14.73,0,0,1,144.28,357.37Zm0-25a10.3,10.3,0,1,0,10.29,10.3A10.31,10.31,0,0,0,144.28,332.36Z"/><path class="cls-7" d="M149.77,336.6c-.39.37-2.88-1.65-6.22-1.57-3.35-.08-5.83,1.94-6.23,1.57s1.85-3.59,6.23-3.58S150.29,336.32,149.77,336.6Z"/><path class="cls-1" d="M564.08,345.92c0,10.44-8.9,18.91-19.87,18.91s-19.86-8.47-19.86-18.91S533.25,327,544.21,327,564.08,335.47,564.08,345.92Z"/><path class="cls-1" d="M553,336.76c-.64.55-4.58-2.5-9.9-2.39-5.31-.11-9.25,2.94-9.89,2.39-.82-.42,3-5.44,9.89-5.42S553.77,336.34,553,336.76Z"/><path class="cls-5" d="M558.4,343.08A16.08,16.08,0,1,1,542.32,327,16.08,16.08,0,0,1,558.4,343.08Z"/><path d="M542.32,362a18.92,18.92,0,1,1,18.92-18.91A18.93,18.93,0,0,1,542.32,362Zm0-32.15a13.24,13.24,0,1,0,13.24,13.24A13.26,13.26,0,0,0,542.32,329.84Z"/><path class="cls-7" d="M549.39,335.29c-.51.47-3.7-2.12-8-2-4.3-.1-7.49,2.49-8,2-.67-.35,2.38-4.62,8-4.6S550.06,334.94,549.39,335.29Z"/><path class="cls-7" d="M752.29,238.22c-4.54-.9-14.41-8.59-29.5-6.54-15.17,1.37-20.16,11.36-22.15,9.91-2.49-1,1.92-14.18,21.68-16.37S754.49,236.7,752.29,238.22Z"/><rect class="cls-8" x="185.99" y="321.75" width="237.48" height="46.24" rx="5.9"/><path d="M413.88,369.56H195.59a11.18,11.18,0,0,1-11.17-11.17V331.34a11.18,11.18,0,0,1,11.17-11.17H413.88a11.18,11.18,0,0,1,11.17,11.17v27.05A11.18,11.18,0,0,1,413.88,369.56ZM195.59,323.32a8,8,0,0,0-8,8v27.05a8,8,0,0,0,8,8H413.88a8,8,0,0,0,8-8V331.34a8,8,0,0,0-8-8Z"/><path class="cls-9" d="M317.25,323.85l-32.09,42h-85.6a11.5,11.5,0,0,1-11.47-11.46V335.31a11.5,11.5,0,0,1,11.47-11.46Z"/><path class="cls-10" d="M419.36,331.07H190.2c1.36-3.64,6.15-6.35,11.82-6.35H407.54C413.2,324.72,418,327.43,419.36,331.07Z"/><rect class="cls-11" x="180.74" y="220.87" width="403.51" height="11.56"/><rect class="cls-12" x="180.74" y="274.46" width="403.51" height="11.56"/><polygon class="cls-13" points="2.63 202.48 220.15 117.36 956.76 117.36 808.6 202.48 2.63 202.48"/><path d="M808.6,204.88H2.63l-.88-4.64,217.52-85.11.87-.17H956.76l1.2,4.48L809.79,204.56Zm-793.25-4.8H808l139.81-80.32H220.6Z"/><polygon class="cls-3" points="808.6 384.27 956.76 268.68 956.76 117.36 808.6 202.48 808.6 384.27"/><path d="M810.08,386.16l-3.88-1.89V202.48l1.2-2.08,148.17-85.12,3.59,2.08V268.68l-.92,1.89ZM811,203.87V379.35L954.36,267.51v-146Z"/><polygon points="807.79 302.87 956.76 202.48 956.76 212.81 807.79 314.53 807.79 302.87"/><path d="M807.26,315.53V302.59l.23-.15,149.8-100.95v11.6l-.23.15Zm1-12.38v10.39l147.93-101v-9.06Z"/><polygon class="cls-3" points="649.26 58.05 663.16 42.72 663.16 160.15 646.44 176.44 649.26 58.05"/><path d="M646.1,177.2l2.84-119.27,14.53-16v118.4Zm3.47-119-2.8,117.49L662.84,160V43.54Z"/><path class="cls-3" d="M646.18,177,649,58l.06-.07,14.32-15.8V160.25Zm3.31-118.87-2.8,117.7,16.23-15.8V43.34Z"/><path d="M645.85,177.79l2.86-120,15-16.56V160.39Zm4-119.52L647,175.09l15.57-15.17V44.16Z"/><polygon class="cls-5" points="663.16 42.72 610.91 42.72 610.91 58.05 649.26 58.05 663.16 42.72"/><path d="M649.35,58.27H610.69V42.49h53Zm-38.22-.44h38l13.5-14.9H611.13Z"/><path class="cls-2" d="M649.43,57.48V171.1a5.33,5.33,0,0,1-5.33,5.34H355.5a5.33,5.33,0,0,1-5.33-5.34V57.48h6.72V33.2H644V57.48Z"/><path d="M644.1,176.75H355.5a5.66,5.66,0,0,1-5.65-5.65V57.17h6.73V32.88H644.34V57.17h5.41V171.1A5.66,5.66,0,0,1,644.1,176.75ZM350.48,57.8V171.1a5,5,0,0,0,5,5H644.1a5,5,0,0,0,5-5V57.8H643.7V33.52H357.21V57.8Z"/><path class="cls-2" d="M644.1,176.93H355.5a5.84,5.84,0,0,1-5.83-5.83V57h6.73V32.71H644.51V57h5.42V171.1A5.84,5.84,0,0,1,644.1,176.93ZM350.66,58V171.1a4.84,4.84,0,0,0,4.84,4.84H644.1a4.84,4.84,0,0,0,4.84-4.84V58h-5.41V33.69H357.39V58Z"/><path d="M644.1,177.24H355.5a6.14,6.14,0,0,1-6.14-6.14V56.67h6.72V32.39H644.83V56.67h5.41V171.1A6.14,6.14,0,0,1,644.1,177.24ZM350,57.31V171.1a5.51,5.51,0,0,0,5.51,5.51H644.1a5.51,5.51,0,0,0,5.51-5.51V57.31h-5.42V33H356.72V57.31Zm294.11,119H355.5a5.17,5.17,0,0,1-5.16-5.16V57.66h6.73V33.38H643.84V57.66h5.42V171.1A5.17,5.17,0,0,1,644.1,176.26ZM351,58.29V171.1a4.54,4.54,0,0,0,4.52,4.53H644.1a4.55,4.55,0,0,0,4.53-4.53V58.29h-5.42V34H357.7V58.29Z"/><path class="cls-8" d="M630.24,140.5l-164.95-.05-73.74,0H374.09c-32.29-46.52-3.52-79-3.52-79H630.24S660.43,92.59,630.24,140.5Z"/><path class="cls-8" d="M630.51,141h-.27L465.29,141l-73.75,0H373.83l-.14-.21c-7.41-10.67-12.2-21.49-14.26-32.16a61.14,61.14,0,0,1,.31-25.18,56,56,0,0,1,10.08-21.82l-1.27-.62h261.9l.14.15A54.48,54.48,0,0,1,642,82.87,61.1,61.1,0,0,1,643.46,108c-1.57,10.75-5.88,21.77-12.81,32.76Zm-256.16-1.06h17.2l73.74,0L630,140c15.33-24.47,14.52-44.4,11.13-56.83A54.2,54.2,0,0,0,630,61.91H370.8a54.14,54.14,0,0,0-10.11,21.72C357.85,96.21,357.93,116.17,374.35,139.94Z"/><path d="M482.57,100.8a54,54,0,0,1-17.28,39.65l-73.74,0a54.12,54.12,0,0,1-.28-79h74.32A54,54,0,0,1,482.57,100.8Z"/><path d="M465.48,141h-.19l-73.94,0-.14-.13a54.85,54.85,0,0,1-17.42-40,54.15,54.15,0,0,1,17.14-39.74l.14-.13h74.71l.15.13a54.14,54.14,0,0,1,17.13,39.74,54.8,54.8,0,0,1-17.44,40Zm-73.74-1,73.36,0a53.84,53.84,0,0,0,17-39.16,53.12,53.12,0,0,0-16.69-38.89H391.47a53.12,53.12,0,0,0-16.69,38.89A53.83,53.83,0,0,0,391.74,139.94Z"/><circle class="cls-1" cx="428.1" cy="100.8" r="21.33"/><path d="M428.1,122.62a21.82,21.82,0,1,1,21.82-21.82A21.85,21.85,0,0,1,428.1,122.62Zm0-42.66a20.84,20.84,0,1,0,20.84,20.84A20.87,20.87,0,0,0,428.1,80Z"/><circle cx="573.3" cy="100.96" r="37.24"/><path d="M573.3,138.7A37.74,37.74,0,1,1,611,101,37.78,37.78,0,0,1,573.3,138.7Zm0-74.49A36.75,36.75,0,1,0,610.06,101,36.8,36.8,0,0,0,573.3,64.21Z"/><circle class="cls-1" cx="573.14" cy="100.8" r="21.33"/><path d="M573.14,122.62A21.82,21.82,0,1,1,595,100.8,21.85,21.85,0,0,1,573.14,122.62Zm0-42.66A20.84,20.84,0,1,0,594,100.8,20.87,20.87,0,0,0,573.14,80Z"/><circle class="cls-8" cx="573.3" cy="101.29" r="14.44"/><path class="cls-8" d="M573.3,116.22a14.93,14.93,0,1,1,14.94-14.93A15,15,0,0,1,573.3,116.22Zm0-28.88a13.95,13.95,0,1,0,14,14A14,14,0,0,0,573.3,87.34Z"/><circle class="cls-8" cx="428.26" cy="101.29" r="12.8"/><path class="cls-8" d="M428.26,114.58a13.29,13.29,0,1,1,13.29-13.29A13.31,13.31,0,0,1,428.26,114.58Zm0-25.59a12.31,12.31,0,1,0,12.31,12.3A12.32,12.32,0,0,0,428.26,89Z"/><polygon class="cls-2" points="424.99 141.32 424.99 60.55 576.31 60.55 576.28 141.21 424.99 141.32"/><rect class="cls-14" x="438.93" y="68.97" width="124.69" height="64.32" rx="12"/><path d="M559.69,133.78H442.87a4.43,4.43,0,0,1-4.43-4.43V72.91a4.43,4.43,0,0,1,4.43-4.43H559.69a4.43,4.43,0,0,1,4.43,4.43v56.44A4.44,4.44,0,0,1,559.69,133.78ZM442.87,69.46a3.46,3.46,0,0,0-3.45,3.45v56.44a3.45,3.45,0,0,0,3.45,3.44H559.69a3.44,3.44,0,0,0,3.44-3.44V72.91a3.45,3.45,0,0,0-3.44-3.45Z"/><polygon class="cls-2" points="650.89 15.64 650.89 51.03 645.41 56.77 645.41 31.21 501.77 31.37 501.77 31.43 355.66 31.27 355.66 56.83 350.17 51.09 350.17 15.7 499.8 15.7 499.8 15.64 650.89 15.64"/><path d="M356,57.62l-6.13-6.4V15.39H499.48l.32-.06H651.2V51.16l-6.1,6.4v-26l-143,.16-.32.06L356,31.59ZM350.48,51,355.34,56V31l146.12.16.31-.06,144-.16V56l4.84-5.07V16H500.12l-.32.06H350.48Z"/><path class="cls-2" d="M356.15,58.05l-6.48-6.76V15.21H499.31v-.06H651.38V51.23L644.92,58V31.7l-142.66.16v.06h-.49l-145.62-.16Zm-5.49-7.15,4.51,4.7V30.78h.49l145.62.16v-.06h.49l144.14-.16V55.54l4.49-4.7V16.14H500.29v.06H350.66Z"/><path d="M356.47,58.84l-7.11-7.42V14.89H499l.32-.05H651.7V51.36l-7.09,7.43V32l-142,.16-.32.06h-.49l-145.3-.16ZM350,51.16l5.84,6.1V31.44L502,31.61l.31-.07,143-.16V57.2l5.82-6.1V15.47H499.63l-.32.06H350Zm5.49,5.23L350.34,51V15.88H500l.32-.06H650.71V51l-5.12,5.37V31l-144,.17-.31.06-145.8-.17ZM351,50.77l3.87,4V30.46L501,30.62l.32-.06,144.94-.16V54.75l3.86-4V16.45H500.61l-.32.06H351Z"/><rect x="445.98" y="89.15" width="111.57" height="0.98"/><rect x="445.94" y="98.5" width="111.57" height="0.98"/><rect x="445.97" y="107.85" width="111.57" height="0.98"/><rect x="446" y="117.21" width="111.57" height="0.98"/><polygon class="cls-13" points="350.39 15.63 368.37 1.49 663.16 1.49 651.17 14.91 350.39 15.63"/><path d="M349.47,16,368.26,1.17H663.87L651.32,15.23h-.15Zm19-14.14-17.17,13.5L651,14.6,662.45,1.81Z"/><path class="cls-13" d="M349.7,15.87,368.28,1.25H663.69l-12.41,13.9h-.11ZM368.45,1.73,351.09,15.39l300-.72L662.62,1.73Z"/><path d="M348.78,16.19,368.17.94H664.4l-13,14.53h-.25ZM368.56,2.05,352,15.07l298.92-.71,11-12.31Z"/><polygon class="cls-3" points="663.16 1.49 663.16 36.48 651.17 51.34 650.89 15.64 663.16 1.49"/><path d="M650.86,52.23l-.29-36.7L663.47.64v36l-.07.09Zm.35-36.47.27,34.69,11.36-14.08v-34Z"/><path class="cls-3" d="M650.94,52l-.29-36.45L663.4.85V36.57Zm.19-36.28.28,34.94L662.92,36.4V2.13Z"/><path d="M650.63,52.9l-.3-37.46.08-.09L663.71,0V36.68l-.07.09Zm.82-37,.27,33.93L662.6,36.29V3Z"/></g></g></svg>