<svg xmlns="http://www.w3.org/2000/svg" viewBox="0 0 325 285.04"><defs><style>.cls-1{isolation:isolate;}.cls-2{fill:#ccc;}.cls-3{fill:#b3b3b3;}.cls-4{fill:#ecf0f1;}.cls-5{fill:#5b5e71;}.cls-6{fill:#525566;}.cls-7{fill:#84dbff;}.cls-8{fill:#f1c40f;}.cls-9{fill:#d6b218;}.cls-10{fill:#c44;}.cls-11{fill:#e74c3c;}.cls-12{fill:#d4d6d6;}.cls-13{fill:#e0e2e2;}.cls-14{fill:#c4c6c6;}</style></defs><title>Reproductor DVD</title><g id="Capa_2" data-name="Capa 2"><g id="Ñëîé_1" data-name="Ñëîé 1"><g class="cls-1"><path class="cls-2" d="M322.29,98.77c-.79-.57-1.89-.49-3.1.39L139.09,229.8,4.33,131.4,184.43.75c1.22-.88,2.31-1,3.1-.38Z"/><path class="cls-3" d="M139.1,229.81,4.34,131.4c-2.4,1.75-4.35,6-4.34,9.45l.09,40.46c0,1.72.49,2.93,1.27,3.5l134.76,98.4c-.78-.57-1.27-1.78-1.27-3.5l-.09-40.46C134.75,235.77,136.7,231.55,139.1,229.81Z"/><path class="cls-4" d="M319.19,99.16c2.41-1.75,4.36-.35,4.37,3.12l.09,40.46c0,3.47-1.93,7.7-4.34,9.45L139.22,282.84c-2.4,1.74-4.36.33-4.37-3.13l-.09-40.46c0-3.48,1.94-7.7,4.34-9.44Z"/></g><path class="cls-5" d="M319.15,97c-.79-.58-1.89-.5-3.09.38L136,228c-2.41,1.74-4.35,6-4.35,9.45l.1,40.45c0,1.73.48,2.94,1.27,3.51l4.49,3.28c-.78-.57-1.27-1.78-1.27-3.51l-.09-40.45c0-3.47,1.94-7.71,4.34-9.45l180.1-130.65c1.2-.88,2.3-1,3.09-.38Z"/><path class="cls-6" d="M320.55,100.61c2.4-1.74,4.35-.33,4.36,3.13L325,144.2c0,3.47-1.93,7.7-4.33,9.44L140.57,284.29c-2.41,1.74-4.36.34-4.37-3.13l-.09-40.45c0-3.47,1.94-7.71,4.34-9.45Z"/><polygon class="cls-5" points="319.8 127.42 319.76 107.37 318.51 108.27 318.55 126.27 209.18 205.61 209.18 207.66 319.8 127.42"/><polygon class="cls-7" points="318.51 108.27 209.14 187.61 209.18 205.61 318.55 126.27 318.51 108.27"/><g class="cls-1"><path class="cls-8" d="M318.53,137.85a2.11,2.11,0,0,0-2.56.31c-2,1.45-3.59,4.94-3.59,7.81a3.51,3.51,0,0,0,1.05,2.91l1.82,1.33a3.54,3.54,0,0,1-1.05-2.91c0-2.87,1.59-6.36,3.59-7.81a2.1,2.1,0,0,1,2.56-.31Z"/><path class="cls-9" d="M317.79,139.49c2-1.44,3.61-.28,3.62,2.59s-1.61,6.37-3.6,7.81-3.6.3-3.61-2.59S315.79,140.94,317.79,139.49Z"/></g><g class="cls-1"><path class="cls-8" d="M307.16,146.1a2.11,2.11,0,0,0-2.56.31c-2,1.45-3.6,5-3.59,7.82a3.5,3.5,0,0,0,1,2.9l1.82,1.33a3.5,3.5,0,0,1-1-2.9c0-2.87,1.59-6.37,3.59-7.82a2.1,2.1,0,0,1,2.56-.31Z"/><path class="cls-9" d="M306.42,147.74c2-1.44,3.6-.28,3.61,2.59s-1.6,6.37-3.58,7.8-3.61.31-3.62-2.57S304.42,149.19,306.42,147.74Z"/></g><g class="cls-1"><path class="cls-8" d="M295.78,154.35a2.1,2.1,0,0,0-2.55.31c-2,1.45-3.6,5-3.6,7.82a3.53,3.53,0,0,0,1.05,2.9l1.82,1.33a3.53,3.53,0,0,1-1.05-2.9c0-2.87,1.6-6.37,3.6-7.82a2.1,2.1,0,0,1,2.55-.31Z"/><path class="cls-9" d="M295.05,156c2-1.44,3.6-.28,3.61,2.59s-1.61,6.37-3.59,7.81-3.61.3-3.62-2.58S293.05,157.44,295.05,156Z"/></g><path class="cls-10" d="M196,233.7c1.17-.85,2.12-.15,2.12,1.52a6.29,6.29,0,0,1-2.11,4.6l-8.63,6.26c-1.17.85-2.12.17-2.13-1.52a6.32,6.32,0,0,1,2.12-4.6Z"/><path class="cls-10" d="M212.26,221.92c1.17-.85,2.13-.16,2.13,1.51a6.25,6.25,0,0,1-2.12,4.6l-8.63,6.26c-1.17.85-2.12.17-2.12-1.52a6.27,6.27,0,0,1,2.11-4.59Z"/><path class="cls-10" d="M228.51,210.13c1.16-.85,2.12-.16,2.13,1.52a6.29,6.29,0,0,1-2.11,4.59l-8.64,6.27c-1.16.84-2.12.17-2.13-1.52a6.33,6.33,0,0,1,2.11-4.6Z"/><path class="cls-10" d="M244.76,198.34c1.16-.84,2.12-.15,2.12,1.52a6.28,6.28,0,0,1-2.11,4.6l-8.64,6.27c-1.16.84-2.12.17-2.12-1.53a6.29,6.29,0,0,1,2.11-4.59Z"/><path class="cls-10" d="M261,186.56c1.17-.85,2.12-.15,2.13,1.52a6.26,6.26,0,0,1-2.12,4.59l-8.64,6.27c-1.16.84-2.12.17-2.12-1.52a6.33,6.33,0,0,1,2.11-4.59Z"/><g class="cls-1"><path class="cls-11" d="M194.78,232.8l-8.62,6.26a6.28,6.28,0,0,0-2.12,4.6,2.1,2.1,0,0,0,.62,1.71l1.23.89a2.06,2.06,0,0,1-.62-1.7,6.32,6.32,0,0,1,2.12-4.6L196,233.7a1.24,1.24,0,0,1,1.5-.18l-1.23-.9A1.26,1.26,0,0,0,194.78,232.8Z"/><path class="cls-11" d="M211,221l-8.63,6.26a6.27,6.27,0,0,0-2.11,4.59,2,2,0,0,0,.62,1.71l1.23.9a2.07,2.07,0,0,1-.62-1.71,6.27,6.27,0,0,1,2.11-4.59l8.63-6.26a1.23,1.23,0,0,1,1.51-.18l-1.23-.9A1.23,1.23,0,0,0,211,221Z"/><path class="cls-11" d="M227.28,209.23l-8.64,6.27a6.33,6.33,0,0,0-2.11,4.59,2,2,0,0,0,.62,1.7l1.23.9a2,2,0,0,1-.62-1.7,6.33,6.33,0,0,1,2.11-4.6l8.64-6.26A1.24,1.24,0,0,1,230,210l-1.23-.9A1.24,1.24,0,0,0,227.28,209.23Z"/><path class="cls-11" d="M243.53,197.44l-8.64,6.27a6.34,6.34,0,0,0-2.12,4.6,2.09,2.09,0,0,0,.62,1.7l1.23.9a2.07,2.07,0,0,1-.61-1.71,6.29,6.29,0,0,1,2.11-4.59l8.64-6.27a1.22,1.22,0,0,1,1.5-.17l-1.23-.9A1.22,1.22,0,0,0,243.53,197.44Z"/><path class="cls-11" d="M259.77,185.66l-8.64,6.27a6.29,6.29,0,0,0-2.11,4.59,2.07,2.07,0,0,0,.62,1.71l1.23.89a2,2,0,0,1-.62-1.7,6.33,6.33,0,0,1,2.11-4.59l8.64-6.27a1.24,1.24,0,0,1,1.51-.18l-1.24-.9A1.23,1.23,0,0,0,259.77,185.66Z"/><path class="cls-11" d="M277.52,173.69a1.25,1.25,0,0,0-1.51.19l-8.63,6.26a6.29,6.29,0,0,0-2.11,4.59,2.07,2.07,0,0,0,.62,1.71l1.23.9a2.1,2.1,0,0,1-.62-1.71,6.33,6.33,0,0,1,2.11-4.6l8.63-6.26a1.26,1.26,0,0,1,1.51-.18Z"/><path class="cls-10" d="M277.24,174.77c1.17-.84,2.13-.15,2.13,1.53a6.27,6.27,0,0,1-2.11,4.59l-8.63,6.26c-1.17.85-2.12.17-2.13-1.52a6.33,6.33,0,0,1,2.11-4.6Z"/></g><g class="cls-1"><path class="cls-4" d="M146.59,266.05l1.54,1.13a1.09,1.09,0,0,0-1.33.16l-1.54-1.12A1.11,1.11,0,0,1,146.59,266.05Z"/><polygon class="cls-4" points="142.36 270.56 140.82 269.44 145.26 266.22 146.8 267.34 142.36 270.56"/><path class="cls-4" d="M141.05,276.11,139.51,275a1.85,1.85,0,0,1-.54-1.51,5.5,5.5,0,0,1,1.85-4l1.54,1.12a5.53,5.53,0,0,0-1.86,4.05A1.81,1.81,0,0,0,141.05,276.11Z"/><path class="cls-12" d="M146.8,267.34c1-.75,1.87-.15,1.87,1.34a5.54,5.54,0,0,1-1.86,4.05L142.37,276c-1,.75-1.86.14-1.87-1.34a5.53,5.53,0,0,1,1.86-4.05Z"/></g><g class="cls-1"><path class="cls-4" d="M178.77,242.71l1.53,1.12c-.33-.25-.8-.21-1.32.17l-1.54-1.13A1.1,1.1,0,0,1,178.77,242.71Z"/><polygon class="cls-4" points="174.54 247.22 173 246.09 177.44 242.87 178.98 244 174.54 247.22"/><path class="cls-4" d="M173.22,252.77l-1.54-1.12a1.85,1.85,0,0,1-.54-1.51,5.51,5.51,0,0,1,1.86-4l1.54,1.13a5.49,5.49,0,0,0-1.86,4.05A1.82,1.82,0,0,0,173.22,252.77Z"/><path class="cls-12" d="M179,244c1-.75,1.87-.15,1.87,1.34a5.54,5.54,0,0,1-1.86,4l-4.44,3.22c-1,.74-1.87.15-1.87-1.34a5.49,5.49,0,0,1,1.86-4.05Z"/></g><g class="cls-1"><polygon class="cls-4" points="163.36 247.79 161.83 246.67 166.28 249.86 167.82 250.98 163.36 247.79"/><polygon class="cls-13" points="156.42 250.63 157.95 251.75 153.51 261.35 151.98 260.23 156.42 250.63"/><path class="cls-4" d="M157.94,251.75l-1.54-1.13a3.21,3.21,0,0,0,2.71-.73,10.48,10.48,0,0,0,2.72-3.22l1.53,1.12a10.32,10.32,0,0,1-2.71,3.22A3.22,3.22,0,0,1,157.94,251.75Z"/><path class="cls-12" d="M163.36,247.79l4.46,3.19a25.39,25.39,0,0,1-7.15,9c-2.73,2-5.24,2.35-7.14,1.35l4.41-9.61a3.22,3.22,0,0,0,2.71-.74A10.32,10.32,0,0,0,163.36,247.79Z"/><path class="cls-13" d="M164.54,245.25,163,244.13a13.72,13.72,0,0,0,.83-4.53,5.51,5.51,0,0,0-.85-3.29l1.54,1.12a5.51,5.51,0,0,1,.85,3.29A13.72,13.72,0,0,1,164.54,245.25Z"/><path class="cls-12" d="M168.94,227.8c1.66,1.57,2.67,4.46,2.68,8.39A32.8,32.8,0,0,1,169,248.43l-4.45-3.18a13.72,13.72,0,0,0,.83-4.53,5.51,5.51,0,0,0-.85-3.29Z"/><polygon class="cls-4" points="167.42 226.69 168.96 227.81 164.51 237.42 162.97 236.3 167.42 226.69"/><polygon class="cls-4" points="152.29 239.88 150.75 238.76 155.2 241.96 156.74 243.08 152.29 239.88"/><path class="cls-12" d="M152.29,239.88l4.45,3.2a14,14,0,0,0-.84,4.51,5.87,5.87,0,0,0,.85,3.31l-4.41,9.61c-1.66-1.57-2.67-4.45-2.68-8.39A32.84,32.84,0,0,1,152.29,239.88Z"/><path class="cls-4" d="M152.34,260.51l-1.54-1.12c-1.66-1.57-2.67-4.46-2.68-8.39a32.84,32.84,0,0,1,2.63-12.24l1.54,1.12a32.84,32.84,0,0,0-2.63,12.24C149.67,256.06,150.68,258.94,152.34,260.51Z"/><path class="cls-4" d="M166.22,225.82c-1.92-1-4.43-.62-7.16,1.36a25.45,25.45,0,0,0-7.13,9l1.54,1.12a25.41,25.41,0,0,1,7.13-9c2.73-2,5.23-2.34,7.16-1.36Z"/><path class="cls-12" d="M160.6,228.31c2.73-2,5.23-2.34,7.16-1.36l-4.42,9.63a3.18,3.18,0,0,0-2.72.74,10.23,10.23,0,0,0-2.7,3.18l-4.45-3.2A25.41,25.41,0,0,1,160.6,228.31Z"/></g><g class="cls-1"><path class="cls-4" d="M146.52,234.42l1.53,1.13a1.07,1.07,0,0,0-1.32.16l-1.54-1.12A1.11,1.11,0,0,1,146.52,234.42Z"/><polygon class="cls-4" points="142.29 238.93 140.75 237.81 145.19 234.59 146.73 235.71 142.29 238.93"/><path class="cls-4" d="M141,244.48l-1.54-1.12a1.91,1.91,0,0,1-.55-1.52,5.52,5.52,0,0,1,1.86-4l1.54,1.12a5.53,5.53,0,0,0-1.86,4A1.83,1.83,0,0,0,141,244.48Z"/><path class="cls-12" d="M146.73,235.71c1-.75,1.87-.14,1.87,1.33a5.57,5.57,0,0,1-1.86,4.06l-4.44,3.22c-1,.74-1.86.13-1.87-1.36a5.53,5.53,0,0,1,1.86-4Z"/></g><g class="cls-1"><path class="cls-4" d="M178.7,211.08a1.09,1.09,0,0,0-1.33.16l-4.44,3.22a5.5,5.5,0,0,0-1.86,4,1.8,1.8,0,0,0,.55,1.51l1.53,1.12a1.84,1.84,0,0,1-.55-1.5,5.59,5.59,0,0,1,1.87-4l4.43-3.22a1.12,1.12,0,0,1,1.33-.16Z"/><path class="cls-12" d="M178.9,212.36c1-.74,1.87-.13,1.88,1.34a5.57,5.57,0,0,1-1.86,4.06L174.48,221c-1,.74-1.87.13-1.88-1.35a5.59,5.59,0,0,1,1.87-4Z"/></g><g class="cls-1"><path class="cls-4" d="M217.23,204.82a1.09,1.09,0,0,0-1.33.16l-4.44,3.22a5.5,5.5,0,0,0-1.86,4,1.82,1.82,0,0,0,.55,1.51l1.12.81a1.78,1.78,0,0,1-.55-1.5,5.54,5.54,0,0,1,1.86-4.05l4.44-3.22a1.1,1.1,0,0,1,1.32-.16Z"/><path class="cls-12" d="M217,205.79c1-.74,1.87-.13,1.87,1.34a5.58,5.58,0,0,1-1.86,4.06l-4.44,3.22c-1,.74-1.87.13-1.87-1.35a5.54,5.54,0,0,1,1.86-4.05Z"/></g><polygon class="cls-13" points="60.38 150.84 67.47 156.01 224.19 42.32 217.1 37.15 60.38 150.84"/><g class="cls-1"><polygon class="cls-13" points="30.54 129.04 37.62 134.22 194.34 20.53 187.26 15.35 30.54 129.04"/><polygon class="cls-13" points="45.47 139.95 52.54 145.11 209.26 31.42 202.19 26.26 45.47 139.95"/><polygon class="cls-13" points="75.3 161.73 82.39 166.91 239.11 53.21 232.02 48.04 75.3 161.73"/><polygon class="cls-13" points="90.23 172.63 97.32 177.81 254.04 64.12 246.95 58.94 90.23 172.63"/></g><polygon class="cls-14" points="93.39 211.5 93.34 241.98 89.26 239.02 89.31 208.54 93.39 211.5"/><polygon class="cls-14" points="83.95 204.65 83.91 235.13 79.83 232.17 79.87 201.69 83.95 204.65"/><polygon class="cls-14" points="74.52 197.81 74.47 228.29 70.39 225.33 70.44 194.84 74.52 197.81"/><polygon class="cls-14" points="65.08 190.96 65.03 221.44 60.95 218.48 61 188 65.08 190.96"/><polygon class="cls-14" points="55.64 184.11 55.59 214.59 51.52 211.63 51.56 181.15 55.64 184.11"/><polygon class="cls-14" points="46.2 177.27 46.16 207.75 42.08 204.79 42.12 174.31 46.2 177.27"/><polygon class="cls-14" points="36.77 170.42 36.72 200.9 32.64 197.94 32.69 167.46 36.77 170.42"/><polygon class="cls-14" points="27.33 163.57 27.28 194.06 23.2 191.1 23.25 160.62 27.33 163.57"/><polygon class="cls-14" points="17.89 156.73 17.85 187.21 13.77 184.25 13.81 153.77 17.89 156.73"/><polygon class="cls-14" points="8.46 149.88 8.41 180.36 4.33 177.4 4.38 146.92 8.46 149.88"/></g></g></svg>