<svg xmlns="http://www.w3.org/2000/svg" xmlns:xlink="http://www.w3.org/1999/xlink" viewBox="0 0 439.82 443"><defs><style>.cls-1{fill:url(#linear-gradient);}.cls-2{fill:url(#linear-gradient-2);}.cls-3{opacity:0.3;}.cls-4{opacity:0;}.cls-5{opacity:0.03;}.cls-6{opacity:0.06;}.cls-7{opacity:0.1;}.cls-8{opacity:0.13;}.cls-9{opacity:0.16;}.cls-10{opacity:0.19;}.cls-11{opacity:0.23;}.cls-12{opacity:0.26;}.cls-13{opacity:0.29;}.cls-14{opacity:0.32;}.cls-15{opacity:0.35;}.cls-16{opacity:0.39;}.cls-17{opacity:0.42;}.cls-18{opacity:0.45;}.cls-19{opacity:0.48;}.cls-20{opacity:0.52;}.cls-21{opacity:0.55;}.cls-22{opacity:0.58;}.cls-23{opacity:0.61;}.cls-24{opacity:0.65;}.cls-25{opacity:0.68;}.cls-26{opacity:0.71;}.cls-27{opacity:0.74;}.cls-28{opacity:0.77;}.cls-29{opacity:0.81;}.cls-30{opacity:0.84;}.cls-31{opacity:0.87;}.cls-32{opacity:0.9;}.cls-33{opacity:0.94;}.cls-34{opacity:0.97;}.cls-35{fill:#c7c7c7;}.cls-36{fill:url(#linear-gradient-3);}.cls-37{fill:url(#linear-gradient-4);}.cls-38{fill:url(#linear-gradient-5);}.cls-39{fill:url(#linear-gradient-6);}.cls-40{fill:url(#linear-gradient-7);}.cls-41{fill:url(#linear-gradient-8);}.cls-42{fill:#d8d8d8;}.cls-43{fill:url(#linear-gradient-9);}.cls-44{fill:#eaeaea;}.cls-45{fill:url(#linear-gradient-10);}.cls-46{fill:url(#linear-gradient-11);}.cls-47{fill:url(#linear-gradient-12);}.cls-48{fill:url(#linear-gradient-13);}.cls-49{fill:url(#linear-gradient-14);}.cls-50{fill:url(#linear-gradient-15);}.cls-51{fill:url(#linear-gradient-16);}.cls-52{fill:url(#linear-gradient-17);}.cls-53{fill:url(#linear-gradient-18);}.cls-54{fill:url(#linear-gradient-19);}.cls-55{fill:url(#linear-gradient-20);}.cls-56{fill:url(#linear-gradient-21);}.cls-57{fill:url(#linear-gradient-22);}.cls-58{fill:url(#linear-gradient-23);}.cls-59{fill:url(#linear-gradient-24);}.cls-60{isolation:isolate;}.cls-61{fill:url(#linear-gradient-25);}.cls-62{fill:url(#linear-gradient-26);}.cls-63{fill:url(#linear-gradient-27);}.cls-64{fill:url(#linear-gradient-28);}.cls-65{fill:url(#linear-gradient-29);}.cls-66{fill:url(#linear-gradient-30);}.cls-67{fill:url(#linear-gradient-31);}.cls-68{fill:url(#linear-gradient-32);}.cls-69{fill:url(#linear-gradient-33);}.cls-70{fill:url(#linear-gradient-34);}.cls-71{fill:url(#linear-gradient-35);}.cls-72{fill:url(#linear-gradient-36);}.cls-73{fill:url(#linear-gradient-37);}.cls-74{fill:url(#linear-gradient-38);}.cls-75{fill:url(#linear-gradient-39);}.cls-76{fill:url(#linear-gradient-40);}.cls-77{mask:url(#mask);}.cls-78{fill:url(#linear-gradient-41);}.cls-79{fill:url(#linear-gradient-42);}.cls-80{fill:url(#linear-gradient-43);}.cls-81{fill:url(#linear-gradient-44);}.cls-82{fill:url(#linear-gradient-45);}.cls-83{fill:url(#linear-gradient-46);}</style><linearGradient id="linear-gradient" x1="222.48" y1="401.11" x2="222.48" y2="169.45" gradientUnits="userSpaceOnUse"><stop offset="0.1"/><stop offset="1" stop-color="#fff"/></linearGradient><linearGradient id="linear-gradient-2" x1="68.14" y1="485.74" x2="68.14" y2="254.1" gradientUnits="userSpaceOnUse"><stop offset="0.6"/><stop offset="1" stop-color="#fff"/></linearGradient><linearGradient id="linear-gradient-3" x1="71.01" y1="314.76" x2="71.01" y2="87.82" gradientUnits="userSpaceOnUse"><stop offset="0" stop-color="#b5b5b5"/><stop offset="0.3" stop-color="#d8d8d8"/></linearGradient><linearGradient id="linear-gradient-4" x1="58.78" y1="149.5" x2="69.7" y2="130.59" gradientUnits="userSpaceOnUse"><stop offset="0" stop-color="#c7c7c7"/><stop offset="0.5" stop-color="#eaeaea"/><stop offset="1" stop-color="#c7c7c7"/></linearGradient><linearGradient id="linear-gradient-5" x1="213.13" y1="64.86" x2="224.05" y2="45.95" xlink:href="#linear-gradient-4"/><linearGradient id="linear-gradient-6" x1="65.3" y1="91.37" x2="68.46" y2="85.9" gradientUnits="userSpaceOnUse"><stop offset="0" stop-color="#c7c7c7"/><stop offset="1" stop-color="#eaeaea"/></linearGradient><linearGradient id="linear-gradient-7" x1="219.64" y1="6.73" x2="222.8" y2="1.26" xlink:href="#linear-gradient-6"/><linearGradient id="linear-gradient-8" x1="225.36" y1="230.11" x2="225.36" y2="3.17" xlink:href="#linear-gradient-3"/><linearGradient id="linear-gradient-9" x1="215.35" y1="460.84" x2="373.08" y2="187.64" gradientUnits="userSpaceOnUse"><stop offset="0.85" stop-color="#eaeaea"/><stop offset="0.89" stop-color="#c7c7c7"/></linearGradient><linearGradient id="linear-gradient-10" x1="77.63" y1="387.85" x2="81.95" y2="380.36" gradientUnits="userSpaceOnUse"><stop offset="0.1" stop-color="#b5b5b5"/><stop offset="0.9" stop-color="#c7c7c7"/></linearGradient><linearGradient id="linear-gradient-11" x1="75.72" y1="348.87" x2="91.18" y2="322.1" gradientUnits="userSpaceOnUse"><stop offset="0.1" stop-color="#c7c7c7"/><stop offset="0.9" stop-color="#eaeaea"/></linearGradient><linearGradient id="linear-gradient-12" x1="212.75" y1="277.1" x2="373.93" y2="370.15" gradientUnits="userSpaceOnUse"><stop offset="0" stop-color="#40444a"/><stop offset="0.8" stop-color="#00060d"/></linearGradient><linearGradient id="linear-gradient-13" x1="366.52" y1="290.74" x2="360.34" y2="280.04" gradientUnits="userSpaceOnUse"><stop offset="0" stop-color="#0095c6"/><stop offset="1" stop-color="#60bbda"/></linearGradient><linearGradient id="linear-gradient-14" x1="334.89" y1="307.77" x2="332.98" y2="304.46" xlink:href="#linear-gradient-13"/><linearGradient id="linear-gradient-15" x1="334.26" y1="303.54" x2="333.11" y2="301.56" xlink:href="#linear-gradient-13"/><linearGradient id="linear-gradient-16" x1="334.27" y1="302.02" x2="332.83" y2="299.53" xlink:href="#linear-gradient-13"/><linearGradient id="linear-gradient-17" x1="334.28" y1="300.5" x2="332.55" y2="297.49" xlink:href="#linear-gradient-13"/><linearGradient id="linear-gradient-18" x1="334.3" y1="298.97" x2="332.27" y2="295.46" xlink:href="#linear-gradient-13"/><linearGradient id="linear-gradient-19" x1="306.25" y1="320.93" x2="302.58" y2="314.57" xlink:href="#linear-gradient-13"/><linearGradient id="linear-gradient-20" x1="276.75" y1="337.11" x2="273.08" y2="330.76" xlink:href="#linear-gradient-13"/><linearGradient id="linear-gradient-21" x1="247.25" y1="353.29" x2="243.58" y2="346.93" xlink:href="#linear-gradient-13"/><linearGradient id="linear-gradient-22" x1="217.74" y1="369.47" x2="214.08" y2="363.12" xlink:href="#linear-gradient-13"/><linearGradient id="linear-gradient-23" x1="188.03" y1="381.64" x2="184.77" y2="375.99" xlink:href="#linear-gradient-13"/><linearGradient id="linear-gradient-24" x1="189.33" y1="388.41" x2="183.68" y2="378.62" xlink:href="#linear-gradient-13"/><linearGradient id="linear-gradient-25" x1="251.4" y1="186.58" x2="250.05" y2="184.25" gradientUnits="userSpaceOnUse"><stop offset="0" stop-color="#929292"/><stop offset="0.4" stop-color="#f8f8f8"/><stop offset="1" stop-color="#f8f8f8"/></linearGradient><linearGradient id="linear-gradient-26" x1="256.12" y1="189.17" x2="254.78" y2="186.84" xlink:href="#linear-gradient-25"/><linearGradient id="linear-gradient-27" x1="260.85" y1="191.76" x2="259.51" y2="189.43" xlink:href="#linear-gradient-25"/><linearGradient id="linear-gradient-28" x1="265.58" y1="194.35" x2="264.23" y2="192.02" xlink:href="#linear-gradient-25"/><linearGradient id="linear-gradient-29" x1="270.3" y1="196.94" x2="268.96" y2="194.62" xlink:href="#linear-gradient-25"/><linearGradient id="linear-gradient-30" x1="275.04" y1="199.54" x2="273.69" y2="197.21" xlink:href="#linear-gradient-25"/><linearGradient id="linear-gradient-31" x1="279.76" y1="202.13" x2="278.41" y2="199.8" xlink:href="#linear-gradient-25"/><linearGradient id="linear-gradient-32" x1="284.48" y1="204.72" x2="283.15" y2="202.4" xlink:href="#linear-gradient-25"/><linearGradient id="linear-gradient-33" x1="279.57" y1="171.02" x2="278.23" y2="168.69" xlink:href="#linear-gradient-25"/><linearGradient id="linear-gradient-34" x1="284.3" y1="173.62" x2="282.96" y2="171.29" xlink:href="#linear-gradient-25"/><linearGradient id="linear-gradient-35" x1="289.03" y1="176.21" x2="287.69" y2="173.88" xlink:href="#linear-gradient-25"/><linearGradient id="linear-gradient-36" x1="293.75" y1="178.79" x2="292.41" y2="176.47" xlink:href="#linear-gradient-25"/><linearGradient id="linear-gradient-37" x1="298.48" y1="181.39" x2="297.14" y2="179.06" xlink:href="#linear-gradient-25"/><linearGradient id="linear-gradient-38" x1="303.21" y1="183.98" x2="301.87" y2="181.66" xlink:href="#linear-gradient-25"/><linearGradient id="linear-gradient-39" x1="307.94" y1="186.57" x2="306.6" y2="184.25" xlink:href="#linear-gradient-25"/><linearGradient id="linear-gradient-40" x1="312.66" y1="189.16" x2="311.32" y2="186.84" xlink:href="#linear-gradient-25"/><mask id="mask" x="60.3" y="169.45" width="170.02" height="240.64" maskUnits="userSpaceOnUse"><path class="cls-1" d="M220.63,174.77l-5.74,3.14-.25,81.87c0,.23,0,.49,0,.77,0,.11,0,.24,0,.36s0,.33,0,.51,0,.26,0,.39,0,.36,0,.54,0,.27,0,.4,0,.38,0,.58l0,.43c0,.17,0,.36,0,.54s0,.29,0,.44,0,.35,0,.52,0,.27,0,.4,0,.35.06.51,0,.24,0,.35,0,.3.06.43a.38.38,0,0,0,0,.1l1.31,9.17a63.08,63.08,0,0,1,.51,7.28l-.11,36.87a6.3,6.3,0,0,0,0,.75v0c0,.17.06.35.1.53l0,.12,0,.12c0,.06,0,.12,0,.17l.12.36,0,.09a.14.14,0,0,1,0,.06l.06.16.12.27.1.2s0,0,0,0l0,0,.12.23a2.53,2.53,0,0,0,.13.22l.08.12,0,0,0,.06.14.19.15.2.06.07,0,0,.08.09a1.61,1.61,0,0,0,.22.23l.05,0a3,3,0,0,0,.56.42l.25.11.12,0,0,0h0l.18.05h.55l.13,0,.12-.07h0l5.75-3.18s0,0-.07,0a2.4,2.4,0,0,0,1.05-2.28l.11-36.89a47.92,47.92,0,0,1,.55-6.69l1.35-7.71a47.71,47.71,0,0,0,.57-6.67l.27-92.45Z"/><path class="cls-2" d="M60.55,262.55l-.25,81.87c0,.24,0,.5,0,.78,0,0,0,.07,0,.11,0,.24,0,.49,0,.76,0,.05,0,.12,0,.17,0,.25,0,.5,0,.77,0,.06,0,.12,0,.19,0,.25,0,.51.05.78,0,.09,0,.2,0,.3s0,.45.05.68a1.66,1.66,0,0,1,0,.32l.06.63c0,.11,0,.21,0,.32l.06.59a3.11,3.11,0,0,0,0,.32l.06.46a.28.28,0,0,0,0,.09l1.31,9.18a62.91,62.91,0,0,1,.51,7.27L62.53,405a6,6,0,0,0,0,.75v0c0,.18.06.36.1.54l0,.12,0,.11a.67.67,0,0,0,0,.19c0,.11.07.23.11.35l0,.09,0,.05a.7.7,0,0,0,.06.17c0,.09.07.18.11.27s.07.13.1.19a.06.06,0,0,0,0,0l0,0a2.53,2.53,0,0,0,.12.23,2.39,2.39,0,0,0,.13.21,1.27,1.27,0,0,0,.07.12l0,0a.21.21,0,0,0,0,.06,2.43,2.43,0,0,0,.14.2l.15.19.06.08,0,0,.09.1a2.4,2.4,0,0,0,.21.23l.06,0a3,3,0,0,0,.56.41,1.42,1.42,0,0,0,.25.12l.12,0,0,0h0l.18,0H66l.06,0h.07l.13,0,.13-.07,3.71-2.05,2.05-1.13-.07,0a2.4,2.4,0,0,0,1-2.29l.11-36.88a46.21,46.21,0,0,1,.55-6.69l1.36-7.71a51.3,51.3,0,0,0,.55-6.69L76,254.1l-9.67,5.3Z"/></mask><linearGradient id="linear-gradient-41" x1="433.21" y1="1104.88" x2="444.13" y2="1085.96" gradientTransform="matrix(1, 0, 0, -1, -219.98, 1365.47)" xlink:href="#linear-gradient-4"/><linearGradient id="linear-gradient-42" x1="439.72" y1="1046.76" x2="442.88" y2="1041.28" gradientTransform="matrix(1, 0, 0, -1, -219.98, 1365.47)" xlink:href="#linear-gradient-6"/><linearGradient id="linear-gradient-43" x1="518.02" y1="1020.23" x2="528.94" y2="1001.32" gradientTransform="matrix(1, 0, 0, -1, -459.13, 1365.47)" xlink:href="#linear-gradient-4"/><linearGradient id="linear-gradient-44" x1="524.53" y1="962.11" x2="527.69" y2="956.63" gradientTransform="matrix(1, 0, 0, -1, -459.13, 1365.47)" xlink:href="#linear-gradient-6"/><linearGradient id="linear-gradient-45" x1="445.34" y1="1270.14" x2="445.34" y2="1043.2" gradientTransform="matrix(1, 0, 0, -1, -219.98, 1365.47)" xlink:href="#linear-gradient-3"/><linearGradient id="linear-gradient-46" x1="530.15" y1="1185.49" x2="530.15" y2="958.55" gradientTransform="matrix(1, 0, 0, -1, -459.13, 1365.47)" xlink:href="#linear-gradient-3"/></defs><title>Recurso 5</title><g id="Capa_2" data-name="Capa 2"><g id="Ñëîé_1" data-name="Ñëîé 1"><g class="cls-3"><path class="cls-4" d="M158.76,443a43.11,43.11,0,0,0,20.56-5l245-133.27c9.73-5.34,15.53-14.45,15.54-24.38s-5.78-19-15.45-24.36L301.72,192a45,45,0,0,0-41.31,0L15.32,325.31l-.2.11c-.61.35-1.16.69-1.71,1.05C4.65,332.1-.36,341.11,0,350.59s6.1,18.21,15.37,23.33l122.7,64A42.87,42.87,0,0,0,158.76,443Z"/><path class="cls-5" d="M260.79,192.62a38.48,38.48,0,0,1,9.57-3.65,45.09,45.09,0,0,1,11-1.21,43.78,43.78,0,0,1,20.54,5.16L424,256.66c9.44,5.19,15.06,14,15.06,23.72s-5.65,18.53-15.15,23.75L179.26,437.22a41.71,41.71,0,0,1-11.2,4.09,45.89,45.89,0,0,1-18.91-.07,41.73,41.73,0,0,1-11-4.07L15.78,373.29C7,368.46,1.51,360.35.84,351.48c0-.32,0-.62,0-.92-.32-8.17,3.47-16,10.26-21.47a34.1,34.1,0,0,1,2.81-2c.53-.34,1.13-.71,1.72-1l.2-.11Z"/><path class="cls-6" d="M261.18,193.25a37.61,37.61,0,0,1,9.54-3.59A45.6,45.6,0,0,1,302,193.83l121.58,63.46c9.19,5.06,14.68,13.68,14.68,23.09s-5.51,18-14.76,23.11L179.19,436.41A42.75,42.75,0,0,1,168,440.54a43.27,43.27,0,0,1-9.28,1,43,43,0,0,1-20.51-5.16L16.17,372.66c-8.53-4.72-13.91-12.61-14.56-21.25,0-.29,0-.58-.05-.88-.28-8,3.39-15.55,10-20.9.87-.69,1.78-1.35,2.74-2,.51-.33,1.14-.71,1.71-1l.2-.11Z"/><path class="cls-7" d="M261.57,193.89a36.53,36.53,0,0,1,9.51-3.54,43.6,43.6,0,0,1,10.8-1,45.8,45.8,0,0,1,20.26,5.38L423.2,257.93c9,4.93,14.3,13.3,14.3,22.45s-5.37,17.52-14.38,22.47l-244,132.74A43.88,43.88,0,0,1,168,439.77a42.57,42.57,0,0,1-18.79-.06,43.89,43.89,0,0,1-10.89-4.14L16.56,372C8.25,367.43,3,359.75,2.38,351.36c0-.29,0-.58,0-.87-.3-7.73,3.3-15.12,9.77-20.32a32.71,32.71,0,0,1,2.66-1.91c.5-.32,1.17-.72,1.72-1l.19-.12Z"/><path class="cls-8" d="M262,194.53a35.18,35.18,0,0,1,9.48-3.48,42.24,42.24,0,0,1,10.73-.89c6.57,0,14.91,2.62,20.12,5.5l120.53,62.91c8.72,4.79,13.91,12.93,13.91,21.81s-5.22,17-14,21.84L179.08,434.78A46,46,0,0,1,168,439a40.83,40.83,0,0,1-18.74-.06,44.77,44.77,0,0,1-10.85-4.17L16.94,371.38c-8.08-4.46-13.2-11.93-13.79-20.08,0-.28,0-.56,0-.84-.28-7.51,3.22-14.68,9.53-19.75.82-.66,1.68-1.27,2.58-1.86.49-.3,1.19-.73,1.72-1l.19-.11Z"/><path class="cls-9" d="M262.35,195.16a34.44,34.44,0,0,1,9.44-3.42,41.27,41.27,0,0,1,10.65-.78c6.33,0,15,2.84,20,5.6l120,62.64c8.48,4.66,13.52,12.56,13.52,21.18s-5.07,16.52-13.6,21.2L179,434a47.08,47.08,0,0,1-11,4.26,38.16,38.16,0,0,1-9.21,1.1,38.75,38.75,0,0,1-9.47-1.15A46.25,46.25,0,0,1,138.5,434L17.34,370.75C9.47,366.4,4.5,359.16,3.93,351.24c0-.27,0-.54-.05-.81-.27-7.29,3.15-14.26,9.29-19.17a29.19,29.19,0,0,1,2.51-1.81c.46-.3,1.21-.74,1.72-1l.19-.11Z"/><path class="cls-10" d="M262.74,195.8a33.5,33.5,0,0,1,9.41-3.37,40.3,40.3,0,0,1,10.57-.68c6.08,0,15,3.07,19.84,5.73L422,259.83c8.24,4.54,13.13,12.2,13.13,20.55s-4.93,16-13.21,20.56L179,433.16a49.23,49.23,0,0,1-11,4.3,36.9,36.9,0,0,1-9.19,1.13,37.44,37.44,0,0,1-9.44-1.18,47.93,47.93,0,0,1-10.75-4.23L17.73,370.12c-7.65-4.23-12.46-11.26-13-18.93,0-.27,0-.53,0-.8-.27-7.06,3.06-13.82,9-18.6a27.59,27.59,0,0,1,2.45-1.74c.44-.29,1.22-.75,1.71-1l.19-.1Z"/><path class="cls-11" d="M263.12,196.44a32,32,0,0,1,9.38-3.31,39,39,0,0,1,10.49-.58c5.84,0,15.08,3.28,19.71,5.84l119,62.09c8,4.4,12.75,11.81,12.75,19.9s-4.78,15.51-12.83,19.93l-242.68,132a50.94,50.94,0,0,1-11,4.36,37.17,37.17,0,0,1-18.58-.06,49.7,49.7,0,0,1-10.69-4.26L18.11,369.48C10.69,365.37,6,358.56,5.47,351.12c0-.25,0-.51,0-.76-.25-6.85,3-13.4,8.79-18a27.41,27.41,0,0,1,2.37-1.7c.43-.28,1.25-.75,1.72-1l.18-.11Z"/><path class="cls-12" d="M263.51,197.07a31.5,31.5,0,0,1,9.34-3.25,38,38,0,0,1,10.42-.47c5.6,0,15.13,3.5,19.57,6l118.42,61.81c7.76,4.27,12.36,11.45,12.36,19.27s-4.63,15-12.43,19.29L178.83,431.52a52.23,52.23,0,0,1-10.92,4.41,34.59,34.59,0,0,1-9.15,1.19,35.25,35.25,0,0,1-9.37-1.24,51.26,51.26,0,0,1-10.66-4.3L18.5,368.85c-7.2-4-11.73-10.58-12.26-17.78,0-.24,0-.5,0-.74-.25-6.63,2.89-13,8.54-17.45a26.4,26.4,0,0,1,2.3-1.65c.41-.26,1.26-.75,1.71-1l.19-.11Z"/><path class="cls-13" d="M263.9,197.71a30.51,30.51,0,0,1,9.31-3.2,37.09,37.09,0,0,1,10.34-.36c5.35,0,15.18,3.72,19.43,6.06l117.9,61.53c7.52,4.15,12,11.08,12,18.64s-4.49,14.5-12.05,18.65l-242,131.69c-2.42,1.31-8,3.86-10.88,4.44a33.34,33.34,0,0,1-9.12,1.23,33.73,33.73,0,0,1-9.34-1.28,53.32,53.32,0,0,1-10.6-4.32L18.89,368.21C11.9,364.35,7.52,358,7,351c0-.24,0-.47,0-.71-.23-6.41,2.82-12.54,8.3-16.88a26.08,26.08,0,0,1,2.22-1.59c.39-.25,1.28-.76,1.72-1l.18-.11Z"/><path class="cls-14" d="M264.28,198.34a30.31,30.31,0,0,1,9.29-3.14,36.41,36.41,0,0,1,10.25-.25c5.12,0,15.24,3.94,19.3,6.17l117.36,61.26c7.28,4,11.6,10.71,11.6,18s-4.35,14-11.66,18L178.7,429.89c-2.31,1.26-8.11,3.94-10.84,4.5a32.33,32.33,0,0,1-9.1,1.26,32.73,32.73,0,0,1-9.31-1.31c-2.67-.56-8.27-3.09-10.56-4.35L19.28,367.57c-6.77-3.74-11-9.9-11.49-16.62,0-.22,0-.46,0-.69-.22-6.18,2.74-12.1,8.05-16.3A24.55,24.55,0,0,1,18,332.43c.37-.24,1.3-.78,1.71-1l.18-.11Z"/><path class="cls-15" d="M264.67,199a29,29,0,0,1,9.26-3.08,34.81,34.81,0,0,1,10.18-.15c4.87,0,15.29,4.16,19.15,6.29L420.1,263c7,3.88,11.2,10.34,11.2,17.36s-4.19,13.49-11.27,17.39L178.64,429.08c-2.2,1.2-8.21,4-10.8,4.54a32.79,32.79,0,0,1-18.35,0c-2.55-.55-8.34-3.19-10.51-4.39L19.67,366.94c-6.55-3.62-10.64-9.57-11.11-16,0-.23,0-.45,0-.67-.2-6,2.66-11.68,7.81-15.73A24.29,24.29,0,0,1,18.41,333c.36-.23,1.32-.78,1.72-1l.18-.11Z"/><path class="cls-16" d="M265.06,199.62a28.12,28.12,0,0,1,9.22-3,33.88,33.88,0,0,1,10.1,0c4.62,0,15.35,4.38,19,6.4l116.31,60.7c6.8,3.75,10.82,10,10.82,16.72s-4,13-10.89,16.76L178.58,428.27c-2.1,1.14-8.3,4.08-10.76,4.58a31.68,31.68,0,0,1-18.3,0c-2.42-.51-8.4-3.28-10.47-4.41l-119-62.1c-6.33-3.5-10.28-9.22-10.73-15.46,0-.21,0-.43,0-.64-.2-5.75,2.58-11.24,7.56-15.15a21.31,21.31,0,0,1,2-1.43c.34-.22,1.34-.79,1.71-1l.18-.1Z"/><path class="cls-17" d="M265.45,200.25a27.75,27.75,0,0,1,9.18-3,33,33,0,0,1,10,.07c4.38,0,15.4,4.59,18.88,6.51l115.78,60.43c6.57,3.61,10.43,9.59,10.43,16.08s-3.9,12.49-10.5,16.12l-240.73,131c-2,1.09-8.39,4.16-10.73,4.64a30.94,30.94,0,0,1-18.24,0c-2.29-.48-8.46-3.36-10.41-4.44L20.45,365.66c-6.11-3.38-9.92-8.88-10.35-14.88,0-.21,0-.41,0-.62-.17-5.52,2.49-10.81,7.31-14.58a20.81,20.81,0,0,1,1.93-1.36c.32-.21,1.36-.8,1.72-1l.17-.1Z"/><path class="cls-18" d="M265.83,200.89A26.63,26.63,0,0,1,275,198a31.2,31.2,0,0,1,9.95.17c4.13,0,15.46,4.81,18.73,6.62l115.26,60.15c6.33,3.48,10.05,9.22,10.05,15.45s-3.75,12-10.11,15.48L178.46,426.64c-1.88,1-8.48,4.22-10.69,4.68a30,30,0,0,1-18.18,0c-2.17-.46-8.53-3.46-10.38-4.48L20.84,365c-5.89-3.26-9.58-8.55-10-14.3q0-.3,0-.6c-.19-5.3,2.4-10.38,7.07-14a18.22,18.22,0,0,1,1.86-1.32c.3-.19,1.38-.8,1.71-1l.18-.1Z"/><path class="cls-19" d="M266.22,201.53a26.22,26.22,0,0,1,9.13-2.86,30.54,30.54,0,0,1,9.86.27c3.9,0,15.51,5,18.6,6.75l114.74,59.87c6.08,3.35,9.65,8.84,9.65,14.81s-3.61,11.48-9.72,14.85L178.39,425.83c-1.76,1-8.56,4.29-10.64,4.72a27.83,27.83,0,0,1-9,1.42,28.12,28.12,0,0,1-9.14-1.45c-2-.44-8.58-3.55-10.32-4.52L21.23,364.4c-5.67-3.14-9.2-8.21-9.58-13.74a5.25,5.25,0,0,1,0-.56c-.15-5.09,2.34-9.94,6.82-13.43a21.19,21.19,0,0,1,1.79-1.26c.29-.19,1.4-.82,1.72-1l.17-.1Z"/><path class="cls-20" d="M266.61,202.16a25.67,25.67,0,0,1,9.1-2.8,30.21,30.21,0,0,1,9.78.38c3.65,0,15.57,5.25,18.47,6.85l114.2,59.61c5.84,3.22,9.28,8.46,9.28,14.17s-3.47,11-9.35,14.21L178.33,425c-1.65.9-8.65,4.38-10.6,4.77a28.44,28.44,0,0,1-18.08,0c-1.91-.41-8.64-3.65-10.28-4.54L21.62,363.76c-5.45-3-8.83-7.87-9.2-13.15l0-.55c-.15-4.86,2.26-9.5,6.58-12.85.54-.42,1.12-.83,1.72-1.21.27-.17,1.42-.82,1.71-1l.17-.1Z"/><path class="cls-21" d="M267,202.8a25,25,0,0,1,9.06-2.74,28.87,28.87,0,0,1,9.71.48c3.41,0,15.62,5.47,18.33,7l113.67,59.33c5.61,3.09,8.89,8.1,8.89,13.54s-3.32,10.47-9,13.57L178.27,424.2c-1.54.84-8.75,4.44-10.56,4.81a27.72,27.72,0,0,1-18,0c-1.78-.38-8.71-3.73-10.23-4.57L22,363.12c-5.24-2.89-8.46-7.53-8.82-12.57,0-.18,0-.35,0-.52-.14-4.64,2.17-9.08,6.33-12.27a17.84,17.84,0,0,1,1.64-1.16c.25-.16,1.44-.82,1.72-1l.17-.1Z"/><path class="cls-22" d="M267.38,203.44a24.2,24.2,0,0,1,9-2.69,28,28,0,0,1,9.63.59c3.16,0,15.67,5.69,18.19,7.08l113.14,59.05c5.37,3,8.51,7.72,8.51,12.9s-3.17,10-8.57,12.94L178.21,423.39c-1.44.78-8.84,4.51-10.53,4.85a26.87,26.87,0,0,1-18,0c-1.66-.35-8.77-3.82-10.18-4.6L22.4,362.49c-5-2.77-8.13-7.19-8.43-12a4,4,0,0,1,0-.49c-.12-4.42,2.09-8.65,6.09-11.71.5-.38,1-.75,1.57-1.1l1.71-1,.17-.09Z"/><path class="cls-23" d="M267.77,204.07a24.09,24.09,0,0,1,9-2.63,26.91,26.91,0,0,1,9.55.7c2.92,0,15.74,5.91,18.05,7.19L417,268.11c5.12,2.82,8.11,7.35,8.11,12.26s-3,9.46-8.18,12.3L178.15,422.57c-1.33.73-8.93,4.59-10.49,4.91a26.4,26.4,0,0,1-17.91,0c-1.52-.33-8.83-3.91-10.13-4.63l-116.83-61c-4.8-2.65-7.75-6.85-8-11.41l0-.48c-.12-4.2,2-8.21,5.84-11.13.48-.36,1-.71,1.51-1,.21-.14,1.47-.84,1.7-1l.18-.1Z"/><path class="cls-24" d="M268.16,204.71a23,23,0,0,1,9-2.57,26.19,26.19,0,0,1,9.48.79c2.67,0,15.78,6.14,17.9,7.31l112.1,58.5c4.89,2.69,7.73,7,7.73,11.63s-2.88,9-7.8,11.66L178.08,421.76c-1.21.66-9,4.65-10.44,4.95a25.62,25.62,0,0,1-17.85,0c-1.4-.29-8.9-4-10.09-4.66L23.18,361.21c-4.58-2.52-7.39-6.51-7.67-10.84,0-.14,0-.29,0-.44-.11-4,1.93-7.77,5.59-10.55.45-.35.93-.68,1.43-1l1.71-1,.17-.1Z"/><path class="cls-25" d="M268.54,205.35a22.75,22.75,0,0,1,8.95-2.52,25.34,25.34,0,0,1,9.39.9c2.44,0,15.84,6.35,17.78,7.42l111.56,58.23c4.65,2.56,7.34,6.61,7.34,11s-2.73,8.45-7.4,11L178,421c-1.11.6-9.11,4.72-10.41,5a25,25,0,0,1-17.8,0c-1.27-.28-9-4.1-10-4.7L23.56,360.59c-4.35-2.42-7-6.19-7.28-10.27,0-.14,0-.28,0-.42-.1-3.76,1.85-7.35,5.35-10,.43-.33.88-.64,1.36-.94.17-.11,1.51-.86,1.71-1l.16-.08Z"/><path class="cls-26" d="M268.93,206a22.39,22.39,0,0,1,8.91-2.46,24.6,24.6,0,0,1,9.32,1c2.19,0,15.9,6.57,17.63,7.54l111,57.95c4.41,2.42,7,6.23,7,10.35s-2.59,7.95-7,10.38L178,420.13c-1,.54-9.2,4.8-10.37,5a24.39,24.39,0,0,1-17.74,0c-1.14-.24-9-4.18-10-4.72L24,360c-4.13-2.29-6.66-5.84-6.9-9.69,0-.13,0-.26,0-.4-.07-3.53,1.78-6.91,5.1-9.4.41-.31.84-.6,1.29-.88.16-.11,1.54-.86,1.71-1l.16-.1Z"/><path class="cls-27" d="M269.32,206.62a21.69,21.69,0,0,1,8.88-2.4,23.87,23.87,0,0,1,9.24,1.11c1.94,0,15.95,6.79,17.49,7.64l110.51,57.68c4.17,2.29,6.58,5.86,6.58,9.72s-2.45,7.45-6.64,9.75L177.9,419.32c-.88.48-9.29,4.87-10.33,5.08a23.83,23.83,0,0,1-17.68,0c-1-.21-9.08-4.27-9.95-4.75L24.34,359.31c-3.92-2.17-6.29-5.5-6.52-9.11,0-.12,0-.24,0-.36-.09-3.32,1.69-6.5,4.85-8.84.39-.29.79-.56,1.22-.83.14-.09,1.55-.87,1.71-1l.16-.08Z"/><path class="cls-28" d="M269.71,207.26a21.1,21.1,0,0,1,8.84-2.35,23.16,23.16,0,0,1,9.17,1.21c1.7,0,16,7,17.35,7.77l110,57.4c3.94,2.16,6.19,5.49,6.19,9.08s-2.29,6.95-6.25,9.11l-237.15,129c-.77.42-9.38,4.93-10.29,5.12a23.32,23.32,0,0,1-17.63,0c-.89-.18-9.14-4.35-9.9-4.78L24.73,358.68c-3.7-2.06-5.92-5.17-6.13-8.53,0-.12,0-.24,0-.35-.06-3.1,1.61-6.05,4.61-8.26.36-.26.74-.52,1.14-.77l1.71-1,.16-.09Z"/><path class="cls-29" d="M270.09,207.89a21,21,0,0,1,8.82-2.29,22.36,22.36,0,0,1,9.08,1.32c1.46,0,16.06,7.24,17.22,7.88l109.46,57.13c3.68,2,5.8,5.11,5.8,8.44s-2.15,6.44-5.86,8.47L177.78,417.69c-.67.37-9.47,5-10.25,5.17a22.75,22.75,0,0,1-17.57,0c-.77-.16-9.21-4.46-9.86-4.81l-115-60c-3.48-1.92-5.59-4.82-5.75-8,0-.11,0-.21,0-.33-.06-2.87,1.52-5.62,4.36-7.68.34-.24.69-.48,1.07-.72l1.71-.95.15-.09Z"/><path class="cls-30" d="M270.48,208.53a20.43,20.43,0,0,1,8.79-2.24,21.79,21.79,0,0,1,9,1.43c1.21,0,16.11,7.46,17.08,8l108.92,56.85c3.45,1.9,5.41,4.74,5.41,7.81s-2,5.93-5.47,7.84L177.71,416.88c-.55.3-9.55,5.08-10.2,5.21a20.61,20.61,0,0,1-8.75,1.79,20.83,20.83,0,0,1-8.78-1.79c-.63-.14-9.26-4.54-9.8-4.85L25.51,357.4c-3.26-1.8-5.22-4.48-5.37-7.37a2.81,2.81,0,0,1,0-.29c-.06-2.66,1.44-5.2,4.12-7.12q.46-.33,1-.66L27,341l.16-.09Z"/><path class="cls-31" d="M270.87,209.17a19.76,19.76,0,0,1,8.75-2.18,20.91,20.91,0,0,1,8.93,1.53c1,0,16.17,7.68,16.94,8.1l108.4,56.58c3.21,1.77,5,4.37,5,7.17s-1.86,5.43-5.09,7.2L177.65,416.06c-.44.24-9.65,5.16-10.16,5.26a21.76,21.76,0,0,1-17.47,0c-.51-.11-9.33-4.64-9.76-4.88L25.9,356.77c-3-1.69-4.86-4.15-5-6.79a2.72,2.72,0,0,1,0-.28c0-2.43,1.36-4.76,3.87-6.53.3-.21.6-.41.93-.61.07-.05,1.63-.9,1.71-.95l.15-.09Z"/><path class="cls-32" d="M271.25,209.8a19.63,19.63,0,0,1,8.73-2.12,20.11,20.11,0,0,1,8.85,1.64c.73,0,16.22,7.89,16.8,8.21L413.5,273.84c3,1.63,4.64,4,4.64,6.52s-1.71,4.93-4.69,6.57L177.59,415.25c-.33.18-9.74,5.23-10.13,5.31a21.35,21.35,0,0,1-17.41,0c-.38-.08-9.38-4.72-9.71-4.9l-114-59.52c-2.82-1.56-4.51-3.8-4.61-6.21v-.25c0-2.21,1.28-4.33,3.62-6,.27-.19.55-.38.85-.56l1.71-.94.16-.08Z"/><path class="cls-33" d="M271.64,210.44a20.91,20.91,0,0,1,17.46-.32c.49,0,16.29,8.11,16.67,8.32l107.34,56c2.73,1.5,4.26,3.62,4.26,5.89s-1.56,4.43-4.31,5.94L177.53,414.43c-.22.12-9.83,5.31-10.09,5.36a20.85,20.85,0,0,1-17.35,0c-.26-.06-9.45-4.82-9.67-4.94L26.68,355.5c-2.6-1.44-4.12-3.47-4.22-5.64a1.7,1.7,0,0,1,0-.22c0-2,1.2-3.91,3.38-5.39.25-.17.5-.34.78-.5l1.7-.94.16-.08Z"/><path class="cls-34" d="M272,211.07a20.51,20.51,0,0,1,17.35-.15c.25,0,16.33,8.33,16.53,8.44l106.81,55.75c2.5,1.37,3.88,3.25,3.88,5.25s-1.42,3.93-3.93,5.3l-235.2,128c-.11.06-9.92,5.38-10.05,5.4a20.45,20.45,0,0,1-17.3,0c-.13,0-9.51-4.9-9.62-5L27.07,354.86c-2.39-1.32-3.75-3.13-3.84-5.06a1.27,1.27,0,0,1,0-.2c0-1.77,1.12-3.47,3.14-4.81.22-.15.45-.3.7-.44l1.71-.94.15-.08Z"/><path d="M26.88,345.33c.21-.13.41-.26.64-.39l244.9-133.23a20,20,0,0,1,17.24,0l122.68,64c2.25,1.24,3.48,2.88,3.48,4.62s-1.26,3.42-3.54,4.66L167.4,418.25a18.4,18.4,0,0,1-8.64,2,18.19,18.19,0,0,1-8.61-2l-122.69-64c-2.17-1.2-3.4-2.8-3.46-4.49S25,346.56,26.88,345.33Z"/></g><polygon class="cls-35" points="66.43 314.76 60.68 311.58 60.2 150.32 65.94 153.49 66.43 314.76"/><polygon class="cls-35" points="68.28 129.77 62.53 126.6 62.42 89.71 68.17 92.89 68.28 129.77"/><path class="cls-36" d="M70.58,88.06c1.32-.72,2.43.25,2.44,2.18l.11,36.87a51,51,0,0,0,.55,6.7L75,141.52a49.3,49.3,0,0,1,.56,6.67l.48,161.27-9.65,5.3-.49-161.27a63.83,63.83,0,0,1,.53-7.27L67.78,137a62.86,62.86,0,0,0,.5-7.27l-.11-36.88C68.17,91,69.27,88.78,70.58,88.06Z"/><polygon class="cls-35" points="220.78 230.11 215.02 226.93 214.54 65.67 220.29 68.85 220.78 230.11"/><path class="cls-37" d="M62,133.87l-1.31,9.18a.28.28,0,0,1,0,.09c0,.13,0,.28-.05.42s0,.24,0,.36,0,.34-.05.51,0,.26,0,.4,0,.34,0,.52,0,.29,0,.44,0,.36,0,.54,0,.29,0,.44,0,.37,0,.57,0,.27,0,.4,0,.36,0,.54,0,.27,0,.4,0,.34,0,.5,0,.25,0,.37v.77l5.74,3.17c0-.24,0-.5,0-.78v-.14c0-.23,0-.47,0-.73,0-.07,0-.15,0-.23l0-.71c0-.08,0-.17,0-.26s0-.46,0-.7l0-.37c0-.2,0-.41,0-.61l0-.36c0-.2,0-.41.06-.6a3,3,0,0,1,0-.31l.06-.61c0-.09,0-.18,0-.27s0-.4.08-.59L67.78,137a62.86,62.86,0,0,0,.5-7.27l-5.75-3.17A60.91,60.91,0,0,1,62,133.87Z"/><path class="cls-38" d="M216.88,42a63.08,63.08,0,0,1-.51,7.28l-1.31,9.17s0,.06,0,.1,0,.29-.06.45,0,.21,0,.32l-.06.59,0,.32c0,.2,0,.42-.06.64l0,.31-.06.68c0,.1,0,.21,0,.31,0,.26,0,.52-.06.77,0,.07,0,.13,0,.19,0,.27,0,.52,0,.77,0,.06,0,.12,0,.18,0,.26,0,.51,0,.75,0,0,0,.08,0,.12,0,.27,0,.53,0,.77l5.76,3.18v-.78s0-.1,0-.14c0-.24,0-.48,0-.73,0-.09,0-.18,0-.27s0-.44,0-.67l0-.39c0-.2,0-.38,0-.57s0-.35,0-.52,0-.3,0-.46,0-.36,0-.54,0-.28,0-.41,0-.36,0-.55,0-.24,0-.35.05-.37.07-.54,0-.24,0-.35l1.31-9.18a61.05,61.05,0,0,0,.51-7.27Z"/><polygon class="cls-35" points="222.63 45.13 216.88 41.95 216.77 5.07 222.52 8.25 222.63 45.13"/><path class="cls-39" d="M72.05,88,66.29,84.8h0l-.13-.06-.13,0h-.26a.33.33,0,0,0-.14,0h-.15l-.17,0,0,0-.06,0a.53.53,0,0,0-.12,0l-.25.12a3,3,0,0,0-.55.42l-.06,0-.22.21-.08.1,0,0-.05.06-.15.19-.14.2,0,.06s0,0,0,0a.75.75,0,0,0-.07.12,1.59,1.59,0,0,0-.13.22l-.13.23a0,0,0,0,1,0,0l0,0-.09.2-.12.27-.06.16s0,0,0,.06a.29.29,0,0,0,0,.1,2.3,2.3,0,0,0-.12.34h0a1.16,1.16,0,0,0,0,.18s0,.08,0,.13,0,.07,0,.12-.07.35-.1.53h0a6.27,6.27,0,0,0,0,.74l5.75,3.18a6.13,6.13,0,0,1,0-.74,5.12,5.12,0,0,1,.14-.68.36.36,0,0,1,0-.1c.06-.21.12-.43.2-.64a.11.11,0,0,0,0-.06,5,5,0,0,1,.28-.63s0,0,0,0a5.66,5.66,0,0,1,.34-.59l0,0a4.26,4.26,0,0,1,.39-.53l0,0a2.54,2.54,0,0,1,.36-.37,3.26,3.26,0,0,1,.55-.41A2.39,2.39,0,0,1,71,87.9l.05,0a1.4,1.4,0,0,1,.7,0h0A1.75,1.75,0,0,1,72.05,88Z"/><path class="cls-40" d="M222.73,6.71c.06-.2.12-.41.19-.61A.19.19,0,0,0,223,6a5.83,5.83,0,0,1,.28-.62s0,0,0,0a4.53,4.53,0,0,1,.34-.61v0c.13-.19.26-.36.39-.53,0,0,0,0,0,0a3.85,3.85,0,0,1,.35-.35,3,3,0,0,1,.56-.42,3.89,3.89,0,0,1,.38-.16h0a1.13,1.13,0,0,1,.36-.06h0a1.27,1.27,0,0,1,.34,0h0a1.05,1.05,0,0,1,.31.12l-2-1.13L220.63.15,220.5.09l-.13,0h0s0,0,0,0l-.07,0h-.42l-.17,0h0l-.06,0-.12,0-.24.11a4.39,4.39,0,0,0-.57.42l-.05,0-.22.22-.09.1s0,0,0,0l-.06.07-.16.2a2.43,2.43,0,0,1-.14.2l0,.05s0,0,0,0a1.25,1.25,0,0,0-.08.12,2.39,2.39,0,0,1-.13.21l-.12.23s0,0,0,0v0s-.06.13-.09.19-.09.18-.12.27a1.77,1.77,0,0,0-.06.17s0,0,0,.05a.32.32,0,0,0,0,.09,2.42,2.42,0,0,0-.12.35c0,.07,0,.13-.05.19l0,.12,0,.11a5.07,5.07,0,0,0-.09.54v0a4.62,4.62,0,0,0-.06.74l5.75,3.18a4.65,4.65,0,0,1,.06-.75,4.28,4.28,0,0,1,.13-.68S222.72,6.75,222.73,6.71Z"/><path class="cls-41" d="M224.93,3.41c1.33-.72,2.43.25,2.44,2.18l.11,36.88a49.11,49.11,0,0,0,.54,6.69l1.37,7.72a47.77,47.77,0,0,1,.55,6.68l.48,161.26-9.64,5.29L220.3,68.85a61.35,61.35,0,0,1,.51-7.27l1.31-9.18a61.05,61.05,0,0,0,.51-7.27l-.11-36.88A6,6,0,0,1,224.93,3.41Z"/><path class="cls-42" d="M438.87,229.09c0-8.68-6.56-12.22-14.52-7.85L163.89,364.07c-8,4.37-14.46,15.05-14.43,23.73l.09,31.59c0,8.68,6.56,12.22,14.53,7.85L424.53,284.4c8-4.36,14.46-15,14.43-23.72Z"/><path class="cls-43" d="M157.61,426.66c-3.41,0-5.46-2.72-5.47-7.28l-.1-31.59c0-7.78,6-17.67,13.13-21.59L425.63,223.36a11.16,11.16,0,0,1,5.18-1.54c3.42,0,5.46,2.72,5.47,7.28l.1,31.59c0,7.78-6,17.67-13.14,21.59L162.78,425.12a11.06,11.06,0,0,1-5.17,1.54Z"/><path class="cls-44" d="M426,220.45c.25-.11.48-.19.72-.28a10.49,10.49,0,0,1,1-.32c.22-.07.45-.13.67-.18l.57-.12.79-.12.41,0a6.47,6.47,0,0,1,1,0h.17a9.2,9.2,0,0,1,1.07.13l.27.06a6.55,6.55,0,0,1,.79.22l.24.08a6.86,6.86,0,0,1,1,.43L290.88,141l-.09,0a7,7,0,0,0-.73-.34.69.69,0,0,1-.13-.05l-.25-.08-.38-.13-.41-.08-.27-.07-.14,0a8.46,8.46,0,0,0-.88-.1h-.26c-.23,0-.46,0-.7,0l-.23,0-.43,0c-.15,0-.28,0-.42,0a2.53,2.53,0,0,0-.36.07,5.72,5.72,0,0,0-.57.11l-.35.07-.32.11c-.33.09-.66.2-1,.32-.12.05-.24.08-.37.12l-.35.16-.32.14c-.44.2-.88.41-1.33.66l143.76,79.35c.44-.25.89-.46,1.33-.66Z"/><path class="cls-45" d="M149.55,419.39,5.79,340c0,4.32,1.63,7.36,4.24,8.79l143.76,79.36C151.18,426.74,149.57,423.7,149.55,419.39Z"/><polygon class="cls-35" points="149.55 419.39 5.79 340.03 5.7 308.45 149.46 387.8 149.55 419.39"/><polygon class="cls-44" points="163.89 364.07 20.13 284.72 280.59 141.89 424.35 221.24 163.89 364.07"/><path class="cls-46" d="M149.58,385.82c0-.33.07-.66.12-1s.12-.7.19-1.06.1-.51.16-.77l.18-.71c.09-.33.18-.65.28-1l.18-.56c.13-.37.26-.75.4-1.13.06-.14.1-.28.16-.42.2-.51.42-1,.65-1.52a1.63,1.63,0,0,1,.09-.19c.21-.44.43-.88.65-1.32.07-.14.15-.27.22-.4.23-.44.47-.86.73-1.28l.12-.2c.29-.49.6-1,.92-1.43l.27-.38c.24-.34.48-.68.73-1L156,371l.67-.8c.18-.21.36-.43.55-.64l.57-.62c.31-.33.63-.64.95-.95l.63-.6c.15-.14.3-.28.46-.41s.56-.47.84-.69a4.21,4.21,0,0,1,.48-.38c.3-.23.61-.45.91-.66l.43-.3c.45-.29.91-.57,1.38-.83L20.13,284.72c-.47.25-.93.54-1.38.83l-.4.28c-.32.22-.64.44-1,.68-.16.11-.31.24-.46.36l-.86.71-.45.4-.31.28-.33.33c-.32.31-.64.63-1,1l-.3.3-.25.29-.56.66-.37.42-.3.38-.39.5-.28.36-.46.66c-.08.12-.18.25-.26.38l-.12.17c-.26.38-.51.77-.75,1.16l-.05.08c0,.08-.09.16-.14.23-.17.29-.34.57-.5.86l-.21.39-.22.42c-.06.12-.13.24-.2.36-.15.32-.3.63-.44.94a2,2,0,0,0-.1.21.11.11,0,0,0,0,.06q-.28.62-.54,1.23c0,.08-.05.15-.08.22s-.11.29-.17.44l-.24.65c0,.14-.1.3-.15.46l-.18.58c0,.12-.09.24-.12.36s-.1.4-.16.6-.12.48-.18.71,0,.18-.06.26h0c0,.17-.06.33-.1.5-.07.37-.14.73-.19,1.09l-.06.3c0,.23,0,.45-.07.67s0,.32,0,.48c0,.51-.06,1-.06,1.52L149.46,387.8c0-.5,0-1,.06-1.51Z"/><path class="cls-47" d="M161,423.89,421.5,281.06c7.14-3.92,13.16-13.81,13.13-21.6l-.09-31.59a8.34,8.34,0,0,0-1.77-5.67,5.35,5.35,0,0,0-2-.38,11.16,11.16,0,0,0-5.18,1.54L165.17,366.2C158,370.12,152,380,152,387.79l.1,31.59a8.34,8.34,0,0,0,1.76,5.67,5.44,5.44,0,0,0,2,.39A11.11,11.11,0,0,0,161,423.89Z"/><path class="cls-48" d="M363.4,278.27c-3.59,2-6.5,6.77-6.5,10.7s3,5.52,6.55,3.54,6.52-6.78,6.51-10.69S367,276.3,363.4,278.27Zm-1.6,2.09a10.3,10.3,0,0,0-1,2.39l-1.58.87A12.25,12.25,0,0,1,361.8,280.36Zm-1.15,6.27a14.94,14.94,0,0,1,.5-3.51l2-1.1v3.23Zm2.52-.81v3.23l-2,1.1a8.87,8.87,0,0,1-.52-2.95Zm-1.81-3.39a6.35,6.35,0,0,1,1.79-3v2.06Zm-2.59,2,1.81-1a15.3,15.3,0,0,0-.45,3.49l-2.36,1.29A10,10,0,0,1,358.77,284.42Zm-1,4.35,2.35-1.28a9.72,9.72,0,0,0,.47,3l-1.81,1A4,4,0,0,1,357.78,288.77Zm1.42,3,1.6-.87a2.61,2.61,0,0,0,1,1.25A3.29,3.29,0,0,1,359.2,291.8Zm2.18-1.19,1.8-1v2.05C362.48,291.91,361.84,291.49,361.38,290.61Zm7.7-8.61-2.35,1.3a9.52,9.52,0,0,0-.48-3l1.81-1A4,4,0,0,1,369.08,282Zm0,.58a10,10,0,0,1-1,3.78l-1.8,1a15.8,15.8,0,0,0,.46-3.49Zm-1.43-3.6-1.59.87a2.63,2.63,0,0,0-1-1.26A3.27,3.27,0,0,1,367.65,279Zm-4,.12c.71-.23,1.35.19,1.81,1.07l-1.8,1Zm0,2.63,2-1.1a8.67,8.67,0,0,1,.52,2.95L363.69,285Zm0,3.8,2.51-1.38a13.84,13.84,0,0,1-.5,3.51l-2,1.11Zm0,3.8,1.8-1a6.46,6.46,0,0,1-1.79,3Zm4-2.18a13,13,0,0,1-2.62,3.28,11.13,11.13,0,0,0,1-2.41l1.59-.87Z"/><path class="cls-49" d="M333.93,303.91c1.12-.61,2-.12,2,1.1a4.19,4.19,0,0,1-2,3.31c-1.12.62-2,.11-2-1.1A4.19,4.19,0,0,1,333.93,303.91Z"/><path class="cls-50" d="M333.93,301.09a3.66,3.66,0,0,1,3.28-.35c.45.2,0,1.1-.45,1.36a.44.44,0,0,1-.4,0,2.69,2.69,0,0,0-2.43.26,7.09,7.09,0,0,0-2.43,2.4,1.17,1.17,0,0,1-.4.4c-.47.26-.9-.17-.45-.86A9.46,9.46,0,0,1,333.93,301.09Z"/><path class="cls-51" d="M333.92,298.91a5.21,5.21,0,0,1,4.71-.51c.45.2,0,1.1-.45,1.36a.47.47,0,0,1-.41.05,4.22,4.22,0,0,0-3.85.41,11,11,0,0,0-3.84,3.81,1.18,1.18,0,0,1-.41.4c-.48.26-.91-.17-.46-.86A13.53,13.53,0,0,1,333.92,298.91Z"/><path class="cls-52" d="M333.9,296.71c2.18-1.19,4.37-1.48,6.15-.65.44.21,0,1.11-.45,1.37a.46.46,0,0,1-.41,0,5.81,5.81,0,0,0-5.28.56,15.12,15.12,0,0,0-5.26,5.23,1.14,1.14,0,0,1-.41.39c-.47.27-.9-.17-.46-.86A17.86,17.86,0,0,1,333.9,296.71Z"/><path class="cls-53" d="M333.9,294.52c2.7-1.48,5.4-1.84,7.57-.8.44.22,0,1.11-.45,1.37a.43.43,0,0,1-.41,0c-1.92-.93-4.32-.61-6.71.7a19.13,19.13,0,0,0-6.68,6.65,1.32,1.32,0,0,1-.41.41c-.47.25-.89-.18-.46-.88A21.68,21.68,0,0,1,333.9,294.52Z"/><path class="cls-54" d="M304.4,313.53c2.15-1.18,3.88-.24,3.89,2.1a8,8,0,0,1-3.86,6.35c-2.13,1.17-3.88.22-3.88-2.1A8,8,0,0,1,304.4,313.53Z"/><path class="cls-55" d="M274.9,329.71c2.15-1.18,3.88-.24,3.89,2.1a8.06,8.06,0,0,1-3.86,6.35c-2.14,1.17-3.88.22-3.88-2.1A8,8,0,0,1,274.9,329.71Z"/><path class="cls-56" d="M245.4,345.88c2.15-1.17,3.88-.23,3.89,2.11a8,8,0,0,1-3.86,6.34c-2.14,1.18-3.88.23-3.88-2.09A8,8,0,0,1,245.4,345.88Z"/><path class="cls-57" d="M215.89,362.07c2.14-1.17,3.88-.24,3.89,2.1a8,8,0,0,1-3.86,6.35c-2.14,1.17-3.88.22-3.89-2.1A8,8,0,0,1,215.89,362.07Z"/><path class="cls-58" d="M186.38,375.06c.39-.22.78-.16.78.38,0,2,0,3.93,0,5.9a1.5,1.5,0,0,1-.77,1.23c-.39.22-.77.15-.78-.39,0-2,0-3.93,0-5.89A1.5,1.5,0,0,1,186.38,375.06Z"/><path class="cls-59" d="M188.7,375.85c2.26-.24,3.87,1.3,3.88,4.12,0,3.71-2.75,8.24-6.15,10.11s-6.17.36-6.18-3.35a12.63,12.63,0,0,1,3.83-8.34v1.87a9.33,9.33,0,0,0-2.29,5.63c0,2.77,2.09,3.91,4.63,2.51a9.56,9.56,0,0,0,4.61-7.58c0-1.86-.94-3-2.32-3.1Z"/><g class="cls-60"><path class="cls-61" d="M261,181l-18.79,10.37-.95-.52c-.78-.42-.78-1.13,0-1.55l16-8.82a3.34,3.34,0,0,1,2.83,0Z"/><path class="cls-62" d="M265.74,183.61,247,194l-1-.51c-.78-.44-.78-1.13,0-1.56l16-8.81a3.24,3.24,0,0,1,2.82,0Z"/><path class="cls-63" d="M270.47,186.21l-18.78,10.37-.95-.53c-.78-.42-.79-1.12,0-1.55l16-8.81a3.27,3.27,0,0,1,2.83,0Z"/><path class="cls-64" d="M275.2,188.8l-18.79,10.37-.94-.52c-.78-.43-.79-1.13,0-1.56l16-8.81a3.24,3.24,0,0,1,2.82,0Z"/><path class="cls-65" d="M279.92,191.39l-18.78,10.37-.94-.52c-.78-.43-.78-1.13,0-1.55l16-8.81a3.27,3.27,0,0,1,2.83,0Z"/><path class="cls-66" d="M284.66,194l-18.8,10.38-.93-.53c-.79-.42-.79-1.13,0-1.55l16-8.81a3.24,3.24,0,0,1,2.82,0Z"/><path class="cls-67" d="M289.38,196.58,270.6,206.94l-1-.52c-.78-.42-.79-1.12,0-1.55l16-8.82a3.31,3.31,0,0,1,2.82,0Z"/><path class="cls-68" d="M294.1,199.17l-18.78,10.36-.95-.51c-.77-.43-.78-1.13,0-1.55l16-8.82a3.24,3.24,0,0,1,2.82,0Z"/></g><g class="cls-60"><path class="cls-69" d="M289.2,165.47l-18.79,10.37-1-.52c-.78-.43-.78-1.13,0-1.56l16-8.81a3.27,3.27,0,0,1,2.83,0Z"/><path class="cls-70" d="M293.93,168.06l-18.79,10.37-.95-.52c-.78-.43-.78-1.12,0-1.56l16-8.81a3.27,3.27,0,0,1,2.83,0Z"/><path class="cls-71" d="M298.65,170.65,279.86,181l-.94-.52c-.79-.42-.79-1.13,0-1.55l16-8.82a3.27,3.27,0,0,1,2.83,0Z"/><path class="cls-72" d="M303.38,173.24l-18.79,10.37-.95-.51c-.78-.43-.79-1.13,0-1.57l16-8.8a3.32,3.32,0,0,1,2.84,0Z"/><path class="cls-73" d="M308.1,175.83l-18.78,10.38-.95-.52c-.78-.43-.78-1.13,0-1.56l16-8.81a3.27,3.27,0,0,1,2.83,0Z"/><path class="cls-74" d="M312.83,178.43,294,188.8l-.94-.52c-.77-.42-.78-1.12,0-1.56l16-8.81a3.27,3.27,0,0,1,2.83,0Z"/><path class="cls-75" d="M317.56,181l-18.79,10.37-.94-.51c-.78-.43-.78-1.14,0-1.56l16-8.82a3.34,3.34,0,0,1,2.83,0Z"/><path class="cls-76" d="M322.29,183.61,303.49,194l-.93-.51c-.79-.43-.79-1.13,0-1.56l16-8.81a3.27,3.27,0,0,1,2.83,0Z"/></g><g class="cls-77"><g class="cls-3"><polygon class="cls-35" points="214.89 177.91 214.64 259.78 220.39 256.6 220.63 174.77 214.89 177.91"/><polygon class="cls-35" points="222.73 280.32 216.98 283.5 216.87 320.37 222.62 317.2 222.73 280.32"/><path class="cls-78" d="M216.47,276.22l-1.31-9.17a.38.38,0,0,1,0-.1c0-.13,0-.28-.06-.43s0-.22,0-.35,0-.34-.06-.51,0-.26,0-.4,0-.35,0-.52,0-.29,0-.44,0-.37,0-.54l0-.43c0-.2,0-.39,0-.58s0-.27,0-.4,0-.36,0-.54,0-.27,0-.39,0-.34,0-.51,0-.25,0-.36c0-.28,0-.54,0-.77l5.75-3.18c0,.24,0,.5,0,.78v.13c0,.24,0,.48,0,.74,0,.07,0,.15,0,.22,0,.24,0,.47,0,.72a2.28,2.28,0,0,1,0,.26c0,.23,0,.47,0,.7s0,.25,0,.37,0,.41.05.61,0,.24,0,.36,0,.41,0,.61l0,.31c0,.19.05.4.07.59l0,.28c0,.2,0,.4.08.59l1.31,9.17a63.39,63.39,0,0,1,.51,7.28L217,283.5A63.08,63.08,0,0,0,216.47,276.22Z"/><path class="cls-79" d="M226.49,322.11l-5.75,3.18h0l-.12.07-.13,0h-.55l-.18-.05h0l0,0-.12,0-.25-.11a3,3,0,0,1-.56-.42l-.05,0a1.61,1.61,0,0,1-.22-.23l-.08-.09,0,0-.06-.07-.15-.2-.14-.19,0-.06,0,0-.08-.12a2.53,2.53,0,0,1-.13-.22l-.12-.23v0l0,0-.1-.2-.12-.27-.06-.16a.14.14,0,0,0,0-.06l0-.09-.12-.36h0c0-.05,0-.11,0-.17l0-.12,0-.12c0-.18-.08-.36-.1-.53v0a6.3,6.3,0,0,1,0-.75l5.75-3.17a6.27,6.27,0,0,0,0,.74c0,.23.08.45.13.68a.38.38,0,0,0,0,.1,5.79,5.79,0,0,0,.19.63l0,.07a4.42,4.42,0,0,0,.27.63v0a5.11,5.11,0,0,0,.35.61l0,0a4.26,4.26,0,0,0,.39.53l0,0a2.45,2.45,0,0,0,.36.36,2.53,2.53,0,0,0,.55.41,4,4,0,0,0,.37.17h0a1.4,1.4,0,0,0,.7,0h0A1.27,1.27,0,0,0,226.49,322.11Z"/><path class="cls-80" d="M62.64,368.14a62.91,62.91,0,0,0-.51-7.27l-1.31-9.18a.28.28,0,0,1,0-.09l-.06-.46a3.11,3.11,0,0,1,0-.32l-.06-.59c0-.11,0-.21,0-.32l-.06-.63a1.66,1.66,0,0,0,0-.32c0-.23,0-.45-.05-.68s0-.21,0-.3c0-.27,0-.53-.05-.78,0-.07,0-.13,0-.19,0-.27,0-.52,0-.77,0-.05,0-.12,0-.17,0-.27,0-.52,0-.76,0,0,0-.08,0-.11,0-.28,0-.54,0-.78l5.75-3.18c0,.24,0,.5,0,.78a.71.71,0,0,0,0,.14c0,.24,0,.48,0,.73,0,.09,0,.18,0,.28s0,.43,0,.65l0,.41c0,.19,0,.37,0,.56s0,.35,0,.52l0,.45c0,.19,0,.37,0,.55s0,.28,0,.41,0,.36.06.54,0,.25,0,.36,0,.37.07.55,0,.24,0,.34l1.31,9.18a65.39,65.39,0,0,1,.51,7.27Z"/><polygon class="cls-35" points="68.39 364.96 62.64 368.14 62.53 405.01 68.28 401.85 68.39 364.96"/><path class="cls-81" d="M68.49,403.37a6.55,6.55,0,0,0,.19.63l0,.07a6,6,0,0,0,.27.63,0,0,0,0,1,0,0,5.82,5.82,0,0,0,.34.6s0,0,0,0a3.42,3.42,0,0,0,.39.51l0,.05c.11.13.23.24.35.36a3.09,3.09,0,0,0,.56.41,2.05,2.05,0,0,0,.38.16h0a1.55,1.55,0,0,0,.35.07h0a1.87,1.87,0,0,0,.34,0h0a1.17,1.17,0,0,0,.31-.12l-2.05,1.13-3.71,2.05-.13.07-.13,0h-.07l-.06,0h-.42l-.18,0h0l0,0-.12,0a1.42,1.42,0,0,1-.25-.12,3,3,0,0,1-.56-.41l-.06,0a2.4,2.4,0,0,1-.21-.23l-.09-.1,0,0-.06-.08-.15-.19a2.43,2.43,0,0,1-.14-.2.21.21,0,0,1,0-.06l0,0a1.27,1.27,0,0,1-.07-.12,2.39,2.39,0,0,1-.13-.21,2.53,2.53,0,0,1-.12-.23l0,0a.06.06,0,0,1,0,0c0-.06-.07-.12-.1-.19s-.08-.18-.11-.27a.7.7,0,0,1-.06-.17l0-.05,0-.09c0-.12-.08-.24-.11-.35a.67.67,0,0,1,0-.19l0-.11,0-.12c0-.18-.07-.36-.1-.54v0a6,6,0,0,1,0-.75l5.75-3.16a6.59,6.59,0,0,0,0,.75,5.49,5.49,0,0,0,.13.66Z"/><path class="cls-82" d="M220.63,174.77l-.24,81.83a61.56,61.56,0,0,0,.52,7.27l1.31,9.17a63.39,63.39,0,0,1,.51,7.28l-.11,36.88A5.91,5.91,0,0,0,225,322c1.32.72,2.43-.25,2.44-2.17l.11-36.89a47.92,47.92,0,0,1,.55-6.69l1.35-7.71a47.71,47.71,0,0,0,.57-6.67l.27-92.45Z"/><polygon class="cls-35" points="60.55 262.56 60.3 344.42 66.05 341.24 66.3 259.4 60.55 262.56"/><path class="cls-83" d="M66.05,341.24a61.26,61.26,0,0,0,.52,7.27l1.31,9.18a65.39,65.39,0,0,1,.51,7.27l-.11,36.89a5.92,5.92,0,0,0,2.41,4.83c1.32.72,2.43-.25,2.44-2.18l.11-36.88a46.21,46.21,0,0,1,.55-6.69l1.36-7.71a51.3,51.3,0,0,0,.55-6.69L76,254.1l-9.67,5.3Z"/></g></g></g></g></svg>