<svg height="512pt" viewBox="0 -2 512.00023 512" width="512pt" xmlns="http://www.w3.org/2000/svg"><path d="m426.941406 360.109375h-323.5c-4.296875 0-7.78125-3.484375-7.78125-7.78125s3.484375-7.777344 7.78125-7.777344h323.5c4.296875 0 7.78125 3.480469 7.78125 7.777344s-3.484375 7.78125-7.78125 7.78125zm0 0" fill="#79bbe8"/><path d="m265.191406 360.109375c-4.296875 0-7.777344-3.484375-7.777344-7.78125v-106.03125c0-4.296875 3.480469-7.78125 7.777344-7.78125s7.78125 3.484375 7.78125 7.78125v106.03125c0 4.296875-3.484375 7.78125-7.78125 7.78125zm0 0" fill="#79bbe8"/><path d="m339.300781 231.601562v33.847657h-148.390625v-33.847657c0-14.542968 11.785156-26.328124 26.324219-26.328124h95.738281c14.542969 0 26.328125 11.785156 26.328125 26.328124zm0 0" fill="#3b485b"/><path d="m339.300781 231.601562v33.847657h-139.371093v-33.847657c0-14.542968 11.785156-26.328124 26.328124-26.328124h86.714844c14.542969 0 26.328125 11.785156 26.328125 26.328124zm0 0" fill="#515f75"/><path d="m217.976562 205.277344-1.597656 40.488281 17.019532 4.253906-15.28125 15.28125h93.976562l-15.28125-15.28125 17.019531-4.253906-1.597656-40.488281" fill="#3b485b"/><path d="m297.550781 205.277344-17.140625 60.167968h-30.605468l-17.140626-60.167968" fill="#f2f2f2"/><path d="m244.136719 220.046875 20.96875 26.25 20.761719-26.148437-20.761719-3.882813z" fill="#f74866"/><path d="m242.292969 239.078125 22.8125-22.8125 22.816406 22.8125 9.628906-33.800781h-64.886719zm0 0" fill="#e6e6e6"/><path d="m284.609375 171.472656v33.804688l-19.503906 10.988281-6.023438-3.394531-13.480469-7.59375v-33.828125l13.480469.003906zm0 0" fill="#f9c2af"/><path d="m249.910156 265.445312 15.195313-19.148437 15.304687 19.148437" fill="#f74866"/><path d="m259.082031 171.453125-13.476562-.003906v33.828125l13.476562 7.59375v-15.640625c1.992188.195312 4.007813.308593 6.050781.308593 6.808594 0 13.363282-1.113281 19.476563-3.164062v-22.902344zm0 0" fill="#ea9e8f"/><path d="m203.910156 135.878906c-10.15625 0-18.390625-7.371094-18.390625-16.460937 0-9.09375 8.234375-16.460938 18.390625-16.460938h122.449219c10.15625 0 18.390625 7.367188 18.390625 16.460938 0 9.089843-8.234375 16.460937-18.390625 16.460937" fill="#ea9e8f"/><path d="m326.363281 66.929688v61.226562c0 33.8125-27.414062 61.226562-61.230469 61.226562-16.902343 0-32.214843-6.855468-43.292968-17.933593-11.078125-11.074219-17.929688-26.386719-17.929688-43.292969v-61.226562zm0 0" fill="#f9c2af"/><path d="m264.699219 189.378906c-16.734375-.109375-31.871094-6.941406-42.859375-17.925781-11.078125-11.082031-17.929688-26.386719-17.929688-43.296875v-61.226562h27.5625v61.226562c0 16.910156 3.765625 32.210938 9.859375 43.296875 5.996094 10.90625 14.246094 17.714844 23.367188 17.925781zm0 0" fill="#ea9e8f"/><path d="m286.914062 127.488281c-2.242187 0-4.058593-1.816406-4.058593-4.058593v-8.507813c0-2.242187 1.816406-4.0625 4.058593-4.0625 2.242188 0 4.0625 1.820313 4.0625 4.0625v8.507813c0 2.242187-1.820312 4.058593-4.0625 4.058593zm0 0" fill="#293544"/><path d="m243.355469 127.488281c-2.242188 0-4.0625-1.816406-4.0625-4.058593v-8.507813c0-2.242187 1.820312-4.0625 4.0625-4.0625 2.242187 0 4.058593 1.820313 4.058593 4.0625v8.507813c0 2.242187-1.816406 4.058593-4.058593 4.058593zm0 0" fill="#293544"/><path d="m326.363281 66.929688v15.34375c-4.195312 3.003906-9.214843 5.640624-15.175781 7.789062-22.1875 7.992188-43.667969 5.300781-58.855469 1.066406 0 0-.003906 0-.003906-.003906-13.230469-3.683594-21.691406-8.542969-21.691406-8.542969s-5.578125 26.871094-26.726563 26.871094v-42.523437zm0 0" fill="#ea9e8f"/><path d="m311.183594 83.566406c-22.183594 7.992188-43.660156 5.300782-58.851563 1.070313 0 0-.003906 0-.003906-.007813-13.230469-3.683594-21.6875-8.546875-21.6875-8.546875s-5.582031 26.871094-26.730469 26.871094c0 0-14.070312-24.886719-13.628906-47.910156.230469-11.941407 10.074219-20.875 21.265625-20.875 2.089844 0 4.226563.308593 6.355469.976562 5.996094-16.097656 21.832031-26.28125 38.972656-25.242187 2.671875.167968 5.355469.378906 8.050781.625.515625.042968 1.039063.089844 1.554688.136718.054687.003907.105469.011719.160156.015626 27.980469 2.628906 56.328125 7.746093 72.980469-10.679688-.003906 0 27.523437 63.40625-28.4375 83.566406zm0 0" fill="#515f75"/><path d="m256.875 9.90625c2.667969.164062 5.355469.375 8.050781.621094-24.6875-1.042969-44.304687 53.332031-12.597656 74.101562-13.230469-3.683594-21.6875-8.546875-21.6875-8.546875s-5.582031 26.871094-26.730469 26.871094c0 0-14.070312-24.886719-13.628906-47.910156.230469-11.941407 10.074219-20.875 21.265625-20.875 2.089844 0 4.226563.308593 6.355469.976562 5.992187-16.097656 21.828125-26.28125 38.972656-25.238281zm0 0" fill="#3b485b"/><path d="m266.648438 10.6875c-.058594-.011719-.109376-.015625-.167969-.023438.050781.007813.105469.011719.160156.015626zm0 0" fill="#f4af9d"/><path d="m265.132812 160.023438c-6.480468 0-12.957031-2.464844-17.890624-7.398438-1.585938-1.585938-1.585938-4.15625 0-5.742188 1.585937-1.585937 4.15625-1.585937 5.742187 0 6.699219 6.699219 17.597656 6.699219 24.296875 0 1.585938-1.585937 4.160156-1.585937 5.742188 0 1.585937 1.585938 1.585937 4.15625 0 5.742188-4.929688 4.933594-11.410157 7.398438-17.890626 7.398438zm0 0" fill="#e06e86"/><path d="m504.914062 474.367188v33.84375h-148.394531v-33.84375c0-14.542969 11.789063-26.328126 26.324219-26.328126h95.742188c14.542968 0 26.328124 11.785157 26.328124 26.328126zm0 0" fill="#3b485b"/><path d="m504.914062 474.367188v33.84375h-139.371093v-33.84375c0-14.542969 11.785156-26.328126 26.328125-26.328126h86.714844c14.542968 0 26.328124 11.785157 26.328124 26.328126zm0 0" fill="#515f75"/><path d="m383.589844 448.039062-1.601563 40.488282 17.023438 4.257812-15.28125 15.28125h93.976562l-15.285156-15.28125 17.023437-4.257812-1.597656-40.488282" fill="#3b485b"/><path d="m463.164062 448.039062-17.140624 60.167969h-30.605469l-17.144531-60.167969" fill="#f2f2f2"/><path d="m409.75 462.8125 20.96875 26.25 20.761719-26.152344-20.761719-3.878906z" fill="#f74866"/><path d="m407.90625 481.84375 22.8125-22.8125 22.8125 22.8125 9.632812-33.804688h-64.890624zm0 0" fill="#e6e6e6"/><path d="m450.222656 414.234375v33.808594l-19.503906 10.988281-6.027344-3.394531-13.476562-7.59375v-33.828125l13.476562.003906zm0 0" fill="#b28344"/><path d="m415.523438 508.207031 15.195312-19.148437 15.304688 19.148437" fill="#f74866"/><path d="m424.691406 414.21875-13.476562-.003906v33.828125l13.476562 7.59375v-15.640625c1.992188.195312 4.011719.308594 6.054688.308594 6.808594 0 13.359375-1.113282 19.476562-3.167969v-22.902344zm0 0" fill="#9e6c30"/><path d="m369.519531 378.640625c-10.15625 0-18.386719-7.367187-18.386719-16.460937 0-9.089844 8.234376-16.460938 18.386719-16.460938h122.453125c10.15625 0 18.386719 7.371094 18.386719 16.460938 0 9.09375-8.230469 16.460937-18.386719 16.460937" fill="#9e6c30"/><path d="m491.976562 309.691406v61.230469c0 33.8125-27.414062 61.222656-61.230468 61.222656-16.90625 0-32.214844-6.851562-43.292969-17.929687s-17.933594-26.390625-17.933594-43.292969v-61.230469zm0 0" fill="#b28344"/><path d="m430.3125 432.144531c-16.738281-.113281-31.871094-6.941406-42.859375-17.929687-11.078125-11.082032-17.933594-26.386719-17.933594-43.292969v-61.230469h27.566407v61.230469c0 16.90625 3.765624 32.210937 9.859374 43.292969 5.996094 10.910156 14.242188 17.71875 23.367188 17.929687zm0 0" fill="#9e6c30"/><path d="m452.527344 370.253906c-2.242188 0-4.0625-1.820312-4.0625-4.0625v-8.507812c0-2.242188 1.820312-4.058594 4.0625-4.058594 2.242187 0 4.058594 1.816406 4.058594 4.058594v8.507812c0 2.242188-1.816407 4.0625-4.058594 4.0625zm0 0" fill="#293544"/><path d="m408.964844 370.253906c-2.242188 0-4.058594-1.820312-4.058594-4.0625v-8.507812c0-2.242188 1.816406-4.058594 4.058594-4.058594 2.246094 0 4.0625 1.816406 4.0625 4.058594v8.507812c0 2.242188-1.816406 4.0625-4.0625 4.0625zm0 0" fill="#293544"/><path d="m491.976562 309.691406v15.34375c-4.199218 3.003906-9.21875 5.640625-15.175781 7.792969-22.1875 7.988281-43.667969 5.300781-58.855469 1.066406 0 0-.003906 0-.003906-.007812-13.234375-3.679688-21.691406-8.542969-21.691406-8.542969s-5.582031 26.871094-26.730469 26.871094v-42.523438zm0 0" fill="#9e6c30"/><path d="m476.796875 326.332031c-22.183594 7.992188-43.664063 5.300781-58.855469 1.066407 0 0-.003906 0-.003906-.003907-13.226562-3.683593-21.683594-8.546875-21.683594-8.546875s-5.585937 26.871094-26.734375 26.871094c0 0-14.066406-24.886719-13.625-47.914062.226563-11.941407 10.074219-20.871094 21.261719-20.871094 2.089844 0 4.230469.308594 6.359375.972656 5.992187-16.09375 21.828125-26.28125 38.96875-25.238281 2.671875.164062 5.359375.378906 8.054687.625.515626.039062 1.035157.089843 1.550782.136719.054687.003906.109375.011718.160156.015624 27.984375 2.625 56.328125 7.742188 72.980469-10.679687 0 0 27.527343 63.40625-28.433594 83.566406zm0 0" fill="#515f75"/><path d="m422.484375 252.667969c2.671875.164062 5.359375.378906 8.054687.625-24.691406-1.042969-44.308593 53.332031-12.601562 74.101562-13.226562-3.6875-21.683594-8.546875-21.683594-8.546875s-5.585937 26.871094-26.734375 26.871094c0 0-14.066406-24.886719-13.625-47.914062.226563-11.941407 10.074219-20.871094 21.261719-20.871094 2.089844 0 4.230469.308594 6.359375.972656 5.992187-16.09375 21.828125-26.28125 38.96875-25.238281zm0 0" fill="#3b485b"/><path d="m432.261719 253.449219c-.058594-.007813-.113281-.015625-.167969-.019531.050781.003906.105469.011718.15625.015624zm0 0" fill="#f4af9d"/><path d="m430.746094 402.789062c-6.480469 0-12.957032-2.464843-17.890625-7.398437-1.585938-1.585937-1.585938-4.15625 0-5.742187 1.585937-1.585938 4.15625-1.585938 5.742187 0 6.699219 6.699218 17.597656 6.699218 24.296875 0 1.585938-1.585938 4.160157-1.585938 5.742188 0 1.585937 1.585937 1.585937 4.15625 0 5.742187-4.929688 4.933594-11.410157 7.398437-17.890625 7.398437zm0 0" fill="#9e6c30"/><path d="m153.78125 474.367188v33.84375h-148.390625v-33.84375c0-14.542969 11.785156-26.328126 26.324219-26.328126h95.738281c14.542969 0 26.328125 11.785157 26.328125 26.328126zm0 0" fill="#3b485b"/><path d="m153.78125 474.367188v33.84375h-139.371094v-33.84375c0-14.542969 11.785156-26.328126 26.328125-26.328126h86.714844c14.542969 0 26.328125 11.785157 26.328125 26.328126zm0 0" fill="#515f75"/><path d="m32.453125 448.039062-1.59375 40.488282 17.019531 4.257812-15.28125 15.28125h93.976563l-15.28125-15.28125 17.019531-4.257812-1.597656-40.488282" fill="#3b485b"/><path d="m112.03125 448.039062-17.140625 60.167969h-30.605469l-17.144531-60.167969" fill="#f2f2f2"/><path d="m58.617188 462.8125 20.96875 26.25 20.761718-26.152344-20.761718-3.878906z" fill="#f74866"/><path d="m56.773438 481.84375 22.8125-22.8125 22.8125 22.8125 9.632812-33.804688h-64.890625zm0 0" fill="#e6e6e6"/><path d="m99.089844 414.234375v33.808594l-19.503906 10.988281-6.027344-3.394531-13.476563-7.59375v-33.828125l13.476563.003906zm0 0" fill="#f9c2af"/><path d="m64.390625 508.207031 15.195313-19.148437 15.304687 19.148437" fill="#f74866"/><path d="m73.558594 414.21875-13.476563-.003906v33.828125l13.476563 7.59375v-15.640625c1.992187.195312 4.011718.308594 6.054687.308594 6.808594 0 13.359375-1.113282 19.476563-3.167969v-22.902344zm0 0" fill="#ea9e8f"/><path d="m18.386719 378.640625c-10.152344 0-18.386719-7.367187-18.386719-16.460937 0-9.089844 8.234375-16.460938 18.386719-16.460938h122.453125c10.15625 0 18.386718 7.371094 18.386718 16.460938 0 9.089843-8.230468 16.460937-18.386718 16.460937" fill="#ea9e8f"/><path d="m140.84375 309.691406v61.230469c0 33.8125-27.414062 61.222656-61.230469 61.222656-16.90625 0-32.214843-6.851562-43.292969-17.929687-11.078124-11.078125-17.933593-26.390625-17.933593-43.292969v-61.230469zm0 0" fill="#f9c2af"/><path d="m79.179688 432.144531c-16.738282-.113281-31.871094-6.941406-42.859376-17.929687-11.078124-11.082032-17.933593-26.386719-17.933593-43.292969v-61.230469h27.566406v61.230469c0 16.90625 3.765625 32.210937 9.859375 43.292969 5.996094 10.910156 14.242188 17.71875 23.367188 17.929687zm0 0" fill="#ea9e8f"/><path d="m101.394531 370.253906c-2.242187 0-4.0625-1.820312-4.0625-4.0625v-8.507812c0-2.242188 1.820313-4.058594 4.0625-4.058594 2.242188 0 4.0625 1.816406 4.0625 4.058594v8.507812c-.003906 2.242188-1.820312 4.0625-4.0625 4.0625zm0 0" fill="#293544"/><path d="m57.835938 370.253906c-2.242188 0-4.0625-1.820312-4.0625-4.0625v-8.507812c0-2.242188 1.820312-4.058594 4.0625-4.058594 2.242187 0 4.058593 1.816406 4.058593 4.058594v8.507812c0 2.242188-1.816406 4.0625-4.058593 4.0625zm0 0" fill="#293544"/><path d="m140.84375 309.691406v15.34375c-4.199219 3.003906-9.21875 5.640625-15.175781 7.792969-22.1875 7.988281-43.667969 5.300781-58.855469 1.066406 0 0-.003906 0-.003906-.007812-13.234375-3.679688-21.691406-8.542969-21.691406-8.542969s-5.582032 26.871094-26.730469 26.871094v-42.523438zm0 0" fill="#ea9e8f"/><path d="m125.664062 326.332031c-22.183593 7.992188-43.664062 5.300781-58.851562 1.066407 0 0-.007812 0-.007812-.003907-13.226563-3.683593-21.683594-8.546875-21.683594-8.546875s-5.585938 26.871094-26.730469 26.871094c0 0-14.070313-24.886719-13.628906-47.914062.230469-11.941407 10.074219-20.871094 21.265625-20.871094 2.089844 0 4.226562.308594 6.355468.972656 5.996094-16.09375 21.828126-26.28125 38.972657-25.238281 2.667969.164062 5.355469.378906 8.050781.625.515625.039062 1.039062.089843 1.554688.136719.050781.003906.105468.011718.160156.015624 27.980468 2.625 56.324218 7.742188 72.980468-10.679687-.003906 0 27.523438 63.40625-28.4375 83.566406zm0 0" fill="#ffc627"/><path d="m71.355469 252.667969c2.667969.164062 5.355469.378906 8.050781.625-24.691406-1.042969-44.304688 53.332031-12.601562 74.101562-13.226563-3.6875-21.683594-8.546875-21.683594-8.546875s-5.585938 26.871094-26.730469 26.871094c0 0-14.070313-24.886719-13.628906-47.914062.230469-11.941407 10.074219-20.871094 21.265625-20.871094 2.089844 0 4.226562.308594 6.355468.972656 5.992188-16.09375 21.828126-26.28125 38.972657-25.238281zm0 0" fill="#eaad18"/><path d="m81.128906 253.449219c-.058594-.007813-.113281-.015625-.171875-.019531.054688.003906.109375.011718.160157.015624zm0 0" fill="#f4af9d"/><path d="m79.613281 402.789062c-6.480469 0-12.957031-2.464843-17.890625-7.398437-1.585937-1.585937-1.585937-4.15625 0-5.742187 1.585938-1.585938 4.15625-1.585938 5.742188 0 6.699218 6.699218 17.597656 6.699218 24.296875 0 1.585937-1.585938 4.15625-1.585938 5.742187 0 1.585938 1.585937 1.585938 4.15625 0 5.742187-4.929687 4.933594-11.410156 7.398437-17.890625 7.398437zm0 0" fill="#e06e86"/></svg>