<svg xmlns="http://www.w3.org/2000/svg" xmlns:xlink="http://www.w3.org/1999/xlink" viewBox="0 0 466.67 284.84"><defs><style>.cls-1{fill:url(#linear-gradient);}.cls-2{fill:#0099cf;}.cls-3{fill:#e2dddf;}.cls-4{fill:#232324;}</style><linearGradient id="linear-gradient" x1="189.17" y1="223.9" x2="281.48" y2="64.02" gradientUnits="userSpaceOnUse"><stop offset="0" stop-color="#949a9b"/><stop offset="0" stop-color="#a9afaf"/><stop offset="0.01" stop-color="#bfc4c5"/><stop offset="0.01" stop-color="#d0d5d5"/><stop offset="0.01" stop-color="#dbe0e1"/><stop offset="0.02" stop-color="#e2e7e7"/><stop offset="0.04" stop-color="#e4e9e9"/><stop offset="0.07" stop-color="#d4dcdd"/><stop offset="1" stop-color="#d4dcdd"/></linearGradient></defs><title>Teclado</title><g id="Capa_2" data-name="Capa 2"><g id="Ñëîé_1" data-name="Ñëîé 1"><path class="cls-1" d="M466.52,175a7.12,7.12,0,0,0-3.36-5.38L165.46.81C162.37-.8,157.72,0,152.82,3.37l-.07,0L3.15,108.74c-2,1.4-3.39,4-3.11,5.81a1.81,1.81,0,0,0,.73,1.28C1.09,116,298,284.31,298.19,284.46c.76.61,2.07.48,3.45-.5L422.29,199a50.59,50.59,0,0,1,7.92-4.81c.43.26,9.29,5.33,10.11,5.6,3,2.59,8.25,2.16,13.87-1.8C462.12,192.44,467.64,182.13,466.52,175Z"/><path class="cls-2" d="M450.3,172.07l-.07,0L300.63,277.43c-2,1.41-3.4,4-3.12,5.81s2.13,2.13,4.13.72L422.29,199s14.26-10.75,15.54-3.84,8.44,8.41,16.36,2.83,13.45-15.89,12.34-23S458.17,166.6,450.3,172.07Z"/><path class="cls-2" d="M466.53,175c1.11,7.14-4.41,17.45-12.34,23s-15.25,4.31-16.36-2.83,4.41-17.45,12.33-23S465.41,167.85,466.53,175Z"/><path class="cls-3" d="M463.08,177.41c.85,5.43-3.35,13.27-9.37,17.51s-11.59,3.27-12.44-2.15,3.35-13.27,9.38-17.5S462.24,172,463.08,177.41Z"/><path class="cls-2" d="M424.08,176.72a4.29,4.29,0,0,1-4.2.34L410,171.47c-1.15-.65-1.13-1.86.05-2.69l6.64-4.73a4.27,4.27,0,0,1,4.2-.34l9.87,5.59c1.15.65,1.13,1.85,0,2.69Z"/><path class="cls-2" d="M407.59,167.38a4.29,4.29,0,0,1-4.21.34l-9.87-5.59c-1.14-.65-1.12-1.85.05-2.69l6.64-4.73a4.27,4.27,0,0,1,4.2-.34l9.87,5.59c1.15.65,1.13,1.85,0,2.69Z"/><path class="cls-2" d="M391.09,158a4.27,4.27,0,0,1-4.2.34L377,152.79c-1.15-.65-1.13-1.85,0-2.69l6.64-4.73a4.29,4.29,0,0,1,4.21-.34l9.87,5.59c1.14.65,1.12,1.85,0,2.69Z"/><path class="cls-2" d="M321.67,250a4.29,4.29,0,0,1-4.2.33l-9.87-5.58c-1.15-.65-1.12-1.86,0-2.69l6.64-4.73a4.27,4.27,0,0,1,4.2-.34l9.87,5.59c1.15.65,1.13,1.85-.05,2.69Z"/><path class="cls-2" d="M323.94,228.56c1.17-.84,1.19-2,0-2.69l-9.87-5.59a4.27,4.27,0,0,0-4.2.34l-17.77,12.66c-1.17.83-1.19,2,0,2.69l9.87,5.58a4.29,4.29,0,0,0,4.2-.33Z"/><path class="cls-2" d="M290.66,232.44a4.29,4.29,0,0,1-4.2.34l-9.87-5.59c-1.15-.65-1.13-1.86.05-2.69l6.64-4.73a4.27,4.27,0,0,1,4.2-.34l9.87,5.59c1.15.65,1.12,1.85-.05,2.69Z"/><path class="cls-2" d="M374.59,148.7a4.27,4.27,0,0,1-4.2.34l-9.87-5.59c-1.15-.65-1.13-1.85.05-2.69l6.64-4.73a4.27,4.27,0,0,1,4.2-.34l9.87,5.59c1.15.65,1.13,1.85,0,2.69Z"/><path class="cls-2" d="M358.1,139.36a4.27,4.27,0,0,1-4.2.34L344,134.11c-1.15-.65-1.13-1.85,0-2.69l6.64-4.73a4.27,4.27,0,0,1,4.2-.34l9.87,5.59c1.15.65,1.13,1.85,0,2.69Z"/><path class="cls-2" d="M341.6,130a4.27,4.27,0,0,1-4.2.34l-9.87-5.59c-1.15-.65-1.13-1.85.05-2.69l6.64-4.73a4.27,4.27,0,0,1,4.2-.34l9.87,5.59c1.15.65,1.13,1.86-.05,2.69Z"/><path class="cls-2" d="M325.11,120.68a4.29,4.29,0,0,1-4.21.34L311,115.43c-1.14-.65-1.12-1.85.05-2.69l6.64-4.73a4.29,4.29,0,0,1,4.2-.34l9.87,5.59c1.15.65,1.13,1.86,0,2.69Z"/><path class="cls-2" d="M308.61,111.34a4.27,4.27,0,0,1-4.2.34l-9.87-5.59c-1.15-.65-1.13-1.85,0-2.69l6.64-4.73a4.31,4.31,0,0,1,4.21-.34l9.87,5.59c1.14.65,1.12,1.86-.05,2.69Z"/><path class="cls-2" d="M292.11,102a4.27,4.27,0,0,1-4.2.34L278,96.75c-1.15-.65-1.13-1.85,0-2.69l6.64-4.73a4.29,4.29,0,0,1,4.2-.33l9.87,5.58c1.15.65,1.13,1.86-.05,2.69Z"/><path class="cls-2" d="M275.62,92.66a4.29,4.29,0,0,1-4.21.34l-9.86-5.59c-1.15-.65-1.13-1.85,0-2.69L268.23,80a4.29,4.29,0,0,1,4.2-.33l9.87,5.58c1.15.65,1.13,1.86,0,2.69Z"/><path class="cls-2" d="M259.12,83.33a4.29,4.29,0,0,1-4.2.33l-9.87-5.59c-1.15-.65-1.13-1.85,0-2.69l6.64-4.73a4.29,4.29,0,0,1,4.2-.33l9.87,5.58c1.15.65,1.12,1.86-.05,2.69Z"/><path class="cls-2" d="M242.63,74a4.31,4.31,0,0,1-4.21.33l-9.87-5.58c-1.14-.65-1.12-1.86,0-2.69l6.64-4.74a4.29,4.29,0,0,1,4.2-.33l9.87,5.58c1.15.65,1.13,1.86,0,2.7Z"/><path class="cls-2" d="M226.13,64.65a4.29,4.29,0,0,1-4.2.33l-9.87-5.58c-1.15-.65-1.13-1.86,0-2.69L218.74,52a4.31,4.31,0,0,1,4.21-.33l9.87,5.59c1.14.65,1.12,1.85,0,2.69Z"/><path class="cls-2" d="M209.63,55.31a4.29,4.29,0,0,1-4.2.33l-9.87-5.58c-1.15-.65-1.13-1.86.05-2.69l6.64-4.73a4.27,4.27,0,0,1,4.2-.34l9.87,5.59c1.15.65,1.13,1.85,0,2.69Z"/><path class="cls-2" d="M193.14,46a4.31,4.31,0,0,1-4.21.33l-9.87-5.58c-1.14-.65-1.12-1.86.05-2.69l6.64-4.73A4.27,4.27,0,0,1,190,33l9.87,5.59c1.15.65,1.13,1.85,0,2.69Z"/><path class="cls-2" d="M176.64,36.63a4.29,4.29,0,0,1-4.2.34l-9.87-5.59c-1.15-.65-1.13-1.86.05-2.69L169.26,24a4.27,4.27,0,0,1,4.2-.34l9.87,5.59c1.15.65,1.12,1.85-.05,2.69Z"/><path class="cls-2" d="M160.14,27.29a4.29,4.29,0,0,1-4.2.34L146.07,22c-1.15-.65-1.12-1.86.05-2.69l6.64-4.73a4.27,4.27,0,0,1,4.2-.34l9.87,5.59c1.15.65,1.13,1.85-.05,2.69Z"/><path class="cls-2" d="M415.72,180.12l-32.91-18.64a4.29,4.29,0,0,0-4.21.34l-12.39,8.83c-1.17.84-1.19,2,0,2.69L399.08,192a4.29,4.29,0,0,0,4.2-.34l12.4-8.83C416.85,182,416.87,180.77,415.72,180.12Z"/><path class="cls-2" d="M364.13,193.84a4.32,4.32,0,0,1-4.2.34l-12.82-7.26c-1.14-.65-1.12-1.85.05-2.69l12.4-8.83a4.27,4.27,0,0,1,4.2-.34l12.81,7.26c1.15.65,1.13,1.85,0,2.69Z"/><path class="cls-2" d="M396.64,193.71l-12.82-7.25a4.27,4.27,0,0,0-4.2.34l-16.87,12-18-10.21a4.29,4.29,0,0,0-4.21.34l-12.39,8.83c-1.18.84-1.2,2-.05,2.69L361,219.11a4.27,4.27,0,0,0,4.2-.34l31.39-22.37C397.76,195.57,397.78,194.36,396.64,193.71Z"/><path class="cls-2" d="M363.1,168.89a4.29,4.29,0,0,1-4.2.34L346.08,162c-1.14-.65-1.12-1.85.05-2.69l12.39-8.83a4.29,4.29,0,0,1,4.21-.34l12.81,7.26c1.15.65,1.13,1.85-.05,2.69Z"/><path class="cls-2" d="M344,182.47a4.29,4.29,0,0,1-4.2.33L327,175.55c-1.15-.65-1.13-1.86,0-2.69l12.4-8.83a4.27,4.27,0,0,1,4.2-.34l12.82,7.25c1.14.65,1.12,1.86-.05,2.69Z"/><path class="cls-2" d="M325,196a4.27,4.27,0,0,1-4.2.34L308,189.12c-1.15-.65-1.12-1.85,0-2.69l12.39-8.83a4.31,4.31,0,0,1,4.21-.33l12.81,7.25c1.15.65,1.13,1.85-.05,2.69Z"/><path class="cls-2" d="M305.93,209.62a4.32,4.32,0,0,1-4.2.34l-12.81-7.26c-1.15-.65-1.13-1.85,0-2.69l12.4-8.83a4.27,4.27,0,0,1,4.2-.34l12.81,7.26c1.15.65,1.13,1.85,0,2.69Z"/><path class="cls-2" d="M343,157.52a4.29,4.29,0,0,1-4.2.33L326,150.6c-1.15-.65-1.13-1.85,0-2.69l12.4-8.83a4.27,4.27,0,0,1,4.2-.34L355.45,146c1.15.65,1.13,1.85,0,2.69Z"/><path class="cls-2" d="M324,171.09a4.29,4.29,0,0,1-4.21.34l-12.81-7.25c-1.15-.65-1.13-1.86.05-2.69l12.39-8.84a4.29,4.29,0,0,1,4.2-.33l12.82,7.25c1.15.65,1.12,1.86,0,2.69Z"/><path class="cls-2" d="M304.9,184.67a4.27,4.27,0,0,1-4.2.34l-12.82-7.26c-1.14-.65-1.12-1.85.05-2.69l12.4-8.83a4.29,4.29,0,0,1,4.2-.34l12.81,7.26c1.15.65,1.13,1.85,0,2.69Z"/><path class="cls-2" d="M285.85,198.25a4.31,4.31,0,0,1-4.21.33l-12.81-7.25c-1.15-.65-1.13-1.86.05-2.69l12.39-8.83a4.27,4.27,0,0,1,4.2-.34l12.82,7.25c1.14.65,1.12,1.86-.05,2.69Z"/><path class="cls-2" d="M266.79,211.82a4.27,4.27,0,0,1-4.2.34l-12.82-7.26c-1.14-.65-1.12-1.85,0-2.69l12.39-8.83a4.31,4.31,0,0,1,4.21-.33l12.81,7.25c1.15.65,1.13,1.85-.05,2.69Z"/><path class="cls-2" d="M322.92,146.14a4.27,4.27,0,0,1-4.2.34l-12.81-7.25c-1.15-.65-1.13-1.86,0-2.69l12.39-8.83a4.27,4.27,0,0,1,4.2-.34l12.82,7.25c1.14.65,1.12,1.86-.05,2.69Z"/><path class="cls-2" d="M303.87,159.72a4.27,4.27,0,0,1-4.2.34l-12.82-7.26c-1.14-.65-1.12-1.85,0-2.69l12.39-8.83a4.31,4.31,0,0,1,4.21-.33l12.81,7.25c1.15.65,1.13,1.85-.05,2.69Z"/><path class="cls-2" d="M284.81,173.3a4.29,4.29,0,0,1-4.2.33l-12.81-7.25c-1.15-.65-1.13-1.85,0-2.69l12.4-8.83a4.27,4.27,0,0,1,4.2-.34l12.82,7.26c1.14.65,1.12,1.85-.05,2.69Z"/><path class="cls-2" d="M265.76,186.87a4.27,4.27,0,0,1-4.2.34L248.74,180c-1.15-.65-1.12-1.86,0-2.69l12.39-8.84a4.31,4.31,0,0,1,4.21-.33l12.81,7.25c1.15.65,1.13,1.86-.05,2.69Z"/><path class="cls-2" d="M246.7,200.45a4.29,4.29,0,0,1-4.2.34l-12.81-7.26c-1.15-.65-1.13-1.85,0-2.69l12.4-8.83a4.27,4.27,0,0,1,4.2-.34l12.81,7.26c1.15.65,1.13,1.85,0,2.69Z"/><path class="cls-2" d="M302.84,134.77a4.29,4.29,0,0,1-4.21.34l-12.81-7.26c-1.15-.65-1.13-1.85.05-2.69l12.39-8.83a4.31,4.31,0,0,1,4.21-.33l12.81,7.25c1.15.65,1.13,1.85,0,2.69Z"/><path class="cls-2" d="M283.78,148.35a4.29,4.29,0,0,1-4.2.33l-12.81-7.25c-1.15-.65-1.13-1.85,0-2.69l12.4-8.83a4.27,4.27,0,0,1,4.2-.34l12.81,7.26c1.15.65,1.13,1.85,0,2.69Z"/><path class="cls-2" d="M264.73,161.92a4.29,4.29,0,0,1-4.21.34L247.71,155c-1.15-.65-1.13-1.86,0-2.69l12.39-8.83a4.27,4.27,0,0,1,4.2-.34l12.82,7.25c1.15.65,1.12,1.86-.05,2.69Z"/><path class="cls-2" d="M245.67,175.5a4.27,4.27,0,0,1-4.2.34l-12.82-7.26c-1.14-.65-1.12-1.85,0-2.69l12.4-8.83a4.32,4.32,0,0,1,4.2-.34L258.11,164c1.15.65,1.13,1.85,0,2.69Z"/><path class="cls-2" d="M282.75,123.4a4.29,4.29,0,0,1-4.2.34l-12.82-7.26c-1.14-.65-1.12-1.85,0-2.69l12.4-8.83a4.29,4.29,0,0,1,4.2-.34l12.81,7.26c1.15.65,1.13,1.85-.05,2.69Z"/><path class="cls-2" d="M263.69,137a4.27,4.27,0,0,1-4.2.34l-12.81-7.25c-1.15-.65-1.13-1.86,0-2.69l12.39-8.83a4.27,4.27,0,0,1,4.2-.34l12.82,7.25c1.14.65,1.12,1.86-.05,2.69Z"/><path class="cls-2" d="M244.64,150.55a4.27,4.27,0,0,1-4.2.34l-12.82-7.26c-1.14-.65-1.12-1.85,0-2.69l12.39-8.83a4.31,4.31,0,0,1,4.21-.33L257.08,139c1.15.65,1.13,1.85-.05,2.69Z"/><path class="cls-2" d="M225.58,164.13a4.29,4.29,0,0,1-4.2.33l-12.81-7.25c-1.15-.65-1.13-1.85,0-2.69l12.4-8.83a4.27,4.27,0,0,1,4.2-.34L238,152.61c1.14.65,1.12,1.85-.05,2.69Z"/><path class="cls-2" d="M262.66,112a4.29,4.29,0,0,1-4.2.33l-12.81-7.25c-1.15-.65-1.13-1.86,0-2.69l12.4-8.83a4.27,4.27,0,0,1,4.2-.34l12.81,7.26c1.15.64,1.13,1.85,0,2.69Z"/><path class="cls-2" d="M243.61,125.6a4.29,4.29,0,0,1-4.21.34l-12.81-7.25c-1.15-.65-1.13-1.86,0-2.69L239,107.16a4.31,4.31,0,0,1,4.21-.33l12.81,7.25c1.15.65,1.13,1.86-.05,2.69Z"/><path class="cls-2" d="M224.55,139.18a4.29,4.29,0,0,1-4.2.34l-12.81-7.26c-1.15-.65-1.13-1.85,0-2.69l12.4-8.83a4.27,4.27,0,0,1,4.2-.34L237,127.66c1.15.65,1.13,1.85,0,2.69Z"/><path class="cls-2" d="M205.5,152.75a4.29,4.29,0,0,1-4.21.34l-12.81-7.25c-1.15-.65-1.13-1.86.05-2.69l12.39-8.83a4.27,4.27,0,0,1,4.2-.34l12.82,7.25c1.15.65,1.12,1.86-.05,2.69Z"/><path class="cls-2" d="M242.58,100.65a4.29,4.29,0,0,1-4.21.34l-12.81-7.25c-1.15-.65-1.13-1.86.05-2.69L238,82.22a4.27,4.27,0,0,1,4.2-.34L255,89.13c1.14.65,1.12,1.86-.05,2.69Z"/><path class="cls-2" d="M223.52,114.23a4.27,4.27,0,0,1-4.2.34l-12.82-7.26c-1.14-.65-1.12-1.85.05-2.69L219,95.79a4.29,4.29,0,0,1,4.2-.34L236,102.71c1.15.65,1.13,1.85-.05,2.69Z"/><path class="cls-2" d="M204.46,127.81a4.29,4.29,0,0,1-4.2.33l-12.81-7.25c-1.15-.65-1.13-1.85.05-2.69l12.39-8.83a4.27,4.27,0,0,1,4.2-.34l12.82,7.26c1.14.65,1.12,1.85,0,2.69Z"/><path class="cls-2" d="M185.41,141.38a4.27,4.27,0,0,1-4.2.34l-12.82-7.25c-1.14-.65-1.12-1.86.05-2.69l12.39-8.84a4.31,4.31,0,0,1,4.21-.33l12.81,7.25c1.15.65,1.13,1.86,0,2.69Z"/><path class="cls-2" d="M222.49,89.28a4.27,4.27,0,0,1-4.2.34l-12.82-7.26c-1.15-.65-1.12-1.85.05-2.69l12.39-8.83a4.31,4.31,0,0,1,4.21-.33l12.81,7.25c1.15.65,1.13,1.85-.05,2.69Z"/><path class="cls-2" d="M203.43,102.86a4.29,4.29,0,0,1-4.2.33l-12.81-7.25c-1.15-.65-1.13-1.85,0-2.69l12.4-8.83a4.27,4.27,0,0,1,4.2-.34l12.81,7.26c1.15.65,1.13,1.85,0,2.69Z"/><path class="cls-2" d="M184.38,116.43a4.29,4.29,0,0,1-4.21.34l-12.81-7.25c-1.15-.65-1.13-1.86,0-2.69L179.8,98a4.29,4.29,0,0,1,4.21-.34l12.81,7.25c1.15.65,1.13,1.86,0,2.69Z"/><path class="cls-2" d="M165.32,130a4.27,4.27,0,0,1-4.2.34l-12.81-7.26c-1.15-.65-1.13-1.85,0-2.69l12.4-8.83a4.29,4.29,0,0,1,4.2-.34l12.81,7.26c1.15.65,1.13,1.85,0,2.69Z"/><path class="cls-2" d="M202.4,77.91a4.29,4.29,0,0,1-4.2.34L185.39,71c-1.15-.65-1.13-1.85,0-2.69l12.4-8.83a4.27,4.27,0,0,1,4.2-.34l12.81,7.26c1.15.65,1.13,1.85,0,2.69Z"/><path class="cls-2" d="M183.35,91.48a4.29,4.29,0,0,1-4.21.34l-12.81-7.25c-1.15-.65-1.13-1.86,0-2.69l12.39-8.83a4.27,4.27,0,0,1,4.2-.34L195.79,80c1.14.65,1.12,1.86,0,2.69Z"/><path class="cls-2" d="M164.29,105.06a4.27,4.27,0,0,1-4.2.34l-12.82-7.26c-1.14-.65-1.12-1.85,0-2.69l12.4-8.83a4.29,4.29,0,0,1,4.2-.33l12.81,7.25c1.15.65,1.13,1.85,0,2.69Z"/><path class="cls-2" d="M145.23,118.64a4.29,4.29,0,0,1-4.2.33l-12.81-7.25c-1.15-.65-1.13-1.85.05-2.69l12.39-8.83a4.27,4.27,0,0,1,4.2-.34l12.82,7.26c1.14.65,1.12,1.85-.05,2.69Z"/><path class="cls-2" d="M126.18,132.21a4.27,4.27,0,0,1-4.2.34l-12.82-7.25c-1.14-.65-1.12-1.86,0-2.69l12.39-8.83a4.29,4.29,0,0,1,4.21-.34l12.81,7.25c1.15.65,1.13,1.86-.05,2.69Z"/><path class="cls-2" d="M162.23,55.16a4.29,4.29,0,0,1-4.21.34l-12.81-7.25c-1.15-.65-1.13-1.86,0-2.69l12.39-8.83a4.27,4.27,0,0,1,4.2-.34l12.82,7.25c1.15.65,1.12,1.86,0,2.69Z"/><path class="cls-2" d="M143.17,68.74a4.27,4.27,0,0,1-4.2.34l-12.81-7.26c-1.15-.65-1.13-1.85,0-2.69l12.4-8.83a4.29,4.29,0,0,1,4.2-.34l12.81,7.26c1.15.65,1.13,1.85,0,2.69Z"/><path class="cls-2" d="M124.12,82.32a4.31,4.31,0,0,1-4.21.33L107.1,75.4c-1.15-.65-1.13-1.86.05-2.69l12.39-8.83a4.27,4.27,0,0,1,4.2-.34l12.82,7.26c1.14.64,1.12,1.85-.05,2.69Z"/><path class="cls-2" d="M86,109.47a4.29,4.29,0,0,1-4.2.34L69,102.55c-1.15-.65-1.13-1.85.05-2.69L81.43,91a4.27,4.27,0,0,1,4.2-.34L98.45,98c1.14.65,1.12,1.85,0,2.69Z"/><path class="cls-2" d="M182.31,66.54a4.29,4.29,0,0,1-4.2.33L165.3,59.62c-1.15-.65-1.13-1.86,0-2.69l12.4-8.83a4.27,4.27,0,0,1,4.2-.34L194.76,55c1.14.65,1.12,1.85,0,2.69Z"/><path class="cls-2" d="M163.26,80.11a4.27,4.27,0,0,1-4.2.34L146.24,73.2c-1.15-.65-1.12-1.86,0-2.7l12.39-8.83a4.31,4.31,0,0,1,4.21-.33l12.81,7.25c1.15.65,1.13,1.86,0,2.69Z"/><path class="cls-2" d="M144.2,93.69A4.29,4.29,0,0,1,140,94l-12.81-7.26c-1.15-.65-1.13-1.85,0-2.69l12.4-8.83a4.27,4.27,0,0,1,4.2-.34l12.81,7.26c1.15.65,1.13,1.85,0,2.69Z"/><path class="cls-2" d="M125.15,107.26a4.29,4.29,0,0,1-4.21.34l-12.81-7.25c-1.15-.65-1.13-1.86.05-2.69l12.39-8.83a4.29,4.29,0,0,1,4.21-.34l12.81,7.25c1.15.65,1.13,1.86-.05,2.69Z"/><path class="cls-2" d="M106.09,120.84a4.27,4.27,0,0,1-4.2.34l-12.81-7.26c-1.15-.65-1.13-1.85,0-2.69l12.4-8.83a4.29,4.29,0,0,1,4.2-.33l12.81,7.25c1.15.65,1.13,1.85,0,2.69Z"/><path class="cls-2" d="M142.14,43.79a4.27,4.27,0,0,1-4.2.34l-12.82-7.26c-1.14-.65-1.12-1.85,0-2.69l12.4-8.83a4.29,4.29,0,0,1,4.2-.33l12.81,7.25c1.15.65,1.13,1.85-.05,2.69Z"/><path class="cls-2" d="M123.08,57.37a4.29,4.29,0,0,1-4.2.33l-12.81-7.25c-1.15-.65-1.13-1.85.05-2.69l12.39-8.83a4.27,4.27,0,0,1,4.2-.34l12.82,7.26c1.14.65,1.12,1.85-.05,2.69Z"/><path class="cls-2" d="M104,70.94a4.27,4.27,0,0,1-4.2.34L87,64c-1.15-.65-1.12-1.86,0-2.69l12.39-8.83a4.29,4.29,0,0,1,4.21-.34l12.81,7.25c1.15.65,1.13,1.86,0,2.69Z"/><path class="cls-2" d="M105.07,95.9a4.31,4.31,0,0,1-4.21.33L68,77.6c-1.15-.65-1.13-1.86,0-2.69l12.39-8.83a4.27,4.27,0,0,1,4.2-.34l32.92,18.64c1.15.65,1.13,1.85-.05,2.69Z"/><path class="cls-2" d="M65.92,98.1a4.31,4.31,0,0,1-4.21.33L48.9,91.18c-1.15-.65-1.13-1.86.05-2.69l12.39-8.83a4.29,4.29,0,0,1,4.21-.34l12.81,7.26c1.15.64,1.13,1.85,0,2.69Z"/><path class="cls-2" d="M239.09,177.57l-93.23-52.78a4.29,4.29,0,0,0-4.2.34L129.27,134c-1.18.84-1.2,2-.05,2.69l93.22,52.78a4.29,4.29,0,0,0,4.21-.34L239,180.26C240.21,179.43,240.23,178.22,239.09,177.57Z"/><path class="cls-2" d="M358.56,220.85l-32.92-18.64a4.27,4.27,0,0,0-4.2.34L309,211.38c-1.17.83-1.19,2,0,2.69l32.91,18.63a4.29,4.29,0,0,0,4.2-.33l12.4-8.83C359.68,222.7,359.7,221.5,358.56,220.85Z"/><path class="cls-4" d="M423.91,176.42a4.1,4.1,0,0,1-4,.32l-9.4-5.32c-1.09-.62-1.07-1.77.05-2.57l6.32-4.5a4.08,4.08,0,0,1,4-.32l9.39,5.32c1.1.62,1.08,1.77,0,2.56Z"/><path class="cls-4" d="M407.41,167.08a4.09,4.09,0,0,1-4,.32l-9.4-5.32c-1.09-.62-1.07-1.77,0-2.56l6.33-4.51a4.06,4.06,0,0,1,4-.32l9.4,5.32c1.09.62,1.07,1.77,0,2.56Z"/><path class="cls-4" d="M390.91,157.74a4.08,4.08,0,0,1-4,.32l-9.4-5.32c-1.09-.62-1.07-1.77.05-2.56l6.32-4.51a4.06,4.06,0,0,1,4-.32l9.4,5.32c1.1.62,1.08,1.77,0,2.56Z"/><path class="cls-4" d="M321.5,249.69a4.06,4.06,0,0,1-4,.33l-9.4-5.33c-1.1-.61-1.08-1.76,0-2.56l6.32-4.5a4.08,4.08,0,0,1,4-.32l9.4,5.32c1.09.62,1.07,1.76-.05,2.56Z"/><path class="cls-4" d="M306,240.92a4.09,4.09,0,0,1-4,.32l-9.4-5.32c-1.09-.62-1.07-1.77,0-2.57l6.33-4.5a4.06,4.06,0,0,1,4-.32l9.4,5.32c1.09.62,1.07,1.76,0,2.56Z"/><path class="cls-4" d="M317.12,233a4.09,4.09,0,0,1-4,.32l-9.4-5.32c-1.09-.62-1.07-1.77,0-2.57l6.33-4.5a4.06,4.06,0,0,1,4-.32l9.4,5.32c1.09.62,1.07,1.76,0,2.56Z"/><path class="cls-4" d="M290.49,232.14a4.1,4.1,0,0,1-4,.32l-9.4-5.32c-1.09-.62-1.07-1.77.05-2.57l6.32-4.5a4.06,4.06,0,0,1,4-.32l9.4,5.32c1.1.62,1.08,1.77,0,2.56Z"/><path class="cls-4" d="M374.42,148.4a4.06,4.06,0,0,1-4,.32L361,143.4c-1.1-.62-1.08-1.77,0-2.56l6.32-4.51a4.1,4.1,0,0,1,4-.32l9.4,5.32c1.09.62,1.07,1.77-.05,2.56Z"/><path class="cls-4" d="M357.92,139.06a4.06,4.06,0,0,1-4,.32l-9.4-5.32c-1.09-.62-1.07-1.77,0-2.56l6.33-4.51a4.09,4.09,0,0,1,4-.32l9.4,5.32c1.09.62,1.07,1.77,0,2.56Z"/><path class="cls-4" d="M341.43,129.72a4.08,4.08,0,0,1-4,.32l-9.4-5.32c-1.09-.62-1.07-1.77.05-2.56l6.32-4.51a4.09,4.09,0,0,1,4-.32l9.4,5.32c1.1.62,1.08,1.77,0,2.56Z"/><path class="cls-4" d="M324.93,120.38a4.06,4.06,0,0,1-4,.32l-9.4-5.32c-1.1-.62-1.08-1.77,0-2.56l6.33-4.51a4.08,4.08,0,0,1,4-.32l9.4,5.32c1.09.62,1.07,1.77-.05,2.57Z"/><path class="cls-4" d="M308.43,111a4.06,4.06,0,0,1-4,.32L295,106c-1.09-.62-1.07-1.76.05-2.56L301.4,99a4.09,4.09,0,0,1,4-.32l9.4,5.32c1.1.62,1.08,1.77,0,2.57Z"/><path class="cls-4" d="M291.94,101.7a4.06,4.06,0,0,1-4,.32l-9.4-5.32c-1.1-.62-1.08-1.76,0-2.56l6.32-4.51a4.1,4.1,0,0,1,4-.32l9.4,5.32c1.09.62,1.07,1.77-.05,2.57Z"/><path class="cls-4" d="M275.44,92.36a4.06,4.06,0,0,1-4,.32L262,87.36c-1.09-.62-1.07-1.76,0-2.56l6.33-4.51a4.09,4.09,0,0,1,4-.32l9.4,5.33c1.09.61,1.07,1.76,0,2.56Z"/><path class="cls-4" d="M259,83a4.08,4.08,0,0,1-4,.32L245.54,78c-1.09-.62-1.07-1.76.05-2.56l6.32-4.5a4.09,4.09,0,0,1,4-.33l9.4,5.33c1.1.61,1.08,1.76,0,2.56Z"/><path class="cls-4" d="M242.45,73.68a4.09,4.09,0,0,1-4,.33l-9.4-5.33c-1.1-.62-1.08-1.76,0-2.56l6.33-4.5a4.09,4.09,0,0,1,4-.33l9.4,5.33c1.09.62,1.07,1.76,0,2.56Z"/><path class="cls-4" d="M226,64.34a4.09,4.09,0,0,1-4,.33l-9.4-5.33c-1.09-.61-1.07-1.76,0-2.56l6.32-4.5a4.06,4.06,0,0,1,4-.32l9.4,5.32c1.09.62,1.07,1.76,0,2.56Z"/><path class="cls-4" d="M209.46,55a4.08,4.08,0,0,1-4,.33L196.05,50c-1.09-.61-1.07-1.76,0-2.56l6.32-4.5a4.08,4.08,0,0,1,4-.32l9.4,5.32c1.09.62,1.07,1.76-.05,2.56Z"/><path class="cls-4" d="M193,45.67a4.09,4.09,0,0,1-4,.32l-9.4-5.32c-1.09-.62-1.07-1.77,0-2.57l6.33-4.5a4.06,4.06,0,0,1,4-.32l9.4,5.32c1.09.62,1.07,1.76,0,2.56Z"/><path class="cls-4" d="M176.47,36.33a4.1,4.1,0,0,1-4,.32l-9.4-5.32c-1.09-.62-1.07-1.77.05-2.57l6.32-4.5a4.06,4.06,0,0,1,4-.32l9.4,5.32c1.1.62,1.08,1.76,0,2.56Z"/><path class="cls-4" d="M160,27a4.09,4.09,0,0,1-4,.32L146.57,22c-1.1-.62-1.08-1.77,0-2.57l6.33-4.5a4.06,4.06,0,0,1,4-.32l9.4,5.32c1.09.62,1.07,1.77-.05,2.56Z"/><path class="cls-4" d="M415,180.22l-32.29-18.28a4.09,4.09,0,0,0-4,.32l-11.8,8.41c-1.12.8-1.14,2-.05,2.56l32.29,18.29a4.06,4.06,0,0,0,4-.33L415,182.78C416.09,182,416.11,180.84,415,180.22Z"/><path class="cls-4" d="M364,193.4a4.09,4.09,0,0,1-4,.32l-12.2-6.91c-1.1-.62-1.08-1.76,0-2.56l11.81-8.41a4.06,4.06,0,0,1,4-.32l12.2,6.91c1.09.62,1.07,1.76,0,2.56Z"/><path class="cls-4" d="M396,193.8l-12.21-6.91a4.09,4.09,0,0,0-4,.32l-17,12.14-18.11-10.26a4.09,4.09,0,0,0-4,.33l-11.8,8.41c-1.12.79-1.14,1.94-.05,2.56l32.29,18.28a4.08,4.08,0,0,0,4-.32l30.86-22C397,195.56,397.05,194.42,396,193.8Z"/><path class="cls-4" d="M363,168.45a4.06,4.06,0,0,1-4,.32l-12.21-6.91c-1.09-.62-1.07-1.76.05-2.56l11.8-8.41a4.08,4.08,0,0,1,4-.32l12.2,6.91c1.09.62,1.07,1.76,0,2.56Z"/><path class="cls-4" d="M343.93,182a4.08,4.08,0,0,1-4,.32l-12.2-6.91c-1.09-.62-1.07-1.77,0-2.56l11.81-8.41a4.09,4.09,0,0,1,4-.33l12.2,6.91c1.1.62,1.08,1.77,0,2.57Z"/><path class="cls-4" d="M324.88,195.6a4.06,4.06,0,0,1-4,.32L308.67,189c-1.09-.61-1.07-1.76.05-2.56l11.8-8.41a4.09,4.09,0,0,1,4-.32l12.21,6.91c1.09.62,1.07,1.77-.05,2.56Z"/><path class="cls-4" d="M305.82,209.18a4.08,4.08,0,0,1-4,.32l-12.2-6.91c-1.09-.62-1.08-1.76,0-2.56l11.81-8.41a4.06,4.06,0,0,1,4-.32l12.2,6.91c1.1.62,1.08,1.76,0,2.56Z"/><path class="cls-4" d="M342.9,157.08a4.08,4.08,0,0,1-4,.32l-12.2-6.91c-1.1-.62-1.08-1.77,0-2.56l11.81-8.41a4.06,4.06,0,0,1,4-.32l12.2,6.9c1.09.62,1.07,1.77,0,2.57Z"/><path class="cls-4" d="M323.85,170.65a4.08,4.08,0,0,1-4,.32l-12.2-6.9c-1.09-.62-1.07-1.77.05-2.57l11.8-8.41a4.09,4.09,0,0,1,4-.32l12.21,6.91c1.09.62,1.07,1.77-.05,2.56Z"/><path class="cls-4" d="M304.79,184.23a4.06,4.06,0,0,1-4,.32l-12.2-6.91c-1.1-.62-1.08-1.76,0-2.56l11.8-8.41a4.08,4.08,0,0,1,4-.32l12.2,6.91c1.09.62,1.07,1.76,0,2.56Z"/><path class="cls-4" d="M285.74,197.81a4.1,4.1,0,0,1-4,.32l-12.2-6.91c-1.09-.62-1.07-1.77.05-2.56l11.8-8.41a4.09,4.09,0,0,1,4-.33l12.21,6.91c1.09.62,1.07,1.77,0,2.57Z"/><path class="cls-4" d="M266.68,211.38a4.06,4.06,0,0,1-4,.32l-12.2-6.91c-1.1-.61-1.08-1.76,0-2.56l11.8-8.41a4.1,4.1,0,0,1,4-.32l12.2,6.91c1.09.62,1.07,1.77,0,2.56Z"/><path class="cls-4" d="M322.82,145.7a4.11,4.11,0,0,1-4,.33l-12.2-6.91c-1.09-.62-1.07-1.77,0-2.56l11.81-8.42a4.11,4.11,0,0,1,4-.32l12.2,6.91c1.1.62,1.08,1.77,0,2.56Z"/><path class="cls-4" d="M303.76,159.28a4.06,4.06,0,0,1-4,.32l-12.21-6.91c-1.09-.62-1.07-1.76.05-2.56l11.8-8.41a4.08,4.08,0,0,1,4-.32l12.2,6.91c1.09.62,1.07,1.76-.05,2.56Z"/><path class="cls-4" d="M284.7,172.86a4.08,4.08,0,0,1-4,.32l-12.2-6.91c-1.09-.62-1.07-1.77,0-2.56l11.81-8.41a4.06,4.06,0,0,1,4-.32l12.2,6.91c1.1.61,1.08,1.76,0,2.56Z"/><path class="cls-4" d="M265.65,186.43a4.09,4.09,0,0,1-4,.33l-12.21-6.91c-1.09-.62-1.07-1.77.05-2.57l11.8-8.41a4.09,4.09,0,0,1,4-.32l12.21,6.91c1.09.62,1.07,1.77-.05,2.56Z"/><path class="cls-4" d="M246.59,200a4.06,4.06,0,0,1-4,.32l-12.2-6.91c-1.09-.62-1.08-1.76,0-2.56l11.81-8.41a4.06,4.06,0,0,1,4-.32l12.2,6.91c1.1.62,1.08,1.76,0,2.56Z"/><path class="cls-4" d="M302.73,134.33a4.06,4.06,0,0,1-4,.32l-12.21-6.91c-1.09-.61-1.07-1.76.05-2.56l11.8-8.41a4.09,4.09,0,0,1,4-.32l12.21,6.91c1.09.62,1.07,1.77-.05,2.56Z"/><path class="cls-4" d="M283.67,147.91a4.08,4.08,0,0,1-4,.32l-12.2-6.91c-1.1-.62-1.08-1.76,0-2.56l11.81-8.41a4.06,4.06,0,0,1,4-.32l12.2,6.91c1.09.62,1.07,1.76,0,2.56Z"/><path class="cls-4" d="M264.62,161.48a4.08,4.08,0,0,1-4,.33l-12.2-6.91c-1.09-.62-1.07-1.77.05-2.56l11.8-8.42a4.09,4.09,0,0,1,4-.32l12.21,6.91c1.09.62,1.07,1.77-.05,2.56Z"/><path class="cls-4" d="M245.56,175.06a4.06,4.06,0,0,1-4,.32l-12.2-6.91c-1.1-.62-1.08-1.76,0-2.56l11.81-8.41a4.08,4.08,0,0,1,4-.32l12.2,6.91c1.09.62,1.07,1.76,0,2.56Z"/><path class="cls-4" d="M282.64,123a4.06,4.06,0,0,1-4,.32l-12.2-6.91c-1.1-.62-1.08-1.76,0-2.56l11.8-8.41a4.08,4.08,0,0,1,4-.32l12.2,6.91c1.09.62,1.07,1.76,0,2.56Z"/><path class="cls-4" d="M263.59,136.54a4.1,4.1,0,0,1-4,.32L247.38,130c-1.09-.62-1.07-1.77,0-2.56L259.23,119a4.09,4.09,0,0,1,4-.33l12.2,6.91c1.1.62,1.08,1.77,0,2.57Z"/><path class="cls-4" d="M244.53,150.11a4.06,4.06,0,0,1-4,.32l-12.21-6.91c-1.09-.61-1.07-1.76.05-2.56l11.8-8.41a4.1,4.1,0,0,1,4-.32l12.2,6.91c1.09.62,1.07,1.77-.05,2.56Z"/><path class="cls-4" d="M225.47,163.69a4.08,4.08,0,0,1-4,.32l-12.2-6.91c-1.09-.62-1.07-1.77,0-2.56l11.81-8.41a4.06,4.06,0,0,1,4-.32l12.2,6.91c1.1.61,1.08,1.76,0,2.56Z"/><path class="cls-4" d="M262.55,111.59a4.08,4.08,0,0,1-4,.32L246.35,105c-1.09-.62-1.07-1.77,0-2.56L258.2,94a4.06,4.06,0,0,1,4-.32l12.2,6.91c1.1.61,1.08,1.76,0,2.56Z"/><path class="cls-4" d="M243.5,125.16a4.06,4.06,0,0,1-4,.32l-12.21-6.9c-1.09-.62-1.07-1.77.05-2.57l11.8-8.41a4.09,4.09,0,0,1,4-.32l12.21,6.91c1.09.62,1.07,1.77,0,2.56Z"/><path class="cls-4" d="M224.44,138.74a4.06,4.06,0,0,1-4,.32l-12.2-6.91c-1.1-.62-1.08-1.76,0-2.56l11.81-8.41a4.06,4.06,0,0,1,4-.32l12.2,6.91c1.1.62,1.07,1.76,0,2.56Z"/><path class="cls-4" d="M205.39,152.32a4.1,4.1,0,0,1-4,.32l-12.2-6.91c-1.09-.62-1.07-1.77,0-2.56l11.8-8.41a4.09,4.09,0,0,1,4-.33l12.21,6.91c1.09.62,1.07,1.77-.05,2.57Z"/><path class="cls-4" d="M242.47,100.21a4.11,4.11,0,0,1-4,.33l-12.2-6.91c-1.09-.62-1.07-1.77.05-2.57l11.8-8.41a4.09,4.09,0,0,1,4-.32l12.21,6.91c1.09.62,1.07,1.77,0,2.56Z"/><path class="cls-4" d="M223.41,113.79a4.06,4.06,0,0,1-4,.32l-12.2-6.91c-1.1-.62-1.08-1.76,0-2.56l11.8-8.41a4.08,4.08,0,0,1,4-.32l12.2,6.91c1.09.62,1.07,1.76,0,2.56Z"/><path class="cls-4" d="M204.36,127.37a4.1,4.1,0,0,1-4,.32l-12.2-6.91c-1.09-.62-1.07-1.77,0-2.56L200,109.81a4.06,4.06,0,0,1,4-.32l12.2,6.9c1.1.62,1.08,1.77,0,2.57Z"/><path class="cls-4" d="M185.3,140.94a4.06,4.06,0,0,1-4,.32l-12.21-6.9c-1.09-.62-1.07-1.77,0-2.57l11.8-8.41a4.1,4.1,0,0,1,4-.32l12.2,6.91c1.09.62,1.07,1.77-.05,2.56Z"/><path class="cls-4" d="M222.38,88.84a4.06,4.06,0,0,1-4,.32l-12.21-6.91c-1.09-.61-1.07-1.76.05-2.56L218,71.28a4.1,4.1,0,0,1,4-.32l12.2,6.91c1.09.62,1.07,1.77,0,2.56Z"/><path class="cls-4" d="M203.32,102.42a4.08,4.08,0,0,1-4,.32l-12.2-6.91c-1.09-.62-1.07-1.77,0-2.56L199,84.86a4.06,4.06,0,0,1,4-.32l12.2,6.91c1.1.61,1.08,1.76,0,2.56Z"/><path class="cls-4" d="M184.27,116a4.09,4.09,0,0,1-4,.33l-12.21-6.91c-1.09-.62-1.07-1.77.05-2.57l11.8-8.41a4.09,4.09,0,0,1,4-.32L196.12,105c1.09.62,1.07,1.77-.05,2.56Z"/><path class="cls-4" d="M165.21,129.57a4.06,4.06,0,0,1-4,.32L149,123c-1.1-.62-1.08-1.76,0-2.56L160.86,112a4.06,4.06,0,0,1,4-.32l12.2,6.91c1.09.62,1.07,1.76,0,2.56Z"/><path class="cls-4" d="M202.29,77.47a4.06,4.06,0,0,1-4,.32l-12.2-6.91c-1.1-.62-1.08-1.76,0-2.56l11.81-8.41a4.06,4.06,0,0,1,4-.32l12.2,6.91c1.09.62,1.07,1.76,0,2.56Z"/><path class="cls-4" d="M183.24,91.05a4.1,4.1,0,0,1-4,.32L167,84.46c-1.09-.62-1.07-1.77.05-2.56l11.8-8.41a4.09,4.09,0,0,1,4-.33l12.21,6.91c1.09.62,1.07,1.77-.05,2.57Z"/><path class="cls-4" d="M164.18,104.62a4.06,4.06,0,0,1-4,.32L148,98c-1.1-.61-1.08-1.76,0-2.56l11.8-8.41a4.1,4.1,0,0,1,4-.32L176,93.65c1.09.62,1.07,1.77,0,2.56Z"/><path class="cls-4" d="M145.13,118.2a4.1,4.1,0,0,1-4,.32l-12.2-6.91c-1.09-.62-1.07-1.77,0-2.56l11.81-8.41a4.06,4.06,0,0,1,4-.32l12.2,6.91c1.1.61,1.08,1.76,0,2.56Z"/><path class="cls-4" d="M126.07,131.77a4.09,4.09,0,0,1-4,.33l-12.21-6.91c-1.09-.62-1.07-1.77,0-2.57l11.8-8.41a4.1,4.1,0,0,1,4-.32l12.2,6.91c1.09.62,1.07,1.77,0,2.56Z"/><path class="cls-4" d="M162.12,54.72a4.09,4.09,0,0,1-4,.33l-12.21-6.91c-1.09-.62-1.07-1.77.05-2.57l11.8-8.41a4.09,4.09,0,0,1,4-.32L174,43.75c1.09.62,1.07,1.77-.05,2.56Z"/><path class="cls-4" d="M143.06,68.3a4.06,4.06,0,0,1-4,.32l-12.2-6.91c-1.1-.62-1.08-1.76,0-2.56l11.81-8.41a4.06,4.06,0,0,1,4-.32l12.2,6.91c1.09.62,1.07,1.76,0,2.56Z"/><path class="cls-4" d="M124,81.88a4.1,4.1,0,0,1-4,.32l-12.2-6.91c-1.09-.62-1.07-1.77,0-2.56l11.8-8.41a4.06,4.06,0,0,1,4-.32l12.21,6.9c1.09.62,1.07,1.77-.05,2.57Z"/><path class="cls-4" d="M85.9,109a4.08,4.08,0,0,1-4,.32l-12.2-6.91c-1.09-.62-1.07-1.76,0-2.56l11.81-8.41a4.06,4.06,0,0,1,4-.32l12.2,6.91c1.1.62,1.08,1.76,0,2.56Z"/><path class="cls-4" d="M182.2,66.1a4.08,4.08,0,0,1-4,.32L166,59.51c-1.09-.62-1.07-1.77,0-2.56l11.81-8.41a4.06,4.06,0,0,1,4-.32l12.2,6.9c1.1.62,1.08,1.77,0,2.57Z"/><path class="cls-4" d="M163.15,79.67a4.06,4.06,0,0,1-4,.32l-12.21-6.9c-1.09-.62-1.07-1.77.05-2.57l11.8-8.41a4.1,4.1,0,0,1,4-.32L175,68.7c1.09.62,1.07,1.77-.05,2.56Z"/><path class="cls-4" d="M144.09,93.25a4.06,4.06,0,0,1-4,.32l-12.2-6.91c-1.09-.62-1.07-1.76,0-2.56l11.81-8.41a4.06,4.06,0,0,1,4-.32l12.2,6.91c1.1.62,1.08,1.76,0,2.56Z"/><path class="cls-4" d="M125,106.83a4.09,4.09,0,0,1-4,.32l-12.21-6.91c-1.09-.62-1.07-1.77,0-2.56l11.8-8.41a4.09,4.09,0,0,1,4-.33l12.21,6.91c1.09.62,1.07,1.77,0,2.57Z"/><path class="cls-4" d="M106,120.4a4.06,4.06,0,0,1-4,.32l-12.2-6.91c-1.1-.61-1.08-1.76,0-2.56l11.81-8.41a4.08,4.08,0,0,1,4-.32l12.2,6.91c1.09.62,1.07,1.77,0,2.56Z"/><path class="cls-4" d="M142,43.35a4.06,4.06,0,0,1-4,.32l-12.21-6.91c-1.09-.61-1.07-1.76.05-2.56l11.8-8.41a4.1,4.1,0,0,1,4-.32l12.2,6.91c1.09.62,1.07,1.77,0,2.56Z"/><path class="cls-4" d="M123,56.93a4.08,4.08,0,0,1-4,.32l-12.2-6.91c-1.09-.62-1.07-1.77,0-2.56l11.81-8.41a4.06,4.06,0,0,1,4-.32L134.82,46c1.1.61,1.08,1.76,0,2.56Z"/><path class="cls-4" d="M103.92,70.5a4.09,4.09,0,0,1-4,.33L87.71,63.92c-1.09-.62-1.07-1.77.05-2.57l11.8-8.41a4.1,4.1,0,0,1,4-.32l12.2,6.91c1.09.62,1.07,1.77,0,2.56Z"/><path class="cls-4" d="M105,95.45a4.06,4.06,0,0,1-4,.32L68.66,77.49c-1.09-.62-1.07-1.76,0-2.56l11.81-8.41a4.06,4.06,0,0,1,4-.32L116.8,84.48c1.09.62,1.07,1.77,0,2.56Z"/><path class="cls-4" d="M65.81,97.66a4.09,4.09,0,0,1-4,.32L49.6,91.07c-1.09-.62-1.07-1.77,0-2.56l11.8-8.41a4.06,4.06,0,0,1,4-.32l12.21,6.9c1.09.62,1.07,1.77,0,2.57Z"/><path class="cls-4" d="M238.36,177.66,145.8,125.27a4.06,4.06,0,0,0-4,.32L130,134c-1.12.79-1.14,1.94-.05,2.56L222.5,189a4.1,4.1,0,0,0,4-.32l11.8-8.41C239.43,179.43,239.45,178.28,238.36,177.66Z"/><path class="cls-4" d="M357.85,221l-32.29-18.28a4.08,4.08,0,0,0-4,.32l-11.8,8.41c-1.12.8-1.14,1.94,0,2.56L342,232.24a4.06,4.06,0,0,0,4-.32l11.8-8.41C358.92,222.72,358.94,221.57,357.85,221Z"/></g></g></svg>