<svg xmlns="http://www.w3.org/2000/svg" viewBox="0 0 399.65 398.9"><defs><style>.cls-1{isolation:isolate;}.cls-2{fill:#322320;}.cls-3{fill:#c7bbbc;}.cls-4{fill:#ded4d1;}.cls-5{fill:#4d3c34;}.cls-6{fill:#598f66;}.cls-7{opacity:0.3;mix-blend-mode:soft-light;}.cls-8{fill:#f7ece8;}.cls-9{fill:#fff;opacity:0.1;}.cls-10{fill:#59443f;}.cls-11{fill:#3846af;}.cls-12{fill:#23308c;}.cls-13{fill:#73b537;}.cls-14{fill:#589126;}.cls-15{fill:#c72b12;}.cls-16{fill:#a61803;}.cls-17{fill:#f8a22b;}.cls-18{fill:#d48213;}</style></defs><title>Telefono</title><g class="cls-1"><g id="Capa_2" data-name="Capa 2"><g id="Ñëîé_1" data-name="Ñëîé 1"><path class="cls-2" d="M398.76,179.7a11.58,11.58,0,0,1-4.36,13L236,298.22a21.67,21.67,0,0,1-26-1.08L20.66,144c-4.25-3.43-5-9.73-2.39-14.32h0c-8.45,11.18-9.8,38.81-5.66,53.9a12.51,12.51,0,0,0,5.1,7.42l194,134.12a20.12,20.12,0,0,0,22.71,0L386.28,223.9a10.9,10.9,0,0,0,3.22-3.34C396,211.29,401.6,188.44,398.76,179.7Z"/><path class="cls-3" d="M179.29,26l-161,103.69c-4.46,5.88-4,15.36,1.62,19.87L209.21,302.69a21.65,21.65,0,0,0,26,1.07L393.63,198.2c6.05-4,7.06-11.55,5.13-18.5L205.3,27.07A21.65,21.65,0,0,0,179.29,26Z"/><path class="cls-4" d="M180.06,20.45,21.65,126c-6,4-6.57,13.49-1,18L210,297.14a21.67,21.67,0,0,0,26,1.08L394.4,192.65c6.05-4,6.57-13.48,1-18L206.07,21.53A21.65,21.65,0,0,0,180.06,20.45Z"/><path class="cls-2" d="M243.81,58.17A6.69,6.69,0,0,1,240.94,64l-72.5,48.28a7.88,7.88,0,0,1-10.77-1.79L119.35,61.26c-3.69-4.73-1.23-16.86,3.15-20.11-12.76,9.46-15.45,37.64-15.45,38.54a10.11,10.11,0,0,0,3.62,7.84l45.15,36.52a8.78,8.78,0,0,0,10.56.44L237.81,77a12.87,12.87,0,0,0,5.43-8.75A43.14,43.14,0,0,0,243.81,58.17Z"/><path class="cls-5" d="M206.45,8.08l36,46.22A6.83,6.83,0,0,1,240.94,64l-72.5,48.28a7.88,7.88,0,0,1-10.77-1.79L119.35,61.26c-4.82-6.18-3.31-15.81,3.15-20.11L179,3.51A20.07,20.07,0,0,1,206.45,8.08Z"/><polygon class="cls-6" points="149.15 88.93 222.91 39.81 209.18 22.2 135.42 71.32 149.15 88.93 149.15 88.93"/><polygon class="cls-7" points="209.18 22.2 135.42 71.32 136.64 72.88 209.18 24.58 221.69 40.63 222.91 39.81 209.18 22.2"/><path class="cls-8" d="M276.47,228c5.77,4.67,5.7,11.62-.16,15.53l-33.72,22.85c-5.86,3.91-15.29,3.29-21.07-1.38l-176-142.32c-3.17-2.57-4.58-5.82-4.23-8.88a9.3,9.3,0,0,1,4.39-6.65L79.44,84.25C85.3,80.34,94.73,81,100.5,85.63Z"/><path class="cls-3" d="M280.52,234c.84,3.49-.57,7.09-4.21,9.52l-33.72,22.85c-5.86,3.91-15.29,3.29-21.07-1.38l-176-142.32c-3.17-2.57-4.58-5.82-4.23-8.88a8.28,8.28,0,0,1,1.52-3.91c-5,6.42-6.74,16.17-3.34,25.57a7.72,7.72,0,0,0,.38,1v0h0a12,12,0,0,0,3.49,4.37l32.54,26.31a13.45,13.45,0,0,0,6.59,2.67A9.78,9.78,0,0,1,87,172l90.62,73.37a20,20,0,0,1,4.16,4.77,35.22,35.22,0,0,0,7.33,8.57l30.2,24.43c5.78,4.67,15.2,5.29,21.07,1.38l33.72-22.86a10.38,10.38,0,0,0,3.34-3.48C281.27,251.66,282.2,240.77,280.52,234Z"/><path class="cls-9" d="M221.52,265l-2.17,18.18c5.78,4.67,15.2,5.29,21.07,1.38l2.17-18.18C236.73,270.24,227.3,269.62,221.52,265Z"/><path class="cls-10" d="M304.32,114a3.59,3.59,0,0,1,1.51,3.06,3.27,3.27,0,0,1-1.55,2.4L285.9,131.66a6.64,6.64,0,0,1-7.42-.48l-8.29-6.71a3.57,3.57,0,0,1-1.5-3,3.23,3.23,0,0,1,1.55-2.43l18.38-12.25a6.68,6.68,0,0,1,7.41.5Z"/><path class="cls-2" d="M305.7,115.89h0a2.94,2.94,0,0,1,.13,1.13,3.27,3.27,0,0,1-1.55,2.4L285.9,131.66a6.64,6.64,0,0,1-7.42-.48l-8.29-6.71a3.57,3.57,0,0,1-1.5-3,3,3,0,0,1,.43-1.3h0a12.1,12.1,0,0,0-.81,8.57,4,4,0,0,0,1.37,1.92l8.29,6.71a6.64,6.64,0,0,0,7.42.48l18.38-12.25a3.56,3.56,0,0,0,1.17-1.22h0A12,12,0,0,0,305.7,115.89Z"/><path class="cls-10" d="M275.33,133.28a3.61,3.61,0,0,1,1.5,3.06,3.26,3.26,0,0,1-1.54,2.4L256.91,151a6.66,6.66,0,0,1-7.42-.49l-8.3-6.71a3.6,3.6,0,0,1-1.5-3,3.31,3.31,0,0,1,1.56-2.43l18.38-12.24a6.64,6.64,0,0,1,7.4.49Z"/><path class="cls-2" d="M276.71,135.21h0a2.86,2.86,0,0,1,.12,1.12,3.26,3.26,0,0,1-1.54,2.4L256.91,151a6.66,6.66,0,0,1-7.42-.49l-8.3-6.71a3.6,3.6,0,0,1-1.5-3,3,3,0,0,1,.44-1.3h0a12.1,12.1,0,0,0-.82,8.57,4,4,0,0,0,1.37,1.92l8.3,6.71a6.64,6.64,0,0,0,7.42.48l18.38-12.24a3.68,3.68,0,0,0,1.17-1.23h0A12,12,0,0,0,276.71,135.21Z"/><path class="cls-10" d="M246.35,152.59a3.6,3.6,0,0,1,1.51,3.06,3.27,3.27,0,0,1-1.55,2.4L227.93,170.3a6.66,6.66,0,0,1-7.42-.49l-8.29-6.71a3.57,3.57,0,0,1-1.5-3,3.26,3.26,0,0,1,1.55-2.43l18.38-12.24a6.68,6.68,0,0,1,7.41.49Z"/><path class="cls-2" d="M247.73,154.53h0a2.87,2.87,0,0,1,.13,1.12,3.27,3.27,0,0,1-1.55,2.4L227.93,170.3a6.66,6.66,0,0,1-7.42-.49l-8.29-6.71a3.57,3.57,0,0,1-1.5-3,2.86,2.86,0,0,1,.43-1.3h0a12.1,12.1,0,0,0-.82,8.57,4.06,4.06,0,0,0,1.38,1.92L220,176a6.66,6.66,0,0,0,7.42.49L245.8,164.2A3.68,3.68,0,0,0,247,163h0A11.93,11.93,0,0,0,247.73,154.53Z"/><path class="cls-10" d="M323.47,129.45a3.59,3.59,0,0,1,1.51,3.06,3.27,3.27,0,0,1-1.55,2.4l-18.38,12.25a6.66,6.66,0,0,1-7.42-.49L289.34,140a3.57,3.57,0,0,1-1.5-3,3.25,3.25,0,0,1,1.56-2.43l18.38-12.25a6.66,6.66,0,0,1,7.4.5Z"/><path class="cls-2" d="M324.86,131.38h0a2.94,2.94,0,0,1,.13,1.13,3.27,3.27,0,0,1-1.55,2.4l-18.38,12.25a6.66,6.66,0,0,1-7.42-.49L289.34,140a3.57,3.57,0,0,1-1.5-3,2.88,2.88,0,0,1,.44-1.3h0c-1.15,1.77-1.71,5.93-.82,8.57a4.08,4.08,0,0,0,1.37,1.92l8.29,6.71a6.64,6.64,0,0,0,7.42.48l18.38-12.25a3.51,3.51,0,0,0,1.18-1.22h0A12,12,0,0,0,324.86,131.38Z"/><path class="cls-10" d="M294.48,148.77a3.59,3.59,0,0,1,1.51,3.06,3.27,3.27,0,0,1-1.55,2.4l-18.38,12.25a6.66,6.66,0,0,1-7.42-.49l-8.29-6.71a3.57,3.57,0,0,1-1.5-3,3.26,3.26,0,0,1,1.55-2.43l18.38-12.24a6.64,6.64,0,0,1,7.4.49Z"/><path class="cls-2" d="M295.86,150.71h0a3.07,3.07,0,0,1,.13,1.12,3.27,3.27,0,0,1-1.55,2.4l-18.38,12.25a6.66,6.66,0,0,1-7.42-.49l-8.29-6.71a3.57,3.57,0,0,1-1.5-3,2.86,2.86,0,0,1,.43-1.3h0a12.1,12.1,0,0,0-.82,8.57,4.06,4.06,0,0,0,1.38,1.92l8.29,6.71a6.66,6.66,0,0,0,7.42.49l18.38-12.25a3.68,3.68,0,0,0,1.17-1.23h0A11.93,11.93,0,0,0,295.86,150.71Z"/><path class="cls-10" d="M265.5,168.08a3.59,3.59,0,0,1,1.51,3.06,3.27,3.27,0,0,1-1.55,2.4l-18.38,12.25a6.66,6.66,0,0,1-7.42-.49l-8.29-6.71a3.57,3.57,0,0,1-1.5-3,3.23,3.23,0,0,1,1.55-2.42l18.38-12.25a6.68,6.68,0,0,1,7.41.49Z"/><path class="cls-2" d="M266.88,170h0a2.87,2.87,0,0,1,.13,1.12,3.27,3.27,0,0,1-1.55,2.4l-18.38,12.25a6.66,6.66,0,0,1-7.42-.49l-8.29-6.71a3.57,3.57,0,0,1-1.5-3,3,3,0,0,1,.43-1.3h0a12.1,12.1,0,0,0-.81,8.57,4,4,0,0,0,1.37,1.92l8.29,6.71a6.66,6.66,0,0,0,7.42.49L265,179.69a3.65,3.65,0,0,0,1.17-1.22h0A12,12,0,0,0,266.88,170Z"/><path class="cls-10" d="M342.61,144.93a3.54,3.54,0,0,1,1.5,3,3.2,3.2,0,0,1-1.54,2.4l-18.38,12.25a6.64,6.64,0,0,1-7.42-.49l-8.3-6.7a3.63,3.63,0,0,1-1.5-3.05,3.27,3.27,0,0,1,1.56-2.42l18.38-12.25a6.66,6.66,0,0,1,7.4.5Z"/><path class="cls-2" d="M344,146.86h0a2.86,2.86,0,0,1,.12,1.12,3.2,3.2,0,0,1-1.54,2.4l-18.38,12.25a6.64,6.64,0,0,1-7.42-.49l-8.3-6.7a3.63,3.63,0,0,1-1.5-3.05,2.92,2.92,0,0,1,.44-1.29h0a12.09,12.09,0,0,0-.82,8.57,4.08,4.08,0,0,0,1.37,1.92l8.3,6.7a6.64,6.64,0,0,0,7.42.49l18.38-12.25a3.75,3.75,0,0,0,1.17-1.22h0A11.93,11.93,0,0,0,344,146.86Z"/><path class="cls-10" d="M313.61,164.25a3.59,3.59,0,0,1,1.51,3.05,3.24,3.24,0,0,1-1.55,2.4L295.19,182a6.64,6.64,0,0,1-7.42-.48l-8.29-6.71a3.58,3.58,0,0,1-1.5-3,3.25,3.25,0,0,1,1.56-2.42L297.92,157a6.66,6.66,0,0,1,7.4.5Z"/><path class="cls-2" d="M315,166.18h0a3.09,3.09,0,0,1,.12,1.12,3.24,3.24,0,0,1-1.55,2.4L295.19,182a6.64,6.64,0,0,1-7.42-.48l-8.29-6.71a3.58,3.58,0,0,1-1.5-3,2.84,2.84,0,0,1,.44-1.29h0c-1.15,1.77-1.71,5.92-.82,8.57a4.08,4.08,0,0,0,1.37,1.92l8.29,6.7a6.64,6.64,0,0,0,7.42.49l18.38-12.25a3.59,3.59,0,0,0,1.18-1.22h0A12,12,0,0,0,315,166.18Z"/><path class="cls-10" d="M284.63,183.56a3.59,3.59,0,0,1,1.51,3.06A3.22,3.22,0,0,1,284.6,189l-18.39,12.25a6.62,6.62,0,0,1-7.41-.48l-8.3-6.71a3.6,3.6,0,0,1-1.5-3,3.27,3.27,0,0,1,1.56-2.42l18.38-12.25a6.66,6.66,0,0,1,7.4.5Z"/><path class="cls-2" d="M286,185.49h0a3.12,3.12,0,0,1,.12,1.13A3.22,3.22,0,0,1,284.6,189l-18.39,12.25a6.64,6.64,0,0,1-7.42-.48l-8.29-6.71a3.6,3.6,0,0,1-1.5-3,3,3,0,0,1,.44-1.29h0a12.1,12.1,0,0,0-.82,8.57,4.08,4.08,0,0,0,1.37,1.92l8.3,6.71a6.64,6.64,0,0,0,7.41.48l18.39-12.25a3.65,3.65,0,0,0,1.17-1.22h0A12,12,0,0,0,286,185.49Z"/><path class="cls-10" d="M361.76,160.42a3.57,3.57,0,0,1,1.51,3.05,3.24,3.24,0,0,1-1.55,2.4l-18.38,12.25a6.66,6.66,0,0,1-7.42-.48l-8.29-6.71a3.58,3.58,0,0,1-1.5-3.05,3.23,3.23,0,0,1,1.55-2.42l18.38-12.25a6.68,6.68,0,0,1,7.41.5Z"/><path class="cls-2" d="M363.14,162.35h0a2.87,2.87,0,0,1,.13,1.12,3.24,3.24,0,0,1-1.55,2.4l-18.38,12.25a6.66,6.66,0,0,1-7.42-.48l-8.29-6.71a3.58,3.58,0,0,1-1.5-3.05,2.79,2.79,0,0,1,.43-1.29h0a12.09,12.09,0,0,0-.82,8.57,4.1,4.1,0,0,0,1.38,1.92l8.29,6.7a6.64,6.64,0,0,0,7.42.49L361.21,172a3.75,3.75,0,0,0,1.17-1.22h0A11.93,11.93,0,0,0,363.14,162.35Z"/><path class="cls-10" d="M332.76,179.74a3.59,3.59,0,0,1,1.51,3,3.22,3.22,0,0,1-1.54,2.4l-18.39,12.25a6.64,6.64,0,0,1-7.42-.48l-8.29-6.71a3.6,3.6,0,0,1-1.5-3.05,3.27,3.27,0,0,1,1.56-2.42l18.38-12.25a6.66,6.66,0,0,1,7.4.5Z"/><path class="cls-2" d="M334.15,181.67h0a3.09,3.09,0,0,1,.12,1.12,3.22,3.22,0,0,1-1.54,2.4l-18.39,12.25a6.64,6.64,0,0,1-7.42-.48l-8.29-6.71a3.6,3.6,0,0,1-1.5-3.05,3,3,0,0,1,.44-1.29h0c-1.15,1.77-1.71,5.92-.82,8.57a4.08,4.08,0,0,0,1.37,1.92l8.29,6.7a6.64,6.64,0,0,0,7.42.49l18.38-12.25a3.59,3.59,0,0,0,1.18-1.22h0A12,12,0,0,0,334.15,181.67Z"/><path class="cls-10" d="M303.79,199.05a3.56,3.56,0,0,1,1.5,3.06,3.2,3.2,0,0,1-1.54,2.39l-18.38,12.25a6.64,6.64,0,0,1-7.42-.48l-8.3-6.71a3.63,3.63,0,0,1-1.5-3.05,3.27,3.27,0,0,1,1.56-2.42l18.38-12.25a6.66,6.66,0,0,1,7.4.5Z"/><path class="cls-2" d="M305.17,201h0a2.88,2.88,0,0,1,.12,1.12,3.2,3.2,0,0,1-1.54,2.4l-18.38,12.25a6.64,6.64,0,0,1-7.42-.48l-8.3-6.71a3.63,3.63,0,0,1-1.5-3.05,3,3,0,0,1,.44-1.29h0a12.1,12.1,0,0,0-.82,8.57,4.15,4.15,0,0,0,1.37,1.92l8.3,6.71a6.66,6.66,0,0,0,7.42.48l18.38-12.25a3.65,3.65,0,0,0,1.17-1.22h0A11.93,11.93,0,0,0,305.17,201Z"/><path class="cls-11" d="M200,129.7a7.5,7.5,0,0,1,3.08,5.79c0,4.38-4.88,7.61-10.82,7.21a13.48,13.48,0,0,1-7.56-2.81,7.52,7.52,0,0,1-3.08-5.8c.05-4.36,4.9-7.59,10.82-7.21A13.56,13.56,0,0,1,200,129.7Z"/><path class="cls-12" d="M203,134.92a5.43,5.43,0,0,1,0,.57c0,4.38-4.88,7.61-10.82,7.21a13.48,13.48,0,0,1-7.56-2.81,7.52,7.52,0,0,1-3.08-5.8,5.94,5.94,0,0,1,.35-1.93,22.09,22.09,0,0,0-.93,8c0,.41.09.83.17,1.24a8.21,8.21,0,0,0,3,4.62,13.63,13.63,0,0,0,7.56,2.81c5,.33,9.18-1.87,10.44-5.16C203.38,140.78,203.3,137.84,203,134.92Z"/><path class="cls-13" d="M222.31,114.8a7.5,7.5,0,0,1,3.08,5.79c0,4.38-4.88,7.61-10.82,7.21A13.48,13.48,0,0,1,207,125a7.52,7.52,0,0,1-3.08-5.79c0-4.37,4.9-7.6,10.82-7.22A13.56,13.56,0,0,1,222.31,114.8Z"/><path class="cls-14" d="M225.37,120c0,.19,0,.38,0,.57,0,4.38-4.88,7.61-10.82,7.21A13.48,13.48,0,0,1,207,125a7.52,7.52,0,0,1-3.08-5.8,5.94,5.94,0,0,1,.35-1.93,18.1,18.1,0,0,0-.95,5.33,18.57,18.57,0,0,0,0,2.69c0,.41.09.83.17,1.24a8.16,8.16,0,0,0,3,4.62,13.63,13.63,0,0,0,7.56,2.81c5,.33,9.17-1.87,10.43-5.16A17.28,17.28,0,0,0,225.37,120Z"/><path class="cls-15" d="M244.67,99.9a7.5,7.5,0,0,1,3.08,5.79c0,4.38-4.88,7.61-10.82,7.21a13.48,13.48,0,0,1-7.56-2.81,7.52,7.52,0,0,1-3.08-5.8c0-4.36,4.9-7.59,10.82-7.21A13.56,13.56,0,0,1,244.67,99.9Z"/><path class="cls-16" d="M247.73,105.12c0,.19,0,.38,0,.57,0,4.38-4.88,7.61-10.82,7.21a13.48,13.48,0,0,1-7.56-2.81,7.52,7.52,0,0,1-3.08-5.8,5.94,5.94,0,0,1,.35-1.93,18.1,18.1,0,0,0-.95,5.33,18.57,18.57,0,0,0,0,2.69,10.55,10.55,0,0,0,.17,1.24,8.16,8.16,0,0,0,3,4.62,13.63,13.63,0,0,0,7.56,2.81c5,.33,9.17-1.87,10.43-5.16A17.28,17.28,0,0,0,247.73,105.12Z"/><path class="cls-17" d="M267,85a7.52,7.52,0,0,1,3.08,5.79c0,4.38-4.88,7.61-10.82,7.21a13.48,13.48,0,0,1-7.56-2.81,7.52,7.52,0,0,1-3.08-5.79c.05-4.37,4.9-7.6,10.82-7.21A13.48,13.48,0,0,1,267,85Z"/><path class="cls-18" d="M270.07,90.23a5.43,5.43,0,0,1,0,.57c0,4.38-4.88,7.61-10.82,7.21a13.48,13.48,0,0,1-7.56-2.81,7.52,7.52,0,0,1-3.08-5.79,6,6,0,0,1,.35-1.94,22.09,22.09,0,0,0-.93,8c0,.42.09.83.17,1.24a8.15,8.15,0,0,0,3,4.62,13.48,13.48,0,0,0,7.56,2.81c5,.34,9.17-1.87,10.44-5.16C270.44,96.09,270.36,93.15,270.07,90.23Z"/><path class="cls-10" d="M255.08,261.82c1.62-3.24,4.25-5,5.87-3.91l2,1.32L257.07,271l-2-1.32C253.46,268.56,253.46,265.06,255.08,261.82Z"/><path class="cls-2" d="M257.07,271c1.62,1.08,4.24-.67,5.86-3.91s1.62-6.74,0-7.82-4.24.67-5.86,3.91S255.45,269.88,257.07,271Z"/><path class="cls-10" d="M38.89,181.27c-1.62-3.24-4.25-5-5.87-3.91l-2,1.32,5.87,11.72,2-1.32C40.51,188,40.51,184.5,38.89,181.27Z"/><path class="cls-2" d="M36.91,190.4c-1.62,1.08-4.25-.67-5.87-3.91s-1.62-6.73,0-7.81,4.25.67,5.87,3.91S38.53,189.32,36.91,190.4Z"/><path class="cls-5" d="M294.17,332.48c-3.31-3.87-3.85-10.11-4.53-18-1.3-15.11-3.17-35.9-27.66-53.35-1.09-.73-2.87.45-4,2.64s-1.09,4.56,0,5.29c21.17,15.08,22.51,31.64,23.77,46.32.77,8.92,1.5,17.34,6.78,23.51,10.08,11.77,12.25,23.73,6.12,33.65-11.4,18.43-46.67,25.57-83.78,5C160.3,349.39,60.11,283.33,36.27,267.15,17.46,254.37,7.39,239.27,7.91,224.62c.49-13.48,10.57-26.36,27.89-36l.16-.08c1.09-.73,1.09-3.1,0-5.29s-2.88-3.38-4-2.65C11.82,191.78.64,207.2,0,224.24c-.66,18.17,10.79,36.2,32.24,50.76,23.9,16.23,124.39,82.48,175.21,110.7,16.63,9.24,33.05,13.2,47.57,13.2,21.11,0,38.2-8.37,46.05-21.07C309.6,364.09,307.08,347.56,294.17,332.48Z"/></g></g></g></svg>