<svg xmlns="http://www.w3.org/2000/svg" xmlns:xlink="http://www.w3.org/1999/xlink" viewBox="0 0 397.79 424.57"><defs><style>.cls-1{fill:url(#linear-gradient);}.cls-2{fill:url(#linear-gradient-2);}.cls-3{fill:url(#linear-gradient-3);}.cls-4{fill:url(#linear-gradient-4);}.cls-5{fill:gray;}.cls-6{fill:#3d393b;}.cls-7{fill:#353032;}</style><linearGradient id="linear-gradient" x1="169.79" y1="347.01" x2="201.28" y2="347.01" gradientTransform="matrix(1.74, 0.06, -0.05, 1.42, 48.33, -225.39)" gradientUnits="userSpaceOnUse"><stop offset="0" stop-color="#231f20"/><stop offset="0.35" stop-color="#656669"/><stop offset="1" stop-color="#231f20"/></linearGradient><linearGradient id="linear-gradient-2" x1="168.15" y1="347.01" x2="199.65" y2="347.01" gradientTransform="matrix(1.74, 0.06, -0.05, 1.42, 48.33, -225.39)" gradientUnits="userSpaceOnUse"><stop offset="0" stop-color="#231f20"/><stop offset="0.35" stop-color="#19191a"/><stop offset="1" stop-color="#231f20"/></linearGradient><linearGradient id="linear-gradient-3" x1="7.23" y1="441.7" x2="38.73" y2="441.7" xlink:href="#linear-gradient"/><linearGradient id="linear-gradient-4" x1="5.6" y1="441.7" x2="37.09" y2="441.7" xlink:href="#linear-gradient-2"/></defs><title>Televisor - Smart TV</title><g id="Capa_2" data-name="Capa 2"><g id="Ñëîé_1" data-name="Ñëîé 1"><path class="cls-1" d="M372,282c-5.26-5.73-11.49-10.36-14.27-11.79a4.24,4.24,0,0,1-2.4-3.5l.23-3.25-5.28-2.69-.27,6.18a1.59,1.59,0,0,1-1.86,1.5,32.23,32.23,0,0,0-9.7,1.2c-7.69,2.05-10.76,6.4-10.76,6.4s-.39.84.93,1.23a6.63,6.63,0,0,0,3.37.15s9.7-7.9,19.61-5.05c15.35,4.42,23.61,24.1,23.61,24.1s-.57.74,2,1.59a9.07,9.07,0,0,0,4.53.49A51.14,51.14,0,0,0,372,282Z"/><path class="cls-2" d="M369.16,281.87c-5.27-5.73-11.5-10.36-14.28-11.79a4.24,4.24,0,0,1-2.4-3.5l.23-3.25-5.28-2.69-.26,6.18a1.6,1.6,0,0,1-1.87,1.5,32.23,32.23,0,0,0-9.7,1.2c-7.69,2.05-10.76,6.4-10.76,6.4s-.39.84.93,1.23a6.63,6.63,0,0,0,3.37.15s9.7-7.9,19.61-5.05c15.35,4.42,23.61,24.1,23.61,24.1s-.57.74,2,1.59a9.07,9.07,0,0,0,4.53.49A51.23,51.23,0,0,0,369.16,281.87Z"/><path class="cls-3" d="M85.31,407.91c-5.26-5.73-11.5-10.36-14.28-11.79a4.24,4.24,0,0,1-2.4-3.5l.23-3.26-5.28-2.68-.26,6.18a1.59,1.59,0,0,1-1.86,1.5,32.26,32.26,0,0,0-9.71,1.2C44.06,397.61,41,402,41,402s-.39.84.93,1.23a6.63,6.63,0,0,0,3.37.15s9.7-7.9,19.61-5c15.35,4.42,23.61,24.1,23.61,24.1s-.57.74,2,1.59a9.07,9.07,0,0,0,4.53.49A51.23,51.23,0,0,0,85.31,407.91Z"/><path class="cls-4" d="M82.47,407.82C77.21,402.09,71,397.46,68.19,396a4.24,4.24,0,0,1-2.4-3.5l.23-3.26-5.28-2.68-.26,6.18a1.59,1.59,0,0,1-1.86,1.5,32.26,32.26,0,0,0-9.71,1.2c-7.68,2-10.76,6.4-10.76,6.4s-.39.84.93,1.23a6.63,6.63,0,0,0,3.37.15s9.7-7.9,19.61-5.05c15.35,4.42,23.61,24.1,23.61,24.1s-.57.74,2,1.59a9.07,9.07,0,0,0,4.53.49A51.23,51.23,0,0,0,82.47,407.82Z"/><polygon class="cls-5" points="21.86 170.83 397.79 7.2 390.07 250.07 14.13 413.7 21.86 170.83"/><polygon class="cls-6" points="390.35 17.09 91.69 147.09 383.73 225.4 390.35 17.09"/><polygon class="cls-7" points="91.69 147.09 28.87 174.43 21.58 403.81 383.06 246.47 383.73 225.4 91.69 147.09"/><polygon class="cls-5" points="21.86 170.83 7.83 163.63 383.76 0 397.79 7.2 21.86 170.83"/><polygon class="cls-5" points="14.13 413.7 0 406.45 7.83 163.63 21.86 170.83 14.13 413.7"/></g></g></svg>