<?xml version="1.0" encoding="iso-8859-1"?>
<!-- Generator: Adobe Illustrator 19.0.0, SVG Export Plug-In . SVG Version: 6.00 Build 0)  -->
<svg version="1.1" id="Capa_1" xmlns="http://www.w3.org/2000/svg" xmlns:xlink="http://www.w3.org/1999/xlink" x="0px" y="0px"
	 viewBox="0 0 511.998 511.998" style="enable-background:new 0 0 511.998 511.998;" xml:space="preserve">
<ellipse style="fill:#C0E5FF;" cx="255.999" cy="466.48" rx="145.89" ry="45.518"/>
<path style="fill:#60C28E;" d="M237.828,457.132c9.558,11.144,26.783,11.144,36.341,0
	c86.342-100.666,150.909-192.114,150.909-288.053C425.078,75.699,349.379,0,255.999,0S86.92,75.699,86.92,169.079
	C86.92,265.018,151.486,356.466,237.828,457.132z"/>
<path style="fill:#59B382;" d="M176.211,19.982c-53.145,28.5-89.292,84.574-89.292,149.097c0,95.939,64.566,187.386,150.909,288.053
	c9.558,11.144,26.783,11.144,36.341,0c8.225-9.59,16.25-19.095,24.043-28.529C223.699,394.492,95.143,143.873,176.211,19.982z"/>
<path style="fill:#E0F7FF;" d="M255.999,0C162.619,0,86.92,75.699,86.92,169.079c0,45.952,14.82,90.875,39.743,136.273
	c85.86-13.547,166.885,39.696,254.556,7.345c27.401-47.904,43.86-95.188,43.86-143.617C425.078,75.699,349.379,0,255.999,0z"/>
<path style="fill:#BDECFF;" d="M176.211,19.982c-53.144,28.499-89.292,84.574-89.292,149.097c0,45.952,14.82,90.875,39.743,136.273
	c24.826-3.917,49.247-2.246,73.542,1.321C154.578,215.11,127.4,94.576,176.211,19.982z"/>
<g>
	<path style="fill:#60C28E;" d="M332.172,216.889l-39.666-68.616c-4.973-8.614-2.022-19.628,6.592-24.601
		c8.613-4.974,19.628-2.022,24.601,6.592l37.497,65.023c4.973,8.614,1.47,18.597-7.143,23.57
		C351.217,220.494,335.508,222.667,332.172,216.889z"/>
	<path style="fill:#60C28E;" d="M254.99,79.612l-39.59,68.66c-4.973,8.614-15.987,11.565-24.601,6.592
		c-8.614-4.972-11.565-15.987-6.592-24.601l37.563-64.985c4.973-8.614,15.37-10.572,23.984-5.599
		C248.589,61.317,258.326,73.835,254.99,79.612z"/>
</g>
<path style="fill:#59B382;" d="M247.647,92.347l7.343-12.735c3.336-5.778-6.4-18.296-9.236-19.933
	c-8.614-4.973-19.011-3.015-23.984,5.599l-19.978,34.563C218.971,86.952,239.94,88.732,247.647,92.347z"/>
<path style="fill:#80D3AE;" d="M221.769,65.278c13.4-0.335,26.56,6.479,33.734,18.905c0.007,0.011,0.012,0.023,0.018,0.034
	c0.013,0.022,0.027,0.046,0.038,0.064l11.556,20.016c0.831,1.44,0.338,3.282-1.102,4.113l-3.873,2.236
	c-5.296,3.058-4.774,10.864,0.882,13.189l38.596,15.867c4.464,1.835,9.456-1.048,10.099-5.831l5.557-41.359
	c0.814-6.061-5.685-10.416-10.981-7.359l-3.873,2.236c-1.44,0.832-3.282,0.338-4.113-1.102L287.04,66.771
	c-6.771-11.728-19.152-19.301-32.694-19.436C240.889,47.202,228.786,53.916,221.769,65.278z"/>
<path style="fill:#60C28E;" d="M174.696,215.092l79.257-0.044c9.946,0,18.009,8.063,18.009,18.009
	c0.001,9.946-8.062,18.009-18.009,18.009l-75.06-0.038c-9.946,0-16.841-8.025-16.84-17.971
	C162.052,229.783,168.024,215.092,174.696,215.092z"/>
<g>
	<path style="fill:#59B382;" d="M189.396,215.084l-14.7,0.008c-6.672,0-12.644,14.691-12.644,17.965
		c0,9.946,6.894,17.971,16.84,17.971l39.922,0.02C199.061,242.616,190.119,223.566,189.396,215.084z"/>
	<path style="fill:#59B382;" d="M324.815,204.162l7.357,12.727c3.336,5.778,19.045,3.605,21.881,1.967
		c8.614-4.973,12.117-14.956,7.143-23.57l-19.944-34.584C343.826,182.026,331.799,199.295,324.815,204.162z"/>
</g>
<g>
	<path style="fill:#80D3AE;" d="M361.196,195.286c-6.41,11.772-18.891,19.762-33.239,19.762c-0.013,0-0.026-0.001-0.038-0.001
		c-0.025,0-0.053,0.001-0.074,0.001h-23.113c-1.663,0-3.011-1.348-3.011-3.011v-4.472c0-6.115-7.022-9.566-11.863-5.831
		l-33.039,25.492c-3.821,2.948-3.821,8.713,0,11.661l33.039,25.492c4.841,3.736,11.863,0.284,11.863-5.831v-4.472
		c0-1.663,1.348-3.011,3.011-3.011h22.535c13.543,0,26.291-6.936,33.179-18.596C367.291,220.882,367.527,207.044,361.196,195.286z"
		/>
	<path style="fill:#80D3AE;" d="M178.892,251.029c-6.99-11.437-7.669-26.241-0.495-38.667c0.006-0.011,0.014-0.022,0.02-0.033
		c0.012-0.022,0.026-0.047,0.036-0.065l11.556-20.016c0.831-1.44,2.673-1.934,4.113-1.102l3.873,2.236
		c5.296,3.058,11.796-1.298,10.981-7.359l-5.557-41.359c-0.643-4.783-5.635-7.666-10.099-5.831L154.724,154.7
		c-5.656,2.325-6.178,10.132-0.882,13.189l3.873,2.236c1.44,0.831,1.934,2.673,1.102,4.113l-11.267,19.516
		c-6.771,11.728-7.139,26.237-0.485,38.032C153.678,243.509,165.544,250.633,178.892,251.029z"/>
</g>
<g>
</g>
<g>
</g>
<g>
</g>
<g>
</g>
<g>
</g>
<g>
</g>
<g>
</g>
<g>
</g>
<g>
</g>
<g>
</g>
<g>
</g>
<g>
</g>
<g>
</g>
<g>
</g>
<g>
</g>
</svg>
