<svg xmlns="http://www.w3.org/2000/svg" xmlns:xlink="http://www.w3.org/1999/xlink" viewBox="0 0 674.65 508.24"><defs><style>.cls-1,.cls-3{mask:url(#mask);}.cls-1{filter:url(#luminosity-noclip-4);}.cls-2,.cls-4,.cls-6{mix-blend-mode:multiply;}.cls-2{fill:url(#radial-gradient);}.cls-4{fill:url(#radial-gradient-2);}.cls-5{mask:url(#mask-3);filter:url(#luminosity-noclip-6);}.cls-6{fill:url(#radial-gradient-3);}.cls-7{fill:#464646;}.cls-8{fill:#0c0c0c;}.cls-9{fill:#1a1a1a;}.cls-10{fill:#6d6d6d;}.cls-11{fill:#393939;}.cls-12{fill:#ff0;}.cls-13{fill:#fff;}.cls-14{fill:#d6dfe3;}.cls-15{fill:#a1a8aa;}.cls-16{fill:#606566;}.cls-17{fill:#777;}.cls-18{fill:#2c2c2c;}.cls-19{fill:#3c3c3c;}.cls-20{mask:url(#mask-4);}.cls-21{fill:url(#radial-gradient-4);}.cls-22{fill:url(#radial-gradient-5);}.cls-23{fill:url(#radial-gradient-6);}.cls-24{fill:#b1b9bc;}.cls-25{mask:url(#mask-6);}.cls-26{fill:url(#radial-gradient-7);}.cls-27{fill:#6b6b6b;}.cls-28{fill:#dde7eb;}.cls-29{fill:#3c3f40;}.cls-30{filter:url(#luminosity-noclip-3);}.cls-31{filter:url(#luminosity-noclip);}</style><filter id="luminosity-noclip" x="0" y="-8223.24" width="674.65" height="32766" filterUnits="userSpaceOnUse" color-interpolation-filters="sRGB"><feFlood flood-color="#fff" result="bg"/><feBlend in="SourceGraphic" in2="bg"/></filter><mask id="mask" x="0" y="-8223.24" width="674.65" height="32766" maskUnits="userSpaceOnUse"><g class="cls-31"/></mask><radialGradient id="radial-gradient" cx="-14520.41" cy="-3808.63" r="155.04" gradientTransform="matrix(2.26, 0, 0, -1.31, 33150.55, -4972.95)" gradientUnits="userSpaceOnUse"><stop offset="0" stop-color="#fff"/><stop offset="1"/></radialGradient><radialGradient id="radial-gradient-2" cx="-14393.45" cy="-3984.38" r="155.04" gradientTransform="matrix(2.18, 0, 0, -1.26, 31912.27, -4783.31)" xlink:href="#radial-gradient"/><filter id="luminosity-noclip-3" x="81.84" y="-8223.24" width="468.21" height="32766" filterUnits="userSpaceOnUse" color-interpolation-filters="sRGB"><feFlood flood-color="#fff" result="bg"/><feBlend in="SourceGraphic" in2="bg"/></filter><mask id="mask-3" x="81.84" y="-8223.24" width="468.21" height="32766" maskUnits="userSpaceOnUse"><g class="cls-30"/></mask><radialGradient id="radial-gradient-3" cx="-14430.27" cy="-3986.64" r="107.6" gradientTransform="matrix(4.06, 0, 0, -2.34, 59034.71, -9091.58)" xlink:href="#radial-gradient"/><filter id="luminosity-noclip-4" x="0" y="0" width="674.65" height="389.29" filterUnits="userSpaceOnUse" color-interpolation-filters="sRGB"><feFlood flood-color="#fff" result="bg"/><feBlend in="SourceGraphic" in2="bg"/></filter><mask id="mask-4" x="0" y="0" width="674.65" height="389.29" maskUnits="userSpaceOnUse"><g class="cls-1"><path id="path77672" class="cls-2" d="M0,200.05,346.7,0l328,189.24L328,389.29Z"/></g></mask><radialGradient id="radial-gradient-4" cx="-14520.41" cy="-3808.63" r="155.04" gradientTransform="matrix(2.26, 0, 0, -1.31, 33150.55, -4972.95)" gradientUnits="userSpaceOnUse"><stop offset="0" stop-color="#ebf5f9"/><stop offset="1" stop-color="#d6dfe3"/></radialGradient><radialGradient id="radial-gradient-5" cx="-14578.54" cy="-4054.92" r="155.04" gradientTransform="matrix(2.18, 0, 0, -1.26, 31912.27, -4783.31)" xlink:href="#radial-gradient-4"/><radialGradient id="radial-gradient-6" cx="-14393.45" cy="-3984.38" r="155.04" gradientTransform="matrix(2.18, 0, 0, -1.26, 31912.27, -4783.31)" xlink:href="#radial-gradient-4"/><filter id="luminosity-noclip-6" x="81.84" y="71.68" width="468.21" height="270.17" filterUnits="userSpaceOnUse" color-interpolation-filters="sRGB"><feFlood flood-color="#fff" result="bg"/><feBlend in="SourceGraphic" in2="bg"/></filter><mask id="mask-6" x="81.84" y="71.68" width="468.21" height="270.17" maskUnits="userSpaceOnUse"><g class="cls-5"><path id="path77682" class="cls-6" d="M88.29,204.28l232,133.85c8.59,5,25.78,5,34.37,0l189-109.06c8.59-5,8.59-14.87,0-19.83L311.65,75.4c-8.59-5-25.77-5-34.36,0l-189,109.06C79.7,189.41,79.7,199.33,88.29,204.28Z"/></g></mask><radialGradient id="radial-gradient-7" cx="-14430.27" cy="-3986.64" r="107.6" gradientTransform="matrix(4.06, 0, 0, -2.34, 59034.71, -9091.58)" gradientUnits="userSpaceOnUse"><stop offset="0" stop-color="#e7f0f5"/><stop offset="1" stop-color="#e7f0f5"/></radialGradient></defs><title>Unidad de CD_1</title><g id="Capa_2" data-name="Capa 2"><g id="Ñëîé_1" data-name="Ñëîé 1"><g id="g3096"><path id="path9713" class="cls-7" d="M0,200.05,328,389.29v119L0,319Z"/><g id="g9715"><path id="path9717" class="cls-8" d="M272.88,443.81c-2.74-1.59-5.3-.63-5.3,2.57v4.29c0,3.2,2.56,7.1,5.3,8.68l22.44,12.95c2.75,1.59,5.21.35,5.21-2.62v-4.29c0-3-2.46-7.05-5.21-8.63Z"/><path id="rect9719" class="cls-7" d="M272.63,447.44l22.89,13.21a3.41,3.41,0,0,1,1.49,2.7v4.26c0,1-.67,1.47-1.49,1l-22.89-13.21a3.41,3.41,0,0,1-1.49-2.7v-4.26C271.14,447.41,271.81,447,272.63,447.44Z"/><path id="path9721" class="cls-9" d="M284.06,437.71l3.76,8.06-7.52-4.34Z"/><path id="path9723" class="cls-9" d="M280.3,442.22l7.52,4.34v2.29l-7.52-4.34Z"/><path id="path9725" class="cls-10" d="M248.72,439.91c0,4-3,5.49-6.68,3.36s-6.69-7.09-6.69-11.07,3-5.49,6.69-3.36S248.72,435.93,248.72,439.91Z"/><path id="path9727" class="cls-11" d="M246.41,438.58c0,2.6-2,3.59-4.37,2.2a9.37,9.37,0,0,1-4.38-7.25c0-2.6,2-3.59,4.38-2.2A9.39,9.39,0,0,1,246.41,438.58Z"/><path id="path9729" class="cls-12" d="M245.6,438.11c0,2.12-1.6,2.92-3.56,1.79a7.64,7.64,0,0,1-3.57-5.9c0-2.12,1.6-2.92,3.57-1.79A7.64,7.64,0,0,1,245.6,438.11Z"/><path id="path9731" class="cls-13" d="M241.22,434.64c0,.45-.33.62-.75.38a1.63,1.63,0,0,1-.75-1.24c0-.45.34-.62.75-.38A1.58,1.58,0,0,1,241.22,434.64Z"/></g><path id="path9735" class="cls-9" d="M16.7,225.79c-2.38-1.37-4.16-.22-4.16,2.18v39.58a9,9,0,0,0,4.16,7L312.46,445.19c2.38,1.37,4.15.21,4.15-2.18V403.43a9,9,0,0,0-4.15-7Z"/><path id="rect9737" class="cls-7" d="M16.61,228.43,312.55,399.2a3.53,3.53,0,0,1,1.6,2.77V441.6c0,1-.72,1.43-1.6.92L16.61,271.76A3.52,3.52,0,0,1,15,269V229.36C15,228.34,15.72,227.92,16.61,228.43Z"/><path id="path9739" class="cls-9" d="M54.06,302.34c0,1.37-1,1.89-2.29,1.15a4.9,4.9,0,0,1-2.3-3.8c0-1.37,1-1.89,2.3-1.15A4.89,4.89,0,0,1,54.06,302.34Z"/><path id="path13614" class="cls-14" d="M0,200.05,346.7,0l328,189.24L328,389.29Z"/><path id="path13616" class="cls-15" d="M674.65,308.19V189.24L328,389.29v119Z"/><path id="path13620" class="cls-16" d="M451.94,436.74,444,433.2l-15.85,9.14L420.25,455Z"/><path id="path13622" class="cls-8" d="M590.32,344.55l-31.68,18.28v12.3l31.68-18.28Z"/><path id="path13634" class="cls-7" d="M584,352.86l-19,10.95v7.63l19-10.95Z"/><path id="path13636" class="cls-17" d="M0,200.05l9.37-5.4,328,189.24-9.37,5.4Z"/><path id="path14406" class="cls-18" d="M328,389.29l9.37-5.4v119l-9.37,5.4Z"/><path id="path13632" class="cls-19" d="M345.44,441.19,337.33,438v31.66l8.11-12.6Z"/><g class="cls-20"><path id="path77672-2" data-name="path77672" class="cls-21" d="M0,200.05,346.7,0l328,189.24L328,389.29Z"/></g><path id="path77692" class="cls-22" d="M0,200.05,346.7,0l328,189.24L328,389.29Z"/><g class="cls-20"><path id="path77696-2" data-name="path77696" class="cls-23" d="M0,200.05,346.7,0l328,189.24L328,389.29Z"/></g><path id="path14410" class="cls-24" d="M329.16,49.84c-5.13-3-10.25-5.92-15.38-3s0,5.92,5.13,8.88l251.33,145c5.13,3,10.87,6.14,15.39,3s0-5.92-5.13-8.88Z"/><path id="path25905" class="cls-24" d="M354,35.07c-5.13-3-10.26-5.92-15.39-3s0,5.92,5.13,8.88L595.1,186c5.13,3,10.87,6.14,15.39,3s0-5.92-5.13-8.88Z"/><path id="path14416" class="cls-24" d="M71.1,204.28,320.24,348.05c8.59,4.95,25.78,4.95,34.37,0l206.18-119c8.59-5,8.59-14.87,0-19.83L311.65,65.48c-8.59-5-25.77-5-34.36,0L71.1,184.46C62.51,189.41,62.51,199.33,71.1,204.28Z"/><path id="path14412" class="cls-14" d="M88.29,204.28l232,133.85c8.59,5,25.78,5,34.37,0l189-109.06c8.59-5,8.59-14.87,0-19.83L311.65,75.4c-8.59-5-25.77-5-34.36,0l-189,109.06C79.7,189.41,79.7,199.33,88.29,204.28Z"/><g class="cls-25"><path id="path77682-2" data-name="path77682" class="cls-26" d="M88.29,204.28l232,133.85c8.59,5,25.78,5,34.37,0l189-109.06c8.59-5,8.59-14.87,0-19.83L311.65,75.4c-8.59-5-25.77-5-34.36,0l-189,109.06C79.7,189.41,79.7,199.33,88.29,204.28Z"/></g><path id="path27728" class="cls-27" d="M0,200.05,328,389.29l8.86-5.11L8.86,194.94Z"/><g id="g27846"><path id="path27834" class="cls-28" d="M400.6,404c0,3.37-2.73,7.68-6.1,9.62s-6.1.79-6.1-2.58,2.73-7.67,6.1-9.62S400.6,400.64,400.6,404Z"/><path id="path27836" class="cls-29" d="M396.44,400.75a6.83,6.83,0,0,0-2,.66c-3.37,1.95-6,6.27-6,9.64a5.45,5.45,0,0,0,0,1,6.41,6.41,0,0,0,2-.66c3.37-1.95,6.15-6.27,6.15-9.64a4.35,4.35,0,0,0-.18-1Z"/></g><g id="g27842"><path id="path27838" class="cls-28" d="M400.6,439.41c0,3.36-2.73,7.67-6.1,9.62s-6.1.79-6.1-2.58,2.73-7.68,6.1-9.62S400.6,436,400.6,439.41Z"/><path id="path27840" class="cls-29" d="M396.44,436.14a7.18,7.18,0,0,0-2,.67c-3.37,1.94-6,6.26-6,9.63a5.56,5.56,0,0,0,0,1,6.41,6.41,0,0,0,2-.66c3.37-1.95,6.15-6.27,6.15-9.64a5.09,5.09,0,0,0-.17-1Z"/></g><g id="g27850"><path id="path27852" class="cls-28" d="M573.77,304.4c0,3.36-2.73,7.67-6.1,9.62s-6.11.79-6.11-2.58,2.74-7.68,6.11-9.62S573.77,301,573.77,304.4Z"/><path id="path27854" class="cls-29" d="M569.61,301.13a7.08,7.08,0,0,0-2,.67c-3.37,1.94-6,6.26-6,9.63a4.77,4.77,0,0,0,0,1,6.45,6.45,0,0,0,2-.67c3.36-1.94,6.15-6.27,6.15-9.63a4.34,4.34,0,0,0-.18-1Z"/></g><g id="g27856"><path id="path27858" class="cls-28" d="M573.77,339.79c0,3.37-2.73,7.68-6.11,9.62s-6.1.79-6.1-2.58,2.73-7.67,6.1-9.62S573.77,336.42,573.77,339.79Z"/><path id="path27860" class="cls-29" d="M569.61,336.53a6.88,6.88,0,0,0-2,.66c-3.37,1.95-6,6.27-6,9.64a4.67,4.67,0,0,0,0,1,6,6,0,0,0,2-.66c3.37-2,6.15-6.27,6.15-9.64a4.35,4.35,0,0,0-.17-1Z"/></g></g></g></g></svg>